G04 #@! TF.GenerationSoftware,KiCad,Pcbnew,(5.1.4-0)*
G04 #@! TF.CreationDate,2021-02-07T23:00:27-05:00*
G04 #@! TF.ProjectId,mxnatee_bot_plate,6d786e61-7465-4655-9f62-6f745f706c61,rev?*
G04 #@! TF.SameCoordinates,Original*
G04 #@! TF.FileFunction,Soldermask,Bot*
G04 #@! TF.FilePolarity,Negative*
%FSLAX46Y46*%
G04 Gerber Fmt 4.6, Leading zero omitted, Abs format (unit mm)*
G04 Created by KiCad (PCBNEW (5.1.4-0)) date 2021-02-07 23:00:27*
%MOMM*%
%LPD*%
G04 APERTURE LIST*
%ADD10C,0.100000*%
G04 APERTURE END LIST*
D10*
G36*
X130121865Y-142367855D02*
G01*
X130722608Y-142616691D01*
X130722610Y-142616692D01*
X131263265Y-142977946D01*
X131723054Y-143437735D01*
X132084308Y-143978390D01*
X132084309Y-143978392D01*
X132333145Y-144579135D01*
X132460000Y-145216879D01*
X132460000Y-145867121D01*
X132333145Y-146504865D01*
X132084309Y-147105608D01*
X132084308Y-147105610D01*
X131723054Y-147646265D01*
X131263265Y-148106054D01*
X130722610Y-148467308D01*
X130722609Y-148467309D01*
X130722608Y-148467309D01*
X130121865Y-148716145D01*
X129484121Y-148843000D01*
X128833879Y-148843000D01*
X128196135Y-148716145D01*
X127595392Y-148467309D01*
X127595391Y-148467309D01*
X127595390Y-148467308D01*
X127054735Y-148106054D01*
X126594946Y-147646265D01*
X126233692Y-147105610D01*
X126233691Y-147105608D01*
X125984855Y-146504865D01*
X125858000Y-145867121D01*
X125858000Y-145216879D01*
X125984855Y-144579135D01*
X126233691Y-143978392D01*
X126233692Y-143978390D01*
X126594946Y-143437735D01*
X127054735Y-142977946D01*
X127595390Y-142616692D01*
X127595392Y-142616691D01*
X128196135Y-142367855D01*
X128833879Y-142241000D01*
X129484121Y-142241000D01*
X130121865Y-142367855D01*
X130121865Y-142367855D01*
G37*
G36*
X71701865Y-102997855D02*
G01*
X72302608Y-103246691D01*
X72302610Y-103246692D01*
X72843265Y-103607946D01*
X73303054Y-104067735D01*
X73664308Y-104608390D01*
X73664309Y-104608392D01*
X73913145Y-105209135D01*
X74040000Y-105846879D01*
X74040000Y-106497121D01*
X73913145Y-107134865D01*
X73664309Y-107735608D01*
X73664308Y-107735610D01*
X73303054Y-108276265D01*
X72843265Y-108736054D01*
X72302610Y-109097308D01*
X72302609Y-109097309D01*
X72302608Y-109097309D01*
X71701865Y-109346145D01*
X71064121Y-109473000D01*
X70413879Y-109473000D01*
X69776135Y-109346145D01*
X69175392Y-109097309D01*
X69175391Y-109097309D01*
X69175390Y-109097308D01*
X68634735Y-108736054D01*
X68174946Y-108276265D01*
X67813692Y-107735610D01*
X67813691Y-107735608D01*
X67564855Y-107134865D01*
X67438000Y-106497121D01*
X67438000Y-105846879D01*
X67564855Y-105209135D01*
X67813691Y-104608392D01*
X67813692Y-104608390D01*
X68174946Y-104067735D01*
X68634735Y-103607946D01*
X69175390Y-103246692D01*
X69175392Y-103246691D01*
X69776135Y-102997855D01*
X70413879Y-102871000D01*
X71064121Y-102871000D01*
X71701865Y-102997855D01*
X71701865Y-102997855D01*
G37*
G36*
X123771865Y-95250855D02*
G01*
X124372608Y-95499691D01*
X124372610Y-95499692D01*
X124913265Y-95860946D01*
X125373054Y-96320735D01*
X125734308Y-96861390D01*
X125734309Y-96861392D01*
X125983145Y-97462135D01*
X126110000Y-98099879D01*
X126110000Y-98750121D01*
X125983145Y-99387865D01*
X125734309Y-99988608D01*
X125734308Y-99988610D01*
X125373054Y-100529265D01*
X124913265Y-100989054D01*
X124372610Y-101350308D01*
X124372609Y-101350309D01*
X124372608Y-101350309D01*
X123771865Y-101599145D01*
X123134121Y-101726000D01*
X122483879Y-101726000D01*
X121846135Y-101599145D01*
X121245392Y-101350309D01*
X121245391Y-101350309D01*
X121245390Y-101350308D01*
X120704735Y-100989054D01*
X120244946Y-100529265D01*
X119883692Y-99988610D01*
X119883691Y-99988608D01*
X119634855Y-99387865D01*
X119508000Y-98750121D01*
X119508000Y-98099879D01*
X119634855Y-97462135D01*
X119883691Y-96861392D01*
X119883692Y-96861390D01*
X120244946Y-96320735D01*
X120704735Y-95860946D01*
X121245390Y-95499692D01*
X121245392Y-95499691D01*
X121846135Y-95250855D01*
X122483879Y-95124000D01*
X123134121Y-95124000D01*
X123771865Y-95250855D01*
X123771865Y-95250855D01*
G37*
G36*
X45031865Y-87884855D02*
G01*
X45632608Y-88133691D01*
X45632610Y-88133692D01*
X46173265Y-88494946D01*
X46633054Y-88954735D01*
X46994308Y-89495390D01*
X46994309Y-89495392D01*
X47243145Y-90096135D01*
X47370000Y-90733879D01*
X47370000Y-91384121D01*
X47243145Y-92021865D01*
X46994309Y-92622608D01*
X46994308Y-92622610D01*
X46633054Y-93163265D01*
X46173265Y-93623054D01*
X45632610Y-93984308D01*
X45632609Y-93984309D01*
X45632608Y-93984309D01*
X45031865Y-94233145D01*
X44394121Y-94360000D01*
X43743879Y-94360000D01*
X43106135Y-94233145D01*
X42505392Y-93984309D01*
X42505391Y-93984309D01*
X42505390Y-93984308D01*
X41964735Y-93623054D01*
X41504946Y-93163265D01*
X41143692Y-92622610D01*
X41143691Y-92622608D01*
X40894855Y-92021865D01*
X40768000Y-91384121D01*
X40768000Y-90733879D01*
X40894855Y-90096135D01*
X41143691Y-89495392D01*
X41143692Y-89495390D01*
X41504946Y-88954735D01*
X41964735Y-88494946D01*
X42505390Y-88133692D01*
X42505392Y-88133691D01*
X43106135Y-87884855D01*
X43743879Y-87758000D01*
X44394121Y-87758000D01*
X45031865Y-87884855D01*
X45031865Y-87884855D01*
G37*
G36*
X104721865Y-31877855D02*
G01*
X105322608Y-32126691D01*
X105322610Y-32126692D01*
X105863265Y-32487946D01*
X106323054Y-32947735D01*
X106684308Y-33488390D01*
X106684309Y-33488392D01*
X106933145Y-34089135D01*
X107060000Y-34726879D01*
X107060000Y-35377121D01*
X106933145Y-36014865D01*
X106736914Y-36488608D01*
X106684308Y-36615610D01*
X106323054Y-37156265D01*
X105863265Y-37616054D01*
X105322610Y-37977308D01*
X105322609Y-37977309D01*
X105322608Y-37977309D01*
X104721865Y-38226145D01*
X104084121Y-38353000D01*
X103433879Y-38353000D01*
X102796135Y-38226145D01*
X102195392Y-37977309D01*
X102195391Y-37977309D01*
X102195390Y-37977308D01*
X101654735Y-37616054D01*
X101194946Y-37156265D01*
X100833692Y-36615610D01*
X100781086Y-36488608D01*
X100584855Y-36014865D01*
X100458000Y-35377121D01*
X100458000Y-34726879D01*
X100584855Y-34089135D01*
X100833691Y-33488392D01*
X100833692Y-33488390D01*
X101194946Y-32947735D01*
X101654735Y-32487946D01*
X102195390Y-32126692D01*
X102195392Y-32126691D01*
X102796135Y-31877855D01*
X103433879Y-31751000D01*
X104084121Y-31751000D01*
X104721865Y-31877855D01*
X104721865Y-31877855D01*
G37*
G36*
X28521865Y-31750855D02*
G01*
X28828472Y-31877856D01*
X29122610Y-31999692D01*
X29663265Y-32360946D01*
X30123054Y-32820735D01*
X30207913Y-32947736D01*
X30484309Y-33361392D01*
X30733145Y-33962135D01*
X30860000Y-34599879D01*
X30860000Y-35250121D01*
X30733145Y-35887865D01*
X30680539Y-36014866D01*
X30484308Y-36488610D01*
X30123054Y-37029265D01*
X29663265Y-37489054D01*
X29122610Y-37850308D01*
X29122609Y-37850309D01*
X29122608Y-37850309D01*
X28521865Y-38099145D01*
X27884121Y-38226000D01*
X27233879Y-38226000D01*
X26596135Y-38099145D01*
X25995392Y-37850309D01*
X25995391Y-37850309D01*
X25995390Y-37850308D01*
X25454735Y-37489054D01*
X24994946Y-37029265D01*
X24633692Y-36488610D01*
X24437461Y-36014866D01*
X24384855Y-35887865D01*
X24258000Y-35250121D01*
X24258000Y-34599879D01*
X24384855Y-33962135D01*
X24633691Y-33361392D01*
X24910087Y-32947736D01*
X24994946Y-32820735D01*
X25454735Y-32360946D01*
X25995390Y-31999692D01*
X26289528Y-31877856D01*
X26596135Y-31750855D01*
X27233879Y-31624000D01*
X27884121Y-31624000D01*
X28521865Y-31750855D01*
X28521865Y-31750855D01*
G37*
M02*
