G04 #@! TF.GenerationSoftware,KiCad,Pcbnew,(5.1.4-0)*
G04 #@! TF.CreationDate,2021-03-11T23:07:08-05:00*
G04 #@! TF.ProjectId,mxnatee_switch_plate,6d786e61-7465-4655-9f73-77697463685f,rev?*
G04 #@! TF.SameCoordinates,Original*
G04 #@! TF.FileFunction,Soldermask,Bot*
G04 #@! TF.FilePolarity,Negative*
%FSLAX46Y46*%
G04 Gerber Fmt 4.6, Leading zero omitted, Abs format (unit mm)*
G04 Created by KiCad (PCBNEW (5.1.4-0)) date 2021-03-11 23:07:08*
%MOMM*%
%LPD*%
G04 APERTURE LIST*
%ADD10C,0.100000*%
G04 APERTURE END LIST*
D10*
G36*
X129434880Y-143301776D02*
G01*
X129815593Y-143377504D01*
X130225249Y-143547189D01*
X130593929Y-143793534D01*
X130907466Y-144107071D01*
X131153811Y-144475751D01*
X131323496Y-144885407D01*
X131410000Y-145320296D01*
X131410000Y-145763704D01*
X131323496Y-146198593D01*
X131153811Y-146608249D01*
X130907466Y-146976929D01*
X130593929Y-147290466D01*
X130225249Y-147536811D01*
X129815593Y-147706496D01*
X129434880Y-147782224D01*
X129380705Y-147793000D01*
X128937295Y-147793000D01*
X128883120Y-147782224D01*
X128502407Y-147706496D01*
X128092751Y-147536811D01*
X127724071Y-147290466D01*
X127410534Y-146976929D01*
X127164189Y-146608249D01*
X126994504Y-146198593D01*
X126908000Y-145763704D01*
X126908000Y-145320296D01*
X126994504Y-144885407D01*
X127164189Y-144475751D01*
X127410534Y-144107071D01*
X127724071Y-143793534D01*
X128092751Y-143547189D01*
X128502407Y-143377504D01*
X128883120Y-143301776D01*
X128937295Y-143291000D01*
X129380705Y-143291000D01*
X129434880Y-143301776D01*
X129434880Y-143301776D01*
G37*
G36*
X139719795Y-124459736D02*
G01*
X139889492Y-124511212D01*
X140045876Y-124594802D01*
X140182953Y-124707297D01*
X140295448Y-124844374D01*
X140379038Y-125000758D01*
X140430514Y-125170455D01*
X140448500Y-125353066D01*
X140448500Y-139632434D01*
X140430514Y-139815045D01*
X140379038Y-139984742D01*
X140295448Y-140141126D01*
X140182953Y-140278203D01*
X140045876Y-140390698D01*
X139889492Y-140474288D01*
X139719795Y-140525764D01*
X139537184Y-140543750D01*
X125257816Y-140543750D01*
X125075205Y-140525764D01*
X124905508Y-140474288D01*
X124749124Y-140390698D01*
X124612047Y-140278203D01*
X124499552Y-140141126D01*
X124415962Y-139984742D01*
X124364486Y-139815045D01*
X124346500Y-139632434D01*
X124346500Y-125353066D01*
X124364486Y-125170455D01*
X124415962Y-125000758D01*
X124499552Y-124844374D01*
X124612047Y-124707297D01*
X124749124Y-124594802D01*
X124905508Y-124511212D01*
X125075205Y-124459736D01*
X125257816Y-124441750D01*
X139537184Y-124441750D01*
X139719795Y-124459736D01*
X139719795Y-124459736D01*
G37*
G36*
X120669795Y-124459736D02*
G01*
X120839492Y-124511212D01*
X120995876Y-124594802D01*
X121132953Y-124707297D01*
X121245448Y-124844374D01*
X121329038Y-125000758D01*
X121380514Y-125170455D01*
X121398500Y-125353066D01*
X121398500Y-139632434D01*
X121380514Y-139815045D01*
X121329038Y-139984742D01*
X121245448Y-140141126D01*
X121132953Y-140278203D01*
X120995876Y-140390698D01*
X120839492Y-140474288D01*
X120669795Y-140525764D01*
X120487184Y-140543750D01*
X106207816Y-140543750D01*
X106025205Y-140525764D01*
X105855508Y-140474288D01*
X105699124Y-140390698D01*
X105562047Y-140278203D01*
X105449552Y-140141126D01*
X105365962Y-139984742D01*
X105314486Y-139815045D01*
X105296500Y-139632434D01*
X105296500Y-125353066D01*
X105314486Y-125170455D01*
X105365962Y-125000758D01*
X105449552Y-124844374D01*
X105562047Y-124707297D01*
X105699124Y-124594802D01*
X105855508Y-124511212D01*
X106025205Y-124459736D01*
X106207816Y-124441750D01*
X120487184Y-124441750D01*
X120669795Y-124459736D01*
X120669795Y-124459736D01*
G37*
G36*
X115907295Y-105409736D02*
G01*
X116076992Y-105461212D01*
X116233376Y-105544802D01*
X116370453Y-105657297D01*
X116482948Y-105794374D01*
X116566538Y-105950758D01*
X116618014Y-106120455D01*
X116636000Y-106303066D01*
X116636000Y-120582434D01*
X116618014Y-120765045D01*
X116566538Y-120934742D01*
X116482948Y-121091126D01*
X116370453Y-121228203D01*
X116233376Y-121340698D01*
X116076992Y-121424288D01*
X115907295Y-121475764D01*
X115724684Y-121493750D01*
X101445316Y-121493750D01*
X101262705Y-121475764D01*
X101093008Y-121424288D01*
X100936624Y-121340698D01*
X100799547Y-121228203D01*
X100687052Y-121091126D01*
X100603462Y-120934742D01*
X100551986Y-120765045D01*
X100534000Y-120582434D01*
X100534000Y-106303066D01*
X100551986Y-106120455D01*
X100603462Y-105950758D01*
X100687052Y-105794374D01*
X100799547Y-105657297D01*
X100936624Y-105544802D01*
X101093008Y-105461212D01*
X101262705Y-105409736D01*
X101445316Y-105391750D01*
X115724684Y-105391750D01*
X115907295Y-105409736D01*
X115907295Y-105409736D01*
G37*
G36*
X96857295Y-105409736D02*
G01*
X97026992Y-105461212D01*
X97183376Y-105544802D01*
X97320453Y-105657297D01*
X97432948Y-105794374D01*
X97516538Y-105950758D01*
X97568014Y-106120455D01*
X97586000Y-106303066D01*
X97586000Y-120582434D01*
X97568014Y-120765045D01*
X97516538Y-120934742D01*
X97432948Y-121091126D01*
X97320453Y-121228203D01*
X97183376Y-121340698D01*
X97026992Y-121424288D01*
X96857295Y-121475764D01*
X96674684Y-121493750D01*
X82395316Y-121493750D01*
X82212705Y-121475764D01*
X82043008Y-121424288D01*
X81886624Y-121340698D01*
X81749547Y-121228203D01*
X81637052Y-121091126D01*
X81553462Y-120934742D01*
X81501986Y-120765045D01*
X81484000Y-120582434D01*
X81484000Y-106303066D01*
X81501986Y-106120455D01*
X81553462Y-105950758D01*
X81637052Y-105794374D01*
X81749547Y-105657297D01*
X81886624Y-105544802D01*
X82043008Y-105461212D01*
X82212705Y-105409736D01*
X82395316Y-105391750D01*
X96674684Y-105391750D01*
X96857295Y-105409736D01*
X96857295Y-105409736D01*
G37*
G36*
X134957295Y-105409736D02*
G01*
X135126992Y-105461212D01*
X135283376Y-105544802D01*
X135420453Y-105657297D01*
X135532948Y-105794374D01*
X135616538Y-105950758D01*
X135668014Y-106120455D01*
X135686000Y-106303066D01*
X135686000Y-120582434D01*
X135668014Y-120765045D01*
X135616538Y-120934742D01*
X135532948Y-121091126D01*
X135420453Y-121228203D01*
X135283376Y-121340698D01*
X135126992Y-121424288D01*
X134957295Y-121475764D01*
X134774684Y-121493750D01*
X120495316Y-121493750D01*
X120312705Y-121475764D01*
X120143008Y-121424288D01*
X119986624Y-121340698D01*
X119849547Y-121228203D01*
X119737052Y-121091126D01*
X119653462Y-120934742D01*
X119601986Y-120765045D01*
X119584000Y-120582434D01*
X119584000Y-106303066D01*
X119601986Y-106120455D01*
X119653462Y-105950758D01*
X119737052Y-105794374D01*
X119849547Y-105657297D01*
X119986624Y-105544802D01*
X120143008Y-105461212D01*
X120312705Y-105409736D01*
X120495316Y-105391750D01*
X134774684Y-105391750D01*
X134957295Y-105409736D01*
X134957295Y-105409736D01*
G37*
G36*
X71014880Y-103931776D02*
G01*
X71395593Y-104007504D01*
X71805249Y-104177189D01*
X72173929Y-104423534D01*
X72487466Y-104737071D01*
X72733811Y-105105751D01*
X72903496Y-105515407D01*
X72990000Y-105950296D01*
X72990000Y-106393704D01*
X72903496Y-106828593D01*
X72733811Y-107238249D01*
X72487466Y-107606929D01*
X72173929Y-107920466D01*
X71805249Y-108166811D01*
X71395593Y-108336496D01*
X71014880Y-108412224D01*
X70960705Y-108423000D01*
X70517295Y-108423000D01*
X70463120Y-108412224D01*
X70082407Y-108336496D01*
X69672751Y-108166811D01*
X69304071Y-107920466D01*
X68990534Y-107606929D01*
X68744189Y-107238249D01*
X68574504Y-106828593D01*
X68488000Y-106393704D01*
X68488000Y-105950296D01*
X68574504Y-105515407D01*
X68744189Y-105105751D01*
X68990534Y-104737071D01*
X69304071Y-104423534D01*
X69672751Y-104177189D01*
X70082407Y-104007504D01*
X70463120Y-103931776D01*
X70517295Y-103921000D01*
X70960705Y-103921000D01*
X71014880Y-103931776D01*
X71014880Y-103931776D01*
G37*
G36*
X111144795Y-86359736D02*
G01*
X111314492Y-86411212D01*
X111470876Y-86494802D01*
X111607953Y-86607297D01*
X111720448Y-86744374D01*
X111804038Y-86900758D01*
X111855514Y-87070455D01*
X111873500Y-87253066D01*
X111873500Y-101532434D01*
X111855514Y-101715045D01*
X111804038Y-101884742D01*
X111720448Y-102041126D01*
X111607953Y-102178203D01*
X111470876Y-102290698D01*
X111314492Y-102374288D01*
X111144795Y-102425764D01*
X110962184Y-102443750D01*
X96682816Y-102443750D01*
X96500205Y-102425764D01*
X96330508Y-102374288D01*
X96174124Y-102290698D01*
X96037047Y-102178203D01*
X95924552Y-102041126D01*
X95840962Y-101884742D01*
X95789486Y-101715045D01*
X95771500Y-101532434D01*
X95771500Y-87253066D01*
X95789486Y-87070455D01*
X95840962Y-86900758D01*
X95924552Y-86744374D01*
X96037047Y-86607297D01*
X96174124Y-86494802D01*
X96330508Y-86411212D01*
X96500205Y-86359736D01*
X96682816Y-86341750D01*
X110962184Y-86341750D01*
X111144795Y-86359736D01*
X111144795Y-86359736D01*
G37*
G36*
X92094795Y-86359736D02*
G01*
X92264492Y-86411212D01*
X92420876Y-86494802D01*
X92557953Y-86607297D01*
X92670448Y-86744374D01*
X92754038Y-86900758D01*
X92805514Y-87070455D01*
X92823500Y-87253066D01*
X92823500Y-101532434D01*
X92805514Y-101715045D01*
X92754038Y-101884742D01*
X92670448Y-102041126D01*
X92557953Y-102178203D01*
X92420876Y-102290698D01*
X92264492Y-102374288D01*
X92094795Y-102425764D01*
X91912184Y-102443750D01*
X77632816Y-102443750D01*
X77450205Y-102425764D01*
X77280508Y-102374288D01*
X77124124Y-102290698D01*
X76987047Y-102178203D01*
X76874552Y-102041126D01*
X76790962Y-101884742D01*
X76739486Y-101715045D01*
X76721500Y-101532434D01*
X76721500Y-87253066D01*
X76739486Y-87070455D01*
X76790962Y-86900758D01*
X76874552Y-86744374D01*
X76987047Y-86607297D01*
X77124124Y-86494802D01*
X77280508Y-86411212D01*
X77450205Y-86359736D01*
X77632816Y-86341750D01*
X91912184Y-86341750D01*
X92094795Y-86359736D01*
X92094795Y-86359736D01*
G37*
G36*
X123084880Y-96184776D02*
G01*
X123465593Y-96260504D01*
X123875249Y-96430189D01*
X124243929Y-96676534D01*
X124557466Y-96990071D01*
X124803811Y-97358751D01*
X124973496Y-97768407D01*
X125060000Y-98203296D01*
X125060000Y-98646704D01*
X124973496Y-99081593D01*
X124803811Y-99491249D01*
X124557466Y-99859929D01*
X124243929Y-100173466D01*
X123875249Y-100419811D01*
X123465593Y-100589496D01*
X123084880Y-100665224D01*
X123030705Y-100676000D01*
X122587295Y-100676000D01*
X122533120Y-100665224D01*
X122152407Y-100589496D01*
X121742751Y-100419811D01*
X121374071Y-100173466D01*
X121060534Y-99859929D01*
X120814189Y-99491249D01*
X120644504Y-99081593D01*
X120558000Y-98646704D01*
X120558000Y-98203296D01*
X120644504Y-97768407D01*
X120814189Y-97358751D01*
X121060534Y-96990071D01*
X121374071Y-96676534D01*
X121742751Y-96430189D01*
X122152407Y-96260504D01*
X122533120Y-96184776D01*
X122587295Y-96174000D01*
X123030705Y-96174000D01*
X123084880Y-96184776D01*
X123084880Y-96184776D01*
G37*
G36*
X34944795Y-81724236D02*
G01*
X35114492Y-81775712D01*
X35270876Y-81859302D01*
X35407953Y-81971797D01*
X35520448Y-82108874D01*
X35604038Y-82265258D01*
X35655514Y-82434955D01*
X35673500Y-82617566D01*
X35673500Y-96896934D01*
X35655514Y-97079545D01*
X35604038Y-97249242D01*
X35520448Y-97405626D01*
X35407953Y-97542703D01*
X35270876Y-97655198D01*
X35114492Y-97738788D01*
X34944795Y-97790264D01*
X34762184Y-97808250D01*
X20482816Y-97808250D01*
X20300205Y-97790264D01*
X20130508Y-97738788D01*
X19974124Y-97655198D01*
X19837047Y-97542703D01*
X19724552Y-97405626D01*
X19640962Y-97249242D01*
X19589486Y-97079545D01*
X19571500Y-96896934D01*
X19571500Y-82617566D01*
X19589486Y-82434955D01*
X19640962Y-82265258D01*
X19724552Y-82108874D01*
X19837047Y-81971797D01*
X19974124Y-81859302D01*
X20130508Y-81775712D01*
X20300205Y-81724236D01*
X20482816Y-81706250D01*
X34762184Y-81706250D01*
X34944795Y-81724236D01*
X34944795Y-81724236D01*
G37*
G36*
X73044795Y-77628486D02*
G01*
X73214492Y-77679962D01*
X73370876Y-77763552D01*
X73507953Y-77876047D01*
X73620448Y-78013124D01*
X73704038Y-78169508D01*
X73755514Y-78339205D01*
X73773500Y-78521816D01*
X73773500Y-92801184D01*
X73755514Y-92983795D01*
X73704038Y-93153492D01*
X73620448Y-93309876D01*
X73507953Y-93446953D01*
X73370876Y-93559448D01*
X73214492Y-93643038D01*
X73044795Y-93694514D01*
X72862184Y-93712500D01*
X58582816Y-93712500D01*
X58400205Y-93694514D01*
X58230508Y-93643038D01*
X58074124Y-93559448D01*
X57937047Y-93446953D01*
X57824552Y-93309876D01*
X57740962Y-93153492D01*
X57689486Y-92983795D01*
X57671500Y-92801184D01*
X57671500Y-78521816D01*
X57689486Y-78339205D01*
X57740962Y-78169508D01*
X57824552Y-78013124D01*
X57937047Y-77876047D01*
X58074124Y-77763552D01*
X58230508Y-77679962D01*
X58400205Y-77628486D01*
X58582816Y-77610500D01*
X72862184Y-77610500D01*
X73044795Y-77628486D01*
X73044795Y-77628486D01*
G37*
G36*
X44344880Y-88818776D02*
G01*
X44725593Y-88894504D01*
X45135249Y-89064189D01*
X45503929Y-89310534D01*
X45817466Y-89624071D01*
X46063811Y-89992751D01*
X46233496Y-90402407D01*
X46320000Y-90837296D01*
X46320000Y-91280704D01*
X46233496Y-91715593D01*
X46063811Y-92125249D01*
X45817466Y-92493929D01*
X45503929Y-92807466D01*
X45135249Y-93053811D01*
X44725593Y-93223496D01*
X44344880Y-93299224D01*
X44290705Y-93310000D01*
X43847295Y-93310000D01*
X43793120Y-93299224D01*
X43412407Y-93223496D01*
X43002751Y-93053811D01*
X42634071Y-92807466D01*
X42320534Y-92493929D01*
X42074189Y-92125249D01*
X41904504Y-91715593D01*
X41818000Y-91280704D01*
X41818000Y-90837296D01*
X41904504Y-90402407D01*
X42074189Y-89992751D01*
X42320534Y-89624071D01*
X42634071Y-89310534D01*
X43002751Y-89064189D01*
X43412407Y-88894504D01*
X43793120Y-88818776D01*
X43847295Y-88808000D01*
X44290705Y-88808000D01*
X44344880Y-88818776D01*
X44344880Y-88818776D01*
G37*
G36*
X111144795Y-67309736D02*
G01*
X111314492Y-67361212D01*
X111470876Y-67444802D01*
X111607953Y-67557297D01*
X111720448Y-67694374D01*
X111804038Y-67850758D01*
X111855514Y-68020455D01*
X111873500Y-68203066D01*
X111873500Y-82482434D01*
X111855514Y-82665045D01*
X111804038Y-82834742D01*
X111720448Y-82991126D01*
X111607953Y-83128203D01*
X111470876Y-83240698D01*
X111314492Y-83324288D01*
X111144795Y-83375764D01*
X110962184Y-83393750D01*
X96682816Y-83393750D01*
X96500205Y-83375764D01*
X96330508Y-83324288D01*
X96174124Y-83240698D01*
X96037047Y-83128203D01*
X95924552Y-82991126D01*
X95840962Y-82834742D01*
X95789486Y-82665045D01*
X95771500Y-82482434D01*
X95771500Y-68203066D01*
X95789486Y-68020455D01*
X95840962Y-67850758D01*
X95924552Y-67694374D01*
X96037047Y-67557297D01*
X96174124Y-67444802D01*
X96330508Y-67361212D01*
X96500205Y-67309736D01*
X96682816Y-67291750D01*
X110962184Y-67291750D01*
X111144795Y-67309736D01*
X111144795Y-67309736D01*
G37*
G36*
X92094795Y-67309736D02*
G01*
X92264492Y-67361212D01*
X92420876Y-67444802D01*
X92557953Y-67557297D01*
X92670448Y-67694374D01*
X92754038Y-67850758D01*
X92805514Y-68020455D01*
X92823500Y-68203066D01*
X92823500Y-82482434D01*
X92805514Y-82665045D01*
X92754038Y-82834742D01*
X92670448Y-82991126D01*
X92557953Y-83128203D01*
X92420876Y-83240698D01*
X92264492Y-83324288D01*
X92094795Y-83375764D01*
X91912184Y-83393750D01*
X77632816Y-83393750D01*
X77450205Y-83375764D01*
X77280508Y-83324288D01*
X77124124Y-83240698D01*
X76987047Y-83128203D01*
X76874552Y-82991126D01*
X76790962Y-82834742D01*
X76739486Y-82665045D01*
X76721500Y-82482434D01*
X76721500Y-68203066D01*
X76739486Y-68020455D01*
X76790962Y-67850758D01*
X76874552Y-67694374D01*
X76987047Y-67557297D01*
X77124124Y-67444802D01*
X77280508Y-67361212D01*
X77450205Y-67309736D01*
X77632816Y-67291750D01*
X91912184Y-67291750D01*
X92094795Y-67309736D01*
X92094795Y-67309736D01*
G37*
G36*
X53994795Y-67309736D02*
G01*
X54164492Y-67361212D01*
X54320876Y-67444802D01*
X54457953Y-67557297D01*
X54570448Y-67694374D01*
X54654038Y-67850758D01*
X54705514Y-68020455D01*
X54723500Y-68203066D01*
X54723500Y-82482434D01*
X54705514Y-82665045D01*
X54654038Y-82834742D01*
X54570448Y-82991126D01*
X54457953Y-83128203D01*
X54320876Y-83240698D01*
X54164492Y-83324288D01*
X53994795Y-83375764D01*
X53812184Y-83393750D01*
X39532816Y-83393750D01*
X39350205Y-83375764D01*
X39180508Y-83324288D01*
X39024124Y-83240698D01*
X38887047Y-83128203D01*
X38774552Y-82991126D01*
X38690962Y-82834742D01*
X38639486Y-82665045D01*
X38621500Y-82482434D01*
X38621500Y-68203066D01*
X38639486Y-68020455D01*
X38690962Y-67850758D01*
X38774552Y-67694374D01*
X38887047Y-67557297D01*
X39024124Y-67444802D01*
X39180508Y-67361212D01*
X39350205Y-67309736D01*
X39532816Y-67291750D01*
X53812184Y-67291750D01*
X53994795Y-67309736D01*
X53994795Y-67309736D01*
G37*
G36*
X73044795Y-57784736D02*
G01*
X73214492Y-57836212D01*
X73370876Y-57919802D01*
X73507953Y-58032297D01*
X73620448Y-58169374D01*
X73704038Y-58325758D01*
X73755514Y-58495455D01*
X73773500Y-58678066D01*
X73773500Y-72957434D01*
X73755514Y-73140045D01*
X73704038Y-73309742D01*
X73620448Y-73466126D01*
X73507953Y-73603203D01*
X73370876Y-73715698D01*
X73214492Y-73799288D01*
X73044795Y-73850764D01*
X72862184Y-73868750D01*
X58582816Y-73868750D01*
X58400205Y-73850764D01*
X58230508Y-73799288D01*
X58074124Y-73715698D01*
X57937047Y-73603203D01*
X57824552Y-73466126D01*
X57740962Y-73309742D01*
X57689486Y-73140045D01*
X57671500Y-72957434D01*
X57671500Y-58678066D01*
X57689486Y-58495455D01*
X57740962Y-58325758D01*
X57824552Y-58169374D01*
X57937047Y-58032297D01*
X58074124Y-57919802D01*
X58230508Y-57836212D01*
X58400205Y-57784736D01*
X58582816Y-57766750D01*
X72862184Y-57766750D01*
X73044795Y-57784736D01*
X73044795Y-57784736D01*
G37*
G36*
X111144795Y-48259736D02*
G01*
X111314492Y-48311212D01*
X111470876Y-48394802D01*
X111607953Y-48507297D01*
X111720448Y-48644374D01*
X111804038Y-48800758D01*
X111855514Y-48970455D01*
X111873500Y-49153066D01*
X111873500Y-63432434D01*
X111855514Y-63615045D01*
X111804038Y-63784742D01*
X111720448Y-63941126D01*
X111607953Y-64078203D01*
X111470876Y-64190698D01*
X111314492Y-64274288D01*
X111144795Y-64325764D01*
X110962184Y-64343750D01*
X96682816Y-64343750D01*
X96500205Y-64325764D01*
X96330508Y-64274288D01*
X96174124Y-64190698D01*
X96037047Y-64078203D01*
X95924552Y-63941126D01*
X95840962Y-63784742D01*
X95789486Y-63615045D01*
X95771500Y-63432434D01*
X95771500Y-49153066D01*
X95789486Y-48970455D01*
X95840962Y-48800758D01*
X95924552Y-48644374D01*
X96037047Y-48507297D01*
X96174124Y-48394802D01*
X96330508Y-48311212D01*
X96500205Y-48259736D01*
X96682816Y-48241750D01*
X110962184Y-48241750D01*
X111144795Y-48259736D01*
X111144795Y-48259736D01*
G37*
G36*
X92094795Y-48259736D02*
G01*
X92264492Y-48311212D01*
X92420876Y-48394802D01*
X92557953Y-48507297D01*
X92670448Y-48644374D01*
X92754038Y-48800758D01*
X92805514Y-48970455D01*
X92823500Y-49153066D01*
X92823500Y-63432434D01*
X92805514Y-63615045D01*
X92754038Y-63784742D01*
X92670448Y-63941126D01*
X92557953Y-64078203D01*
X92420876Y-64190698D01*
X92264492Y-64274288D01*
X92094795Y-64325764D01*
X91912184Y-64343750D01*
X77632816Y-64343750D01*
X77450205Y-64325764D01*
X77280508Y-64274288D01*
X77124124Y-64190698D01*
X76987047Y-64078203D01*
X76874552Y-63941126D01*
X76790962Y-63784742D01*
X76739486Y-63615045D01*
X76721500Y-63432434D01*
X76721500Y-49153066D01*
X76739486Y-48970455D01*
X76790962Y-48800758D01*
X76874552Y-48644374D01*
X76987047Y-48507297D01*
X77124124Y-48394802D01*
X77280508Y-48311212D01*
X77450205Y-48259736D01*
X77632816Y-48241750D01*
X91912184Y-48241750D01*
X92094795Y-48259736D01*
X92094795Y-48259736D01*
G37*
G36*
X53994795Y-48259736D02*
G01*
X54164492Y-48311212D01*
X54320876Y-48394802D01*
X54457953Y-48507297D01*
X54570448Y-48644374D01*
X54654038Y-48800758D01*
X54705514Y-48970455D01*
X54723500Y-49153066D01*
X54723500Y-63432434D01*
X54705514Y-63615045D01*
X54654038Y-63784742D01*
X54570448Y-63941126D01*
X54457953Y-64078203D01*
X54320876Y-64190698D01*
X54164492Y-64274288D01*
X53994795Y-64325764D01*
X53812184Y-64343750D01*
X39532816Y-64343750D01*
X39350205Y-64325764D01*
X39180508Y-64274288D01*
X39024124Y-64190698D01*
X38887047Y-64078203D01*
X38774552Y-63941126D01*
X38690962Y-63784742D01*
X38639486Y-63615045D01*
X38621500Y-63432434D01*
X38621500Y-49153066D01*
X38639486Y-48970455D01*
X38690962Y-48800758D01*
X38774552Y-48644374D01*
X38887047Y-48507297D01*
X39024124Y-48394802D01*
X39180508Y-48311212D01*
X39350205Y-48259736D01*
X39532816Y-48241750D01*
X53812184Y-48241750D01*
X53994795Y-48259736D01*
X53994795Y-48259736D01*
G37*
G36*
X73044795Y-38734736D02*
G01*
X73214492Y-38786212D01*
X73370876Y-38869802D01*
X73507953Y-38982297D01*
X73620448Y-39119374D01*
X73704038Y-39275758D01*
X73755514Y-39445455D01*
X73773500Y-39628066D01*
X73773500Y-53907434D01*
X73755514Y-54090045D01*
X73704038Y-54259742D01*
X73620448Y-54416126D01*
X73507953Y-54553203D01*
X73370876Y-54665698D01*
X73214492Y-54749288D01*
X73044795Y-54800764D01*
X72862184Y-54818750D01*
X58582816Y-54818750D01*
X58400205Y-54800764D01*
X58230508Y-54749288D01*
X58074124Y-54665698D01*
X57937047Y-54553203D01*
X57824552Y-54416126D01*
X57740962Y-54259742D01*
X57689486Y-54090045D01*
X57671500Y-53907434D01*
X57671500Y-39628066D01*
X57689486Y-39445455D01*
X57740962Y-39275758D01*
X57824552Y-39119374D01*
X57937047Y-38982297D01*
X58074124Y-38869802D01*
X58230508Y-38786212D01*
X58400205Y-38734736D01*
X58582816Y-38716750D01*
X72862184Y-38716750D01*
X73044795Y-38734736D01*
X73044795Y-38734736D01*
G37*
G36*
X92094795Y-29209736D02*
G01*
X92264492Y-29261212D01*
X92420876Y-29344802D01*
X92557953Y-29457297D01*
X92670448Y-29594374D01*
X92754038Y-29750758D01*
X92805514Y-29920455D01*
X92823500Y-30103066D01*
X92823500Y-44382434D01*
X92805514Y-44565045D01*
X92754038Y-44734742D01*
X92670448Y-44891126D01*
X92557953Y-45028203D01*
X92420876Y-45140698D01*
X92264492Y-45224288D01*
X92094795Y-45275764D01*
X91912184Y-45293750D01*
X77632816Y-45293750D01*
X77450205Y-45275764D01*
X77280508Y-45224288D01*
X77124124Y-45140698D01*
X76987047Y-45028203D01*
X76874552Y-44891126D01*
X76790962Y-44734742D01*
X76739486Y-44565045D01*
X76721500Y-44382434D01*
X76721500Y-30103066D01*
X76739486Y-29920455D01*
X76790962Y-29750758D01*
X76874552Y-29594374D01*
X76987047Y-29457297D01*
X77124124Y-29344802D01*
X77280508Y-29261212D01*
X77450205Y-29209736D01*
X77632816Y-29191750D01*
X91912184Y-29191750D01*
X92094795Y-29209736D01*
X92094795Y-29209736D01*
G37*
G36*
X104034880Y-32811776D02*
G01*
X104415593Y-32887504D01*
X104825249Y-33057189D01*
X105193929Y-33303534D01*
X105507466Y-33617071D01*
X105753811Y-33985751D01*
X105923496Y-34395407D01*
X106010000Y-34830296D01*
X106010000Y-35273704D01*
X105923496Y-35708593D01*
X105753811Y-36118249D01*
X105507466Y-36486929D01*
X105193929Y-36800466D01*
X104825249Y-37046811D01*
X104415593Y-37216496D01*
X104034880Y-37292224D01*
X103980705Y-37303000D01*
X103537295Y-37303000D01*
X103483120Y-37292224D01*
X103102407Y-37216496D01*
X102692751Y-37046811D01*
X102324071Y-36800466D01*
X102010534Y-36486929D01*
X101764189Y-36118249D01*
X101594504Y-35708593D01*
X101508000Y-35273704D01*
X101508000Y-34830296D01*
X101594504Y-34395407D01*
X101764189Y-33985751D01*
X102010534Y-33617071D01*
X102324071Y-33303534D01*
X102692751Y-33057189D01*
X103102407Y-32887504D01*
X103483120Y-32811776D01*
X103537295Y-32801000D01*
X103980705Y-32801000D01*
X104034880Y-32811776D01*
X104034880Y-32811776D01*
G37*
G36*
X27834880Y-32684776D02*
G01*
X28215593Y-32760504D01*
X28625249Y-32930189D01*
X28993929Y-33176534D01*
X29307466Y-33490071D01*
X29553811Y-33858751D01*
X29723496Y-34268407D01*
X29810000Y-34703296D01*
X29810000Y-35146704D01*
X29723496Y-35581593D01*
X29553811Y-35991249D01*
X29307466Y-36359929D01*
X28993929Y-36673466D01*
X28625249Y-36919811D01*
X28215593Y-37089496D01*
X27834880Y-37165224D01*
X27780705Y-37176000D01*
X27337295Y-37176000D01*
X27283120Y-37165224D01*
X26902407Y-37089496D01*
X26492751Y-36919811D01*
X26124071Y-36673466D01*
X25810534Y-36359929D01*
X25564189Y-35991249D01*
X25394504Y-35581593D01*
X25308000Y-35146704D01*
X25308000Y-34703296D01*
X25394504Y-34268407D01*
X25564189Y-33858751D01*
X25810534Y-33490071D01*
X26124071Y-33176534D01*
X26492751Y-32930189D01*
X26902407Y-32760504D01*
X27283120Y-32684776D01*
X27337295Y-32674000D01*
X27780705Y-32674000D01*
X27834880Y-32684776D01*
X27834880Y-32684776D01*
G37*
G36*
X73044795Y-19684736D02*
G01*
X73214492Y-19736212D01*
X73370876Y-19819802D01*
X73507953Y-19932297D01*
X73620448Y-20069374D01*
X73704038Y-20225758D01*
X73755514Y-20395455D01*
X73773500Y-20578066D01*
X73773500Y-34857434D01*
X73755514Y-35040045D01*
X73704038Y-35209742D01*
X73620448Y-35366126D01*
X73507953Y-35503203D01*
X73370876Y-35615698D01*
X73214492Y-35699288D01*
X73044795Y-35750764D01*
X72862184Y-35768750D01*
X58582816Y-35768750D01*
X58400205Y-35750764D01*
X58230508Y-35699288D01*
X58074124Y-35615698D01*
X57937047Y-35503203D01*
X57824552Y-35366126D01*
X57740962Y-35209742D01*
X57689486Y-35040045D01*
X57671500Y-34857434D01*
X57671500Y-20578066D01*
X57689486Y-20395455D01*
X57740962Y-20225758D01*
X57824552Y-20069374D01*
X57937047Y-19932297D01*
X58074124Y-19819802D01*
X58230508Y-19736212D01*
X58400205Y-19684736D01*
X58582816Y-19666750D01*
X72862184Y-19666750D01*
X73044795Y-19684736D01*
X73044795Y-19684736D01*
G37*
M02*
