G04 #@! TF.GenerationSoftware,KiCad,Pcbnew,(5.1.4-0)*
G04 #@! TF.CreationDate,2021-02-08T09:21:06-05:00*
G04 #@! TF.ProjectId,mxnatee_switch_plate,6d786e61-7465-4655-9f73-77697463685f,rev?*
G04 #@! TF.SameCoordinates,Original*
G04 #@! TF.FileFunction,Copper,L2,Bot*
G04 #@! TF.FilePolarity,Positive*
%FSLAX46Y46*%
G04 Gerber Fmt 4.6, Leading zero omitted, Abs format (unit mm)*
G04 Created by KiCad (PCBNEW (5.1.4-0)) date 2021-02-08 09:21:06*
%MOMM*%
%LPD*%
G04 APERTURE LIST*
%ADD10C,0.100000*%
%ADD11C,16.000000*%
%ADD12C,4.400000*%
G04 APERTURE END LIST*
D10*
G36*
X115675801Y-105447604D02*
G01*
X115773651Y-105462118D01*
X115869607Y-105486154D01*
X115962745Y-105519479D01*
X116052168Y-105561773D01*
X116137015Y-105612629D01*
X116216468Y-105671555D01*
X116289764Y-105737986D01*
X116356195Y-105811282D01*
X116415121Y-105890735D01*
X116465977Y-105975582D01*
X116508271Y-106065005D01*
X116541596Y-106158143D01*
X116565632Y-106254099D01*
X116580146Y-106351949D01*
X116585000Y-106450750D01*
X116585000Y-120434750D01*
X116580146Y-120533551D01*
X116565632Y-120631401D01*
X116541596Y-120727357D01*
X116508271Y-120820495D01*
X116465977Y-120909918D01*
X116415121Y-120994765D01*
X116356195Y-121074218D01*
X116289764Y-121147514D01*
X116216468Y-121213945D01*
X116137015Y-121272871D01*
X116052168Y-121323727D01*
X115962745Y-121366021D01*
X115869607Y-121399346D01*
X115773651Y-121423382D01*
X115675801Y-121437896D01*
X115577000Y-121442750D01*
X101593000Y-121442750D01*
X101494199Y-121437896D01*
X101396349Y-121423382D01*
X101300393Y-121399346D01*
X101207255Y-121366021D01*
X101117832Y-121323727D01*
X101032985Y-121272871D01*
X100953532Y-121213945D01*
X100880236Y-121147514D01*
X100813805Y-121074218D01*
X100754879Y-120994765D01*
X100704023Y-120909918D01*
X100661729Y-120820495D01*
X100628404Y-120727357D01*
X100604368Y-120631401D01*
X100589854Y-120533551D01*
X100585000Y-120434750D01*
X100585000Y-106450750D01*
X100589854Y-106351949D01*
X100604368Y-106254099D01*
X100628404Y-106158143D01*
X100661729Y-106065005D01*
X100704023Y-105975582D01*
X100754879Y-105890735D01*
X100813805Y-105811282D01*
X100880236Y-105737986D01*
X100953532Y-105671555D01*
X101032985Y-105612629D01*
X101117832Y-105561773D01*
X101207255Y-105519479D01*
X101300393Y-105486154D01*
X101396349Y-105462118D01*
X101494199Y-105447604D01*
X101593000Y-105442750D01*
X115577000Y-105442750D01*
X115675801Y-105447604D01*
X115675801Y-105447604D01*
G37*
D11*
X108585000Y-113442750D03*
D10*
G36*
X134725801Y-105447604D02*
G01*
X134823651Y-105462118D01*
X134919607Y-105486154D01*
X135012745Y-105519479D01*
X135102168Y-105561773D01*
X135187015Y-105612629D01*
X135266468Y-105671555D01*
X135339764Y-105737986D01*
X135406195Y-105811282D01*
X135465121Y-105890735D01*
X135515977Y-105975582D01*
X135558271Y-106065005D01*
X135591596Y-106158143D01*
X135615632Y-106254099D01*
X135630146Y-106351949D01*
X135635000Y-106450750D01*
X135635000Y-120434750D01*
X135630146Y-120533551D01*
X135615632Y-120631401D01*
X135591596Y-120727357D01*
X135558271Y-120820495D01*
X135515977Y-120909918D01*
X135465121Y-120994765D01*
X135406195Y-121074218D01*
X135339764Y-121147514D01*
X135266468Y-121213945D01*
X135187015Y-121272871D01*
X135102168Y-121323727D01*
X135012745Y-121366021D01*
X134919607Y-121399346D01*
X134823651Y-121423382D01*
X134725801Y-121437896D01*
X134627000Y-121442750D01*
X120643000Y-121442750D01*
X120544199Y-121437896D01*
X120446349Y-121423382D01*
X120350393Y-121399346D01*
X120257255Y-121366021D01*
X120167832Y-121323727D01*
X120082985Y-121272871D01*
X120003532Y-121213945D01*
X119930236Y-121147514D01*
X119863805Y-121074218D01*
X119804879Y-120994765D01*
X119754023Y-120909918D01*
X119711729Y-120820495D01*
X119678404Y-120727357D01*
X119654368Y-120631401D01*
X119639854Y-120533551D01*
X119635000Y-120434750D01*
X119635000Y-106450750D01*
X119639854Y-106351949D01*
X119654368Y-106254099D01*
X119678404Y-106158143D01*
X119711729Y-106065005D01*
X119754023Y-105975582D01*
X119804879Y-105890735D01*
X119863805Y-105811282D01*
X119930236Y-105737986D01*
X120003532Y-105671555D01*
X120082985Y-105612629D01*
X120167832Y-105561773D01*
X120257255Y-105519479D01*
X120350393Y-105486154D01*
X120446349Y-105462118D01*
X120544199Y-105447604D01*
X120643000Y-105442750D01*
X134627000Y-105442750D01*
X134725801Y-105447604D01*
X134725801Y-105447604D01*
G37*
D11*
X127635000Y-113442750D03*
D10*
G36*
X96625801Y-105447604D02*
G01*
X96723651Y-105462118D01*
X96819607Y-105486154D01*
X96912745Y-105519479D01*
X97002168Y-105561773D01*
X97087015Y-105612629D01*
X97166468Y-105671555D01*
X97239764Y-105737986D01*
X97306195Y-105811282D01*
X97365121Y-105890735D01*
X97415977Y-105975582D01*
X97458271Y-106065005D01*
X97491596Y-106158143D01*
X97515632Y-106254099D01*
X97530146Y-106351949D01*
X97535000Y-106450750D01*
X97535000Y-120434750D01*
X97530146Y-120533551D01*
X97515632Y-120631401D01*
X97491596Y-120727357D01*
X97458271Y-120820495D01*
X97415977Y-120909918D01*
X97365121Y-120994765D01*
X97306195Y-121074218D01*
X97239764Y-121147514D01*
X97166468Y-121213945D01*
X97087015Y-121272871D01*
X97002168Y-121323727D01*
X96912745Y-121366021D01*
X96819607Y-121399346D01*
X96723651Y-121423382D01*
X96625801Y-121437896D01*
X96527000Y-121442750D01*
X82543000Y-121442750D01*
X82444199Y-121437896D01*
X82346349Y-121423382D01*
X82250393Y-121399346D01*
X82157255Y-121366021D01*
X82067832Y-121323727D01*
X81982985Y-121272871D01*
X81903532Y-121213945D01*
X81830236Y-121147514D01*
X81763805Y-121074218D01*
X81704879Y-120994765D01*
X81654023Y-120909918D01*
X81611729Y-120820495D01*
X81578404Y-120727357D01*
X81554368Y-120631401D01*
X81539854Y-120533551D01*
X81535000Y-120434750D01*
X81535000Y-106450750D01*
X81539854Y-106351949D01*
X81554368Y-106254099D01*
X81578404Y-106158143D01*
X81611729Y-106065005D01*
X81654023Y-105975582D01*
X81704879Y-105890735D01*
X81763805Y-105811282D01*
X81830236Y-105737986D01*
X81903532Y-105671555D01*
X81982985Y-105612629D01*
X82067832Y-105561773D01*
X82157255Y-105519479D01*
X82250393Y-105486154D01*
X82346349Y-105462118D01*
X82444199Y-105447604D01*
X82543000Y-105442750D01*
X96527000Y-105442750D01*
X96625801Y-105447604D01*
X96625801Y-105447604D01*
G37*
D11*
X89535000Y-113442750D03*
D10*
G36*
X120438301Y-124497604D02*
G01*
X120536151Y-124512118D01*
X120632107Y-124536154D01*
X120725245Y-124569479D01*
X120814668Y-124611773D01*
X120899515Y-124662629D01*
X120978968Y-124721555D01*
X121052264Y-124787986D01*
X121118695Y-124861282D01*
X121177621Y-124940735D01*
X121228477Y-125025582D01*
X121270771Y-125115005D01*
X121304096Y-125208143D01*
X121328132Y-125304099D01*
X121342646Y-125401949D01*
X121347500Y-125500750D01*
X121347500Y-139484750D01*
X121342646Y-139583551D01*
X121328132Y-139681401D01*
X121304096Y-139777357D01*
X121270771Y-139870495D01*
X121228477Y-139959918D01*
X121177621Y-140044765D01*
X121118695Y-140124218D01*
X121052264Y-140197514D01*
X120978968Y-140263945D01*
X120899515Y-140322871D01*
X120814668Y-140373727D01*
X120725245Y-140416021D01*
X120632107Y-140449346D01*
X120536151Y-140473382D01*
X120438301Y-140487896D01*
X120339500Y-140492750D01*
X106355500Y-140492750D01*
X106256699Y-140487896D01*
X106158849Y-140473382D01*
X106062893Y-140449346D01*
X105969755Y-140416021D01*
X105880332Y-140373727D01*
X105795485Y-140322871D01*
X105716032Y-140263945D01*
X105642736Y-140197514D01*
X105576305Y-140124218D01*
X105517379Y-140044765D01*
X105466523Y-139959918D01*
X105424229Y-139870495D01*
X105390904Y-139777357D01*
X105366868Y-139681401D01*
X105352354Y-139583551D01*
X105347500Y-139484750D01*
X105347500Y-125500750D01*
X105352354Y-125401949D01*
X105366868Y-125304099D01*
X105390904Y-125208143D01*
X105424229Y-125115005D01*
X105466523Y-125025582D01*
X105517379Y-124940735D01*
X105576305Y-124861282D01*
X105642736Y-124787986D01*
X105716032Y-124721555D01*
X105795485Y-124662629D01*
X105880332Y-124611773D01*
X105969755Y-124569479D01*
X106062893Y-124536154D01*
X106158849Y-124512118D01*
X106256699Y-124497604D01*
X106355500Y-124492750D01*
X120339500Y-124492750D01*
X120438301Y-124497604D01*
X120438301Y-124497604D01*
G37*
D11*
X113347500Y-132492750D03*
D10*
G36*
X139488301Y-124497604D02*
G01*
X139586151Y-124512118D01*
X139682107Y-124536154D01*
X139775245Y-124569479D01*
X139864668Y-124611773D01*
X139949515Y-124662629D01*
X140028968Y-124721555D01*
X140102264Y-124787986D01*
X140168695Y-124861282D01*
X140227621Y-124940735D01*
X140278477Y-125025582D01*
X140320771Y-125115005D01*
X140354096Y-125208143D01*
X140378132Y-125304099D01*
X140392646Y-125401949D01*
X140397500Y-125500750D01*
X140397500Y-139484750D01*
X140392646Y-139583551D01*
X140378132Y-139681401D01*
X140354096Y-139777357D01*
X140320771Y-139870495D01*
X140278477Y-139959918D01*
X140227621Y-140044765D01*
X140168695Y-140124218D01*
X140102264Y-140197514D01*
X140028968Y-140263945D01*
X139949515Y-140322871D01*
X139864668Y-140373727D01*
X139775245Y-140416021D01*
X139682107Y-140449346D01*
X139586151Y-140473382D01*
X139488301Y-140487896D01*
X139389500Y-140492750D01*
X125405500Y-140492750D01*
X125306699Y-140487896D01*
X125208849Y-140473382D01*
X125112893Y-140449346D01*
X125019755Y-140416021D01*
X124930332Y-140373727D01*
X124845485Y-140322871D01*
X124766032Y-140263945D01*
X124692736Y-140197514D01*
X124626305Y-140124218D01*
X124567379Y-140044765D01*
X124516523Y-139959918D01*
X124474229Y-139870495D01*
X124440904Y-139777357D01*
X124416868Y-139681401D01*
X124402354Y-139583551D01*
X124397500Y-139484750D01*
X124397500Y-125500750D01*
X124402354Y-125401949D01*
X124416868Y-125304099D01*
X124440904Y-125208143D01*
X124474229Y-125115005D01*
X124516523Y-125025582D01*
X124567379Y-124940735D01*
X124626305Y-124861282D01*
X124692736Y-124787986D01*
X124766032Y-124721555D01*
X124845485Y-124662629D01*
X124930332Y-124611773D01*
X125019755Y-124569479D01*
X125112893Y-124536154D01*
X125208849Y-124512118D01*
X125306699Y-124497604D01*
X125405500Y-124492750D01*
X139389500Y-124492750D01*
X139488301Y-124497604D01*
X139488301Y-124497604D01*
G37*
D11*
X132397500Y-132492750D03*
D10*
G36*
X110913301Y-86397604D02*
G01*
X111011151Y-86412118D01*
X111107107Y-86436154D01*
X111200245Y-86469479D01*
X111289668Y-86511773D01*
X111374515Y-86562629D01*
X111453968Y-86621555D01*
X111527264Y-86687986D01*
X111593695Y-86761282D01*
X111652621Y-86840735D01*
X111703477Y-86925582D01*
X111745771Y-87015005D01*
X111779096Y-87108143D01*
X111803132Y-87204099D01*
X111817646Y-87301949D01*
X111822500Y-87400750D01*
X111822500Y-101384750D01*
X111817646Y-101483551D01*
X111803132Y-101581401D01*
X111779096Y-101677357D01*
X111745771Y-101770495D01*
X111703477Y-101859918D01*
X111652621Y-101944765D01*
X111593695Y-102024218D01*
X111527264Y-102097514D01*
X111453968Y-102163945D01*
X111374515Y-102222871D01*
X111289668Y-102273727D01*
X111200245Y-102316021D01*
X111107107Y-102349346D01*
X111011151Y-102373382D01*
X110913301Y-102387896D01*
X110814500Y-102392750D01*
X96830500Y-102392750D01*
X96731699Y-102387896D01*
X96633849Y-102373382D01*
X96537893Y-102349346D01*
X96444755Y-102316021D01*
X96355332Y-102273727D01*
X96270485Y-102222871D01*
X96191032Y-102163945D01*
X96117736Y-102097514D01*
X96051305Y-102024218D01*
X95992379Y-101944765D01*
X95941523Y-101859918D01*
X95899229Y-101770495D01*
X95865904Y-101677357D01*
X95841868Y-101581401D01*
X95827354Y-101483551D01*
X95822500Y-101384750D01*
X95822500Y-87400750D01*
X95827354Y-87301949D01*
X95841868Y-87204099D01*
X95865904Y-87108143D01*
X95899229Y-87015005D01*
X95941523Y-86925582D01*
X95992379Y-86840735D01*
X96051305Y-86761282D01*
X96117736Y-86687986D01*
X96191032Y-86621555D01*
X96270485Y-86562629D01*
X96355332Y-86511773D01*
X96444755Y-86469479D01*
X96537893Y-86436154D01*
X96633849Y-86412118D01*
X96731699Y-86397604D01*
X96830500Y-86392750D01*
X110814500Y-86392750D01*
X110913301Y-86397604D01*
X110913301Y-86397604D01*
G37*
D11*
X103822500Y-94392750D03*
D10*
G36*
X91863301Y-86397604D02*
G01*
X91961151Y-86412118D01*
X92057107Y-86436154D01*
X92150245Y-86469479D01*
X92239668Y-86511773D01*
X92324515Y-86562629D01*
X92403968Y-86621555D01*
X92477264Y-86687986D01*
X92543695Y-86761282D01*
X92602621Y-86840735D01*
X92653477Y-86925582D01*
X92695771Y-87015005D01*
X92729096Y-87108143D01*
X92753132Y-87204099D01*
X92767646Y-87301949D01*
X92772500Y-87400750D01*
X92772500Y-101384750D01*
X92767646Y-101483551D01*
X92753132Y-101581401D01*
X92729096Y-101677357D01*
X92695771Y-101770495D01*
X92653477Y-101859918D01*
X92602621Y-101944765D01*
X92543695Y-102024218D01*
X92477264Y-102097514D01*
X92403968Y-102163945D01*
X92324515Y-102222871D01*
X92239668Y-102273727D01*
X92150245Y-102316021D01*
X92057107Y-102349346D01*
X91961151Y-102373382D01*
X91863301Y-102387896D01*
X91764500Y-102392750D01*
X77780500Y-102392750D01*
X77681699Y-102387896D01*
X77583849Y-102373382D01*
X77487893Y-102349346D01*
X77394755Y-102316021D01*
X77305332Y-102273727D01*
X77220485Y-102222871D01*
X77141032Y-102163945D01*
X77067736Y-102097514D01*
X77001305Y-102024218D01*
X76942379Y-101944765D01*
X76891523Y-101859918D01*
X76849229Y-101770495D01*
X76815904Y-101677357D01*
X76791868Y-101581401D01*
X76777354Y-101483551D01*
X76772500Y-101384750D01*
X76772500Y-87400750D01*
X76777354Y-87301949D01*
X76791868Y-87204099D01*
X76815904Y-87108143D01*
X76849229Y-87015005D01*
X76891523Y-86925582D01*
X76942379Y-86840735D01*
X77001305Y-86761282D01*
X77067736Y-86687986D01*
X77141032Y-86621555D01*
X77220485Y-86562629D01*
X77305332Y-86511773D01*
X77394755Y-86469479D01*
X77487893Y-86436154D01*
X77583849Y-86412118D01*
X77681699Y-86397604D01*
X77780500Y-86392750D01*
X91764500Y-86392750D01*
X91863301Y-86397604D01*
X91863301Y-86397604D01*
G37*
D11*
X84772500Y-94392750D03*
D10*
G36*
X72813301Y-77666354D02*
G01*
X72911151Y-77680868D01*
X73007107Y-77704904D01*
X73100245Y-77738229D01*
X73189668Y-77780523D01*
X73274515Y-77831379D01*
X73353968Y-77890305D01*
X73427264Y-77956736D01*
X73493695Y-78030032D01*
X73552621Y-78109485D01*
X73603477Y-78194332D01*
X73645771Y-78283755D01*
X73679096Y-78376893D01*
X73703132Y-78472849D01*
X73717646Y-78570699D01*
X73722500Y-78669500D01*
X73722500Y-92653500D01*
X73717646Y-92752301D01*
X73703132Y-92850151D01*
X73679096Y-92946107D01*
X73645771Y-93039245D01*
X73603477Y-93128668D01*
X73552621Y-93213515D01*
X73493695Y-93292968D01*
X73427264Y-93366264D01*
X73353968Y-93432695D01*
X73274515Y-93491621D01*
X73189668Y-93542477D01*
X73100245Y-93584771D01*
X73007107Y-93618096D01*
X72911151Y-93642132D01*
X72813301Y-93656646D01*
X72714500Y-93661500D01*
X58730500Y-93661500D01*
X58631699Y-93656646D01*
X58533849Y-93642132D01*
X58437893Y-93618096D01*
X58344755Y-93584771D01*
X58255332Y-93542477D01*
X58170485Y-93491621D01*
X58091032Y-93432695D01*
X58017736Y-93366264D01*
X57951305Y-93292968D01*
X57892379Y-93213515D01*
X57841523Y-93128668D01*
X57799229Y-93039245D01*
X57765904Y-92946107D01*
X57741868Y-92850151D01*
X57727354Y-92752301D01*
X57722500Y-92653500D01*
X57722500Y-78669500D01*
X57727354Y-78570699D01*
X57741868Y-78472849D01*
X57765904Y-78376893D01*
X57799229Y-78283755D01*
X57841523Y-78194332D01*
X57892379Y-78109485D01*
X57951305Y-78030032D01*
X58017736Y-77956736D01*
X58091032Y-77890305D01*
X58170485Y-77831379D01*
X58255332Y-77780523D01*
X58344755Y-77738229D01*
X58437893Y-77704904D01*
X58533849Y-77680868D01*
X58631699Y-77666354D01*
X58730500Y-77661500D01*
X72714500Y-77661500D01*
X72813301Y-77666354D01*
X72813301Y-77666354D01*
G37*
D11*
X65722500Y-85661500D03*
D10*
G36*
X34713301Y-81762104D02*
G01*
X34811151Y-81776618D01*
X34907107Y-81800654D01*
X35000245Y-81833979D01*
X35089668Y-81876273D01*
X35174515Y-81927129D01*
X35253968Y-81986055D01*
X35327264Y-82052486D01*
X35393695Y-82125782D01*
X35452621Y-82205235D01*
X35503477Y-82290082D01*
X35545771Y-82379505D01*
X35579096Y-82472643D01*
X35603132Y-82568599D01*
X35617646Y-82666449D01*
X35622500Y-82765250D01*
X35622500Y-96749250D01*
X35617646Y-96848051D01*
X35603132Y-96945901D01*
X35579096Y-97041857D01*
X35545771Y-97134995D01*
X35503477Y-97224418D01*
X35452621Y-97309265D01*
X35393695Y-97388718D01*
X35327264Y-97462014D01*
X35253968Y-97528445D01*
X35174515Y-97587371D01*
X35089668Y-97638227D01*
X35000245Y-97680521D01*
X34907107Y-97713846D01*
X34811151Y-97737882D01*
X34713301Y-97752396D01*
X34614500Y-97757250D01*
X20630500Y-97757250D01*
X20531699Y-97752396D01*
X20433849Y-97737882D01*
X20337893Y-97713846D01*
X20244755Y-97680521D01*
X20155332Y-97638227D01*
X20070485Y-97587371D01*
X19991032Y-97528445D01*
X19917736Y-97462014D01*
X19851305Y-97388718D01*
X19792379Y-97309265D01*
X19741523Y-97224418D01*
X19699229Y-97134995D01*
X19665904Y-97041857D01*
X19641868Y-96945901D01*
X19627354Y-96848051D01*
X19622500Y-96749250D01*
X19622500Y-82765250D01*
X19627354Y-82666449D01*
X19641868Y-82568599D01*
X19665904Y-82472643D01*
X19699229Y-82379505D01*
X19741523Y-82290082D01*
X19792379Y-82205235D01*
X19851305Y-82125782D01*
X19917736Y-82052486D01*
X19991032Y-81986055D01*
X20070485Y-81927129D01*
X20155332Y-81876273D01*
X20244755Y-81833979D01*
X20337893Y-81800654D01*
X20433849Y-81776618D01*
X20531699Y-81762104D01*
X20630500Y-81757250D01*
X34614500Y-81757250D01*
X34713301Y-81762104D01*
X34713301Y-81762104D01*
G37*
D11*
X27622500Y-89757250D03*
D10*
G36*
X110913301Y-67347604D02*
G01*
X111011151Y-67362118D01*
X111107107Y-67386154D01*
X111200245Y-67419479D01*
X111289668Y-67461773D01*
X111374515Y-67512629D01*
X111453968Y-67571555D01*
X111527264Y-67637986D01*
X111593695Y-67711282D01*
X111652621Y-67790735D01*
X111703477Y-67875582D01*
X111745771Y-67965005D01*
X111779096Y-68058143D01*
X111803132Y-68154099D01*
X111817646Y-68251949D01*
X111822500Y-68350750D01*
X111822500Y-82334750D01*
X111817646Y-82433551D01*
X111803132Y-82531401D01*
X111779096Y-82627357D01*
X111745771Y-82720495D01*
X111703477Y-82809918D01*
X111652621Y-82894765D01*
X111593695Y-82974218D01*
X111527264Y-83047514D01*
X111453968Y-83113945D01*
X111374515Y-83172871D01*
X111289668Y-83223727D01*
X111200245Y-83266021D01*
X111107107Y-83299346D01*
X111011151Y-83323382D01*
X110913301Y-83337896D01*
X110814500Y-83342750D01*
X96830500Y-83342750D01*
X96731699Y-83337896D01*
X96633849Y-83323382D01*
X96537893Y-83299346D01*
X96444755Y-83266021D01*
X96355332Y-83223727D01*
X96270485Y-83172871D01*
X96191032Y-83113945D01*
X96117736Y-83047514D01*
X96051305Y-82974218D01*
X95992379Y-82894765D01*
X95941523Y-82809918D01*
X95899229Y-82720495D01*
X95865904Y-82627357D01*
X95841868Y-82531401D01*
X95827354Y-82433551D01*
X95822500Y-82334750D01*
X95822500Y-68350750D01*
X95827354Y-68251949D01*
X95841868Y-68154099D01*
X95865904Y-68058143D01*
X95899229Y-67965005D01*
X95941523Y-67875582D01*
X95992379Y-67790735D01*
X96051305Y-67711282D01*
X96117736Y-67637986D01*
X96191032Y-67571555D01*
X96270485Y-67512629D01*
X96355332Y-67461773D01*
X96444755Y-67419479D01*
X96537893Y-67386154D01*
X96633849Y-67362118D01*
X96731699Y-67347604D01*
X96830500Y-67342750D01*
X110814500Y-67342750D01*
X110913301Y-67347604D01*
X110913301Y-67347604D01*
G37*
D11*
X103822500Y-75342750D03*
D10*
G36*
X91863301Y-67347604D02*
G01*
X91961151Y-67362118D01*
X92057107Y-67386154D01*
X92150245Y-67419479D01*
X92239668Y-67461773D01*
X92324515Y-67512629D01*
X92403968Y-67571555D01*
X92477264Y-67637986D01*
X92543695Y-67711282D01*
X92602621Y-67790735D01*
X92653477Y-67875582D01*
X92695771Y-67965005D01*
X92729096Y-68058143D01*
X92753132Y-68154099D01*
X92767646Y-68251949D01*
X92772500Y-68350750D01*
X92772500Y-82334750D01*
X92767646Y-82433551D01*
X92753132Y-82531401D01*
X92729096Y-82627357D01*
X92695771Y-82720495D01*
X92653477Y-82809918D01*
X92602621Y-82894765D01*
X92543695Y-82974218D01*
X92477264Y-83047514D01*
X92403968Y-83113945D01*
X92324515Y-83172871D01*
X92239668Y-83223727D01*
X92150245Y-83266021D01*
X92057107Y-83299346D01*
X91961151Y-83323382D01*
X91863301Y-83337896D01*
X91764500Y-83342750D01*
X77780500Y-83342750D01*
X77681699Y-83337896D01*
X77583849Y-83323382D01*
X77487893Y-83299346D01*
X77394755Y-83266021D01*
X77305332Y-83223727D01*
X77220485Y-83172871D01*
X77141032Y-83113945D01*
X77067736Y-83047514D01*
X77001305Y-82974218D01*
X76942379Y-82894765D01*
X76891523Y-82809918D01*
X76849229Y-82720495D01*
X76815904Y-82627357D01*
X76791868Y-82531401D01*
X76777354Y-82433551D01*
X76772500Y-82334750D01*
X76772500Y-68350750D01*
X76777354Y-68251949D01*
X76791868Y-68154099D01*
X76815904Y-68058143D01*
X76849229Y-67965005D01*
X76891523Y-67875582D01*
X76942379Y-67790735D01*
X77001305Y-67711282D01*
X77067736Y-67637986D01*
X77141032Y-67571555D01*
X77220485Y-67512629D01*
X77305332Y-67461773D01*
X77394755Y-67419479D01*
X77487893Y-67386154D01*
X77583849Y-67362118D01*
X77681699Y-67347604D01*
X77780500Y-67342750D01*
X91764500Y-67342750D01*
X91863301Y-67347604D01*
X91863301Y-67347604D01*
G37*
D11*
X84772500Y-75342750D03*
D10*
G36*
X72813301Y-57822604D02*
G01*
X72911151Y-57837118D01*
X73007107Y-57861154D01*
X73100245Y-57894479D01*
X73189668Y-57936773D01*
X73274515Y-57987629D01*
X73353968Y-58046555D01*
X73427264Y-58112986D01*
X73493695Y-58186282D01*
X73552621Y-58265735D01*
X73603477Y-58350582D01*
X73645771Y-58440005D01*
X73679096Y-58533143D01*
X73703132Y-58629099D01*
X73717646Y-58726949D01*
X73722500Y-58825750D01*
X73722500Y-72809750D01*
X73717646Y-72908551D01*
X73703132Y-73006401D01*
X73679096Y-73102357D01*
X73645771Y-73195495D01*
X73603477Y-73284918D01*
X73552621Y-73369765D01*
X73493695Y-73449218D01*
X73427264Y-73522514D01*
X73353968Y-73588945D01*
X73274515Y-73647871D01*
X73189668Y-73698727D01*
X73100245Y-73741021D01*
X73007107Y-73774346D01*
X72911151Y-73798382D01*
X72813301Y-73812896D01*
X72714500Y-73817750D01*
X58730500Y-73817750D01*
X58631699Y-73812896D01*
X58533849Y-73798382D01*
X58437893Y-73774346D01*
X58344755Y-73741021D01*
X58255332Y-73698727D01*
X58170485Y-73647871D01*
X58091032Y-73588945D01*
X58017736Y-73522514D01*
X57951305Y-73449218D01*
X57892379Y-73369765D01*
X57841523Y-73284918D01*
X57799229Y-73195495D01*
X57765904Y-73102357D01*
X57741868Y-73006401D01*
X57727354Y-72908551D01*
X57722500Y-72809750D01*
X57722500Y-58825750D01*
X57727354Y-58726949D01*
X57741868Y-58629099D01*
X57765904Y-58533143D01*
X57799229Y-58440005D01*
X57841523Y-58350582D01*
X57892379Y-58265735D01*
X57951305Y-58186282D01*
X58017736Y-58112986D01*
X58091032Y-58046555D01*
X58170485Y-57987629D01*
X58255332Y-57936773D01*
X58344755Y-57894479D01*
X58437893Y-57861154D01*
X58533849Y-57837118D01*
X58631699Y-57822604D01*
X58730500Y-57817750D01*
X72714500Y-57817750D01*
X72813301Y-57822604D01*
X72813301Y-57822604D01*
G37*
D11*
X65722500Y-65817750D03*
D10*
G36*
X53763301Y-67347604D02*
G01*
X53861151Y-67362118D01*
X53957107Y-67386154D01*
X54050245Y-67419479D01*
X54139668Y-67461773D01*
X54224515Y-67512629D01*
X54303968Y-67571555D01*
X54377264Y-67637986D01*
X54443695Y-67711282D01*
X54502621Y-67790735D01*
X54553477Y-67875582D01*
X54595771Y-67965005D01*
X54629096Y-68058143D01*
X54653132Y-68154099D01*
X54667646Y-68251949D01*
X54672500Y-68350750D01*
X54672500Y-82334750D01*
X54667646Y-82433551D01*
X54653132Y-82531401D01*
X54629096Y-82627357D01*
X54595771Y-82720495D01*
X54553477Y-82809918D01*
X54502621Y-82894765D01*
X54443695Y-82974218D01*
X54377264Y-83047514D01*
X54303968Y-83113945D01*
X54224515Y-83172871D01*
X54139668Y-83223727D01*
X54050245Y-83266021D01*
X53957107Y-83299346D01*
X53861151Y-83323382D01*
X53763301Y-83337896D01*
X53664500Y-83342750D01*
X39680500Y-83342750D01*
X39581699Y-83337896D01*
X39483849Y-83323382D01*
X39387893Y-83299346D01*
X39294755Y-83266021D01*
X39205332Y-83223727D01*
X39120485Y-83172871D01*
X39041032Y-83113945D01*
X38967736Y-83047514D01*
X38901305Y-82974218D01*
X38842379Y-82894765D01*
X38791523Y-82809918D01*
X38749229Y-82720495D01*
X38715904Y-82627357D01*
X38691868Y-82531401D01*
X38677354Y-82433551D01*
X38672500Y-82334750D01*
X38672500Y-68350750D01*
X38677354Y-68251949D01*
X38691868Y-68154099D01*
X38715904Y-68058143D01*
X38749229Y-67965005D01*
X38791523Y-67875582D01*
X38842379Y-67790735D01*
X38901305Y-67711282D01*
X38967736Y-67637986D01*
X39041032Y-67571555D01*
X39120485Y-67512629D01*
X39205332Y-67461773D01*
X39294755Y-67419479D01*
X39387893Y-67386154D01*
X39483849Y-67362118D01*
X39581699Y-67347604D01*
X39680500Y-67342750D01*
X53664500Y-67342750D01*
X53763301Y-67347604D01*
X53763301Y-67347604D01*
G37*
D11*
X46672500Y-75342750D03*
D10*
G36*
X110913301Y-48297604D02*
G01*
X111011151Y-48312118D01*
X111107107Y-48336154D01*
X111200245Y-48369479D01*
X111289668Y-48411773D01*
X111374515Y-48462629D01*
X111453968Y-48521555D01*
X111527264Y-48587986D01*
X111593695Y-48661282D01*
X111652621Y-48740735D01*
X111703477Y-48825582D01*
X111745771Y-48915005D01*
X111779096Y-49008143D01*
X111803132Y-49104099D01*
X111817646Y-49201949D01*
X111822500Y-49300750D01*
X111822500Y-63284750D01*
X111817646Y-63383551D01*
X111803132Y-63481401D01*
X111779096Y-63577357D01*
X111745771Y-63670495D01*
X111703477Y-63759918D01*
X111652621Y-63844765D01*
X111593695Y-63924218D01*
X111527264Y-63997514D01*
X111453968Y-64063945D01*
X111374515Y-64122871D01*
X111289668Y-64173727D01*
X111200245Y-64216021D01*
X111107107Y-64249346D01*
X111011151Y-64273382D01*
X110913301Y-64287896D01*
X110814500Y-64292750D01*
X96830500Y-64292750D01*
X96731699Y-64287896D01*
X96633849Y-64273382D01*
X96537893Y-64249346D01*
X96444755Y-64216021D01*
X96355332Y-64173727D01*
X96270485Y-64122871D01*
X96191032Y-64063945D01*
X96117736Y-63997514D01*
X96051305Y-63924218D01*
X95992379Y-63844765D01*
X95941523Y-63759918D01*
X95899229Y-63670495D01*
X95865904Y-63577357D01*
X95841868Y-63481401D01*
X95827354Y-63383551D01*
X95822500Y-63284750D01*
X95822500Y-49300750D01*
X95827354Y-49201949D01*
X95841868Y-49104099D01*
X95865904Y-49008143D01*
X95899229Y-48915005D01*
X95941523Y-48825582D01*
X95992379Y-48740735D01*
X96051305Y-48661282D01*
X96117736Y-48587986D01*
X96191032Y-48521555D01*
X96270485Y-48462629D01*
X96355332Y-48411773D01*
X96444755Y-48369479D01*
X96537893Y-48336154D01*
X96633849Y-48312118D01*
X96731699Y-48297604D01*
X96830500Y-48292750D01*
X110814500Y-48292750D01*
X110913301Y-48297604D01*
X110913301Y-48297604D01*
G37*
D11*
X103822500Y-56292750D03*
D10*
G36*
X91863301Y-48297604D02*
G01*
X91961151Y-48312118D01*
X92057107Y-48336154D01*
X92150245Y-48369479D01*
X92239668Y-48411773D01*
X92324515Y-48462629D01*
X92403968Y-48521555D01*
X92477264Y-48587986D01*
X92543695Y-48661282D01*
X92602621Y-48740735D01*
X92653477Y-48825582D01*
X92695771Y-48915005D01*
X92729096Y-49008143D01*
X92753132Y-49104099D01*
X92767646Y-49201949D01*
X92772500Y-49300750D01*
X92772500Y-63284750D01*
X92767646Y-63383551D01*
X92753132Y-63481401D01*
X92729096Y-63577357D01*
X92695771Y-63670495D01*
X92653477Y-63759918D01*
X92602621Y-63844765D01*
X92543695Y-63924218D01*
X92477264Y-63997514D01*
X92403968Y-64063945D01*
X92324515Y-64122871D01*
X92239668Y-64173727D01*
X92150245Y-64216021D01*
X92057107Y-64249346D01*
X91961151Y-64273382D01*
X91863301Y-64287896D01*
X91764500Y-64292750D01*
X77780500Y-64292750D01*
X77681699Y-64287896D01*
X77583849Y-64273382D01*
X77487893Y-64249346D01*
X77394755Y-64216021D01*
X77305332Y-64173727D01*
X77220485Y-64122871D01*
X77141032Y-64063945D01*
X77067736Y-63997514D01*
X77001305Y-63924218D01*
X76942379Y-63844765D01*
X76891523Y-63759918D01*
X76849229Y-63670495D01*
X76815904Y-63577357D01*
X76791868Y-63481401D01*
X76777354Y-63383551D01*
X76772500Y-63284750D01*
X76772500Y-49300750D01*
X76777354Y-49201949D01*
X76791868Y-49104099D01*
X76815904Y-49008143D01*
X76849229Y-48915005D01*
X76891523Y-48825582D01*
X76942379Y-48740735D01*
X77001305Y-48661282D01*
X77067736Y-48587986D01*
X77141032Y-48521555D01*
X77220485Y-48462629D01*
X77305332Y-48411773D01*
X77394755Y-48369479D01*
X77487893Y-48336154D01*
X77583849Y-48312118D01*
X77681699Y-48297604D01*
X77780500Y-48292750D01*
X91764500Y-48292750D01*
X91863301Y-48297604D01*
X91863301Y-48297604D01*
G37*
D11*
X84772500Y-56292750D03*
D10*
G36*
X72813301Y-38772604D02*
G01*
X72911151Y-38787118D01*
X73007107Y-38811154D01*
X73100245Y-38844479D01*
X73189668Y-38886773D01*
X73274515Y-38937629D01*
X73353968Y-38996555D01*
X73427264Y-39062986D01*
X73493695Y-39136282D01*
X73552621Y-39215735D01*
X73603477Y-39300582D01*
X73645771Y-39390005D01*
X73679096Y-39483143D01*
X73703132Y-39579099D01*
X73717646Y-39676949D01*
X73722500Y-39775750D01*
X73722500Y-53759750D01*
X73717646Y-53858551D01*
X73703132Y-53956401D01*
X73679096Y-54052357D01*
X73645771Y-54145495D01*
X73603477Y-54234918D01*
X73552621Y-54319765D01*
X73493695Y-54399218D01*
X73427264Y-54472514D01*
X73353968Y-54538945D01*
X73274515Y-54597871D01*
X73189668Y-54648727D01*
X73100245Y-54691021D01*
X73007107Y-54724346D01*
X72911151Y-54748382D01*
X72813301Y-54762896D01*
X72714500Y-54767750D01*
X58730500Y-54767750D01*
X58631699Y-54762896D01*
X58533849Y-54748382D01*
X58437893Y-54724346D01*
X58344755Y-54691021D01*
X58255332Y-54648727D01*
X58170485Y-54597871D01*
X58091032Y-54538945D01*
X58017736Y-54472514D01*
X57951305Y-54399218D01*
X57892379Y-54319765D01*
X57841523Y-54234918D01*
X57799229Y-54145495D01*
X57765904Y-54052357D01*
X57741868Y-53956401D01*
X57727354Y-53858551D01*
X57722500Y-53759750D01*
X57722500Y-39775750D01*
X57727354Y-39676949D01*
X57741868Y-39579099D01*
X57765904Y-39483143D01*
X57799229Y-39390005D01*
X57841523Y-39300582D01*
X57892379Y-39215735D01*
X57951305Y-39136282D01*
X58017736Y-39062986D01*
X58091032Y-38996555D01*
X58170485Y-38937629D01*
X58255332Y-38886773D01*
X58344755Y-38844479D01*
X58437893Y-38811154D01*
X58533849Y-38787118D01*
X58631699Y-38772604D01*
X58730500Y-38767750D01*
X72714500Y-38767750D01*
X72813301Y-38772604D01*
X72813301Y-38772604D01*
G37*
D11*
X65722500Y-46767750D03*
D10*
G36*
X53763301Y-48297604D02*
G01*
X53861151Y-48312118D01*
X53957107Y-48336154D01*
X54050245Y-48369479D01*
X54139668Y-48411773D01*
X54224515Y-48462629D01*
X54303968Y-48521555D01*
X54377264Y-48587986D01*
X54443695Y-48661282D01*
X54502621Y-48740735D01*
X54553477Y-48825582D01*
X54595771Y-48915005D01*
X54629096Y-49008143D01*
X54653132Y-49104099D01*
X54667646Y-49201949D01*
X54672500Y-49300750D01*
X54672500Y-63284750D01*
X54667646Y-63383551D01*
X54653132Y-63481401D01*
X54629096Y-63577357D01*
X54595771Y-63670495D01*
X54553477Y-63759918D01*
X54502621Y-63844765D01*
X54443695Y-63924218D01*
X54377264Y-63997514D01*
X54303968Y-64063945D01*
X54224515Y-64122871D01*
X54139668Y-64173727D01*
X54050245Y-64216021D01*
X53957107Y-64249346D01*
X53861151Y-64273382D01*
X53763301Y-64287896D01*
X53664500Y-64292750D01*
X39680500Y-64292750D01*
X39581699Y-64287896D01*
X39483849Y-64273382D01*
X39387893Y-64249346D01*
X39294755Y-64216021D01*
X39205332Y-64173727D01*
X39120485Y-64122871D01*
X39041032Y-64063945D01*
X38967736Y-63997514D01*
X38901305Y-63924218D01*
X38842379Y-63844765D01*
X38791523Y-63759918D01*
X38749229Y-63670495D01*
X38715904Y-63577357D01*
X38691868Y-63481401D01*
X38677354Y-63383551D01*
X38672500Y-63284750D01*
X38672500Y-49300750D01*
X38677354Y-49201949D01*
X38691868Y-49104099D01*
X38715904Y-49008143D01*
X38749229Y-48915005D01*
X38791523Y-48825582D01*
X38842379Y-48740735D01*
X38901305Y-48661282D01*
X38967736Y-48587986D01*
X39041032Y-48521555D01*
X39120485Y-48462629D01*
X39205332Y-48411773D01*
X39294755Y-48369479D01*
X39387893Y-48336154D01*
X39483849Y-48312118D01*
X39581699Y-48297604D01*
X39680500Y-48292750D01*
X53664500Y-48292750D01*
X53763301Y-48297604D01*
X53763301Y-48297604D01*
G37*
D11*
X46672500Y-56292750D03*
D10*
G36*
X91863301Y-29247604D02*
G01*
X91961151Y-29262118D01*
X92057107Y-29286154D01*
X92150245Y-29319479D01*
X92239668Y-29361773D01*
X92324515Y-29412629D01*
X92403968Y-29471555D01*
X92477264Y-29537986D01*
X92543695Y-29611282D01*
X92602621Y-29690735D01*
X92653477Y-29775582D01*
X92695771Y-29865005D01*
X92729096Y-29958143D01*
X92753132Y-30054099D01*
X92767646Y-30151949D01*
X92772500Y-30250750D01*
X92772500Y-44234750D01*
X92767646Y-44333551D01*
X92753132Y-44431401D01*
X92729096Y-44527357D01*
X92695771Y-44620495D01*
X92653477Y-44709918D01*
X92602621Y-44794765D01*
X92543695Y-44874218D01*
X92477264Y-44947514D01*
X92403968Y-45013945D01*
X92324515Y-45072871D01*
X92239668Y-45123727D01*
X92150245Y-45166021D01*
X92057107Y-45199346D01*
X91961151Y-45223382D01*
X91863301Y-45237896D01*
X91764500Y-45242750D01*
X77780500Y-45242750D01*
X77681699Y-45237896D01*
X77583849Y-45223382D01*
X77487893Y-45199346D01*
X77394755Y-45166021D01*
X77305332Y-45123727D01*
X77220485Y-45072871D01*
X77141032Y-45013945D01*
X77067736Y-44947514D01*
X77001305Y-44874218D01*
X76942379Y-44794765D01*
X76891523Y-44709918D01*
X76849229Y-44620495D01*
X76815904Y-44527357D01*
X76791868Y-44431401D01*
X76777354Y-44333551D01*
X76772500Y-44234750D01*
X76772500Y-30250750D01*
X76777354Y-30151949D01*
X76791868Y-30054099D01*
X76815904Y-29958143D01*
X76849229Y-29865005D01*
X76891523Y-29775582D01*
X76942379Y-29690735D01*
X77001305Y-29611282D01*
X77067736Y-29537986D01*
X77141032Y-29471555D01*
X77220485Y-29412629D01*
X77305332Y-29361773D01*
X77394755Y-29319479D01*
X77487893Y-29286154D01*
X77583849Y-29262118D01*
X77681699Y-29247604D01*
X77780500Y-29242750D01*
X91764500Y-29242750D01*
X91863301Y-29247604D01*
X91863301Y-29247604D01*
G37*
D11*
X84772500Y-37242750D03*
D10*
G36*
X72813301Y-19722604D02*
G01*
X72911151Y-19737118D01*
X73007107Y-19761154D01*
X73100245Y-19794479D01*
X73189668Y-19836773D01*
X73274515Y-19887629D01*
X73353968Y-19946555D01*
X73427264Y-20012986D01*
X73493695Y-20086282D01*
X73552621Y-20165735D01*
X73603477Y-20250582D01*
X73645771Y-20340005D01*
X73679096Y-20433143D01*
X73703132Y-20529099D01*
X73717646Y-20626949D01*
X73722500Y-20725750D01*
X73722500Y-34709750D01*
X73717646Y-34808551D01*
X73703132Y-34906401D01*
X73679096Y-35002357D01*
X73645771Y-35095495D01*
X73603477Y-35184918D01*
X73552621Y-35269765D01*
X73493695Y-35349218D01*
X73427264Y-35422514D01*
X73353968Y-35488945D01*
X73274515Y-35547871D01*
X73189668Y-35598727D01*
X73100245Y-35641021D01*
X73007107Y-35674346D01*
X72911151Y-35698382D01*
X72813301Y-35712896D01*
X72714500Y-35717750D01*
X58730500Y-35717750D01*
X58631699Y-35712896D01*
X58533849Y-35698382D01*
X58437893Y-35674346D01*
X58344755Y-35641021D01*
X58255332Y-35598727D01*
X58170485Y-35547871D01*
X58091032Y-35488945D01*
X58017736Y-35422514D01*
X57951305Y-35349218D01*
X57892379Y-35269765D01*
X57841523Y-35184918D01*
X57799229Y-35095495D01*
X57765904Y-35002357D01*
X57741868Y-34906401D01*
X57727354Y-34808551D01*
X57722500Y-34709750D01*
X57722500Y-20725750D01*
X57727354Y-20626949D01*
X57741868Y-20529099D01*
X57765904Y-20433143D01*
X57799229Y-20340005D01*
X57841523Y-20250582D01*
X57892379Y-20165735D01*
X57951305Y-20086282D01*
X58017736Y-20012986D01*
X58091032Y-19946555D01*
X58170485Y-19887629D01*
X58255332Y-19836773D01*
X58344755Y-19794479D01*
X58437893Y-19761154D01*
X58533849Y-19737118D01*
X58631699Y-19722604D01*
X58730500Y-19717750D01*
X72714500Y-19717750D01*
X72813301Y-19722604D01*
X72813301Y-19722604D01*
G37*
D11*
X65722500Y-27717750D03*
D12*
X103759000Y-35052000D03*
X122809000Y-98425000D03*
X129159000Y-145542000D03*
X70739000Y-106172000D03*
X44069000Y-91059000D03*
X27559000Y-34925000D03*
M02*
