G04 #@! TF.GenerationSoftware,KiCad,Pcbnew,(5.1.4-0)*
G04 #@! TF.CreationDate,2021-02-04T00:36:41-05:00*
G04 #@! TF.ProjectId,mxnatee,6d786e61-7465-4652-9e6b-696361645f70,rev?*
G04 #@! TF.SameCoordinates,Original*
G04 #@! TF.FileFunction,Legend,Bot*
G04 #@! TF.FilePolarity,Positive*
%FSLAX46Y46*%
G04 Gerber Fmt 4.6, Leading zero omitted, Abs format (unit mm)*
G04 Created by KiCad (PCBNEW (5.1.4-0)) date 2021-02-04 00:36:41*
%MOMM*%
%LPD*%
G04 APERTURE LIST*
%ADD10C,0.010000*%
%ADD11C,0.150000*%
%ADD12C,0.120000*%
G04 APERTURE END LIST*
D10*
G36*
X102624105Y-40414957D02*
G01*
X102483329Y-40526328D01*
X102436663Y-40757484D01*
X102490501Y-41167761D01*
X102651238Y-41816495D01*
X102849770Y-42508714D01*
X103058921Y-43692717D01*
X103031601Y-44574546D01*
X102755368Y-46024932D01*
X102248324Y-47216293D01*
X101489074Y-48185933D01*
X100538643Y-48920936D01*
X100128983Y-49286930D01*
X100072651Y-49649189D01*
X100276366Y-49917830D01*
X100538878Y-50020536D01*
X101082910Y-50157882D01*
X101830875Y-50312463D01*
X102705187Y-50466871D01*
X102771009Y-50477527D01*
X104007502Y-50675502D01*
X105311714Y-50882620D01*
X106633752Y-51091131D01*
X107923726Y-51293283D01*
X109131743Y-51481326D01*
X110207913Y-51647509D01*
X111102343Y-51784081D01*
X111765142Y-51883292D01*
X112146419Y-51937389D01*
X112217679Y-51945116D01*
X112391164Y-51820896D01*
X112726628Y-51500636D01*
X113068114Y-51142938D01*
X114023486Y-49853704D01*
X114733579Y-48361015D01*
X115162638Y-46757668D01*
X115279714Y-45402944D01*
X115279714Y-45257230D01*
X114733492Y-45257230D01*
X114661216Y-45910029D01*
X114500870Y-46705177D01*
X114274195Y-47544762D01*
X114002930Y-48330873D01*
X113835522Y-48719964D01*
X113396962Y-49544933D01*
X112924942Y-50268414D01*
X112469061Y-50826685D01*
X112078914Y-51156019D01*
X111891847Y-51217285D01*
X111612449Y-51189629D01*
X111055262Y-51114286D01*
X110300507Y-51002698D01*
X109428402Y-50866302D01*
X109410413Y-50863416D01*
X108413872Y-50704295D01*
X107192753Y-50510627D01*
X105881030Y-50303591D01*
X104612679Y-50104363D01*
X104224305Y-50043602D01*
X103227510Y-49883732D01*
X102361822Y-49737083D01*
X101688417Y-49614648D01*
X101268470Y-49527419D01*
X101157337Y-49492527D01*
X101236090Y-49338927D01*
X101526558Y-49025258D01*
X101891391Y-48686319D01*
X102658888Y-47843048D01*
X103190064Y-46846738D01*
X103509874Y-45636919D01*
X103630433Y-44472294D01*
X103646291Y-43394886D01*
X103561336Y-42571539D01*
X103433601Y-42082705D01*
X103285457Y-41589866D01*
X103222986Y-41259022D01*
X103232949Y-41190241D01*
X103444945Y-41200949D01*
X103965331Y-41318637D01*
X104758994Y-41533358D01*
X105790821Y-41835164D01*
X107025702Y-42214108D01*
X108428524Y-42660243D01*
X108476143Y-42675630D01*
X109567907Y-43025094D01*
X110781038Y-43407873D01*
X111942296Y-43769540D01*
X112623369Y-43978517D01*
X113453543Y-44251023D01*
X114121049Y-44509083D01*
X114558262Y-44724434D01*
X114695959Y-44844691D01*
X114733492Y-45257230D01*
X115279714Y-45257230D01*
X115279714Y-44190175D01*
X113964357Y-43727660D01*
X113244537Y-43483880D01*
X112307819Y-43179777D01*
X111285414Y-42857416D01*
X110471857Y-42607972D01*
X109457139Y-42301429D01*
X108238219Y-41932815D01*
X106958126Y-41545403D01*
X105759887Y-41182466D01*
X105592604Y-41131766D01*
X104644147Y-40855566D01*
X103805879Y-40632602D01*
X103144283Y-40478930D01*
X102725845Y-40410603D01*
X102624105Y-40414957D01*
X102624105Y-40414957D01*
G37*
X102624105Y-40414957D02*
X102483329Y-40526328D01*
X102436663Y-40757484D01*
X102490501Y-41167761D01*
X102651238Y-41816495D01*
X102849770Y-42508714D01*
X103058921Y-43692717D01*
X103031601Y-44574546D01*
X102755368Y-46024932D01*
X102248324Y-47216293D01*
X101489074Y-48185933D01*
X100538643Y-48920936D01*
X100128983Y-49286930D01*
X100072651Y-49649189D01*
X100276366Y-49917830D01*
X100538878Y-50020536D01*
X101082910Y-50157882D01*
X101830875Y-50312463D01*
X102705187Y-50466871D01*
X102771009Y-50477527D01*
X104007502Y-50675502D01*
X105311714Y-50882620D01*
X106633752Y-51091131D01*
X107923726Y-51293283D01*
X109131743Y-51481326D01*
X110207913Y-51647509D01*
X111102343Y-51784081D01*
X111765142Y-51883292D01*
X112146419Y-51937389D01*
X112217679Y-51945116D01*
X112391164Y-51820896D01*
X112726628Y-51500636D01*
X113068114Y-51142938D01*
X114023486Y-49853704D01*
X114733579Y-48361015D01*
X115162638Y-46757668D01*
X115279714Y-45402944D01*
X115279714Y-45257230D01*
X114733492Y-45257230D01*
X114661216Y-45910029D01*
X114500870Y-46705177D01*
X114274195Y-47544762D01*
X114002930Y-48330873D01*
X113835522Y-48719964D01*
X113396962Y-49544933D01*
X112924942Y-50268414D01*
X112469061Y-50826685D01*
X112078914Y-51156019D01*
X111891847Y-51217285D01*
X111612449Y-51189629D01*
X111055262Y-51114286D01*
X110300507Y-51002698D01*
X109428402Y-50866302D01*
X109410413Y-50863416D01*
X108413872Y-50704295D01*
X107192753Y-50510627D01*
X105881030Y-50303591D01*
X104612679Y-50104363D01*
X104224305Y-50043602D01*
X103227510Y-49883732D01*
X102361822Y-49737083D01*
X101688417Y-49614648D01*
X101268470Y-49527419D01*
X101157337Y-49492527D01*
X101236090Y-49338927D01*
X101526558Y-49025258D01*
X101891391Y-48686319D01*
X102658888Y-47843048D01*
X103190064Y-46846738D01*
X103509874Y-45636919D01*
X103630433Y-44472294D01*
X103646291Y-43394886D01*
X103561336Y-42571539D01*
X103433601Y-42082705D01*
X103285457Y-41589866D01*
X103222986Y-41259022D01*
X103232949Y-41190241D01*
X103444945Y-41200949D01*
X103965331Y-41318637D01*
X104758994Y-41533358D01*
X105790821Y-41835164D01*
X107025702Y-42214108D01*
X108428524Y-42660243D01*
X108476143Y-42675630D01*
X109567907Y-43025094D01*
X110781038Y-43407873D01*
X111942296Y-43769540D01*
X112623369Y-43978517D01*
X113453543Y-44251023D01*
X114121049Y-44509083D01*
X114558262Y-44724434D01*
X114695959Y-44844691D01*
X114733492Y-45257230D01*
X115279714Y-45257230D01*
X115279714Y-44190175D01*
X113964357Y-43727660D01*
X113244537Y-43483880D01*
X112307819Y-43179777D01*
X111285414Y-42857416D01*
X110471857Y-42607972D01*
X109457139Y-42301429D01*
X108238219Y-41932815D01*
X106958126Y-41545403D01*
X105759887Y-41182466D01*
X105592604Y-41131766D01*
X104644147Y-40855566D01*
X103805879Y-40632602D01*
X103144283Y-40478930D01*
X102725845Y-40410603D01*
X102624105Y-40414957D01*
G36*
X45040433Y-53967188D02*
G01*
X44755378Y-54268779D01*
X44749033Y-54668816D01*
X44814171Y-54800500D01*
X45169798Y-55104022D01*
X45606239Y-55157251D01*
X45958446Y-54955312D01*
X46115320Y-54565826D01*
X46123998Y-54266200D01*
X45992760Y-53954189D01*
X45650753Y-53850672D01*
X45540202Y-53848000D01*
X45040433Y-53967188D01*
X45040433Y-53967188D01*
G37*
X45040433Y-53967188D02*
X44755378Y-54268779D01*
X44749033Y-54668816D01*
X44814171Y-54800500D01*
X45169798Y-55104022D01*
X45606239Y-55157251D01*
X45958446Y-54955312D01*
X46115320Y-54565826D01*
X46123998Y-54266200D01*
X45992760Y-53954189D01*
X45650753Y-53850672D01*
X45540202Y-53848000D01*
X45040433Y-53967188D01*
G36*
X61043805Y-55016120D02*
G01*
X61032571Y-55027285D01*
X60735326Y-55530296D01*
X60669216Y-56119369D01*
X60831290Y-56655958D01*
X61072940Y-56921998D01*
X61505606Y-57159309D01*
X61872691Y-57144464D01*
X62319298Y-56866983D01*
X62368818Y-56828403D01*
X62762155Y-56336938D01*
X62807774Y-55785532D01*
X62504787Y-55220902D01*
X62401532Y-55109753D01*
X61916445Y-54743418D01*
X61486963Y-54713599D01*
X61043805Y-55016120D01*
X61043805Y-55016120D01*
G37*
X61043805Y-55016120D02*
X61032571Y-55027285D01*
X60735326Y-55530296D01*
X60669216Y-56119369D01*
X60831290Y-56655958D01*
X61072940Y-56921998D01*
X61505606Y-57159309D01*
X61872691Y-57144464D01*
X62319298Y-56866983D01*
X62368818Y-56828403D01*
X62762155Y-56336938D01*
X62807774Y-55785532D01*
X62504787Y-55220902D01*
X62401532Y-55109753D01*
X61916445Y-54743418D01*
X61486963Y-54713599D01*
X61043805Y-55016120D01*
G36*
X47951816Y-62713931D02*
G01*
X47267323Y-63133966D01*
X47201505Y-63192901D01*
X46609000Y-63738517D01*
X47153285Y-63466162D01*
X47839247Y-63247548D01*
X48569861Y-63207454D01*
X49205173Y-63343304D01*
X49483401Y-63509071D01*
X49717738Y-63687992D01*
X49723876Y-63606386D01*
X49696876Y-63554428D01*
X49200379Y-62929058D01*
X48607430Y-62647260D01*
X47951816Y-62713931D01*
X47951816Y-62713931D01*
G37*
X47951816Y-62713931D02*
X47267323Y-63133966D01*
X47201505Y-63192901D01*
X46609000Y-63738517D01*
X47153285Y-63466162D01*
X47839247Y-63247548D01*
X48569861Y-63207454D01*
X49205173Y-63343304D01*
X49483401Y-63509071D01*
X49717738Y-63687992D01*
X49723876Y-63606386D01*
X49696876Y-63554428D01*
X49200379Y-62929058D01*
X48607430Y-62647260D01*
X47951816Y-62713931D01*
G36*
X42527549Y-62854446D02*
G01*
X42121123Y-63292561D01*
X42053197Y-63411846D01*
X41861268Y-63856400D01*
X41885278Y-64012331D01*
X42115412Y-63871846D01*
X42346100Y-63644427D01*
X42850077Y-63283799D01*
X43361963Y-63208882D01*
X43760571Y-63409285D01*
X43943965Y-63526272D01*
X43953371Y-63370294D01*
X43790474Y-62998215D01*
X43455867Y-62684977D01*
X43003678Y-62644486D01*
X42527549Y-62854446D01*
X42527549Y-62854446D01*
G37*
X42527549Y-62854446D02*
X42121123Y-63292561D01*
X42053197Y-63411846D01*
X41861268Y-63856400D01*
X41885278Y-64012331D01*
X42115412Y-63871846D01*
X42346100Y-63644427D01*
X42850077Y-63283799D01*
X43361963Y-63208882D01*
X43760571Y-63409285D01*
X43943965Y-63526272D01*
X43953371Y-63370294D01*
X43790474Y-62998215D01*
X43455867Y-62684977D01*
X43003678Y-62644486D01*
X42527549Y-62854446D01*
G36*
X44678245Y-67068852D02*
G01*
X44663797Y-67092285D01*
X44515299Y-67553910D01*
X44420588Y-68261372D01*
X44381879Y-69101335D01*
X44401390Y-69960463D01*
X44481335Y-70725420D01*
X44583991Y-71174428D01*
X44687160Y-71477868D01*
X44759764Y-71623122D01*
X44807545Y-71572719D01*
X44836244Y-71289185D01*
X44851603Y-70735049D01*
X44859364Y-69872839D01*
X44861974Y-69360143D01*
X44861352Y-68324416D01*
X44845899Y-67614392D01*
X44812383Y-67193103D01*
X44757576Y-67023579D01*
X44678245Y-67068852D01*
X44678245Y-67068852D01*
G37*
X44678245Y-67068852D02*
X44663797Y-67092285D01*
X44515299Y-67553910D01*
X44420588Y-68261372D01*
X44381879Y-69101335D01*
X44401390Y-69960463D01*
X44481335Y-70725420D01*
X44583991Y-71174428D01*
X44687160Y-71477868D01*
X44759764Y-71623122D01*
X44807545Y-71572719D01*
X44836244Y-71289185D01*
X44851603Y-70735049D01*
X44859364Y-69872839D01*
X44861974Y-69360143D01*
X44861352Y-68324416D01*
X44845899Y-67614392D01*
X44812383Y-67193103D01*
X44757576Y-67023579D01*
X44678245Y-67068852D01*
G36*
X62846857Y-76526571D02*
G01*
X62937571Y-76617285D01*
X63028285Y-76526571D01*
X62937571Y-76435857D01*
X62846857Y-76526571D01*
X62846857Y-76526571D01*
G37*
X62846857Y-76526571D02*
X62937571Y-76617285D01*
X63028285Y-76526571D01*
X62937571Y-76435857D01*
X62846857Y-76526571D01*
G36*
X82536580Y-28777083D02*
G01*
X81591168Y-28890196D01*
X80737161Y-29094241D01*
X79885346Y-29402031D01*
X79492163Y-29571872D01*
X78791593Y-29947183D01*
X78177694Y-30434739D01*
X77529412Y-31132837D01*
X77443760Y-31235184D01*
X76825204Y-32071895D01*
X76329840Y-32970871D01*
X75922296Y-34016251D01*
X75567199Y-35292174D01*
X75373897Y-36158714D01*
X75089898Y-37519428D01*
X69013735Y-37629501D01*
X67300624Y-37662871D01*
X65902614Y-37696656D01*
X64771959Y-37733898D01*
X63860912Y-37777640D01*
X63121726Y-37830923D01*
X62506656Y-37896790D01*
X61967954Y-37978283D01*
X61457875Y-38078444D01*
X61253085Y-38123978D01*
X59069266Y-38686783D01*
X57019669Y-39341461D01*
X55183620Y-40060315D01*
X53807863Y-40723818D01*
X51203579Y-42324172D01*
X48866693Y-44166401D01*
X46804143Y-46239741D01*
X45022867Y-48533428D01*
X43529803Y-51036698D01*
X42331889Y-53738789D01*
X41436064Y-56628936D01*
X40849266Y-59696376D01*
X40693501Y-61069177D01*
X40452405Y-62915792D01*
X40064635Y-64616398D01*
X39890204Y-65204174D01*
X39393313Y-66849741D01*
X39020910Y-68233808D01*
X38758322Y-69429990D01*
X38590879Y-70511899D01*
X38503908Y-71553149D01*
X38483371Y-72263000D01*
X38495926Y-73324764D01*
X38581133Y-74130440D01*
X38773300Y-74784763D01*
X39106734Y-75392470D01*
X39615742Y-76058297D01*
X39796527Y-76271890D01*
X40683915Y-77046780D01*
X41724212Y-77511037D01*
X42872218Y-77658030D01*
X44082734Y-77481129D01*
X45153352Y-77057668D01*
X45731726Y-76794452D01*
X46049567Y-76741063D01*
X46129535Y-76811749D01*
X46395629Y-77249447D01*
X46886445Y-77773358D01*
X47506942Y-78298180D01*
X48162079Y-78738611D01*
X48439367Y-78884890D01*
X49421143Y-79349344D01*
X49421143Y-80517077D01*
X49455867Y-81385329D01*
X49550208Y-82451875D01*
X49689417Y-83609353D01*
X49858746Y-84750399D01*
X50043445Y-85767653D01*
X50228767Y-86553750D01*
X50268654Y-86686571D01*
X51170158Y-89222049D01*
X52188310Y-91548652D01*
X53299543Y-93618547D01*
X54480288Y-95383904D01*
X54684221Y-95647743D01*
X55436125Y-96488901D01*
X56466458Y-97474145D01*
X57736098Y-98571979D01*
X59205928Y-99750907D01*
X60836828Y-100979433D01*
X62589679Y-102226060D01*
X64216850Y-103322809D01*
X66266281Y-104617428D01*
X68099119Y-105661940D01*
X69747912Y-106470045D01*
X71245204Y-107055447D01*
X72623544Y-107431845D01*
X73915477Y-107612942D01*
X74458285Y-107634230D01*
X75549672Y-107510452D01*
X76442278Y-107144092D01*
X77102410Y-106572242D01*
X77496373Y-105831998D01*
X77573561Y-105117094D01*
X76635428Y-105117094D01*
X76494715Y-105868488D01*
X76071954Y-106395660D01*
X75366209Y-106698895D01*
X74376548Y-106778479D01*
X73102037Y-106634698D01*
X72261412Y-106456209D01*
X71386917Y-106185070D01*
X70315191Y-105761084D01*
X69151167Y-105232305D01*
X67999776Y-104646790D01*
X66965950Y-104052596D01*
X66838285Y-103972542D01*
X64012284Y-102127277D01*
X61529626Y-100397381D01*
X59390415Y-98782937D01*
X57594758Y-97284030D01*
X56142760Y-95900743D01*
X55034526Y-94633161D01*
X54918574Y-94480712D01*
X53678222Y-92575033D01*
X52584816Y-90401935D01*
X51664523Y-88036167D01*
X50943514Y-85552477D01*
X50447958Y-83025614D01*
X50237319Y-81109535D01*
X50113277Y-79342500D01*
X50616236Y-79151275D01*
X50947530Y-79070005D01*
X51297582Y-79116695D01*
X51777951Y-79317514D01*
X52155208Y-79512239D01*
X52724558Y-79798674D01*
X53182340Y-79998273D01*
X53409960Y-80064428D01*
X53701962Y-80161639D01*
X54102014Y-80396049D01*
X54110278Y-80401816D01*
X54468336Y-80611809D01*
X55069891Y-80922491D01*
X55825951Y-81289241D01*
X56519691Y-81609961D01*
X58447525Y-82480719D01*
X58540970Y-83585788D01*
X58744528Y-84829867D01*
X59158710Y-85977489D01*
X59824150Y-87117825D01*
X60622487Y-88153702D01*
X61255393Y-88939116D01*
X61902286Y-89798065D01*
X62457740Y-90588667D01*
X62640543Y-90869612D01*
X63129694Y-91574887D01*
X63698565Y-92236710D01*
X64398008Y-92900285D01*
X65278879Y-93610818D01*
X66392030Y-94413515D01*
X67382800Y-95085171D01*
X68460920Y-95826951D01*
X69441572Y-96561013D01*
X70391123Y-97344761D01*
X71375941Y-98235594D01*
X72462394Y-99290915D01*
X73689527Y-100539872D01*
X74765875Y-101697707D01*
X75574050Y-102676776D01*
X76137750Y-103513898D01*
X76480671Y-104245893D01*
X76626510Y-104909580D01*
X76635428Y-105117094D01*
X77573561Y-105117094D01*
X77590474Y-104960452D01*
X77468580Y-104320195D01*
X77222970Y-103671068D01*
X76862439Y-103000657D01*
X76354729Y-102266540D01*
X75667581Y-101426300D01*
X74768737Y-100437515D01*
X73625938Y-99257765D01*
X73595281Y-99226789D01*
X72262617Y-97911807D01*
X71062932Y-96804349D01*
X69903642Y-95827707D01*
X68692166Y-94905174D01*
X67335920Y-93960042D01*
X66838285Y-93628448D01*
X65782599Y-92904076D01*
X64968363Y-92268411D01*
X64314667Y-91643585D01*
X63740598Y-90951731D01*
X63165244Y-90114982D01*
X63129232Y-90058963D01*
X62591112Y-89267800D01*
X61936112Y-88374040D01*
X61288547Y-87546177D01*
X61162396Y-87393180D01*
X60354524Y-86338623D01*
X59815609Y-85412308D01*
X59511979Y-84542273D01*
X59409964Y-83656556D01*
X59409851Y-83647643D01*
X59413134Y-83145072D01*
X59432869Y-82834513D01*
X59448381Y-82785857D01*
X59633514Y-82824591D01*
X60099171Y-82929737D01*
X60772640Y-83084707D01*
X61489452Y-83251461D01*
X62560386Y-83474213D01*
X63634102Y-83633449D01*
X64827297Y-83742727D01*
X66256664Y-83815607D01*
X66384714Y-83820272D01*
X69287571Y-83923479D01*
X70013285Y-84843862D01*
X70950283Y-85975001D01*
X71964308Y-87101717D01*
X72964146Y-88126770D01*
X73858584Y-88952922D01*
X73903873Y-88991474D01*
X74446787Y-89414278D01*
X75171906Y-89928041D01*
X76005817Y-90486301D01*
X76875108Y-91042594D01*
X77706367Y-91550457D01*
X78426181Y-91963427D01*
X78961138Y-92235040D01*
X79136852Y-92303470D01*
X79462498Y-92430530D01*
X80030838Y-92678930D01*
X80758259Y-93011292D01*
X81464493Y-93343978D01*
X82280586Y-93739081D01*
X82819005Y-94021982D01*
X83131629Y-94232331D01*
X83270338Y-94409779D01*
X83287011Y-94593977D01*
X83261703Y-94717560D01*
X83100794Y-95237119D01*
X82820713Y-96015905D01*
X82449940Y-96981690D01*
X82016958Y-98062245D01*
X81550249Y-99185340D01*
X81078296Y-100278748D01*
X80991289Y-100475143D01*
X80528043Y-101523171D01*
X80010671Y-102704886D01*
X79517978Y-103839867D01*
X79276400Y-104401387D01*
X78788004Y-105657956D01*
X78519702Y-106658714D01*
X78473581Y-107437917D01*
X78651731Y-108029821D01*
X79056243Y-108468684D01*
X79540456Y-108731041D01*
X80085550Y-108857238D01*
X80686532Y-108787327D01*
X81373938Y-108503833D01*
X82178303Y-107989285D01*
X83130163Y-107226209D01*
X84260056Y-106197133D01*
X84688284Y-105785409D01*
X85820635Y-104785945D01*
X86932424Y-103994089D01*
X87409713Y-103720418D01*
X88855894Y-102925910D01*
X90009712Y-102199809D01*
X90925518Y-101503493D01*
X91657663Y-100798337D01*
X91878585Y-100544697D01*
X92330591Y-99988594D01*
X92702688Y-99507305D01*
X92921293Y-99196317D01*
X92932836Y-99176559D01*
X93027436Y-99073686D01*
X93193495Y-99045000D01*
X93480562Y-99106280D01*
X93938184Y-99273303D01*
X94615909Y-99561847D01*
X95563284Y-99987691D01*
X95756839Y-100075841D01*
X96739680Y-100516568D01*
X97682330Y-100926005D01*
X98501955Y-101269107D01*
X99115724Y-101510825D01*
X99314430Y-101581052D01*
X100221143Y-101877623D01*
X100211360Y-105712097D01*
X100199921Y-106966852D01*
X100173820Y-108200436D01*
X100135911Y-109329759D01*
X100089045Y-110271728D01*
X100036075Y-110943253D01*
X100029886Y-110998000D01*
X99936608Y-111876455D01*
X99840682Y-112926306D01*
X99759224Y-113956629D01*
X99741068Y-114219711D01*
X99691949Y-115043071D01*
X99687107Y-115616957D01*
X99744696Y-116053812D01*
X99882869Y-116466079D01*
X100119780Y-116966199D01*
X100214809Y-117154092D01*
X100690634Y-117913513D01*
X101405044Y-118822199D01*
X102300501Y-119819710D01*
X103319468Y-120845603D01*
X104404407Y-121839438D01*
X105497782Y-122740773D01*
X105628831Y-122841377D01*
X107468967Y-124146523D01*
X109315409Y-125275066D01*
X111112818Y-126198659D01*
X112805852Y-126888955D01*
X114339169Y-127317609D01*
X114386039Y-127326895D01*
X115041885Y-127423490D01*
X115943474Y-127513119D01*
X117011317Y-127592292D01*
X118165926Y-127657519D01*
X119327812Y-127705310D01*
X120417486Y-127732175D01*
X121355460Y-127734624D01*
X122062244Y-127709166D01*
X122355428Y-127676812D01*
X122757253Y-127611377D01*
X123386551Y-127513971D01*
X124111731Y-127404941D01*
X124158600Y-127398003D01*
X126752240Y-126848185D01*
X129333220Y-125964157D01*
X131921033Y-124737797D01*
X134535173Y-123160980D01*
X134874000Y-122932532D01*
X136200682Y-121978666D01*
X137235375Y-121117480D01*
X138022392Y-120305400D01*
X138606047Y-119498851D01*
X138880054Y-118993232D01*
X139341067Y-117789994D01*
X139528788Y-116617701D01*
X139522245Y-116528878D01*
X138502571Y-116528878D01*
X138438014Y-117430807D01*
X138224347Y-118251409D01*
X137831582Y-119028806D01*
X137229729Y-119801122D01*
X136388797Y-120606479D01*
X135278796Y-121483002D01*
X133869737Y-122468814D01*
X133785428Y-122525315D01*
X131795221Y-123766550D01*
X129920763Y-124737820D01*
X128081662Y-125474437D01*
X126197527Y-126011715D01*
X125512798Y-126159156D01*
X124660898Y-126320474D01*
X123851642Y-126452876D01*
X122993396Y-126568148D01*
X121994528Y-126678075D01*
X120763404Y-126794441D01*
X120159275Y-126847702D01*
X119874514Y-126843164D01*
X119307723Y-126812480D01*
X118538390Y-126760613D01*
X117646007Y-126692521D01*
X117555558Y-126685214D01*
X116023316Y-126544783D01*
X114768333Y-126382867D01*
X113705026Y-126174548D01*
X112747814Y-125894907D01*
X111811114Y-125519026D01*
X110809344Y-125021986D01*
X109679818Y-124392067D01*
X108066532Y-123405851D01*
X106611185Y-122383312D01*
X105209809Y-121243656D01*
X103758441Y-119906090D01*
X103198364Y-119355247D01*
X102266729Y-118404605D01*
X101576345Y-117623766D01*
X101097829Y-116940823D01*
X100801796Y-116283871D01*
X100658865Y-115581005D01*
X100639653Y-114760317D01*
X100714775Y-113749904D01*
X100754063Y-113373605D01*
X100820601Y-112607935D01*
X100888075Y-111560354D01*
X100952539Y-110311777D01*
X101010047Y-108943117D01*
X101056651Y-107535287D01*
X101076391Y-106765476D01*
X101109001Y-105358861D01*
X101137997Y-104274409D01*
X101167781Y-103471510D01*
X101202755Y-102909560D01*
X101247321Y-102547950D01*
X101305882Y-102346073D01*
X101382838Y-102263323D01*
X101482592Y-102259092D01*
X101562696Y-102279486D01*
X102236013Y-102459945D01*
X102641662Y-102519495D01*
X102856592Y-102450821D01*
X102957753Y-102246605D01*
X102979954Y-102144735D01*
X102999806Y-101894265D01*
X102892632Y-101725622D01*
X102585165Y-101587924D01*
X102004140Y-101430287D01*
X101921905Y-101409921D01*
X101073626Y-101162743D01*
X99993776Y-100791829D01*
X98776196Y-100333983D01*
X97514726Y-99826009D01*
X96303206Y-99304713D01*
X95235476Y-98806899D01*
X95050428Y-98714896D01*
X94401839Y-98386263D01*
X93890468Y-98123293D01*
X93592389Y-97965288D01*
X93547805Y-97938640D01*
X93571871Y-97741707D01*
X93723635Y-97279126D01*
X93976253Y-96613553D01*
X94302884Y-95807644D01*
X94676686Y-94924053D01*
X95070816Y-94025437D01*
X95458432Y-93174451D01*
X95812692Y-92433751D01*
X96106754Y-91865991D01*
X96259000Y-91610120D01*
X97016630Y-90410125D01*
X97547190Y-89388662D01*
X97866627Y-88454810D01*
X97990891Y-87517644D01*
X97935931Y-86486241D01*
X97717696Y-85269678D01*
X97518790Y-84428157D01*
X97305926Y-83558592D01*
X97129902Y-82808611D01*
X97007640Y-82252593D01*
X96956064Y-81964918D01*
X96955428Y-81952002D01*
X97075832Y-81745012D01*
X97404139Y-81339610D01*
X97890991Y-80793279D01*
X98487033Y-80163503D01*
X98521333Y-80128273D01*
X100102774Y-78443274D01*
X101590186Y-76735587D01*
X102934825Y-75065741D01*
X104087953Y-73494265D01*
X105000816Y-72081706D01*
X105577902Y-71084677D01*
X106002600Y-70285416D01*
X106321858Y-69578490D01*
X106582623Y-68858464D01*
X106831843Y-68019906D01*
X106868296Y-67887737D01*
X107468294Y-65079347D01*
X107787505Y-62078769D01*
X107801862Y-60811884D01*
X107243146Y-60811884D01*
X107134835Y-62646708D01*
X106897695Y-64528981D01*
X106547259Y-66373782D01*
X106099057Y-68096193D01*
X105568622Y-69611292D01*
X105105861Y-70598069D01*
X104207001Y-72106111D01*
X103090599Y-73746253D01*
X101823797Y-75425604D01*
X100473736Y-77051271D01*
X100292764Y-77257039D01*
X99527952Y-78107508D01*
X98779930Y-78915907D01*
X98088635Y-79641484D01*
X97494005Y-80243488D01*
X97035978Y-80681167D01*
X96754490Y-80913769D01*
X96686162Y-80937144D01*
X96618489Y-80749767D01*
X96476591Y-80291709D01*
X96284411Y-79641613D01*
X96155640Y-79194586D01*
X95674339Y-77508315D01*
X96292754Y-76745300D01*
X97248932Y-75435617D01*
X98213293Y-73880545D01*
X99125751Y-72191074D01*
X99926221Y-70478192D01*
X100536365Y-68906571D01*
X100880963Y-67712616D01*
X101209623Y-66220866D01*
X101514230Y-64496301D01*
X101786669Y-62603899D01*
X102018828Y-60608639D01*
X102202591Y-58575500D01*
X102329846Y-56569460D01*
X102392477Y-54655498D01*
X102397643Y-54001056D01*
X102405429Y-53497681D01*
X101699286Y-53497681D01*
X101691072Y-54221091D01*
X101665850Y-55134472D01*
X101626275Y-56180481D01*
X101574999Y-57301778D01*
X101514675Y-58441020D01*
X101447956Y-59540864D01*
X101377496Y-60543969D01*
X101305947Y-61392992D01*
X101235963Y-62030592D01*
X101225972Y-62103000D01*
X101084830Y-63084840D01*
X100936337Y-64111257D01*
X100804152Y-65018949D01*
X100754127Y-65359876D01*
X100334876Y-67321939D01*
X99639745Y-69435123D01*
X98871978Y-71250125D01*
X98494026Y-72026283D01*
X98077612Y-72819912D01*
X97658821Y-73569656D01*
X97273737Y-74214161D01*
X96958444Y-74692072D01*
X96749028Y-74942032D01*
X96690761Y-74958887D01*
X96698309Y-74764448D01*
X96772455Y-74302509D01*
X96898643Y-73659232D01*
X96954645Y-73396928D01*
X97094944Y-72719100D01*
X97187924Y-72201297D01*
X97219557Y-71924926D01*
X97212577Y-71900143D01*
X97069554Y-72059620D01*
X96850126Y-72484778D01*
X96588482Y-73095700D01*
X96318807Y-73812473D01*
X96075286Y-74555182D01*
X96071739Y-74567005D01*
X95800100Y-75385989D01*
X95578454Y-75853144D01*
X95400861Y-75975160D01*
X95261379Y-75758728D01*
X95207048Y-75540738D01*
X95070906Y-75144129D01*
X94798657Y-74998322D01*
X94554768Y-74984428D01*
X94186944Y-75021246D01*
X94104196Y-75169829D01*
X94145884Y-75301928D01*
X94246519Y-75609294D01*
X94408170Y-76173785D01*
X94604166Y-76900424D01*
X94719044Y-77343000D01*
X94929699Y-78147679D01*
X95208635Y-79186716D01*
X95524728Y-80345494D01*
X95846855Y-81509393D01*
X95964364Y-81929148D01*
X96420683Y-83605055D01*
X96756920Y-84988064D01*
X96973897Y-86127403D01*
X97072438Y-87072295D01*
X97053364Y-87871966D01*
X96917501Y-88575641D01*
X96665669Y-89232545D01*
X96298693Y-89891902D01*
X96102529Y-90193148D01*
X95372452Y-91350026D01*
X94736814Y-92531731D01*
X94133578Y-93860793D01*
X93698479Y-94941571D01*
X93217656Y-96175579D01*
X92837030Y-97126450D01*
X92529472Y-97850831D01*
X92267851Y-98405370D01*
X92025039Y-98846714D01*
X91773906Y-99231511D01*
X91487323Y-99616408D01*
X91415651Y-99708218D01*
X90657784Y-100568144D01*
X89804080Y-101304198D01*
X88730118Y-102022962D01*
X88673231Y-102057445D01*
X88226280Y-102328383D01*
X87884000Y-102537473D01*
X87583497Y-102705319D01*
X87077606Y-102972008D01*
X86580368Y-103226693D01*
X85954401Y-103614772D01*
X85174300Y-104207904D01*
X84325609Y-104938708D01*
X83894312Y-105342350D01*
X82928518Y-106234219D01*
X82043605Y-106976916D01*
X81280836Y-107539817D01*
X80681476Y-107892300D01*
X80307266Y-108004428D01*
X79949959Y-107922776D01*
X79707787Y-107816616D01*
X79487401Y-107611324D01*
X79389439Y-107274333D01*
X79421860Y-106776114D01*
X79592621Y-106087134D01*
X79909682Y-105177863D01*
X80380999Y-104018770D01*
X81014532Y-102580323D01*
X81270626Y-102017285D01*
X82207285Y-99916106D01*
X82972157Y-98070627D01*
X83582979Y-96427118D01*
X84057487Y-94931852D01*
X84413418Y-93531099D01*
X84668509Y-92171131D01*
X84774364Y-91403714D01*
X84826476Y-90358683D01*
X83870110Y-90358683D01*
X83836243Y-91187689D01*
X83770434Y-91957390D01*
X83677334Y-92589045D01*
X83561593Y-93003912D01*
X83448662Y-93127285D01*
X83266713Y-93058480D01*
X82840114Y-92876559D01*
X82254681Y-92618263D01*
X82144012Y-92568717D01*
X81370749Y-92223622D01*
X80579636Y-91873456D01*
X79992780Y-91616217D01*
X78044441Y-90635352D01*
X76124396Y-89418338D01*
X74335854Y-88039151D01*
X72782027Y-86571766D01*
X72453654Y-86212603D01*
X71651625Y-85295679D01*
X71081972Y-84610035D01*
X70727982Y-84123099D01*
X70572940Y-83802296D01*
X70600133Y-83615054D01*
X70792846Y-83528797D01*
X71067207Y-83510559D01*
X71507147Y-83461368D01*
X72065131Y-83342095D01*
X72145071Y-83320603D01*
X72622626Y-83129537D01*
X72812790Y-82873376D01*
X72825428Y-82752668D01*
X72792825Y-82529150D01*
X72633344Y-82439921D01*
X72254475Y-82457458D01*
X71963643Y-82496269D01*
X69683599Y-82746866D01*
X67416233Y-82856548D01*
X65239930Y-82826734D01*
X63233073Y-82658839D01*
X61474045Y-82354281D01*
X61260016Y-82302817D01*
X60544858Y-82100622D01*
X59712846Y-81828735D01*
X58834286Y-81514737D01*
X57979486Y-81186213D01*
X57218751Y-80870743D01*
X56622387Y-80595912D01*
X56260702Y-80389302D01*
X56186394Y-80312325D01*
X56299658Y-80151563D01*
X56675376Y-80009830D01*
X56806462Y-79982115D01*
X57916624Y-79642900D01*
X59104215Y-79048875D01*
X60276261Y-78265586D01*
X61339786Y-77358577D01*
X62201817Y-76393395D01*
X62486987Y-75977452D01*
X62852317Y-75445260D01*
X63328128Y-74825918D01*
X63605203Y-74493154D01*
X64074492Y-73897083D01*
X64499621Y-73268327D01*
X64676448Y-72958713D01*
X64967151Y-72513171D01*
X65442336Y-71915258D01*
X66022593Y-71261653D01*
X66349932Y-70921330D01*
X67455748Y-69641558D01*
X68271037Y-68335996D01*
X68771382Y-67048199D01*
X68903090Y-66366571D01*
X69010784Y-65459428D01*
X68604892Y-66643218D01*
X68114366Y-67745800D01*
X67405504Y-68914131D01*
X66566229Y-70019359D01*
X65684467Y-70932630D01*
X65668068Y-70947114D01*
X64861953Y-71872002D01*
X64298290Y-72897990D01*
X64022365Y-73474900D01*
X63795789Y-73879177D01*
X63660849Y-74036837D01*
X63649448Y-74033210D01*
X63604352Y-73775831D01*
X63655214Y-73260487D01*
X63781882Y-72572994D01*
X63964203Y-71799166D01*
X64182025Y-71024817D01*
X64415195Y-70335761D01*
X64636142Y-69831596D01*
X64951773Y-69142724D01*
X65224068Y-68373843D01*
X65425885Y-67626176D01*
X65530080Y-67000944D01*
X65509508Y-66599371D01*
X65505623Y-66589186D01*
X65431623Y-66556627D01*
X65401180Y-66751975D01*
X65278575Y-67405555D01*
X64977688Y-68243270D01*
X64540192Y-69160663D01*
X64210161Y-69737440D01*
X63647054Y-70927409D01*
X63294077Y-72186726D01*
X62996094Y-73417149D01*
X62632730Y-74418951D01*
X62145801Y-75326295D01*
X61580757Y-76137462D01*
X60534056Y-77281447D01*
X59285482Y-78248265D01*
X57903341Y-79007708D01*
X56455940Y-79529566D01*
X55011585Y-79783629D01*
X53638583Y-79739688D01*
X53491970Y-79714834D01*
X52798350Y-79545534D01*
X52255334Y-79336065D01*
X51929518Y-79119956D01*
X51887495Y-78930735D01*
X51901821Y-78914226D01*
X52132303Y-78852806D01*
X52617849Y-78809243D01*
X53216024Y-78793416D01*
X53975786Y-78761545D01*
X54708137Y-78680119D01*
X55136143Y-78595462D01*
X55746225Y-78335181D01*
X56324547Y-77932247D01*
X56779147Y-77468860D01*
X57018062Y-77027218D01*
X57033879Y-76899195D01*
X57007015Y-76685060D01*
X56908253Y-76761005D01*
X56757136Y-77023219D01*
X56460684Y-77433962D01*
X56041956Y-77743349D01*
X55445579Y-77970219D01*
X54616179Y-78133414D01*
X53498383Y-78251775D01*
X53049714Y-78284685D01*
X52088865Y-78353484D01*
X51176860Y-78425567D01*
X50420268Y-78492108D01*
X49946019Y-78541715D01*
X49318074Y-78565499D01*
X48749015Y-78431925D01*
X48222447Y-78193592D01*
X47370169Y-77673699D01*
X46743990Y-77055052D01*
X46219947Y-76212174D01*
X46172215Y-76118357D01*
X45925152Y-75666550D01*
X45734310Y-75389049D01*
X45678924Y-75347285D01*
X45505898Y-75475278D01*
X45227062Y-75787013D01*
X45198578Y-75822842D01*
X44757470Y-76232969D01*
X44225794Y-76548557D01*
X43236135Y-76787398D01*
X42274453Y-76702168D01*
X41381056Y-76331442D01*
X40596252Y-75713795D01*
X39960352Y-74887804D01*
X39513663Y-73892043D01*
X39296495Y-72765088D01*
X39309818Y-71843957D01*
X39399702Y-71249905D01*
X39566636Y-70390479D01*
X39790718Y-69349972D01*
X40052046Y-68212676D01*
X40330720Y-67062883D01*
X40606836Y-65984884D01*
X40860492Y-65062972D01*
X41071724Y-64381624D01*
X41881186Y-62398282D01*
X42853678Y-60654687D01*
X43968495Y-59173211D01*
X45204934Y-57976227D01*
X46542291Y-57086108D01*
X47959861Y-56525226D01*
X48443252Y-56415920D01*
X49115152Y-56275406D01*
X49498675Y-56141539D01*
X49666050Y-55980636D01*
X49693285Y-55833034D01*
X49649681Y-55631638D01*
X49462196Y-55528999D01*
X49045818Y-55497232D01*
X48678127Y-55500061D01*
X47512627Y-55682577D01*
X46272970Y-56165424D01*
X45025390Y-56914334D01*
X43836122Y-57895041D01*
X43599847Y-58127371D01*
X43053479Y-58706488D01*
X42605292Y-59228296D01*
X42319641Y-59615587D01*
X42256360Y-59739243D01*
X42077116Y-60049003D01*
X41892273Y-60070663D01*
X41801432Y-59796764D01*
X41801143Y-59773329D01*
X41842363Y-59386902D01*
X41952743Y-58742058D01*
X42112358Y-57932135D01*
X42301283Y-57050468D01*
X42499595Y-56190392D01*
X42687369Y-55445245D01*
X42830511Y-54951178D01*
X43035830Y-54392919D01*
X43347476Y-53630915D01*
X43714164Y-52788257D01*
X43919088Y-52338534D01*
X45261013Y-49871745D01*
X46905651Y-47577242D01*
X48820516Y-45488366D01*
X50973122Y-43638460D01*
X53330981Y-42060862D01*
X54607471Y-41369167D01*
X56042556Y-40692128D01*
X57397940Y-40152683D01*
X58800544Y-39708018D01*
X60377286Y-39315318D01*
X61243406Y-39130631D01*
X61940607Y-38991910D01*
X62563328Y-38880826D01*
X63165913Y-38793618D01*
X63802704Y-38726524D01*
X64528046Y-38675784D01*
X65396282Y-38637635D01*
X66461757Y-38608316D01*
X67778812Y-38584065D01*
X69401793Y-38561121D01*
X69487336Y-38560001D01*
X75311386Y-38483903D01*
X75820760Y-39362380D01*
X76896955Y-41057404D01*
X78182948Y-42818108D01*
X79581869Y-44516216D01*
X80357278Y-45369572D01*
X82116625Y-47232573D01*
X81284156Y-48206989D01*
X80730582Y-48927115D01*
X80088355Y-49875441D01*
X79419170Y-50949921D01*
X78784716Y-52048509D01*
X78246687Y-53069160D01*
X77928701Y-53757285D01*
X77367578Y-55109466D01*
X76927374Y-56208619D01*
X76579170Y-57132193D01*
X76294046Y-57957637D01*
X76043084Y-58762398D01*
X75981620Y-58971745D01*
X75182994Y-61956435D01*
X74592847Y-64690020D01*
X74215278Y-67153340D01*
X74196011Y-67323329D01*
X74090303Y-68226569D01*
X73988383Y-69001171D01*
X73900597Y-69574798D01*
X73837289Y-69875112D01*
X73828004Y-69896794D01*
X73563607Y-70092869D01*
X73021942Y-70340749D01*
X72280339Y-70615260D01*
X71416127Y-70891228D01*
X70506636Y-71143480D01*
X69629196Y-71346842D01*
X69060010Y-71448960D01*
X68251560Y-71577785D01*
X67660186Y-71717490D01*
X67208580Y-71922487D01*
X66819434Y-72247187D01*
X66415437Y-72746003D01*
X65919283Y-73473346D01*
X65691061Y-73820118D01*
X65174859Y-74539008D01*
X64616294Y-75211025D01*
X64111851Y-75722986D01*
X63966681Y-75842854D01*
X63488194Y-76222921D01*
X63312611Y-76404471D01*
X63435141Y-76380434D01*
X63850992Y-76143737D01*
X64075105Y-76002851D01*
X64657844Y-75576982D01*
X65213542Y-75042546D01*
X65812221Y-74324985D01*
X66394714Y-73533000D01*
X66886818Y-72865134D01*
X67271869Y-72439219D01*
X67636872Y-72190604D01*
X68068835Y-72054635D01*
X68471143Y-71990061D01*
X69957017Y-71740351D01*
X71281335Y-71414519D01*
X72358500Y-71034937D01*
X72655355Y-70896531D01*
X73341819Y-70599001D01*
X73786504Y-70541292D01*
X74025625Y-70730028D01*
X74095428Y-71159804D01*
X74147122Y-71834355D01*
X74311570Y-72643407D01*
X74602820Y-73635787D01*
X75034920Y-74860322D01*
X75520463Y-76112712D01*
X76497555Y-78315709D01*
X77559578Y-80217610D01*
X78743383Y-81876979D01*
X80060537Y-83327592D01*
X80947865Y-84255421D01*
X81790878Y-85240433D01*
X82541871Y-86218002D01*
X83153138Y-87123504D01*
X83576972Y-87892314D01*
X83733558Y-88303257D01*
X83823418Y-88837726D01*
X83867385Y-89549115D01*
X83870110Y-90358683D01*
X84826476Y-90358683D01*
X84850645Y-89874021D01*
X84667174Y-88499789D01*
X84200263Y-87201514D01*
X83426224Y-85899692D01*
X82942331Y-85254857D01*
X82240678Y-84228650D01*
X81728462Y-83181336D01*
X81422243Y-82174955D01*
X81338579Y-81271548D01*
X81494029Y-80533155D01*
X81621380Y-80305674D01*
X81792696Y-79993762D01*
X81721210Y-79789408D01*
X81630086Y-79706030D01*
X81251132Y-79574330D01*
X81027990Y-79598709D01*
X80859114Y-79612420D01*
X80710919Y-79510997D01*
X80571356Y-79255071D01*
X80428375Y-78805273D01*
X80269928Y-78122234D01*
X80083966Y-77166586D01*
X79858438Y-75898960D01*
X79810093Y-75619428D01*
X79393267Y-72622795D01*
X79218295Y-69801934D01*
X79286440Y-67060990D01*
X79598966Y-64304108D01*
X79986949Y-62203800D01*
X80694781Y-59611250D01*
X81674344Y-57243532D01*
X82938518Y-55071192D01*
X83377761Y-54449705D01*
X83908109Y-53800599D01*
X84565454Y-53099362D01*
X85283042Y-52406286D01*
X85994116Y-51781667D01*
X86631921Y-51285797D01*
X87129701Y-50978969D01*
X87286191Y-50919632D01*
X87641785Y-50926773D01*
X88226307Y-51035725D01*
X88927672Y-51224299D01*
X89100477Y-51278791D01*
X90141765Y-51594159D01*
X91104317Y-51826370D01*
X92095243Y-51992971D01*
X93221655Y-52111511D01*
X94590664Y-52199537D01*
X94778285Y-52208979D01*
X95953574Y-52281304D01*
X97290689Y-52386176D01*
X98591916Y-52507187D01*
X99312888Y-52585329D01*
X100177572Y-52685694D01*
X100902485Y-52768600D01*
X101416602Y-52826016D01*
X101648900Y-52849906D01*
X101654081Y-52850143D01*
X101687840Y-53021584D01*
X101699286Y-53497681D01*
X102405429Y-53497681D01*
X102408094Y-53325439D01*
X102450791Y-52941606D01*
X102544001Y-52778753D01*
X102705993Y-52766078D01*
X102715785Y-52768026D01*
X103033593Y-52830275D01*
X103603054Y-52939067D01*
X104319123Y-53074379D01*
X104575428Y-53122514D01*
X105314052Y-53264578D01*
X105938019Y-53391092D01*
X106343858Y-53480851D01*
X106414009Y-53499300D01*
X106545572Y-53640762D01*
X106667841Y-54001170D01*
X106784481Y-54606453D01*
X106899158Y-55482536D01*
X107015537Y-56655346D01*
X107137283Y-58150809D01*
X107207097Y-59109428D01*
X107243146Y-60811884D01*
X107801862Y-60811884D01*
X107823225Y-58926912D01*
X107637626Y-56244276D01*
X107560966Y-55443500D01*
X107511283Y-54786867D01*
X107493557Y-54351293D01*
X107506151Y-54213230D01*
X107710796Y-54206973D01*
X108133750Y-54279922D01*
X108299808Y-54318643D01*
X108952865Y-54429143D01*
X109869452Y-54516736D01*
X110954043Y-54579175D01*
X112111110Y-54614213D01*
X113245128Y-54619600D01*
X114260570Y-54593090D01*
X115061911Y-54532435D01*
X115370428Y-54485010D01*
X116166730Y-54329973D01*
X116708736Y-54275718D01*
X117098217Y-54353171D01*
X117436945Y-54593253D01*
X117826693Y-55026889D01*
X118050771Y-55299428D01*
X119993006Y-57917992D01*
X121669184Y-60693599D01*
X123042267Y-63560710D01*
X123711679Y-65316371D01*
X124143666Y-66603560D01*
X124481421Y-67702809D01*
X124750471Y-68721733D01*
X124976343Y-69767945D01*
X125184565Y-70949061D01*
X125400664Y-72372695D01*
X125424063Y-72535143D01*
X125805535Y-75493307D01*
X126053976Y-78151925D01*
X126169148Y-80549135D01*
X126150814Y-82723076D01*
X125998735Y-84711886D01*
X125712672Y-86553705D01*
X125326392Y-88167361D01*
X125181921Y-88820522D01*
X125041902Y-89694227D01*
X124927485Y-90646548D01*
X124884685Y-91131571D01*
X124778841Y-92193011D01*
X124620921Y-93370422D01*
X124439242Y-94460932D01*
X124373696Y-94792123D01*
X124189395Y-95760060D01*
X124121147Y-96485208D01*
X124188915Y-97074682D01*
X124412662Y-97635595D01*
X124812352Y-98275062D01*
X125097508Y-98675783D01*
X125607212Y-99378934D01*
X126140249Y-100115316D01*
X126528285Y-100652216D01*
X127658947Y-102129335D01*
X129006162Y-103741081D01*
X130496011Y-105404624D01*
X132054571Y-107037131D01*
X133440767Y-108397966D01*
X134837204Y-109756655D01*
X135965731Y-110940875D01*
X136851195Y-111990540D01*
X137518443Y-112945561D01*
X137992321Y-113845851D01*
X138297677Y-114731321D01*
X138459358Y-115641884D01*
X138502571Y-116528878D01*
X139522245Y-116528878D01*
X139439793Y-115409612D01*
X139070655Y-114098985D01*
X138568755Y-112926408D01*
X138357467Y-112506331D01*
X138130943Y-112115934D01*
X137856360Y-111717354D01*
X137500894Y-111272729D01*
X137031723Y-110744194D01*
X136416024Y-110093887D01*
X135620975Y-109283946D01*
X134613752Y-108276506D01*
X134066060Y-107732285D01*
X133022342Y-106683670D01*
X132002173Y-105635157D01*
X131052097Y-104636344D01*
X130218659Y-103736832D01*
X129548401Y-102986219D01*
X129087869Y-102434106D01*
X129058050Y-102395521D01*
X128001211Y-101012198D01*
X127147282Y-99886591D01*
X126475845Y-98990426D01*
X125966480Y-98295430D01*
X125598768Y-97773331D01*
X125352291Y-97395855D01*
X125206630Y-97134729D01*
X125145387Y-96977828D01*
X125125557Y-96632453D01*
X125158667Y-96023909D01*
X125237650Y-95246889D01*
X125321452Y-94619257D01*
X125459747Y-93616610D01*
X125591025Y-92555772D01*
X125695193Y-91603544D01*
X125730662Y-91222285D01*
X125836729Y-90368130D01*
X125998371Y-89506050D01*
X126181236Y-88818241D01*
X126187333Y-88800336D01*
X126711083Y-86851974D01*
X127046248Y-84617595D01*
X127193419Y-82120823D01*
X127153187Y-79385283D01*
X126926144Y-76434598D01*
X126512880Y-73292394D01*
X125913986Y-69982294D01*
X125689969Y-68922281D01*
X124776806Y-65546651D01*
X123549250Y-62350560D01*
X122002852Y-59324865D01*
X120133160Y-56460423D01*
X118780352Y-54726206D01*
X118385905Y-54234394D01*
X118105633Y-53850671D01*
X118001143Y-53660508D01*
X118127024Y-53481059D01*
X118453957Y-53146291D01*
X118825156Y-52805563D01*
X119549931Y-52048467D01*
X120079961Y-51189490D01*
X120467611Y-50129962D01*
X120652576Y-49362052D01*
X120805207Y-48052023D01*
X120796927Y-47920639D01*
X119802236Y-47920639D01*
X119642841Y-49451124D01*
X119213238Y-50705605D01*
X118497619Y-51751936D01*
X117510735Y-52584955D01*
X116267340Y-53199499D01*
X114782185Y-53590406D01*
X113070022Y-53752513D01*
X111145604Y-53680658D01*
X109023683Y-53369678D01*
X108657571Y-53295439D01*
X106363350Y-52820317D01*
X104364422Y-52424549D01*
X102604072Y-52099420D01*
X101025587Y-51836213D01*
X99572251Y-51626214D01*
X98187352Y-51460705D01*
X96814173Y-51330971D01*
X95396003Y-51228296D01*
X95081338Y-51209009D01*
X93931013Y-51126299D01*
X92793078Y-51019370D01*
X91765272Y-50899145D01*
X90945332Y-50776548D01*
X90602232Y-50708361D01*
X89244714Y-50393680D01*
X89231884Y-50169889D01*
X86976223Y-50169889D01*
X86839000Y-50347591D01*
X86505115Y-50599615D01*
X86477928Y-50616986D01*
X85057139Y-51693191D01*
X83694962Y-53070597D01*
X82443916Y-54687602D01*
X81356520Y-56482600D01*
X81171302Y-56841571D01*
X80646957Y-57942704D01*
X80219388Y-58986451D01*
X79854482Y-60075400D01*
X79518125Y-61312142D01*
X79176206Y-62799266D01*
X79150316Y-62919428D01*
X79011245Y-63600420D01*
X78905738Y-64222165D01*
X78829321Y-64851481D01*
X78777521Y-65555183D01*
X78745863Y-66400089D01*
X78729876Y-67453016D01*
X78725084Y-68780780D01*
X78725181Y-69269428D01*
X78733770Y-70892890D01*
X78763353Y-72239935D01*
X78823749Y-73396828D01*
X78924782Y-74449837D01*
X79076271Y-75485230D01*
X79288039Y-76589272D01*
X79569907Y-77848232D01*
X79821259Y-78896939D01*
X80026784Y-79806994D01*
X80205992Y-80720323D01*
X80332130Y-81495263D01*
X80366873Y-81785897D01*
X80414066Y-82368454D01*
X80402653Y-82653156D01*
X80317246Y-82702420D01*
X80166464Y-82598767D01*
X79905456Y-82330516D01*
X79515186Y-81871511D01*
X79096865Y-81342666D01*
X78082355Y-79879450D01*
X77181244Y-78277062D01*
X76345599Y-76445680D01*
X75945699Y-75438000D01*
X75470118Y-74163243D01*
X75120375Y-73139227D01*
X74880543Y-72282669D01*
X74734698Y-71510292D01*
X74666914Y-70738814D01*
X74661265Y-69884956D01*
X74699086Y-68918924D01*
X74886854Y-66885382D01*
X75239430Y-64711202D01*
X75737634Y-62450298D01*
X76362286Y-60156585D01*
X77094207Y-57883974D01*
X77914219Y-55686380D01*
X78803141Y-53617717D01*
X79741794Y-51731896D01*
X80710999Y-50082833D01*
X81691578Y-48724439D01*
X82018085Y-48345073D01*
X82894714Y-47377860D01*
X83910671Y-48163644D01*
X84622754Y-48674837D01*
X85414290Y-49184696D01*
X85951108Y-49493714D01*
X86479526Y-49793421D01*
X86849697Y-50039603D01*
X86976223Y-50169889D01*
X89231884Y-50169889D01*
X89189207Y-49425502D01*
X89291470Y-48189061D01*
X89734922Y-46850143D01*
X90520611Y-45406919D01*
X91649583Y-43857562D01*
X93122886Y-42200245D01*
X93615025Y-41698844D01*
X95144648Y-40247421D01*
X96536993Y-39091388D01*
X97825577Y-38205987D01*
X99043920Y-37566463D01*
X99420290Y-37411294D01*
X100250236Y-37080837D01*
X100795491Y-36824028D01*
X101114649Y-36596957D01*
X101266308Y-36355716D01*
X101309061Y-36056396D01*
X101309714Y-35995439D01*
X101270142Y-35671649D01*
X100522989Y-35671649D01*
X100510463Y-35886863D01*
X100179645Y-36071317D01*
X99903643Y-36166217D01*
X98776050Y-36650689D01*
X97496340Y-37424008D01*
X96096471Y-38462321D01*
X94608402Y-39741775D01*
X93064094Y-41238518D01*
X92948771Y-41356934D01*
X91395857Y-43075082D01*
X90178241Y-44685534D01*
X89288720Y-46200430D01*
X88720095Y-47631911D01*
X88472504Y-48903846D01*
X88386483Y-49490100D01*
X88265587Y-49861506D01*
X88172508Y-49947285D01*
X87933368Y-49860938D01*
X87464840Y-49629634D01*
X86848759Y-49294980D01*
X86519492Y-49106854D01*
X84381530Y-47681814D01*
X82306428Y-45937071D01*
X80338001Y-43915279D01*
X78520064Y-41659092D01*
X77769387Y-40588581D01*
X77148126Y-39657558D01*
X76703758Y-38957377D01*
X76411842Y-38417003D01*
X76247936Y-37965401D01*
X76187600Y-37531536D01*
X76206392Y-37044372D01*
X76279871Y-36432875D01*
X76296516Y-36307892D01*
X76548817Y-34900854D01*
X76921551Y-33725198D01*
X77463571Y-32656579D01*
X78088591Y-31746514D01*
X79019292Y-30743476D01*
X80114663Y-30003535D01*
X81428963Y-29496778D01*
X82622571Y-29246918D01*
X83502514Y-29152970D01*
X84413065Y-29121327D01*
X85262635Y-29148222D01*
X85959635Y-29229887D01*
X86412477Y-29362556D01*
X86479693Y-29405564D01*
X86749849Y-29542304D01*
X87269738Y-29744844D01*
X87941222Y-29975776D01*
X88156143Y-30044555D01*
X89192640Y-30393605D01*
X90393365Y-30836375D01*
X91707782Y-31350629D01*
X93085354Y-31914133D01*
X94475544Y-32504653D01*
X95827815Y-33099953D01*
X97091630Y-33677798D01*
X98216454Y-34215954D01*
X99151747Y-34692186D01*
X99846975Y-35084259D01*
X100243837Y-35362824D01*
X100522989Y-35671649D01*
X101270142Y-35671649D01*
X101261119Y-35597823D01*
X101084239Y-35244493D01*
X100732435Y-34893245D01*
X100159069Y-34501878D01*
X99317500Y-34028187D01*
X98883648Y-33800143D01*
X98137204Y-33402222D01*
X97525424Y-33056125D01*
X97111414Y-32798966D01*
X96958278Y-32667857D01*
X96958276Y-32667773D01*
X97110979Y-32661627D01*
X97516693Y-32769523D01*
X98092335Y-32968735D01*
X98180071Y-33001973D01*
X100265295Y-33770587D01*
X102346977Y-34482465D01*
X104352263Y-35115073D01*
X106208301Y-35645875D01*
X107842237Y-36052334D01*
X108475647Y-36186694D01*
X110060837Y-36534069D01*
X111385410Y-36902925D01*
X112551512Y-37322950D01*
X112921143Y-37478801D01*
X113755374Y-37862526D01*
X114402194Y-38222947D01*
X114977606Y-38640779D01*
X115597609Y-39196734D01*
X116098911Y-39689889D01*
X117397525Y-41192399D01*
X118434036Y-42813200D01*
X119191573Y-44505821D01*
X119653264Y-46223791D01*
X119802236Y-47920639D01*
X120796927Y-47920639D01*
X120718000Y-46668321D01*
X120382749Y-45148392D01*
X119917523Y-43757915D01*
X119010587Y-41783963D01*
X117869628Y-40080797D01*
X116474488Y-38626073D01*
X114805009Y-37397443D01*
X113556143Y-36706005D01*
X112644150Y-36275614D01*
X111861480Y-35967791D01*
X111067331Y-35738078D01*
X110120902Y-35542016D01*
X109564714Y-35445728D01*
X108417103Y-35215898D01*
X107025238Y-34875527D01*
X105480783Y-34451279D01*
X103875401Y-33969818D01*
X102300756Y-33457808D01*
X100848511Y-32941912D01*
X100493285Y-32806959D01*
X98678587Y-32133986D01*
X96714417Y-31453809D01*
X94711789Y-30802174D01*
X92781715Y-30214826D01*
X91035206Y-29727511D01*
X90514714Y-29593904D01*
X89282730Y-29296465D01*
X88280017Y-29085069D01*
X87388174Y-28941891D01*
X86488802Y-28849103D01*
X85463498Y-28788879D01*
X85058466Y-28772401D01*
X83662609Y-28742089D01*
X82536580Y-28777083D01*
X82536580Y-28777083D01*
G37*
X82536580Y-28777083D02*
X81591168Y-28890196D01*
X80737161Y-29094241D01*
X79885346Y-29402031D01*
X79492163Y-29571872D01*
X78791593Y-29947183D01*
X78177694Y-30434739D01*
X77529412Y-31132837D01*
X77443760Y-31235184D01*
X76825204Y-32071895D01*
X76329840Y-32970871D01*
X75922296Y-34016251D01*
X75567199Y-35292174D01*
X75373897Y-36158714D01*
X75089898Y-37519428D01*
X69013735Y-37629501D01*
X67300624Y-37662871D01*
X65902614Y-37696656D01*
X64771959Y-37733898D01*
X63860912Y-37777640D01*
X63121726Y-37830923D01*
X62506656Y-37896790D01*
X61967954Y-37978283D01*
X61457875Y-38078444D01*
X61253085Y-38123978D01*
X59069266Y-38686783D01*
X57019669Y-39341461D01*
X55183620Y-40060315D01*
X53807863Y-40723818D01*
X51203579Y-42324172D01*
X48866693Y-44166401D01*
X46804143Y-46239741D01*
X45022867Y-48533428D01*
X43529803Y-51036698D01*
X42331889Y-53738789D01*
X41436064Y-56628936D01*
X40849266Y-59696376D01*
X40693501Y-61069177D01*
X40452405Y-62915792D01*
X40064635Y-64616398D01*
X39890204Y-65204174D01*
X39393313Y-66849741D01*
X39020910Y-68233808D01*
X38758322Y-69429990D01*
X38590879Y-70511899D01*
X38503908Y-71553149D01*
X38483371Y-72263000D01*
X38495926Y-73324764D01*
X38581133Y-74130440D01*
X38773300Y-74784763D01*
X39106734Y-75392470D01*
X39615742Y-76058297D01*
X39796527Y-76271890D01*
X40683915Y-77046780D01*
X41724212Y-77511037D01*
X42872218Y-77658030D01*
X44082734Y-77481129D01*
X45153352Y-77057668D01*
X45731726Y-76794452D01*
X46049567Y-76741063D01*
X46129535Y-76811749D01*
X46395629Y-77249447D01*
X46886445Y-77773358D01*
X47506942Y-78298180D01*
X48162079Y-78738611D01*
X48439367Y-78884890D01*
X49421143Y-79349344D01*
X49421143Y-80517077D01*
X49455867Y-81385329D01*
X49550208Y-82451875D01*
X49689417Y-83609353D01*
X49858746Y-84750399D01*
X50043445Y-85767653D01*
X50228767Y-86553750D01*
X50268654Y-86686571D01*
X51170158Y-89222049D01*
X52188310Y-91548652D01*
X53299543Y-93618547D01*
X54480288Y-95383904D01*
X54684221Y-95647743D01*
X55436125Y-96488901D01*
X56466458Y-97474145D01*
X57736098Y-98571979D01*
X59205928Y-99750907D01*
X60836828Y-100979433D01*
X62589679Y-102226060D01*
X64216850Y-103322809D01*
X66266281Y-104617428D01*
X68099119Y-105661940D01*
X69747912Y-106470045D01*
X71245204Y-107055447D01*
X72623544Y-107431845D01*
X73915477Y-107612942D01*
X74458285Y-107634230D01*
X75549672Y-107510452D01*
X76442278Y-107144092D01*
X77102410Y-106572242D01*
X77496373Y-105831998D01*
X77573561Y-105117094D01*
X76635428Y-105117094D01*
X76494715Y-105868488D01*
X76071954Y-106395660D01*
X75366209Y-106698895D01*
X74376548Y-106778479D01*
X73102037Y-106634698D01*
X72261412Y-106456209D01*
X71386917Y-106185070D01*
X70315191Y-105761084D01*
X69151167Y-105232305D01*
X67999776Y-104646790D01*
X66965950Y-104052596D01*
X66838285Y-103972542D01*
X64012284Y-102127277D01*
X61529626Y-100397381D01*
X59390415Y-98782937D01*
X57594758Y-97284030D01*
X56142760Y-95900743D01*
X55034526Y-94633161D01*
X54918574Y-94480712D01*
X53678222Y-92575033D01*
X52584816Y-90401935D01*
X51664523Y-88036167D01*
X50943514Y-85552477D01*
X50447958Y-83025614D01*
X50237319Y-81109535D01*
X50113277Y-79342500D01*
X50616236Y-79151275D01*
X50947530Y-79070005D01*
X51297582Y-79116695D01*
X51777951Y-79317514D01*
X52155208Y-79512239D01*
X52724558Y-79798674D01*
X53182340Y-79998273D01*
X53409960Y-80064428D01*
X53701962Y-80161639D01*
X54102014Y-80396049D01*
X54110278Y-80401816D01*
X54468336Y-80611809D01*
X55069891Y-80922491D01*
X55825951Y-81289241D01*
X56519691Y-81609961D01*
X58447525Y-82480719D01*
X58540970Y-83585788D01*
X58744528Y-84829867D01*
X59158710Y-85977489D01*
X59824150Y-87117825D01*
X60622487Y-88153702D01*
X61255393Y-88939116D01*
X61902286Y-89798065D01*
X62457740Y-90588667D01*
X62640543Y-90869612D01*
X63129694Y-91574887D01*
X63698565Y-92236710D01*
X64398008Y-92900285D01*
X65278879Y-93610818D01*
X66392030Y-94413515D01*
X67382800Y-95085171D01*
X68460920Y-95826951D01*
X69441572Y-96561013D01*
X70391123Y-97344761D01*
X71375941Y-98235594D01*
X72462394Y-99290915D01*
X73689527Y-100539872D01*
X74765875Y-101697707D01*
X75574050Y-102676776D01*
X76137750Y-103513898D01*
X76480671Y-104245893D01*
X76626510Y-104909580D01*
X76635428Y-105117094D01*
X77573561Y-105117094D01*
X77590474Y-104960452D01*
X77468580Y-104320195D01*
X77222970Y-103671068D01*
X76862439Y-103000657D01*
X76354729Y-102266540D01*
X75667581Y-101426300D01*
X74768737Y-100437515D01*
X73625938Y-99257765D01*
X73595281Y-99226789D01*
X72262617Y-97911807D01*
X71062932Y-96804349D01*
X69903642Y-95827707D01*
X68692166Y-94905174D01*
X67335920Y-93960042D01*
X66838285Y-93628448D01*
X65782599Y-92904076D01*
X64968363Y-92268411D01*
X64314667Y-91643585D01*
X63740598Y-90951731D01*
X63165244Y-90114982D01*
X63129232Y-90058963D01*
X62591112Y-89267800D01*
X61936112Y-88374040D01*
X61288547Y-87546177D01*
X61162396Y-87393180D01*
X60354524Y-86338623D01*
X59815609Y-85412308D01*
X59511979Y-84542273D01*
X59409964Y-83656556D01*
X59409851Y-83647643D01*
X59413134Y-83145072D01*
X59432869Y-82834513D01*
X59448381Y-82785857D01*
X59633514Y-82824591D01*
X60099171Y-82929737D01*
X60772640Y-83084707D01*
X61489452Y-83251461D01*
X62560386Y-83474213D01*
X63634102Y-83633449D01*
X64827297Y-83742727D01*
X66256664Y-83815607D01*
X66384714Y-83820272D01*
X69287571Y-83923479D01*
X70013285Y-84843862D01*
X70950283Y-85975001D01*
X71964308Y-87101717D01*
X72964146Y-88126770D01*
X73858584Y-88952922D01*
X73903873Y-88991474D01*
X74446787Y-89414278D01*
X75171906Y-89928041D01*
X76005817Y-90486301D01*
X76875108Y-91042594D01*
X77706367Y-91550457D01*
X78426181Y-91963427D01*
X78961138Y-92235040D01*
X79136852Y-92303470D01*
X79462498Y-92430530D01*
X80030838Y-92678930D01*
X80758259Y-93011292D01*
X81464493Y-93343978D01*
X82280586Y-93739081D01*
X82819005Y-94021982D01*
X83131629Y-94232331D01*
X83270338Y-94409779D01*
X83287011Y-94593977D01*
X83261703Y-94717560D01*
X83100794Y-95237119D01*
X82820713Y-96015905D01*
X82449940Y-96981690D01*
X82016958Y-98062245D01*
X81550249Y-99185340D01*
X81078296Y-100278748D01*
X80991289Y-100475143D01*
X80528043Y-101523171D01*
X80010671Y-102704886D01*
X79517978Y-103839867D01*
X79276400Y-104401387D01*
X78788004Y-105657956D01*
X78519702Y-106658714D01*
X78473581Y-107437917D01*
X78651731Y-108029821D01*
X79056243Y-108468684D01*
X79540456Y-108731041D01*
X80085550Y-108857238D01*
X80686532Y-108787327D01*
X81373938Y-108503833D01*
X82178303Y-107989285D01*
X83130163Y-107226209D01*
X84260056Y-106197133D01*
X84688284Y-105785409D01*
X85820635Y-104785945D01*
X86932424Y-103994089D01*
X87409713Y-103720418D01*
X88855894Y-102925910D01*
X90009712Y-102199809D01*
X90925518Y-101503493D01*
X91657663Y-100798337D01*
X91878585Y-100544697D01*
X92330591Y-99988594D01*
X92702688Y-99507305D01*
X92921293Y-99196317D01*
X92932836Y-99176559D01*
X93027436Y-99073686D01*
X93193495Y-99045000D01*
X93480562Y-99106280D01*
X93938184Y-99273303D01*
X94615909Y-99561847D01*
X95563284Y-99987691D01*
X95756839Y-100075841D01*
X96739680Y-100516568D01*
X97682330Y-100926005D01*
X98501955Y-101269107D01*
X99115724Y-101510825D01*
X99314430Y-101581052D01*
X100221143Y-101877623D01*
X100211360Y-105712097D01*
X100199921Y-106966852D01*
X100173820Y-108200436D01*
X100135911Y-109329759D01*
X100089045Y-110271728D01*
X100036075Y-110943253D01*
X100029886Y-110998000D01*
X99936608Y-111876455D01*
X99840682Y-112926306D01*
X99759224Y-113956629D01*
X99741068Y-114219711D01*
X99691949Y-115043071D01*
X99687107Y-115616957D01*
X99744696Y-116053812D01*
X99882869Y-116466079D01*
X100119780Y-116966199D01*
X100214809Y-117154092D01*
X100690634Y-117913513D01*
X101405044Y-118822199D01*
X102300501Y-119819710D01*
X103319468Y-120845603D01*
X104404407Y-121839438D01*
X105497782Y-122740773D01*
X105628831Y-122841377D01*
X107468967Y-124146523D01*
X109315409Y-125275066D01*
X111112818Y-126198659D01*
X112805852Y-126888955D01*
X114339169Y-127317609D01*
X114386039Y-127326895D01*
X115041885Y-127423490D01*
X115943474Y-127513119D01*
X117011317Y-127592292D01*
X118165926Y-127657519D01*
X119327812Y-127705310D01*
X120417486Y-127732175D01*
X121355460Y-127734624D01*
X122062244Y-127709166D01*
X122355428Y-127676812D01*
X122757253Y-127611377D01*
X123386551Y-127513971D01*
X124111731Y-127404941D01*
X124158600Y-127398003D01*
X126752240Y-126848185D01*
X129333220Y-125964157D01*
X131921033Y-124737797D01*
X134535173Y-123160980D01*
X134874000Y-122932532D01*
X136200682Y-121978666D01*
X137235375Y-121117480D01*
X138022392Y-120305400D01*
X138606047Y-119498851D01*
X138880054Y-118993232D01*
X139341067Y-117789994D01*
X139528788Y-116617701D01*
X139522245Y-116528878D01*
X138502571Y-116528878D01*
X138438014Y-117430807D01*
X138224347Y-118251409D01*
X137831582Y-119028806D01*
X137229729Y-119801122D01*
X136388797Y-120606479D01*
X135278796Y-121483002D01*
X133869737Y-122468814D01*
X133785428Y-122525315D01*
X131795221Y-123766550D01*
X129920763Y-124737820D01*
X128081662Y-125474437D01*
X126197527Y-126011715D01*
X125512798Y-126159156D01*
X124660898Y-126320474D01*
X123851642Y-126452876D01*
X122993396Y-126568148D01*
X121994528Y-126678075D01*
X120763404Y-126794441D01*
X120159275Y-126847702D01*
X119874514Y-126843164D01*
X119307723Y-126812480D01*
X118538390Y-126760613D01*
X117646007Y-126692521D01*
X117555558Y-126685214D01*
X116023316Y-126544783D01*
X114768333Y-126382867D01*
X113705026Y-126174548D01*
X112747814Y-125894907D01*
X111811114Y-125519026D01*
X110809344Y-125021986D01*
X109679818Y-124392067D01*
X108066532Y-123405851D01*
X106611185Y-122383312D01*
X105209809Y-121243656D01*
X103758441Y-119906090D01*
X103198364Y-119355247D01*
X102266729Y-118404605D01*
X101576345Y-117623766D01*
X101097829Y-116940823D01*
X100801796Y-116283871D01*
X100658865Y-115581005D01*
X100639653Y-114760317D01*
X100714775Y-113749904D01*
X100754063Y-113373605D01*
X100820601Y-112607935D01*
X100888075Y-111560354D01*
X100952539Y-110311777D01*
X101010047Y-108943117D01*
X101056651Y-107535287D01*
X101076391Y-106765476D01*
X101109001Y-105358861D01*
X101137997Y-104274409D01*
X101167781Y-103471510D01*
X101202755Y-102909560D01*
X101247321Y-102547950D01*
X101305882Y-102346073D01*
X101382838Y-102263323D01*
X101482592Y-102259092D01*
X101562696Y-102279486D01*
X102236013Y-102459945D01*
X102641662Y-102519495D01*
X102856592Y-102450821D01*
X102957753Y-102246605D01*
X102979954Y-102144735D01*
X102999806Y-101894265D01*
X102892632Y-101725622D01*
X102585165Y-101587924D01*
X102004140Y-101430287D01*
X101921905Y-101409921D01*
X101073626Y-101162743D01*
X99993776Y-100791829D01*
X98776196Y-100333983D01*
X97514726Y-99826009D01*
X96303206Y-99304713D01*
X95235476Y-98806899D01*
X95050428Y-98714896D01*
X94401839Y-98386263D01*
X93890468Y-98123293D01*
X93592389Y-97965288D01*
X93547805Y-97938640D01*
X93571871Y-97741707D01*
X93723635Y-97279126D01*
X93976253Y-96613553D01*
X94302884Y-95807644D01*
X94676686Y-94924053D01*
X95070816Y-94025437D01*
X95458432Y-93174451D01*
X95812692Y-92433751D01*
X96106754Y-91865991D01*
X96259000Y-91610120D01*
X97016630Y-90410125D01*
X97547190Y-89388662D01*
X97866627Y-88454810D01*
X97990891Y-87517644D01*
X97935931Y-86486241D01*
X97717696Y-85269678D01*
X97518790Y-84428157D01*
X97305926Y-83558592D01*
X97129902Y-82808611D01*
X97007640Y-82252593D01*
X96956064Y-81964918D01*
X96955428Y-81952002D01*
X97075832Y-81745012D01*
X97404139Y-81339610D01*
X97890991Y-80793279D01*
X98487033Y-80163503D01*
X98521333Y-80128273D01*
X100102774Y-78443274D01*
X101590186Y-76735587D01*
X102934825Y-75065741D01*
X104087953Y-73494265D01*
X105000816Y-72081706D01*
X105577902Y-71084677D01*
X106002600Y-70285416D01*
X106321858Y-69578490D01*
X106582623Y-68858464D01*
X106831843Y-68019906D01*
X106868296Y-67887737D01*
X107468294Y-65079347D01*
X107787505Y-62078769D01*
X107801862Y-60811884D01*
X107243146Y-60811884D01*
X107134835Y-62646708D01*
X106897695Y-64528981D01*
X106547259Y-66373782D01*
X106099057Y-68096193D01*
X105568622Y-69611292D01*
X105105861Y-70598069D01*
X104207001Y-72106111D01*
X103090599Y-73746253D01*
X101823797Y-75425604D01*
X100473736Y-77051271D01*
X100292764Y-77257039D01*
X99527952Y-78107508D01*
X98779930Y-78915907D01*
X98088635Y-79641484D01*
X97494005Y-80243488D01*
X97035978Y-80681167D01*
X96754490Y-80913769D01*
X96686162Y-80937144D01*
X96618489Y-80749767D01*
X96476591Y-80291709D01*
X96284411Y-79641613D01*
X96155640Y-79194586D01*
X95674339Y-77508315D01*
X96292754Y-76745300D01*
X97248932Y-75435617D01*
X98213293Y-73880545D01*
X99125751Y-72191074D01*
X99926221Y-70478192D01*
X100536365Y-68906571D01*
X100880963Y-67712616D01*
X101209623Y-66220866D01*
X101514230Y-64496301D01*
X101786669Y-62603899D01*
X102018828Y-60608639D01*
X102202591Y-58575500D01*
X102329846Y-56569460D01*
X102392477Y-54655498D01*
X102397643Y-54001056D01*
X102405429Y-53497681D01*
X101699286Y-53497681D01*
X101691072Y-54221091D01*
X101665850Y-55134472D01*
X101626275Y-56180481D01*
X101574999Y-57301778D01*
X101514675Y-58441020D01*
X101447956Y-59540864D01*
X101377496Y-60543969D01*
X101305947Y-61392992D01*
X101235963Y-62030592D01*
X101225972Y-62103000D01*
X101084830Y-63084840D01*
X100936337Y-64111257D01*
X100804152Y-65018949D01*
X100754127Y-65359876D01*
X100334876Y-67321939D01*
X99639745Y-69435123D01*
X98871978Y-71250125D01*
X98494026Y-72026283D01*
X98077612Y-72819912D01*
X97658821Y-73569656D01*
X97273737Y-74214161D01*
X96958444Y-74692072D01*
X96749028Y-74942032D01*
X96690761Y-74958887D01*
X96698309Y-74764448D01*
X96772455Y-74302509D01*
X96898643Y-73659232D01*
X96954645Y-73396928D01*
X97094944Y-72719100D01*
X97187924Y-72201297D01*
X97219557Y-71924926D01*
X97212577Y-71900143D01*
X97069554Y-72059620D01*
X96850126Y-72484778D01*
X96588482Y-73095700D01*
X96318807Y-73812473D01*
X96075286Y-74555182D01*
X96071739Y-74567005D01*
X95800100Y-75385989D01*
X95578454Y-75853144D01*
X95400861Y-75975160D01*
X95261379Y-75758728D01*
X95207048Y-75540738D01*
X95070906Y-75144129D01*
X94798657Y-74998322D01*
X94554768Y-74984428D01*
X94186944Y-75021246D01*
X94104196Y-75169829D01*
X94145884Y-75301928D01*
X94246519Y-75609294D01*
X94408170Y-76173785D01*
X94604166Y-76900424D01*
X94719044Y-77343000D01*
X94929699Y-78147679D01*
X95208635Y-79186716D01*
X95524728Y-80345494D01*
X95846855Y-81509393D01*
X95964364Y-81929148D01*
X96420683Y-83605055D01*
X96756920Y-84988064D01*
X96973897Y-86127403D01*
X97072438Y-87072295D01*
X97053364Y-87871966D01*
X96917501Y-88575641D01*
X96665669Y-89232545D01*
X96298693Y-89891902D01*
X96102529Y-90193148D01*
X95372452Y-91350026D01*
X94736814Y-92531731D01*
X94133578Y-93860793D01*
X93698479Y-94941571D01*
X93217656Y-96175579D01*
X92837030Y-97126450D01*
X92529472Y-97850831D01*
X92267851Y-98405370D01*
X92025039Y-98846714D01*
X91773906Y-99231511D01*
X91487323Y-99616408D01*
X91415651Y-99708218D01*
X90657784Y-100568144D01*
X89804080Y-101304198D01*
X88730118Y-102022962D01*
X88673231Y-102057445D01*
X88226280Y-102328383D01*
X87884000Y-102537473D01*
X87583497Y-102705319D01*
X87077606Y-102972008D01*
X86580368Y-103226693D01*
X85954401Y-103614772D01*
X85174300Y-104207904D01*
X84325609Y-104938708D01*
X83894312Y-105342350D01*
X82928518Y-106234219D01*
X82043605Y-106976916D01*
X81280836Y-107539817D01*
X80681476Y-107892300D01*
X80307266Y-108004428D01*
X79949959Y-107922776D01*
X79707787Y-107816616D01*
X79487401Y-107611324D01*
X79389439Y-107274333D01*
X79421860Y-106776114D01*
X79592621Y-106087134D01*
X79909682Y-105177863D01*
X80380999Y-104018770D01*
X81014532Y-102580323D01*
X81270626Y-102017285D01*
X82207285Y-99916106D01*
X82972157Y-98070627D01*
X83582979Y-96427118D01*
X84057487Y-94931852D01*
X84413418Y-93531099D01*
X84668509Y-92171131D01*
X84774364Y-91403714D01*
X84826476Y-90358683D01*
X83870110Y-90358683D01*
X83836243Y-91187689D01*
X83770434Y-91957390D01*
X83677334Y-92589045D01*
X83561593Y-93003912D01*
X83448662Y-93127285D01*
X83266713Y-93058480D01*
X82840114Y-92876559D01*
X82254681Y-92618263D01*
X82144012Y-92568717D01*
X81370749Y-92223622D01*
X80579636Y-91873456D01*
X79992780Y-91616217D01*
X78044441Y-90635352D01*
X76124396Y-89418338D01*
X74335854Y-88039151D01*
X72782027Y-86571766D01*
X72453654Y-86212603D01*
X71651625Y-85295679D01*
X71081972Y-84610035D01*
X70727982Y-84123099D01*
X70572940Y-83802296D01*
X70600133Y-83615054D01*
X70792846Y-83528797D01*
X71067207Y-83510559D01*
X71507147Y-83461368D01*
X72065131Y-83342095D01*
X72145071Y-83320603D01*
X72622626Y-83129537D01*
X72812790Y-82873376D01*
X72825428Y-82752668D01*
X72792825Y-82529150D01*
X72633344Y-82439921D01*
X72254475Y-82457458D01*
X71963643Y-82496269D01*
X69683599Y-82746866D01*
X67416233Y-82856548D01*
X65239930Y-82826734D01*
X63233073Y-82658839D01*
X61474045Y-82354281D01*
X61260016Y-82302817D01*
X60544858Y-82100622D01*
X59712846Y-81828735D01*
X58834286Y-81514737D01*
X57979486Y-81186213D01*
X57218751Y-80870743D01*
X56622387Y-80595912D01*
X56260702Y-80389302D01*
X56186394Y-80312325D01*
X56299658Y-80151563D01*
X56675376Y-80009830D01*
X56806462Y-79982115D01*
X57916624Y-79642900D01*
X59104215Y-79048875D01*
X60276261Y-78265586D01*
X61339786Y-77358577D01*
X62201817Y-76393395D01*
X62486987Y-75977452D01*
X62852317Y-75445260D01*
X63328128Y-74825918D01*
X63605203Y-74493154D01*
X64074492Y-73897083D01*
X64499621Y-73268327D01*
X64676448Y-72958713D01*
X64967151Y-72513171D01*
X65442336Y-71915258D01*
X66022593Y-71261653D01*
X66349932Y-70921330D01*
X67455748Y-69641558D01*
X68271037Y-68335996D01*
X68771382Y-67048199D01*
X68903090Y-66366571D01*
X69010784Y-65459428D01*
X68604892Y-66643218D01*
X68114366Y-67745800D01*
X67405504Y-68914131D01*
X66566229Y-70019359D01*
X65684467Y-70932630D01*
X65668068Y-70947114D01*
X64861953Y-71872002D01*
X64298290Y-72897990D01*
X64022365Y-73474900D01*
X63795789Y-73879177D01*
X63660849Y-74036837D01*
X63649448Y-74033210D01*
X63604352Y-73775831D01*
X63655214Y-73260487D01*
X63781882Y-72572994D01*
X63964203Y-71799166D01*
X64182025Y-71024817D01*
X64415195Y-70335761D01*
X64636142Y-69831596D01*
X64951773Y-69142724D01*
X65224068Y-68373843D01*
X65425885Y-67626176D01*
X65530080Y-67000944D01*
X65509508Y-66599371D01*
X65505623Y-66589186D01*
X65431623Y-66556627D01*
X65401180Y-66751975D01*
X65278575Y-67405555D01*
X64977688Y-68243270D01*
X64540192Y-69160663D01*
X64210161Y-69737440D01*
X63647054Y-70927409D01*
X63294077Y-72186726D01*
X62996094Y-73417149D01*
X62632730Y-74418951D01*
X62145801Y-75326295D01*
X61580757Y-76137462D01*
X60534056Y-77281447D01*
X59285482Y-78248265D01*
X57903341Y-79007708D01*
X56455940Y-79529566D01*
X55011585Y-79783629D01*
X53638583Y-79739688D01*
X53491970Y-79714834D01*
X52798350Y-79545534D01*
X52255334Y-79336065D01*
X51929518Y-79119956D01*
X51887495Y-78930735D01*
X51901821Y-78914226D01*
X52132303Y-78852806D01*
X52617849Y-78809243D01*
X53216024Y-78793416D01*
X53975786Y-78761545D01*
X54708137Y-78680119D01*
X55136143Y-78595462D01*
X55746225Y-78335181D01*
X56324547Y-77932247D01*
X56779147Y-77468860D01*
X57018062Y-77027218D01*
X57033879Y-76899195D01*
X57007015Y-76685060D01*
X56908253Y-76761005D01*
X56757136Y-77023219D01*
X56460684Y-77433962D01*
X56041956Y-77743349D01*
X55445579Y-77970219D01*
X54616179Y-78133414D01*
X53498383Y-78251775D01*
X53049714Y-78284685D01*
X52088865Y-78353484D01*
X51176860Y-78425567D01*
X50420268Y-78492108D01*
X49946019Y-78541715D01*
X49318074Y-78565499D01*
X48749015Y-78431925D01*
X48222447Y-78193592D01*
X47370169Y-77673699D01*
X46743990Y-77055052D01*
X46219947Y-76212174D01*
X46172215Y-76118357D01*
X45925152Y-75666550D01*
X45734310Y-75389049D01*
X45678924Y-75347285D01*
X45505898Y-75475278D01*
X45227062Y-75787013D01*
X45198578Y-75822842D01*
X44757470Y-76232969D01*
X44225794Y-76548557D01*
X43236135Y-76787398D01*
X42274453Y-76702168D01*
X41381056Y-76331442D01*
X40596252Y-75713795D01*
X39960352Y-74887804D01*
X39513663Y-73892043D01*
X39296495Y-72765088D01*
X39309818Y-71843957D01*
X39399702Y-71249905D01*
X39566636Y-70390479D01*
X39790718Y-69349972D01*
X40052046Y-68212676D01*
X40330720Y-67062883D01*
X40606836Y-65984884D01*
X40860492Y-65062972D01*
X41071724Y-64381624D01*
X41881186Y-62398282D01*
X42853678Y-60654687D01*
X43968495Y-59173211D01*
X45204934Y-57976227D01*
X46542291Y-57086108D01*
X47959861Y-56525226D01*
X48443252Y-56415920D01*
X49115152Y-56275406D01*
X49498675Y-56141539D01*
X49666050Y-55980636D01*
X49693285Y-55833034D01*
X49649681Y-55631638D01*
X49462196Y-55528999D01*
X49045818Y-55497232D01*
X48678127Y-55500061D01*
X47512627Y-55682577D01*
X46272970Y-56165424D01*
X45025390Y-56914334D01*
X43836122Y-57895041D01*
X43599847Y-58127371D01*
X43053479Y-58706488D01*
X42605292Y-59228296D01*
X42319641Y-59615587D01*
X42256360Y-59739243D01*
X42077116Y-60049003D01*
X41892273Y-60070663D01*
X41801432Y-59796764D01*
X41801143Y-59773329D01*
X41842363Y-59386902D01*
X41952743Y-58742058D01*
X42112358Y-57932135D01*
X42301283Y-57050468D01*
X42499595Y-56190392D01*
X42687369Y-55445245D01*
X42830511Y-54951178D01*
X43035830Y-54392919D01*
X43347476Y-53630915D01*
X43714164Y-52788257D01*
X43919088Y-52338534D01*
X45261013Y-49871745D01*
X46905651Y-47577242D01*
X48820516Y-45488366D01*
X50973122Y-43638460D01*
X53330981Y-42060862D01*
X54607471Y-41369167D01*
X56042556Y-40692128D01*
X57397940Y-40152683D01*
X58800544Y-39708018D01*
X60377286Y-39315318D01*
X61243406Y-39130631D01*
X61940607Y-38991910D01*
X62563328Y-38880826D01*
X63165913Y-38793618D01*
X63802704Y-38726524D01*
X64528046Y-38675784D01*
X65396282Y-38637635D01*
X66461757Y-38608316D01*
X67778812Y-38584065D01*
X69401793Y-38561121D01*
X69487336Y-38560001D01*
X75311386Y-38483903D01*
X75820760Y-39362380D01*
X76896955Y-41057404D01*
X78182948Y-42818108D01*
X79581869Y-44516216D01*
X80357278Y-45369572D01*
X82116625Y-47232573D01*
X81284156Y-48206989D01*
X80730582Y-48927115D01*
X80088355Y-49875441D01*
X79419170Y-50949921D01*
X78784716Y-52048509D01*
X78246687Y-53069160D01*
X77928701Y-53757285D01*
X77367578Y-55109466D01*
X76927374Y-56208619D01*
X76579170Y-57132193D01*
X76294046Y-57957637D01*
X76043084Y-58762398D01*
X75981620Y-58971745D01*
X75182994Y-61956435D01*
X74592847Y-64690020D01*
X74215278Y-67153340D01*
X74196011Y-67323329D01*
X74090303Y-68226569D01*
X73988383Y-69001171D01*
X73900597Y-69574798D01*
X73837289Y-69875112D01*
X73828004Y-69896794D01*
X73563607Y-70092869D01*
X73021942Y-70340749D01*
X72280339Y-70615260D01*
X71416127Y-70891228D01*
X70506636Y-71143480D01*
X69629196Y-71346842D01*
X69060010Y-71448960D01*
X68251560Y-71577785D01*
X67660186Y-71717490D01*
X67208580Y-71922487D01*
X66819434Y-72247187D01*
X66415437Y-72746003D01*
X65919283Y-73473346D01*
X65691061Y-73820118D01*
X65174859Y-74539008D01*
X64616294Y-75211025D01*
X64111851Y-75722986D01*
X63966681Y-75842854D01*
X63488194Y-76222921D01*
X63312611Y-76404471D01*
X63435141Y-76380434D01*
X63850992Y-76143737D01*
X64075105Y-76002851D01*
X64657844Y-75576982D01*
X65213542Y-75042546D01*
X65812221Y-74324985D01*
X66394714Y-73533000D01*
X66886818Y-72865134D01*
X67271869Y-72439219D01*
X67636872Y-72190604D01*
X68068835Y-72054635D01*
X68471143Y-71990061D01*
X69957017Y-71740351D01*
X71281335Y-71414519D01*
X72358500Y-71034937D01*
X72655355Y-70896531D01*
X73341819Y-70599001D01*
X73786504Y-70541292D01*
X74025625Y-70730028D01*
X74095428Y-71159804D01*
X74147122Y-71834355D01*
X74311570Y-72643407D01*
X74602820Y-73635787D01*
X75034920Y-74860322D01*
X75520463Y-76112712D01*
X76497555Y-78315709D01*
X77559578Y-80217610D01*
X78743383Y-81876979D01*
X80060537Y-83327592D01*
X80947865Y-84255421D01*
X81790878Y-85240433D01*
X82541871Y-86218002D01*
X83153138Y-87123504D01*
X83576972Y-87892314D01*
X83733558Y-88303257D01*
X83823418Y-88837726D01*
X83867385Y-89549115D01*
X83870110Y-90358683D01*
X84826476Y-90358683D01*
X84850645Y-89874021D01*
X84667174Y-88499789D01*
X84200263Y-87201514D01*
X83426224Y-85899692D01*
X82942331Y-85254857D01*
X82240678Y-84228650D01*
X81728462Y-83181336D01*
X81422243Y-82174955D01*
X81338579Y-81271548D01*
X81494029Y-80533155D01*
X81621380Y-80305674D01*
X81792696Y-79993762D01*
X81721210Y-79789408D01*
X81630086Y-79706030D01*
X81251132Y-79574330D01*
X81027990Y-79598709D01*
X80859114Y-79612420D01*
X80710919Y-79510997D01*
X80571356Y-79255071D01*
X80428375Y-78805273D01*
X80269928Y-78122234D01*
X80083966Y-77166586D01*
X79858438Y-75898960D01*
X79810093Y-75619428D01*
X79393267Y-72622795D01*
X79218295Y-69801934D01*
X79286440Y-67060990D01*
X79598966Y-64304108D01*
X79986949Y-62203800D01*
X80694781Y-59611250D01*
X81674344Y-57243532D01*
X82938518Y-55071192D01*
X83377761Y-54449705D01*
X83908109Y-53800599D01*
X84565454Y-53099362D01*
X85283042Y-52406286D01*
X85994116Y-51781667D01*
X86631921Y-51285797D01*
X87129701Y-50978969D01*
X87286191Y-50919632D01*
X87641785Y-50926773D01*
X88226307Y-51035725D01*
X88927672Y-51224299D01*
X89100477Y-51278791D01*
X90141765Y-51594159D01*
X91104317Y-51826370D01*
X92095243Y-51992971D01*
X93221655Y-52111511D01*
X94590664Y-52199537D01*
X94778285Y-52208979D01*
X95953574Y-52281304D01*
X97290689Y-52386176D01*
X98591916Y-52507187D01*
X99312888Y-52585329D01*
X100177572Y-52685694D01*
X100902485Y-52768600D01*
X101416602Y-52826016D01*
X101648900Y-52849906D01*
X101654081Y-52850143D01*
X101687840Y-53021584D01*
X101699286Y-53497681D01*
X102405429Y-53497681D01*
X102408094Y-53325439D01*
X102450791Y-52941606D01*
X102544001Y-52778753D01*
X102705993Y-52766078D01*
X102715785Y-52768026D01*
X103033593Y-52830275D01*
X103603054Y-52939067D01*
X104319123Y-53074379D01*
X104575428Y-53122514D01*
X105314052Y-53264578D01*
X105938019Y-53391092D01*
X106343858Y-53480851D01*
X106414009Y-53499300D01*
X106545572Y-53640762D01*
X106667841Y-54001170D01*
X106784481Y-54606453D01*
X106899158Y-55482536D01*
X107015537Y-56655346D01*
X107137283Y-58150809D01*
X107207097Y-59109428D01*
X107243146Y-60811884D01*
X107801862Y-60811884D01*
X107823225Y-58926912D01*
X107637626Y-56244276D01*
X107560966Y-55443500D01*
X107511283Y-54786867D01*
X107493557Y-54351293D01*
X107506151Y-54213230D01*
X107710796Y-54206973D01*
X108133750Y-54279922D01*
X108299808Y-54318643D01*
X108952865Y-54429143D01*
X109869452Y-54516736D01*
X110954043Y-54579175D01*
X112111110Y-54614213D01*
X113245128Y-54619600D01*
X114260570Y-54593090D01*
X115061911Y-54532435D01*
X115370428Y-54485010D01*
X116166730Y-54329973D01*
X116708736Y-54275718D01*
X117098217Y-54353171D01*
X117436945Y-54593253D01*
X117826693Y-55026889D01*
X118050771Y-55299428D01*
X119993006Y-57917992D01*
X121669184Y-60693599D01*
X123042267Y-63560710D01*
X123711679Y-65316371D01*
X124143666Y-66603560D01*
X124481421Y-67702809D01*
X124750471Y-68721733D01*
X124976343Y-69767945D01*
X125184565Y-70949061D01*
X125400664Y-72372695D01*
X125424063Y-72535143D01*
X125805535Y-75493307D01*
X126053976Y-78151925D01*
X126169148Y-80549135D01*
X126150814Y-82723076D01*
X125998735Y-84711886D01*
X125712672Y-86553705D01*
X125326392Y-88167361D01*
X125181921Y-88820522D01*
X125041902Y-89694227D01*
X124927485Y-90646548D01*
X124884685Y-91131571D01*
X124778841Y-92193011D01*
X124620921Y-93370422D01*
X124439242Y-94460932D01*
X124373696Y-94792123D01*
X124189395Y-95760060D01*
X124121147Y-96485208D01*
X124188915Y-97074682D01*
X124412662Y-97635595D01*
X124812352Y-98275062D01*
X125097508Y-98675783D01*
X125607212Y-99378934D01*
X126140249Y-100115316D01*
X126528285Y-100652216D01*
X127658947Y-102129335D01*
X129006162Y-103741081D01*
X130496011Y-105404624D01*
X132054571Y-107037131D01*
X133440767Y-108397966D01*
X134837204Y-109756655D01*
X135965731Y-110940875D01*
X136851195Y-111990540D01*
X137518443Y-112945561D01*
X137992321Y-113845851D01*
X138297677Y-114731321D01*
X138459358Y-115641884D01*
X138502571Y-116528878D01*
X139522245Y-116528878D01*
X139439793Y-115409612D01*
X139070655Y-114098985D01*
X138568755Y-112926408D01*
X138357467Y-112506331D01*
X138130943Y-112115934D01*
X137856360Y-111717354D01*
X137500894Y-111272729D01*
X137031723Y-110744194D01*
X136416024Y-110093887D01*
X135620975Y-109283946D01*
X134613752Y-108276506D01*
X134066060Y-107732285D01*
X133022342Y-106683670D01*
X132002173Y-105635157D01*
X131052097Y-104636344D01*
X130218659Y-103736832D01*
X129548401Y-102986219D01*
X129087869Y-102434106D01*
X129058050Y-102395521D01*
X128001211Y-101012198D01*
X127147282Y-99886591D01*
X126475845Y-98990426D01*
X125966480Y-98295430D01*
X125598768Y-97773331D01*
X125352291Y-97395855D01*
X125206630Y-97134729D01*
X125145387Y-96977828D01*
X125125557Y-96632453D01*
X125158667Y-96023909D01*
X125237650Y-95246889D01*
X125321452Y-94619257D01*
X125459747Y-93616610D01*
X125591025Y-92555772D01*
X125695193Y-91603544D01*
X125730662Y-91222285D01*
X125836729Y-90368130D01*
X125998371Y-89506050D01*
X126181236Y-88818241D01*
X126187333Y-88800336D01*
X126711083Y-86851974D01*
X127046248Y-84617595D01*
X127193419Y-82120823D01*
X127153187Y-79385283D01*
X126926144Y-76434598D01*
X126512880Y-73292394D01*
X125913986Y-69982294D01*
X125689969Y-68922281D01*
X124776806Y-65546651D01*
X123549250Y-62350560D01*
X122002852Y-59324865D01*
X120133160Y-56460423D01*
X118780352Y-54726206D01*
X118385905Y-54234394D01*
X118105633Y-53850671D01*
X118001143Y-53660508D01*
X118127024Y-53481059D01*
X118453957Y-53146291D01*
X118825156Y-52805563D01*
X119549931Y-52048467D01*
X120079961Y-51189490D01*
X120467611Y-50129962D01*
X120652576Y-49362052D01*
X120805207Y-48052023D01*
X120796927Y-47920639D01*
X119802236Y-47920639D01*
X119642841Y-49451124D01*
X119213238Y-50705605D01*
X118497619Y-51751936D01*
X117510735Y-52584955D01*
X116267340Y-53199499D01*
X114782185Y-53590406D01*
X113070022Y-53752513D01*
X111145604Y-53680658D01*
X109023683Y-53369678D01*
X108657571Y-53295439D01*
X106363350Y-52820317D01*
X104364422Y-52424549D01*
X102604072Y-52099420D01*
X101025587Y-51836213D01*
X99572251Y-51626214D01*
X98187352Y-51460705D01*
X96814173Y-51330971D01*
X95396003Y-51228296D01*
X95081338Y-51209009D01*
X93931013Y-51126299D01*
X92793078Y-51019370D01*
X91765272Y-50899145D01*
X90945332Y-50776548D01*
X90602232Y-50708361D01*
X89244714Y-50393680D01*
X89231884Y-50169889D01*
X86976223Y-50169889D01*
X86839000Y-50347591D01*
X86505115Y-50599615D01*
X86477928Y-50616986D01*
X85057139Y-51693191D01*
X83694962Y-53070597D01*
X82443916Y-54687602D01*
X81356520Y-56482600D01*
X81171302Y-56841571D01*
X80646957Y-57942704D01*
X80219388Y-58986451D01*
X79854482Y-60075400D01*
X79518125Y-61312142D01*
X79176206Y-62799266D01*
X79150316Y-62919428D01*
X79011245Y-63600420D01*
X78905738Y-64222165D01*
X78829321Y-64851481D01*
X78777521Y-65555183D01*
X78745863Y-66400089D01*
X78729876Y-67453016D01*
X78725084Y-68780780D01*
X78725181Y-69269428D01*
X78733770Y-70892890D01*
X78763353Y-72239935D01*
X78823749Y-73396828D01*
X78924782Y-74449837D01*
X79076271Y-75485230D01*
X79288039Y-76589272D01*
X79569907Y-77848232D01*
X79821259Y-78896939D01*
X80026784Y-79806994D01*
X80205992Y-80720323D01*
X80332130Y-81495263D01*
X80366873Y-81785897D01*
X80414066Y-82368454D01*
X80402653Y-82653156D01*
X80317246Y-82702420D01*
X80166464Y-82598767D01*
X79905456Y-82330516D01*
X79515186Y-81871511D01*
X79096865Y-81342666D01*
X78082355Y-79879450D01*
X77181244Y-78277062D01*
X76345599Y-76445680D01*
X75945699Y-75438000D01*
X75470118Y-74163243D01*
X75120375Y-73139227D01*
X74880543Y-72282669D01*
X74734698Y-71510292D01*
X74666914Y-70738814D01*
X74661265Y-69884956D01*
X74699086Y-68918924D01*
X74886854Y-66885382D01*
X75239430Y-64711202D01*
X75737634Y-62450298D01*
X76362286Y-60156585D01*
X77094207Y-57883974D01*
X77914219Y-55686380D01*
X78803141Y-53617717D01*
X79741794Y-51731896D01*
X80710999Y-50082833D01*
X81691578Y-48724439D01*
X82018085Y-48345073D01*
X82894714Y-47377860D01*
X83910671Y-48163644D01*
X84622754Y-48674837D01*
X85414290Y-49184696D01*
X85951108Y-49493714D01*
X86479526Y-49793421D01*
X86849697Y-50039603D01*
X86976223Y-50169889D01*
X89231884Y-50169889D01*
X89189207Y-49425502D01*
X89291470Y-48189061D01*
X89734922Y-46850143D01*
X90520611Y-45406919D01*
X91649583Y-43857562D01*
X93122886Y-42200245D01*
X93615025Y-41698844D01*
X95144648Y-40247421D01*
X96536993Y-39091388D01*
X97825577Y-38205987D01*
X99043920Y-37566463D01*
X99420290Y-37411294D01*
X100250236Y-37080837D01*
X100795491Y-36824028D01*
X101114649Y-36596957D01*
X101266308Y-36355716D01*
X101309061Y-36056396D01*
X101309714Y-35995439D01*
X101270142Y-35671649D01*
X100522989Y-35671649D01*
X100510463Y-35886863D01*
X100179645Y-36071317D01*
X99903643Y-36166217D01*
X98776050Y-36650689D01*
X97496340Y-37424008D01*
X96096471Y-38462321D01*
X94608402Y-39741775D01*
X93064094Y-41238518D01*
X92948771Y-41356934D01*
X91395857Y-43075082D01*
X90178241Y-44685534D01*
X89288720Y-46200430D01*
X88720095Y-47631911D01*
X88472504Y-48903846D01*
X88386483Y-49490100D01*
X88265587Y-49861506D01*
X88172508Y-49947285D01*
X87933368Y-49860938D01*
X87464840Y-49629634D01*
X86848759Y-49294980D01*
X86519492Y-49106854D01*
X84381530Y-47681814D01*
X82306428Y-45937071D01*
X80338001Y-43915279D01*
X78520064Y-41659092D01*
X77769387Y-40588581D01*
X77148126Y-39657558D01*
X76703758Y-38957377D01*
X76411842Y-38417003D01*
X76247936Y-37965401D01*
X76187600Y-37531536D01*
X76206392Y-37044372D01*
X76279871Y-36432875D01*
X76296516Y-36307892D01*
X76548817Y-34900854D01*
X76921551Y-33725198D01*
X77463571Y-32656579D01*
X78088591Y-31746514D01*
X79019292Y-30743476D01*
X80114663Y-30003535D01*
X81428963Y-29496778D01*
X82622571Y-29246918D01*
X83502514Y-29152970D01*
X84413065Y-29121327D01*
X85262635Y-29148222D01*
X85959635Y-29229887D01*
X86412477Y-29362556D01*
X86479693Y-29405564D01*
X86749849Y-29542304D01*
X87269738Y-29744844D01*
X87941222Y-29975776D01*
X88156143Y-30044555D01*
X89192640Y-30393605D01*
X90393365Y-30836375D01*
X91707782Y-31350629D01*
X93085354Y-31914133D01*
X94475544Y-32504653D01*
X95827815Y-33099953D01*
X97091630Y-33677798D01*
X98216454Y-34215954D01*
X99151747Y-34692186D01*
X99846975Y-35084259D01*
X100243837Y-35362824D01*
X100522989Y-35671649D01*
X101270142Y-35671649D01*
X101261119Y-35597823D01*
X101084239Y-35244493D01*
X100732435Y-34893245D01*
X100159069Y-34501878D01*
X99317500Y-34028187D01*
X98883648Y-33800143D01*
X98137204Y-33402222D01*
X97525424Y-33056125D01*
X97111414Y-32798966D01*
X96958278Y-32667857D01*
X96958276Y-32667773D01*
X97110979Y-32661627D01*
X97516693Y-32769523D01*
X98092335Y-32968735D01*
X98180071Y-33001973D01*
X100265295Y-33770587D01*
X102346977Y-34482465D01*
X104352263Y-35115073D01*
X106208301Y-35645875D01*
X107842237Y-36052334D01*
X108475647Y-36186694D01*
X110060837Y-36534069D01*
X111385410Y-36902925D01*
X112551512Y-37322950D01*
X112921143Y-37478801D01*
X113755374Y-37862526D01*
X114402194Y-38222947D01*
X114977606Y-38640779D01*
X115597609Y-39196734D01*
X116098911Y-39689889D01*
X117397525Y-41192399D01*
X118434036Y-42813200D01*
X119191573Y-44505821D01*
X119653264Y-46223791D01*
X119802236Y-47920639D01*
X120796927Y-47920639D01*
X120718000Y-46668321D01*
X120382749Y-45148392D01*
X119917523Y-43757915D01*
X119010587Y-41783963D01*
X117869628Y-40080797D01*
X116474488Y-38626073D01*
X114805009Y-37397443D01*
X113556143Y-36706005D01*
X112644150Y-36275614D01*
X111861480Y-35967791D01*
X111067331Y-35738078D01*
X110120902Y-35542016D01*
X109564714Y-35445728D01*
X108417103Y-35215898D01*
X107025238Y-34875527D01*
X105480783Y-34451279D01*
X103875401Y-33969818D01*
X102300756Y-33457808D01*
X100848511Y-32941912D01*
X100493285Y-32806959D01*
X98678587Y-32133986D01*
X96714417Y-31453809D01*
X94711789Y-30802174D01*
X92781715Y-30214826D01*
X91035206Y-29727511D01*
X90514714Y-29593904D01*
X89282730Y-29296465D01*
X88280017Y-29085069D01*
X87388174Y-28941891D01*
X86488802Y-28849103D01*
X85463498Y-28788879D01*
X85058466Y-28772401D01*
X83662609Y-28742089D01*
X82536580Y-28777083D01*
D11*
X117540000Y-61290000D02*
X129540000Y-61290000D01*
X117540000Y-67290000D02*
X117540000Y-61290000D01*
X129540000Y-67290000D02*
X117540000Y-67290000D01*
X129540000Y-61290000D02*
X129540000Y-67290000D01*
D12*
X125206250Y-29500000D02*
X127206250Y-29500000D01*
X127206250Y-29500000D02*
X127206250Y-33400000D01*
X125206250Y-29500000D02*
X125206250Y-33400000D01*
X109966000Y-68925000D02*
X107966000Y-68925000D01*
X107966000Y-68925000D02*
X107966000Y-65025000D01*
X109966000Y-68925000D02*
X109966000Y-65025000D01*
X103775000Y-126401000D02*
X105775000Y-126401000D01*
X105775000Y-126401000D02*
X105775000Y-130301000D01*
X103775000Y-126401000D02*
X103775000Y-130301000D01*
X98556250Y-114506250D02*
X98556250Y-112506250D01*
X98556250Y-112506250D02*
X102456250Y-112506250D01*
X98556250Y-114506250D02*
X102456250Y-114506250D01*
X88312500Y-104643750D02*
X86312500Y-104643750D01*
X86312500Y-104643750D02*
X86312500Y-100743750D01*
X88312500Y-104643750D02*
X88312500Y-100743750D01*
X82343750Y-109668750D02*
X84343750Y-109668750D01*
X84343750Y-109668750D02*
X84343750Y-113568750D01*
X82343750Y-109668750D02*
X82343750Y-113568750D01*
X31956250Y-98293750D02*
X29956250Y-98293750D01*
X29956250Y-98293750D02*
X29956250Y-94393750D01*
X31956250Y-98293750D02*
X31956250Y-94393750D01*
X119523000Y-96810000D02*
X121523000Y-96810000D01*
X121523000Y-96810000D02*
X121523000Y-100710000D01*
X119523000Y-96810000D02*
X119523000Y-100710000D01*
X109331250Y-91412500D02*
X111331250Y-91412500D01*
X111331250Y-91412500D02*
X111331250Y-95312500D01*
X109331250Y-91412500D02*
X109331250Y-95312500D01*
X88312500Y-83212500D02*
X86312500Y-83212500D01*
X86312500Y-83212500D02*
X86312500Y-79312500D01*
X88312500Y-83212500D02*
X88312500Y-79312500D01*
X72025000Y-81887500D02*
X74025000Y-81887500D01*
X74025000Y-81887500D02*
X74025000Y-85787500D01*
X72025000Y-81887500D02*
X72025000Y-85787500D01*
X54320000Y-81169000D02*
X54320000Y-83169000D01*
X54320000Y-83169000D02*
X50420000Y-83169000D01*
X54320000Y-81169000D02*
X50420000Y-81169000D01*
X122825000Y-96968750D02*
X124825000Y-96968750D01*
X124825000Y-96968750D02*
X124825000Y-100868750D01*
X122825000Y-96968750D02*
X122825000Y-100868750D01*
X108537500Y-72362500D02*
X110537500Y-72362500D01*
X110537500Y-72362500D02*
X110537500Y-76262500D01*
X108537500Y-72362500D02*
X108537500Y-76262500D01*
X91487500Y-65750000D02*
X89487500Y-65750000D01*
X89487500Y-65750000D02*
X89487500Y-61850000D01*
X91487500Y-65750000D02*
X91487500Y-61850000D01*
X72025000Y-63631250D02*
X74025000Y-63631250D01*
X74025000Y-63631250D02*
X74025000Y-67531250D01*
X72025000Y-63631250D02*
X72025000Y-67531250D01*
X54637500Y-60912500D02*
X54637500Y-62912500D01*
X54637500Y-62912500D02*
X50737500Y-62912500D01*
X54637500Y-60912500D02*
X50737500Y-60912500D01*
X113955000Y-74025000D02*
X113955000Y-72025000D01*
X113955000Y-72025000D02*
X117855000Y-72025000D01*
X113955000Y-74025000D02*
X117855000Y-74025000D01*
X93075000Y-48287500D02*
X91075000Y-48287500D01*
X91075000Y-48287500D02*
X91075000Y-44387500D01*
X93075000Y-48287500D02*
X93075000Y-44387500D01*
X74481250Y-45831250D02*
X74481250Y-47831250D01*
X74481250Y-47831250D02*
X70581250Y-47831250D01*
X74481250Y-45831250D02*
X70581250Y-45831250D01*
X74481250Y-27575000D02*
X74481250Y-29575000D01*
X74481250Y-29575000D02*
X70581250Y-29575000D01*
X74481250Y-27575000D02*
X70581250Y-27575000D01*
D11*
X122578880Y-63452595D02*
X122578880Y-64024023D01*
X123578880Y-63738309D02*
X122578880Y-63738309D01*
X123578880Y-64928785D02*
X123102690Y-64595452D01*
X123578880Y-64357357D02*
X122578880Y-64357357D01*
X122578880Y-64738309D01*
X122626500Y-64833547D01*
X122674119Y-64881166D01*
X122769357Y-64928785D01*
X122912214Y-64928785D01*
X123007452Y-64881166D01*
X123055071Y-64833547D01*
X123102690Y-64738309D01*
X123102690Y-64357357D01*
X123578880Y-65928785D02*
X123102690Y-65595452D01*
X123578880Y-65357357D02*
X122578880Y-65357357D01*
X122578880Y-65738309D01*
X122626500Y-65833547D01*
X122674119Y-65881166D01*
X122769357Y-65928785D01*
X122912214Y-65928785D01*
X123007452Y-65881166D01*
X123055071Y-65833547D01*
X123102690Y-65738309D01*
X123102690Y-65357357D01*
X123531261Y-66309738D02*
X123578880Y-66452595D01*
X123578880Y-66690690D01*
X123531261Y-66785928D01*
X123483642Y-66833547D01*
X123388404Y-66881166D01*
X123293166Y-66881166D01*
X123197928Y-66833547D01*
X123150309Y-66785928D01*
X123102690Y-66690690D01*
X123055071Y-66500214D01*
X123007452Y-66404976D01*
X122959833Y-66357357D01*
X122864595Y-66309738D01*
X122769357Y-66309738D01*
X122674119Y-66357357D01*
X122626500Y-66404976D01*
X122578880Y-66500214D01*
X122578880Y-66738309D01*
X122626500Y-66881166D01*
X131282345Y-28891130D02*
X130710916Y-28891130D01*
X130996630Y-29891130D02*
X130996630Y-28891130D01*
X130472821Y-28891130D02*
X129806154Y-29891130D01*
X129806154Y-28891130D02*
X130472821Y-29891130D01*
X129234726Y-28891130D02*
X129139488Y-28891130D01*
X129044250Y-28938750D01*
X128996630Y-28986369D01*
X128949011Y-29081607D01*
X128901392Y-29272083D01*
X128901392Y-29510178D01*
X128949011Y-29700654D01*
X128996630Y-29795892D01*
X129044250Y-29843511D01*
X129139488Y-29891130D01*
X129234726Y-29891130D01*
X129329964Y-29843511D01*
X129377583Y-29795892D01*
X129425202Y-29700654D01*
X129472821Y-29510178D01*
X129472821Y-29272083D01*
X129425202Y-29081607D01*
X129377583Y-28986369D01*
X129329964Y-28938750D01*
X129234726Y-28891130D01*
X121434726Y-29891130D02*
X121768059Y-29414940D01*
X122006154Y-29891130D02*
X122006154Y-28891130D01*
X121625202Y-28891130D01*
X121529964Y-28938750D01*
X121482345Y-28986369D01*
X121434726Y-29081607D01*
X121434726Y-29224464D01*
X121482345Y-29319702D01*
X121529964Y-29367321D01*
X121625202Y-29414940D01*
X122006154Y-29414940D01*
X121053773Y-29605416D02*
X120577583Y-29605416D01*
X121149011Y-29891130D02*
X120815678Y-28891130D01*
X120482345Y-29891130D01*
X120244250Y-28891130D02*
X120006154Y-29891130D01*
X119815678Y-29176845D01*
X119625202Y-29891130D01*
X119387107Y-28891130D01*
X128421726Y-28621130D02*
X128755059Y-28144940D01*
X128993154Y-28621130D02*
X128993154Y-27621130D01*
X128612202Y-27621130D01*
X128516964Y-27668750D01*
X128469345Y-27716369D01*
X128421726Y-27811607D01*
X128421726Y-27954464D01*
X128469345Y-28049702D01*
X128516964Y-28097321D01*
X128612202Y-28144940D01*
X128993154Y-28144940D01*
X128040773Y-28335416D02*
X127564583Y-28335416D01*
X128136011Y-28621130D02*
X127802678Y-27621130D01*
X127469345Y-28621130D01*
X127231250Y-27621130D02*
X126993154Y-28621130D01*
X126802678Y-27906845D01*
X126612202Y-28621130D01*
X126374107Y-27621130D01*
X119669345Y-27621130D02*
X119097916Y-27621130D01*
X119383630Y-28621130D02*
X119383630Y-27621130D01*
X118859821Y-27621130D02*
X118193154Y-28621130D01*
X118193154Y-27621130D02*
X118859821Y-28621130D01*
X117621726Y-27621130D02*
X117526488Y-27621130D01*
X117431250Y-27668750D01*
X117383630Y-27716369D01*
X117336011Y-27811607D01*
X117288392Y-28002083D01*
X117288392Y-28240178D01*
X117336011Y-28430654D01*
X117383630Y-28525892D01*
X117431250Y-28573511D01*
X117526488Y-28621130D01*
X117621726Y-28621130D01*
X117716964Y-28573511D01*
X117764583Y-28525892D01*
X117812202Y-28430654D01*
X117859821Y-28240178D01*
X117859821Y-28002083D01*
X117812202Y-27811607D01*
X117764583Y-27716369D01*
X117716964Y-27668750D01*
X117621726Y-27621130D01*
X124658630Y-30535714D02*
X123658630Y-30535714D01*
X123658630Y-30773809D01*
X123706250Y-30916666D01*
X123801488Y-31011904D01*
X123896726Y-31059523D01*
X124087202Y-31107142D01*
X124230059Y-31107142D01*
X124420535Y-31059523D01*
X124515773Y-31011904D01*
X124611011Y-30916666D01*
X124658630Y-30773809D01*
X124658630Y-30535714D01*
X123753869Y-31488095D02*
X123706250Y-31535714D01*
X123658630Y-31630952D01*
X123658630Y-31869047D01*
X123706250Y-31964285D01*
X123753869Y-32011904D01*
X123849107Y-32059523D01*
X123944345Y-32059523D01*
X124087202Y-32011904D01*
X124658630Y-31440476D01*
X124658630Y-32059523D01*
X124658630Y-33011904D02*
X124658630Y-32440476D01*
X124658630Y-32726190D02*
X123658630Y-32726190D01*
X123801488Y-32630952D01*
X123896726Y-32535714D01*
X123944345Y-32440476D01*
X111418380Y-65936904D02*
X110418380Y-65936904D01*
X110418380Y-66175000D01*
X110466000Y-66317857D01*
X110561238Y-66413095D01*
X110656476Y-66460714D01*
X110846952Y-66508333D01*
X110989809Y-66508333D01*
X111180285Y-66460714D01*
X111275523Y-66413095D01*
X111370761Y-66317857D01*
X111418380Y-66175000D01*
X111418380Y-65936904D01*
X110751714Y-67365476D02*
X111418380Y-67365476D01*
X110370761Y-67127380D02*
X111085047Y-66889285D01*
X111085047Y-67508333D01*
X103227380Y-127436714D02*
X102227380Y-127436714D01*
X102227380Y-127674809D01*
X102275000Y-127817666D01*
X102370238Y-127912904D01*
X102465476Y-127960523D01*
X102655952Y-128008142D01*
X102798809Y-128008142D01*
X102989285Y-127960523D01*
X103084523Y-127912904D01*
X103179761Y-127817666D01*
X103227380Y-127674809D01*
X103227380Y-127436714D01*
X102322619Y-128389095D02*
X102275000Y-128436714D01*
X102227380Y-128531952D01*
X102227380Y-128770047D01*
X102275000Y-128865285D01*
X102322619Y-128912904D01*
X102417857Y-128960523D01*
X102513095Y-128960523D01*
X102655952Y-128912904D01*
X103227380Y-128341476D01*
X103227380Y-128960523D01*
X102227380Y-129579571D02*
X102227380Y-129674809D01*
X102275000Y-129770047D01*
X102322619Y-129817666D01*
X102417857Y-129865285D01*
X102608333Y-129912904D01*
X102846428Y-129912904D01*
X103036904Y-129865285D01*
X103132142Y-129817666D01*
X103179761Y-129770047D01*
X103227380Y-129674809D01*
X103227380Y-129579571D01*
X103179761Y-129484333D01*
X103132142Y-129436714D01*
X103036904Y-129389095D01*
X102846428Y-129341476D01*
X102608333Y-129341476D01*
X102417857Y-129389095D01*
X102322619Y-129436714D01*
X102275000Y-129484333D01*
X102227380Y-129579571D01*
X102020535Y-115958630D02*
X102020535Y-114958630D01*
X101782440Y-114958630D01*
X101639583Y-115006250D01*
X101544345Y-115101488D01*
X101496726Y-115196726D01*
X101449107Y-115387202D01*
X101449107Y-115530059D01*
X101496726Y-115720535D01*
X101544345Y-115815773D01*
X101639583Y-115911011D01*
X101782440Y-115958630D01*
X102020535Y-115958630D01*
X100496726Y-115958630D02*
X101068154Y-115958630D01*
X100782440Y-115958630D02*
X100782440Y-114958630D01*
X100877678Y-115101488D01*
X100972916Y-115196726D01*
X101068154Y-115244345D01*
X100020535Y-115958630D02*
X99830059Y-115958630D01*
X99734821Y-115911011D01*
X99687202Y-115863392D01*
X99591964Y-115720535D01*
X99544345Y-115530059D01*
X99544345Y-115149107D01*
X99591964Y-115053869D01*
X99639583Y-115006250D01*
X99734821Y-114958630D01*
X99925297Y-114958630D01*
X100020535Y-115006250D01*
X100068154Y-115053869D01*
X100115773Y-115149107D01*
X100115773Y-115387202D01*
X100068154Y-115482440D01*
X100020535Y-115530059D01*
X99925297Y-115577678D01*
X99734821Y-115577678D01*
X99639583Y-115530059D01*
X99591964Y-115482440D01*
X99544345Y-115387202D01*
X89764880Y-101179464D02*
X88764880Y-101179464D01*
X88764880Y-101417559D01*
X88812500Y-101560416D01*
X88907738Y-101655654D01*
X89002976Y-101703273D01*
X89193452Y-101750892D01*
X89336309Y-101750892D01*
X89526785Y-101703273D01*
X89622023Y-101655654D01*
X89717261Y-101560416D01*
X89764880Y-101417559D01*
X89764880Y-101179464D01*
X89764880Y-102703273D02*
X89764880Y-102131845D01*
X89764880Y-102417559D02*
X88764880Y-102417559D01*
X88907738Y-102322321D01*
X89002976Y-102227083D01*
X89050595Y-102131845D01*
X89193452Y-103274702D02*
X89145833Y-103179464D01*
X89098214Y-103131845D01*
X89002976Y-103084226D01*
X88955357Y-103084226D01*
X88860119Y-103131845D01*
X88812500Y-103179464D01*
X88764880Y-103274702D01*
X88764880Y-103465178D01*
X88812500Y-103560416D01*
X88860119Y-103608035D01*
X88955357Y-103655654D01*
X89002976Y-103655654D01*
X89098214Y-103608035D01*
X89145833Y-103560416D01*
X89193452Y-103465178D01*
X89193452Y-103274702D01*
X89241071Y-103179464D01*
X89288690Y-103131845D01*
X89383928Y-103084226D01*
X89574404Y-103084226D01*
X89669642Y-103131845D01*
X89717261Y-103179464D01*
X89764880Y-103274702D01*
X89764880Y-103465178D01*
X89717261Y-103560416D01*
X89669642Y-103608035D01*
X89574404Y-103655654D01*
X89383928Y-103655654D01*
X89288690Y-103608035D01*
X89241071Y-103560416D01*
X89193452Y-103465178D01*
X81796130Y-110704464D02*
X80796130Y-110704464D01*
X80796130Y-110942559D01*
X80843750Y-111085416D01*
X80938988Y-111180654D01*
X81034226Y-111228273D01*
X81224702Y-111275892D01*
X81367559Y-111275892D01*
X81558035Y-111228273D01*
X81653273Y-111180654D01*
X81748511Y-111085416D01*
X81796130Y-110942559D01*
X81796130Y-110704464D01*
X81796130Y-112228273D02*
X81796130Y-111656845D01*
X81796130Y-111942559D02*
X80796130Y-111942559D01*
X80938988Y-111847321D01*
X81034226Y-111752083D01*
X81081845Y-111656845D01*
X80796130Y-112561607D02*
X80796130Y-113228273D01*
X81796130Y-112799702D01*
X33408630Y-94829464D02*
X32408630Y-94829464D01*
X32408630Y-95067559D01*
X32456250Y-95210416D01*
X32551488Y-95305654D01*
X32646726Y-95353273D01*
X32837202Y-95400892D01*
X32980059Y-95400892D01*
X33170535Y-95353273D01*
X33265773Y-95305654D01*
X33361011Y-95210416D01*
X33408630Y-95067559D01*
X33408630Y-94829464D01*
X33408630Y-96353273D02*
X33408630Y-95781845D01*
X33408630Y-96067559D02*
X32408630Y-96067559D01*
X32551488Y-95972321D01*
X32646726Y-95877083D01*
X32694345Y-95781845D01*
X32408630Y-97210416D02*
X32408630Y-97019940D01*
X32456250Y-96924702D01*
X32503869Y-96877083D01*
X32646726Y-96781845D01*
X32837202Y-96734226D01*
X33218154Y-96734226D01*
X33313392Y-96781845D01*
X33361011Y-96829464D01*
X33408630Y-96924702D01*
X33408630Y-97115178D01*
X33361011Y-97210416D01*
X33313392Y-97258035D01*
X33218154Y-97305654D01*
X32980059Y-97305654D01*
X32884821Y-97258035D01*
X32837202Y-97210416D01*
X32789583Y-97115178D01*
X32789583Y-96924702D01*
X32837202Y-96829464D01*
X32884821Y-96781845D01*
X32980059Y-96734226D01*
X118975380Y-97845714D02*
X117975380Y-97845714D01*
X117975380Y-98083809D01*
X118023000Y-98226666D01*
X118118238Y-98321904D01*
X118213476Y-98369523D01*
X118403952Y-98417142D01*
X118546809Y-98417142D01*
X118737285Y-98369523D01*
X118832523Y-98321904D01*
X118927761Y-98226666D01*
X118975380Y-98083809D01*
X118975380Y-97845714D01*
X118975380Y-99369523D02*
X118975380Y-98798095D01*
X118975380Y-99083809D02*
X117975380Y-99083809D01*
X118118238Y-98988571D01*
X118213476Y-98893333D01*
X118261095Y-98798095D01*
X117975380Y-100274285D02*
X117975380Y-99798095D01*
X118451571Y-99750476D01*
X118403952Y-99798095D01*
X118356333Y-99893333D01*
X118356333Y-100131428D01*
X118403952Y-100226666D01*
X118451571Y-100274285D01*
X118546809Y-100321904D01*
X118784904Y-100321904D01*
X118880142Y-100274285D01*
X118927761Y-100226666D01*
X118975380Y-100131428D01*
X118975380Y-99893333D01*
X118927761Y-99798095D01*
X118880142Y-99750476D01*
X108783630Y-92448214D02*
X107783630Y-92448214D01*
X107783630Y-92686309D01*
X107831250Y-92829166D01*
X107926488Y-92924404D01*
X108021726Y-92972023D01*
X108212202Y-93019642D01*
X108355059Y-93019642D01*
X108545535Y-92972023D01*
X108640773Y-92924404D01*
X108736011Y-92829166D01*
X108783630Y-92686309D01*
X108783630Y-92448214D01*
X108783630Y-93972023D02*
X108783630Y-93400595D01*
X108783630Y-93686309D02*
X107783630Y-93686309D01*
X107926488Y-93591071D01*
X108021726Y-93495833D01*
X108069345Y-93400595D01*
X108116964Y-94829166D02*
X108783630Y-94829166D01*
X107736011Y-94591071D02*
X108450297Y-94352976D01*
X108450297Y-94972023D01*
X89764880Y-79748214D02*
X88764880Y-79748214D01*
X88764880Y-79986309D01*
X88812500Y-80129166D01*
X88907738Y-80224404D01*
X89002976Y-80272023D01*
X89193452Y-80319642D01*
X89336309Y-80319642D01*
X89526785Y-80272023D01*
X89622023Y-80224404D01*
X89717261Y-80129166D01*
X89764880Y-79986309D01*
X89764880Y-79748214D01*
X89764880Y-81272023D02*
X89764880Y-80700595D01*
X89764880Y-80986309D02*
X88764880Y-80986309D01*
X88907738Y-80891071D01*
X89002976Y-80795833D01*
X89050595Y-80700595D01*
X88764880Y-81605357D02*
X88764880Y-82224404D01*
X89145833Y-81891071D01*
X89145833Y-82033928D01*
X89193452Y-82129166D01*
X89241071Y-82176785D01*
X89336309Y-82224404D01*
X89574404Y-82224404D01*
X89669642Y-82176785D01*
X89717261Y-82129166D01*
X89764880Y-82033928D01*
X89764880Y-81748214D01*
X89717261Y-81652976D01*
X89669642Y-81605357D01*
X71477380Y-82923214D02*
X70477380Y-82923214D01*
X70477380Y-83161309D01*
X70525000Y-83304166D01*
X70620238Y-83399404D01*
X70715476Y-83447023D01*
X70905952Y-83494642D01*
X71048809Y-83494642D01*
X71239285Y-83447023D01*
X71334523Y-83399404D01*
X71429761Y-83304166D01*
X71477380Y-83161309D01*
X71477380Y-82923214D01*
X71477380Y-84447023D02*
X71477380Y-83875595D01*
X71477380Y-84161309D02*
X70477380Y-84161309D01*
X70620238Y-84066071D01*
X70715476Y-83970833D01*
X70763095Y-83875595D01*
X70572619Y-84827976D02*
X70525000Y-84875595D01*
X70477380Y-84970833D01*
X70477380Y-85208928D01*
X70525000Y-85304166D01*
X70572619Y-85351785D01*
X70667857Y-85399404D01*
X70763095Y-85399404D01*
X70905952Y-85351785D01*
X71477380Y-84780357D01*
X71477380Y-85399404D01*
X53284285Y-80621380D02*
X53284285Y-79621380D01*
X53046190Y-79621380D01*
X52903333Y-79669000D01*
X52808095Y-79764238D01*
X52760476Y-79859476D01*
X52712857Y-80049952D01*
X52712857Y-80192809D01*
X52760476Y-80383285D01*
X52808095Y-80478523D01*
X52903333Y-80573761D01*
X53046190Y-80621380D01*
X53284285Y-80621380D01*
X51760476Y-80621380D02*
X52331904Y-80621380D01*
X52046190Y-80621380D02*
X52046190Y-79621380D01*
X52141428Y-79764238D01*
X52236666Y-79859476D01*
X52331904Y-79907095D01*
X50808095Y-80621380D02*
X51379523Y-80621380D01*
X51093809Y-80621380D02*
X51093809Y-79621380D01*
X51189047Y-79764238D01*
X51284285Y-79859476D01*
X51379523Y-79907095D01*
X122277380Y-98004464D02*
X121277380Y-98004464D01*
X121277380Y-98242559D01*
X121325000Y-98385416D01*
X121420238Y-98480654D01*
X121515476Y-98528273D01*
X121705952Y-98575892D01*
X121848809Y-98575892D01*
X122039285Y-98528273D01*
X122134523Y-98480654D01*
X122229761Y-98385416D01*
X122277380Y-98242559D01*
X122277380Y-98004464D01*
X122277380Y-99528273D02*
X122277380Y-98956845D01*
X122277380Y-99242559D02*
X121277380Y-99242559D01*
X121420238Y-99147321D01*
X121515476Y-99052083D01*
X121563095Y-98956845D01*
X121277380Y-100147321D02*
X121277380Y-100242559D01*
X121325000Y-100337797D01*
X121372619Y-100385416D01*
X121467857Y-100433035D01*
X121658333Y-100480654D01*
X121896428Y-100480654D01*
X122086904Y-100433035D01*
X122182142Y-100385416D01*
X122229761Y-100337797D01*
X122277380Y-100242559D01*
X122277380Y-100147321D01*
X122229761Y-100052083D01*
X122182142Y-100004464D01*
X122086904Y-99956845D01*
X121896428Y-99909226D01*
X121658333Y-99909226D01*
X121467857Y-99956845D01*
X121372619Y-100004464D01*
X121325000Y-100052083D01*
X121277380Y-100147321D01*
X107989880Y-73874404D02*
X106989880Y-73874404D01*
X106989880Y-74112500D01*
X107037500Y-74255357D01*
X107132738Y-74350595D01*
X107227976Y-74398214D01*
X107418452Y-74445833D01*
X107561309Y-74445833D01*
X107751785Y-74398214D01*
X107847023Y-74350595D01*
X107942261Y-74255357D01*
X107989880Y-74112500D01*
X107989880Y-73874404D01*
X107989880Y-74922023D02*
X107989880Y-75112500D01*
X107942261Y-75207738D01*
X107894642Y-75255357D01*
X107751785Y-75350595D01*
X107561309Y-75398214D01*
X107180357Y-75398214D01*
X107085119Y-75350595D01*
X107037500Y-75302976D01*
X106989880Y-75207738D01*
X106989880Y-75017261D01*
X107037500Y-74922023D01*
X107085119Y-74874404D01*
X107180357Y-74826785D01*
X107418452Y-74826785D01*
X107513690Y-74874404D01*
X107561309Y-74922023D01*
X107608928Y-75017261D01*
X107608928Y-75207738D01*
X107561309Y-75302976D01*
X107513690Y-75350595D01*
X107418452Y-75398214D01*
X92939880Y-62761904D02*
X91939880Y-62761904D01*
X91939880Y-63000000D01*
X91987500Y-63142857D01*
X92082738Y-63238095D01*
X92177976Y-63285714D01*
X92368452Y-63333333D01*
X92511309Y-63333333D01*
X92701785Y-63285714D01*
X92797023Y-63238095D01*
X92892261Y-63142857D01*
X92939880Y-63000000D01*
X92939880Y-62761904D01*
X92368452Y-63904761D02*
X92320833Y-63809523D01*
X92273214Y-63761904D01*
X92177976Y-63714285D01*
X92130357Y-63714285D01*
X92035119Y-63761904D01*
X91987500Y-63809523D01*
X91939880Y-63904761D01*
X91939880Y-64095238D01*
X91987500Y-64190476D01*
X92035119Y-64238095D01*
X92130357Y-64285714D01*
X92177976Y-64285714D01*
X92273214Y-64238095D01*
X92320833Y-64190476D01*
X92368452Y-64095238D01*
X92368452Y-63904761D01*
X92416071Y-63809523D01*
X92463690Y-63761904D01*
X92558928Y-63714285D01*
X92749404Y-63714285D01*
X92844642Y-63761904D01*
X92892261Y-63809523D01*
X92939880Y-63904761D01*
X92939880Y-64095238D01*
X92892261Y-64190476D01*
X92844642Y-64238095D01*
X92749404Y-64285714D01*
X92558928Y-64285714D01*
X92463690Y-64238095D01*
X92416071Y-64190476D01*
X92368452Y-64095238D01*
X71477380Y-65143154D02*
X70477380Y-65143154D01*
X70477380Y-65381250D01*
X70525000Y-65524107D01*
X70620238Y-65619345D01*
X70715476Y-65666964D01*
X70905952Y-65714583D01*
X71048809Y-65714583D01*
X71239285Y-65666964D01*
X71334523Y-65619345D01*
X71429761Y-65524107D01*
X71477380Y-65381250D01*
X71477380Y-65143154D01*
X70477380Y-66047916D02*
X70477380Y-66714583D01*
X71477380Y-66286011D01*
X53125595Y-60364880D02*
X53125595Y-59364880D01*
X52887500Y-59364880D01*
X52744642Y-59412500D01*
X52649404Y-59507738D01*
X52601785Y-59602976D01*
X52554166Y-59793452D01*
X52554166Y-59936309D01*
X52601785Y-60126785D01*
X52649404Y-60222023D01*
X52744642Y-60317261D01*
X52887500Y-60364880D01*
X53125595Y-60364880D01*
X51697023Y-59364880D02*
X51887500Y-59364880D01*
X51982738Y-59412500D01*
X52030357Y-59460119D01*
X52125595Y-59602976D01*
X52173214Y-59793452D01*
X52173214Y-60174404D01*
X52125595Y-60269642D01*
X52077976Y-60317261D01*
X51982738Y-60364880D01*
X51792261Y-60364880D01*
X51697023Y-60317261D01*
X51649404Y-60269642D01*
X51601785Y-60174404D01*
X51601785Y-59936309D01*
X51649404Y-59841071D01*
X51697023Y-59793452D01*
X51792261Y-59745833D01*
X51982738Y-59745833D01*
X52077976Y-59793452D01*
X52125595Y-59841071D01*
X52173214Y-59936309D01*
X116943095Y-75477380D02*
X116943095Y-74477380D01*
X116705000Y-74477380D01*
X116562142Y-74525000D01*
X116466904Y-74620238D01*
X116419285Y-74715476D01*
X116371666Y-74905952D01*
X116371666Y-75048809D01*
X116419285Y-75239285D01*
X116466904Y-75334523D01*
X116562142Y-75429761D01*
X116705000Y-75477380D01*
X116943095Y-75477380D01*
X115466904Y-74477380D02*
X115943095Y-74477380D01*
X115990714Y-74953571D01*
X115943095Y-74905952D01*
X115847857Y-74858333D01*
X115609761Y-74858333D01*
X115514523Y-74905952D01*
X115466904Y-74953571D01*
X115419285Y-75048809D01*
X115419285Y-75286904D01*
X115466904Y-75382142D01*
X115514523Y-75429761D01*
X115609761Y-75477380D01*
X115847857Y-75477380D01*
X115943095Y-75429761D01*
X115990714Y-75382142D01*
X94527380Y-45299404D02*
X93527380Y-45299404D01*
X93527380Y-45537500D01*
X93575000Y-45680357D01*
X93670238Y-45775595D01*
X93765476Y-45823214D01*
X93955952Y-45870833D01*
X94098809Y-45870833D01*
X94289285Y-45823214D01*
X94384523Y-45775595D01*
X94479761Y-45680357D01*
X94527380Y-45537500D01*
X94527380Y-45299404D01*
X93527380Y-46204166D02*
X93527380Y-46823214D01*
X93908333Y-46489880D01*
X93908333Y-46632738D01*
X93955952Y-46727976D01*
X94003571Y-46775595D01*
X94098809Y-46823214D01*
X94336904Y-46823214D01*
X94432142Y-46775595D01*
X94479761Y-46727976D01*
X94527380Y-46632738D01*
X94527380Y-46347023D01*
X94479761Y-46251785D01*
X94432142Y-46204166D01*
X72969345Y-45283630D02*
X72969345Y-44283630D01*
X72731250Y-44283630D01*
X72588392Y-44331250D01*
X72493154Y-44426488D01*
X72445535Y-44521726D01*
X72397916Y-44712202D01*
X72397916Y-44855059D01*
X72445535Y-45045535D01*
X72493154Y-45140773D01*
X72588392Y-45236011D01*
X72731250Y-45283630D01*
X72969345Y-45283630D01*
X72016964Y-44378869D02*
X71969345Y-44331250D01*
X71874107Y-44283630D01*
X71636011Y-44283630D01*
X71540773Y-44331250D01*
X71493154Y-44378869D01*
X71445535Y-44474107D01*
X71445535Y-44569345D01*
X71493154Y-44712202D01*
X72064583Y-45283630D01*
X71445535Y-45283630D01*
X72969345Y-27027380D02*
X72969345Y-26027380D01*
X72731250Y-26027380D01*
X72588392Y-26075000D01*
X72493154Y-26170238D01*
X72445535Y-26265476D01*
X72397916Y-26455952D01*
X72397916Y-26598809D01*
X72445535Y-26789285D01*
X72493154Y-26884523D01*
X72588392Y-26979761D01*
X72731250Y-27027380D01*
X72969345Y-27027380D01*
X71445535Y-27027380D02*
X72016964Y-27027380D01*
X71731250Y-27027380D02*
X71731250Y-26027380D01*
X71826488Y-26170238D01*
X71921726Y-26265476D01*
X72016964Y-26313095D01*
M02*
