G04 #@! TF.GenerationSoftware,KiCad,Pcbnew,(5.1.4-0)*
G04 #@! TF.CreationDate,2021-03-11T22:57:55-05:00*
G04 #@! TF.ProjectId,mxnatee,6d786e61-7465-4652-9e6b-696361645f70,rev?*
G04 #@! TF.SameCoordinates,Original*
G04 #@! TF.FileFunction,Soldermask,Top*
G04 #@! TF.FilePolarity,Negative*
%FSLAX46Y46*%
G04 Gerber Fmt 4.6, Leading zero omitted, Abs format (unit mm)*
G04 Created by KiCad (PCBNEW (5.1.4-0)) date 2021-03-11 22:57:55*
%MOMM*%
%LPD*%
G04 APERTURE LIST*
%ADD10C,0.100000*%
G04 APERTURE END LIST*
D10*
G36*
X130121865Y-142367855D02*
G01*
X130722608Y-142616691D01*
X130722610Y-142616692D01*
X131263265Y-142977946D01*
X131723054Y-143437735D01*
X132084308Y-143978390D01*
X132084309Y-143978392D01*
X132333145Y-144579135D01*
X132460000Y-145216879D01*
X132460000Y-145867121D01*
X132333145Y-146504865D01*
X132084309Y-147105608D01*
X132084308Y-147105610D01*
X131723054Y-147646265D01*
X131263265Y-148106054D01*
X130722610Y-148467308D01*
X130722609Y-148467309D01*
X130722608Y-148467309D01*
X130121865Y-148716145D01*
X129484121Y-148843000D01*
X128833879Y-148843000D01*
X128196135Y-148716145D01*
X127595392Y-148467309D01*
X127595391Y-148467309D01*
X127595390Y-148467308D01*
X127054735Y-148106054D01*
X126594946Y-147646265D01*
X126233692Y-147105610D01*
X126233691Y-147105608D01*
X125984855Y-146504865D01*
X125858000Y-145867121D01*
X125858000Y-145216879D01*
X125984855Y-144579135D01*
X126233691Y-143978392D01*
X126233692Y-143978390D01*
X126594946Y-143437735D01*
X127054735Y-142977946D01*
X127595390Y-142616692D01*
X127595392Y-142616691D01*
X128196135Y-142367855D01*
X128833879Y-142241000D01*
X129484121Y-142241000D01*
X130121865Y-142367855D01*
X130121865Y-142367855D01*
G37*
G36*
X132993974Y-130399434D02*
G01*
X133211974Y-130489733D01*
X133366123Y-130553583D01*
X133701048Y-130777373D01*
X133985877Y-131062202D01*
X134209667Y-131397127D01*
X134242062Y-131475336D01*
X134363816Y-131769276D01*
X134442400Y-132164344D01*
X134442400Y-132567156D01*
X134363816Y-132962224D01*
X134312951Y-133085022D01*
X134209667Y-133334373D01*
X133985877Y-133669298D01*
X133701048Y-133954127D01*
X133366123Y-134177917D01*
X133211974Y-134241767D01*
X132993974Y-134332066D01*
X132598906Y-134410650D01*
X132196094Y-134410650D01*
X131801026Y-134332066D01*
X131583026Y-134241767D01*
X131428877Y-134177917D01*
X131093952Y-133954127D01*
X130809123Y-133669298D01*
X130585333Y-133334373D01*
X130482049Y-133085022D01*
X130431184Y-132962224D01*
X130352600Y-132567156D01*
X130352600Y-132164344D01*
X130431184Y-131769276D01*
X130552938Y-131475336D01*
X130585333Y-131397127D01*
X130809123Y-131062202D01*
X131093952Y-130777373D01*
X131428877Y-130553583D01*
X131583026Y-130489733D01*
X131801026Y-130399434D01*
X132196094Y-130320850D01*
X132598906Y-130320850D01*
X132993974Y-130399434D01*
X132993974Y-130399434D01*
G37*
G36*
X113943974Y-130399434D02*
G01*
X114161974Y-130489733D01*
X114316123Y-130553583D01*
X114651048Y-130777373D01*
X114935877Y-131062202D01*
X115159667Y-131397127D01*
X115192062Y-131475336D01*
X115313816Y-131769276D01*
X115392400Y-132164344D01*
X115392400Y-132567156D01*
X115313816Y-132962224D01*
X115262951Y-133085022D01*
X115159667Y-133334373D01*
X114935877Y-133669298D01*
X114651048Y-133954127D01*
X114316123Y-134177917D01*
X114161974Y-134241767D01*
X113943974Y-134332066D01*
X113548906Y-134410650D01*
X113146094Y-134410650D01*
X112751026Y-134332066D01*
X112533026Y-134241767D01*
X112378877Y-134177917D01*
X112043952Y-133954127D01*
X111759123Y-133669298D01*
X111535333Y-133334373D01*
X111432049Y-133085022D01*
X111381184Y-132962224D01*
X111302600Y-132567156D01*
X111302600Y-132164344D01*
X111381184Y-131769276D01*
X111502938Y-131475336D01*
X111535333Y-131397127D01*
X111759123Y-131062202D01*
X112043952Y-130777373D01*
X112378877Y-130553583D01*
X112533026Y-130489733D01*
X112751026Y-130399434D01*
X113146094Y-130320850D01*
X113548906Y-130320850D01*
X113943974Y-130399434D01*
X113943974Y-130399434D01*
G37*
G36*
X137747604Y-131475335D02*
G01*
X137916126Y-131545139D01*
X138067791Y-131646478D01*
X138196772Y-131775459D01*
X138298111Y-131927124D01*
X138367915Y-132095646D01*
X138403500Y-132274547D01*
X138403500Y-132456953D01*
X138367915Y-132635854D01*
X138298111Y-132804376D01*
X138196772Y-132956041D01*
X138067791Y-133085022D01*
X137916126Y-133186361D01*
X137747604Y-133256165D01*
X137568703Y-133291750D01*
X137386297Y-133291750D01*
X137207396Y-133256165D01*
X137038874Y-133186361D01*
X136887209Y-133085022D01*
X136758228Y-132956041D01*
X136656889Y-132804376D01*
X136587085Y-132635854D01*
X136551500Y-132456953D01*
X136551500Y-132274547D01*
X136587085Y-132095646D01*
X136656889Y-131927124D01*
X136758228Y-131775459D01*
X136887209Y-131646478D01*
X137038874Y-131545139D01*
X137207396Y-131475335D01*
X137386297Y-131439750D01*
X137568703Y-131439750D01*
X137747604Y-131475335D01*
X137747604Y-131475335D01*
G37*
G36*
X127587604Y-131475335D02*
G01*
X127756126Y-131545139D01*
X127907791Y-131646478D01*
X128036772Y-131775459D01*
X128138111Y-131927124D01*
X128207915Y-132095646D01*
X128243500Y-132274547D01*
X128243500Y-132456953D01*
X128207915Y-132635854D01*
X128138111Y-132804376D01*
X128036772Y-132956041D01*
X127907791Y-133085022D01*
X127756126Y-133186361D01*
X127587604Y-133256165D01*
X127408703Y-133291750D01*
X127226297Y-133291750D01*
X127047396Y-133256165D01*
X126878874Y-133186361D01*
X126727209Y-133085022D01*
X126598228Y-132956041D01*
X126496889Y-132804376D01*
X126427085Y-132635854D01*
X126391500Y-132456953D01*
X126391500Y-132274547D01*
X126427085Y-132095646D01*
X126496889Y-131927124D01*
X126598228Y-131775459D01*
X126727209Y-131646478D01*
X126878874Y-131545139D01*
X127047396Y-131475335D01*
X127226297Y-131439750D01*
X127408703Y-131439750D01*
X127587604Y-131475335D01*
X127587604Y-131475335D01*
G37*
G36*
X118697604Y-131475335D02*
G01*
X118866126Y-131545139D01*
X119017791Y-131646478D01*
X119146772Y-131775459D01*
X119248111Y-131927124D01*
X119317915Y-132095646D01*
X119353500Y-132274547D01*
X119353500Y-132456953D01*
X119317915Y-132635854D01*
X119248111Y-132804376D01*
X119146772Y-132956041D01*
X119017791Y-133085022D01*
X118866126Y-133186361D01*
X118697604Y-133256165D01*
X118518703Y-133291750D01*
X118336297Y-133291750D01*
X118157396Y-133256165D01*
X117988874Y-133186361D01*
X117837209Y-133085022D01*
X117708228Y-132956041D01*
X117606889Y-132804376D01*
X117537085Y-132635854D01*
X117501500Y-132456953D01*
X117501500Y-132274547D01*
X117537085Y-132095646D01*
X117606889Y-131927124D01*
X117708228Y-131775459D01*
X117837209Y-131646478D01*
X117988874Y-131545139D01*
X118157396Y-131475335D01*
X118336297Y-131439750D01*
X118518703Y-131439750D01*
X118697604Y-131475335D01*
X118697604Y-131475335D01*
G37*
G36*
X108537604Y-131475335D02*
G01*
X108706126Y-131545139D01*
X108857791Y-131646478D01*
X108986772Y-131775459D01*
X109088111Y-131927124D01*
X109157915Y-132095646D01*
X109193500Y-132274547D01*
X109193500Y-132456953D01*
X109157915Y-132635854D01*
X109088111Y-132804376D01*
X108986772Y-132956041D01*
X108857791Y-133085022D01*
X108706126Y-133186361D01*
X108537604Y-133256165D01*
X108358703Y-133291750D01*
X108176297Y-133291750D01*
X107997396Y-133256165D01*
X107828874Y-133186361D01*
X107677209Y-133085022D01*
X107548228Y-132956041D01*
X107446889Y-132804376D01*
X107377085Y-132635854D01*
X107341500Y-132456953D01*
X107341500Y-132274547D01*
X107377085Y-132095646D01*
X107446889Y-131927124D01*
X107548228Y-131775459D01*
X107677209Y-131646478D01*
X107828874Y-131545139D01*
X107997396Y-131475335D01*
X108176297Y-131439750D01*
X108358703Y-131439750D01*
X108537604Y-131475335D01*
X108537604Y-131475335D01*
G37*
G36*
X125655500Y-125985500D02*
G01*
X124153500Y-125985500D01*
X124153500Y-124683500D01*
X125655500Y-124683500D01*
X125655500Y-125985500D01*
X125655500Y-125985500D01*
G37*
G36*
X121591500Y-125985500D02*
G01*
X120089500Y-125985500D01*
X120089500Y-124683500D01*
X121591500Y-124683500D01*
X121591500Y-125985500D01*
X121591500Y-125985500D01*
G37*
G36*
X128703500Y-122683500D02*
G01*
X127201500Y-122683500D01*
X127201500Y-121381500D01*
X128703500Y-121381500D01*
X128703500Y-122683500D01*
X128703500Y-122683500D01*
G37*
G36*
X121591500Y-122585500D02*
G01*
X120089500Y-122585500D01*
X120089500Y-121283500D01*
X121591500Y-121283500D01*
X121591500Y-122585500D01*
X121591500Y-122585500D01*
G37*
G36*
X125655500Y-122585500D02*
G01*
X124153500Y-122585500D01*
X124153500Y-121283500D01*
X125655500Y-121283500D01*
X125655500Y-122585500D01*
X125655500Y-122585500D01*
G37*
G36*
X115317500Y-122480500D02*
G01*
X114015500Y-122480500D01*
X114015500Y-120978500D01*
X115317500Y-120978500D01*
X115317500Y-122480500D01*
X115317500Y-122480500D01*
G37*
G36*
X111917500Y-122480500D02*
G01*
X110615500Y-122480500D01*
X110615500Y-120978500D01*
X111917500Y-120978500D01*
X111917500Y-122480500D01*
X111917500Y-122480500D01*
G37*
G36*
X115317500Y-119940500D02*
G01*
X114015500Y-119940500D01*
X114015500Y-118438500D01*
X115317500Y-118438500D01*
X115317500Y-119940500D01*
X115317500Y-119940500D01*
G37*
G36*
X111917500Y-119940500D02*
G01*
X110615500Y-119940500D01*
X110615500Y-118438500D01*
X111917500Y-118438500D01*
X111917500Y-119940500D01*
X111917500Y-119940500D01*
G37*
G36*
X128703500Y-119283500D02*
G01*
X127201500Y-119283500D01*
X127201500Y-117981500D01*
X128703500Y-117981500D01*
X128703500Y-119283500D01*
X128703500Y-119283500D01*
G37*
G36*
X90131474Y-111349434D02*
G01*
X90349474Y-111439733D01*
X90503623Y-111503583D01*
X90838548Y-111727373D01*
X91123377Y-112012202D01*
X91347167Y-112347127D01*
X91379562Y-112425336D01*
X91501316Y-112719276D01*
X91579900Y-113114344D01*
X91579900Y-113517156D01*
X91501316Y-113912224D01*
X91450451Y-114035022D01*
X91347167Y-114284373D01*
X91123377Y-114619298D01*
X90838548Y-114904127D01*
X90503623Y-115127917D01*
X90349474Y-115191767D01*
X90131474Y-115282066D01*
X89736406Y-115360650D01*
X89333594Y-115360650D01*
X88938526Y-115282066D01*
X88720526Y-115191767D01*
X88566377Y-115127917D01*
X88231452Y-114904127D01*
X87946623Y-114619298D01*
X87722833Y-114284373D01*
X87619549Y-114035022D01*
X87568684Y-113912224D01*
X87490100Y-113517156D01*
X87490100Y-113114344D01*
X87568684Y-112719276D01*
X87690438Y-112425336D01*
X87722833Y-112347127D01*
X87946623Y-112012202D01*
X88231452Y-111727373D01*
X88566377Y-111503583D01*
X88720526Y-111439733D01*
X88938526Y-111349434D01*
X89333594Y-111270850D01*
X89736406Y-111270850D01*
X90131474Y-111349434D01*
X90131474Y-111349434D01*
G37*
G36*
X109181474Y-111349434D02*
G01*
X109399474Y-111439733D01*
X109553623Y-111503583D01*
X109888548Y-111727373D01*
X110173377Y-112012202D01*
X110397167Y-112347127D01*
X110429562Y-112425336D01*
X110551316Y-112719276D01*
X110629900Y-113114344D01*
X110629900Y-113517156D01*
X110551316Y-113912224D01*
X110500451Y-114035022D01*
X110397167Y-114284373D01*
X110173377Y-114619298D01*
X109888548Y-114904127D01*
X109553623Y-115127917D01*
X109399474Y-115191767D01*
X109181474Y-115282066D01*
X108786406Y-115360650D01*
X108383594Y-115360650D01*
X107988526Y-115282066D01*
X107770526Y-115191767D01*
X107616377Y-115127917D01*
X107281452Y-114904127D01*
X106996623Y-114619298D01*
X106772833Y-114284373D01*
X106669549Y-114035022D01*
X106618684Y-113912224D01*
X106540100Y-113517156D01*
X106540100Y-113114344D01*
X106618684Y-112719276D01*
X106740438Y-112425336D01*
X106772833Y-112347127D01*
X106996623Y-112012202D01*
X107281452Y-111727373D01*
X107616377Y-111503583D01*
X107770526Y-111439733D01*
X107988526Y-111349434D01*
X108383594Y-111270850D01*
X108786406Y-111270850D01*
X109181474Y-111349434D01*
X109181474Y-111349434D01*
G37*
G36*
X128231474Y-111349434D02*
G01*
X128449474Y-111439733D01*
X128603623Y-111503583D01*
X128938548Y-111727373D01*
X129223377Y-112012202D01*
X129447167Y-112347127D01*
X129479562Y-112425336D01*
X129601316Y-112719276D01*
X129679900Y-113114344D01*
X129679900Y-113517156D01*
X129601316Y-113912224D01*
X129550451Y-114035022D01*
X129447167Y-114284373D01*
X129223377Y-114619298D01*
X128938548Y-114904127D01*
X128603623Y-115127917D01*
X128449474Y-115191767D01*
X128231474Y-115282066D01*
X127836406Y-115360650D01*
X127433594Y-115360650D01*
X127038526Y-115282066D01*
X126820526Y-115191767D01*
X126666377Y-115127917D01*
X126331452Y-114904127D01*
X126046623Y-114619298D01*
X125822833Y-114284373D01*
X125719549Y-114035022D01*
X125668684Y-113912224D01*
X125590100Y-113517156D01*
X125590100Y-113114344D01*
X125668684Y-112719276D01*
X125790438Y-112425336D01*
X125822833Y-112347127D01*
X126046623Y-112012202D01*
X126331452Y-111727373D01*
X126666377Y-111503583D01*
X126820526Y-111439733D01*
X127038526Y-111349434D01*
X127433594Y-111270850D01*
X127836406Y-111270850D01*
X128231474Y-111349434D01*
X128231474Y-111349434D01*
G37*
G36*
X132985104Y-112425335D02*
G01*
X133153626Y-112495139D01*
X133305291Y-112596478D01*
X133434272Y-112725459D01*
X133535611Y-112877124D01*
X133605415Y-113045646D01*
X133641000Y-113224547D01*
X133641000Y-113406953D01*
X133605415Y-113585854D01*
X133535611Y-113754376D01*
X133434272Y-113906041D01*
X133305291Y-114035022D01*
X133153626Y-114136361D01*
X132985104Y-114206165D01*
X132806203Y-114241750D01*
X132623797Y-114241750D01*
X132444896Y-114206165D01*
X132276374Y-114136361D01*
X132124709Y-114035022D01*
X131995728Y-113906041D01*
X131894389Y-113754376D01*
X131824585Y-113585854D01*
X131789000Y-113406953D01*
X131789000Y-113224547D01*
X131824585Y-113045646D01*
X131894389Y-112877124D01*
X131995728Y-112725459D01*
X132124709Y-112596478D01*
X132276374Y-112495139D01*
X132444896Y-112425335D01*
X132623797Y-112389750D01*
X132806203Y-112389750D01*
X132985104Y-112425335D01*
X132985104Y-112425335D01*
G37*
G36*
X122825104Y-112425335D02*
G01*
X122993626Y-112495139D01*
X123145291Y-112596478D01*
X123274272Y-112725459D01*
X123375611Y-112877124D01*
X123445415Y-113045646D01*
X123481000Y-113224547D01*
X123481000Y-113406953D01*
X123445415Y-113585854D01*
X123375611Y-113754376D01*
X123274272Y-113906041D01*
X123145291Y-114035022D01*
X122993626Y-114136361D01*
X122825104Y-114206165D01*
X122646203Y-114241750D01*
X122463797Y-114241750D01*
X122284896Y-114206165D01*
X122116374Y-114136361D01*
X121964709Y-114035022D01*
X121835728Y-113906041D01*
X121734389Y-113754376D01*
X121664585Y-113585854D01*
X121629000Y-113406953D01*
X121629000Y-113224547D01*
X121664585Y-113045646D01*
X121734389Y-112877124D01*
X121835728Y-112725459D01*
X121964709Y-112596478D01*
X122116374Y-112495139D01*
X122284896Y-112425335D01*
X122463797Y-112389750D01*
X122646203Y-112389750D01*
X122825104Y-112425335D01*
X122825104Y-112425335D01*
G37*
G36*
X113935104Y-112425335D02*
G01*
X114103626Y-112495139D01*
X114255291Y-112596478D01*
X114384272Y-112725459D01*
X114485611Y-112877124D01*
X114555415Y-113045646D01*
X114591000Y-113224547D01*
X114591000Y-113406953D01*
X114555415Y-113585854D01*
X114485611Y-113754376D01*
X114384272Y-113906041D01*
X114255291Y-114035022D01*
X114103626Y-114136361D01*
X113935104Y-114206165D01*
X113756203Y-114241750D01*
X113573797Y-114241750D01*
X113394896Y-114206165D01*
X113226374Y-114136361D01*
X113074709Y-114035022D01*
X112945728Y-113906041D01*
X112844389Y-113754376D01*
X112774585Y-113585854D01*
X112739000Y-113406953D01*
X112739000Y-113224547D01*
X112774585Y-113045646D01*
X112844389Y-112877124D01*
X112945728Y-112725459D01*
X113074709Y-112596478D01*
X113226374Y-112495139D01*
X113394896Y-112425335D01*
X113573797Y-112389750D01*
X113756203Y-112389750D01*
X113935104Y-112425335D01*
X113935104Y-112425335D01*
G37*
G36*
X103775104Y-112425335D02*
G01*
X103943626Y-112495139D01*
X104095291Y-112596478D01*
X104224272Y-112725459D01*
X104325611Y-112877124D01*
X104395415Y-113045646D01*
X104431000Y-113224547D01*
X104431000Y-113406953D01*
X104395415Y-113585854D01*
X104325611Y-113754376D01*
X104224272Y-113906041D01*
X104095291Y-114035022D01*
X103943626Y-114136361D01*
X103775104Y-114206165D01*
X103596203Y-114241750D01*
X103413797Y-114241750D01*
X103234896Y-114206165D01*
X103066374Y-114136361D01*
X102914709Y-114035022D01*
X102785728Y-113906041D01*
X102684389Y-113754376D01*
X102614585Y-113585854D01*
X102579000Y-113406953D01*
X102579000Y-113224547D01*
X102614585Y-113045646D01*
X102684389Y-112877124D01*
X102785728Y-112725459D01*
X102914709Y-112596478D01*
X103066374Y-112495139D01*
X103234896Y-112425335D01*
X103413797Y-112389750D01*
X103596203Y-112389750D01*
X103775104Y-112425335D01*
X103775104Y-112425335D01*
G37*
G36*
X94885104Y-112425335D02*
G01*
X95053626Y-112495139D01*
X95205291Y-112596478D01*
X95334272Y-112725459D01*
X95435611Y-112877124D01*
X95505415Y-113045646D01*
X95541000Y-113224547D01*
X95541000Y-113406953D01*
X95505415Y-113585854D01*
X95435611Y-113754376D01*
X95334272Y-113906041D01*
X95205291Y-114035022D01*
X95053626Y-114136361D01*
X94885104Y-114206165D01*
X94706203Y-114241750D01*
X94523797Y-114241750D01*
X94344896Y-114206165D01*
X94176374Y-114136361D01*
X94024709Y-114035022D01*
X93895728Y-113906041D01*
X93794389Y-113754376D01*
X93724585Y-113585854D01*
X93689000Y-113406953D01*
X93689000Y-113224547D01*
X93724585Y-113045646D01*
X93794389Y-112877124D01*
X93895728Y-112725459D01*
X94024709Y-112596478D01*
X94176374Y-112495139D01*
X94344896Y-112425335D01*
X94523797Y-112389750D01*
X94706203Y-112389750D01*
X94885104Y-112425335D01*
X94885104Y-112425335D01*
G37*
G36*
X84725104Y-112425335D02*
G01*
X84893626Y-112495139D01*
X85045291Y-112596478D01*
X85174272Y-112725459D01*
X85275611Y-112877124D01*
X85345415Y-113045646D01*
X85381000Y-113224547D01*
X85381000Y-113406953D01*
X85345415Y-113585854D01*
X85275611Y-113754376D01*
X85174272Y-113906041D01*
X85045291Y-114035022D01*
X84893626Y-114136361D01*
X84725104Y-114206165D01*
X84546203Y-114241750D01*
X84363797Y-114241750D01*
X84184896Y-114206165D01*
X84016374Y-114136361D01*
X83864709Y-114035022D01*
X83735728Y-113906041D01*
X83634389Y-113754376D01*
X83564585Y-113585854D01*
X83529000Y-113406953D01*
X83529000Y-113224547D01*
X83564585Y-113045646D01*
X83634389Y-112877124D01*
X83735728Y-112725459D01*
X83864709Y-112596478D01*
X84016374Y-112495139D01*
X84184896Y-112425335D01*
X84363797Y-112389750D01*
X84546203Y-112389750D01*
X84725104Y-112425335D01*
X84725104Y-112425335D01*
G37*
G36*
X71701865Y-102997855D02*
G01*
X72302608Y-103246691D01*
X72302610Y-103246692D01*
X72843265Y-103607946D01*
X73303054Y-104067735D01*
X73664308Y-104608390D01*
X73664309Y-104608392D01*
X73913145Y-105209135D01*
X74040000Y-105846879D01*
X74040000Y-106497121D01*
X73913145Y-107134865D01*
X73664309Y-107735608D01*
X73664308Y-107735610D01*
X73303054Y-108276265D01*
X72843265Y-108736054D01*
X72302610Y-109097308D01*
X72302609Y-109097309D01*
X72302608Y-109097309D01*
X71701865Y-109346145D01*
X71064121Y-109473000D01*
X70413879Y-109473000D01*
X69776135Y-109346145D01*
X69175392Y-109097309D01*
X69175391Y-109097309D01*
X69175390Y-109097308D01*
X68634735Y-108736054D01*
X68174946Y-108276265D01*
X67813692Y-107735610D01*
X67813691Y-107735608D01*
X67564855Y-107134865D01*
X67438000Y-106497121D01*
X67438000Y-105846879D01*
X67564855Y-105209135D01*
X67813691Y-104608392D01*
X67813692Y-104608390D01*
X68174946Y-104067735D01*
X68634735Y-103607946D01*
X69175390Y-103246692D01*
X69175392Y-103246691D01*
X69776135Y-102997855D01*
X70413879Y-102871000D01*
X71064121Y-102871000D01*
X71701865Y-102997855D01*
X71701865Y-102997855D01*
G37*
G36*
X139464990Y-101544996D02*
G01*
X140330728Y-101744866D01*
X140361173Y-101755127D01*
X140456777Y-101787347D01*
X140458852Y-101788539D01*
X140610674Y-101875751D01*
X140646953Y-101907428D01*
X140744367Y-101992483D01*
X140810874Y-102078767D01*
X140852718Y-102133053D01*
X140931562Y-102292056D01*
X140977873Y-102463393D01*
X140985926Y-102582282D01*
X140989867Y-102640466D01*
X140967085Y-102816479D01*
X140910402Y-102984666D01*
X140902825Y-102997856D01*
X140821996Y-103138565D01*
X140763632Y-103205409D01*
X140705266Y-103272256D01*
X140634981Y-103326431D01*
X140564696Y-103380607D01*
X140405693Y-103459451D01*
X140234355Y-103505762D01*
X140149430Y-103511514D01*
X140057282Y-103517756D01*
X139925373Y-103500682D01*
X139059634Y-103300811D01*
X139059631Y-103300810D01*
X138933587Y-103258331D01*
X138779690Y-103169926D01*
X138779688Y-103169925D01*
X138645999Y-103053196D01*
X138537649Y-102912629D01*
X138503074Y-102842902D01*
X138458802Y-102753621D01*
X138412492Y-102582287D01*
X138412492Y-102582285D01*
X138412491Y-102582282D01*
X138404460Y-102463709D01*
X138400497Y-102405212D01*
X138423280Y-102229199D01*
X138479962Y-102061012D01*
X138568367Y-101907115D01*
X138568368Y-101907113D01*
X138685097Y-101773424D01*
X138825664Y-101665074D01*
X138856936Y-101649567D01*
X138984672Y-101586227D01*
X139156006Y-101539917D01*
X139156008Y-101539917D01*
X139156011Y-101539916D01*
X139232753Y-101534718D01*
X139333081Y-101527922D01*
X139464990Y-101544996D01*
X139464990Y-101544996D01*
G37*
G36*
X136541879Y-100870142D02*
G01*
X137407617Y-101070012D01*
X137438062Y-101080273D01*
X137533666Y-101112493D01*
X137533670Y-101112495D01*
X137533669Y-101112495D01*
X137687563Y-101200897D01*
X137764122Y-101267743D01*
X137821256Y-101317629D01*
X137892461Y-101410008D01*
X137929607Y-101458199D01*
X138008451Y-101617202D01*
X138054762Y-101788539D01*
X138065231Y-101943097D01*
X138066756Y-101965612D01*
X138043974Y-102141625D01*
X137987291Y-102309812D01*
X137947925Y-102378341D01*
X137898885Y-102463711D01*
X137840521Y-102530555D01*
X137782155Y-102597402D01*
X137726285Y-102640466D01*
X137641585Y-102705753D01*
X137482582Y-102784597D01*
X137311244Y-102830908D01*
X137226319Y-102836660D01*
X137134171Y-102842902D01*
X137002262Y-102825828D01*
X136961767Y-102816479D01*
X136136523Y-102625957D01*
X136136520Y-102625956D01*
X136010476Y-102583477D01*
X135856579Y-102495072D01*
X135856577Y-102495071D01*
X135722888Y-102378342D01*
X135614538Y-102237775D01*
X135599031Y-102206503D01*
X135535691Y-102078767D01*
X135489381Y-101907433D01*
X135489381Y-101907431D01*
X135489380Y-101907428D01*
X135482507Y-101805949D01*
X135477386Y-101730358D01*
X135500169Y-101554345D01*
X135556851Y-101386158D01*
X135645256Y-101232261D01*
X135645257Y-101232259D01*
X135761986Y-101098570D01*
X135902553Y-100990220D01*
X135933825Y-100974713D01*
X136061561Y-100911373D01*
X136232895Y-100865063D01*
X136232897Y-100865063D01*
X136232900Y-100865062D01*
X136309642Y-100859864D01*
X136409970Y-100853068D01*
X136541879Y-100870142D01*
X136541879Y-100870142D01*
G37*
G36*
X131576508Y-97927764D02*
G01*
X132442246Y-98127634D01*
X132472691Y-98137895D01*
X132568295Y-98170115D01*
X132601649Y-98189275D01*
X132722192Y-98258519D01*
X132798751Y-98325365D01*
X132855885Y-98375251D01*
X132947207Y-98493729D01*
X132964236Y-98515821D01*
X133043080Y-98674824D01*
X133089391Y-98846161D01*
X133097444Y-98965050D01*
X133101385Y-99023234D01*
X133078603Y-99199247D01*
X133021920Y-99367434D01*
X133010183Y-99387866D01*
X132933514Y-99521333D01*
X132875149Y-99588178D01*
X132816784Y-99655024D01*
X132744742Y-99710553D01*
X132671585Y-99766943D01*
X132653737Y-99783733D01*
X132639507Y-99803682D01*
X132629443Y-99826024D01*
X132623931Y-99849900D01*
X132623183Y-99874393D01*
X132627227Y-99898561D01*
X132635909Y-99921475D01*
X132648894Y-99942256D01*
X132665684Y-99960104D01*
X132685633Y-99974334D01*
X132719777Y-99987740D01*
X133510137Y-100170208D01*
X133540582Y-100180469D01*
X133636186Y-100212689D01*
X133636190Y-100212691D01*
X133636189Y-100212691D01*
X133790083Y-100301093D01*
X133866642Y-100367940D01*
X133923776Y-100417825D01*
X134009673Y-100529264D01*
X134032127Y-100558395D01*
X134110971Y-100717398D01*
X134157282Y-100888735D01*
X134164077Y-100989054D01*
X134169276Y-101065808D01*
X134146494Y-101241821D01*
X134089811Y-101410008D01*
X134062128Y-101458199D01*
X134001405Y-101563907D01*
X133970638Y-101599144D01*
X133884675Y-101697598D01*
X133842170Y-101730360D01*
X133744105Y-101805949D01*
X133585102Y-101884793D01*
X133413764Y-101931104D01*
X133328839Y-101936856D01*
X133236691Y-101943098D01*
X133104782Y-101926024D01*
X133022869Y-101907113D01*
X132239043Y-101726153D01*
X132238589Y-101726000D01*
X132112996Y-101683673D01*
X131959099Y-101595268D01*
X131959097Y-101595267D01*
X131825408Y-101478538D01*
X131717058Y-101337971D01*
X131701551Y-101306699D01*
X131638211Y-101178963D01*
X131591901Y-101007629D01*
X131591901Y-101007627D01*
X131591900Y-101007624D01*
X131585381Y-100911373D01*
X131579906Y-100830554D01*
X131602689Y-100654541D01*
X131659371Y-100486354D01*
X131747776Y-100332457D01*
X131747777Y-100332455D01*
X131864506Y-100198766D01*
X132009705Y-100086845D01*
X132027553Y-100070055D01*
X132041783Y-100050106D01*
X132051847Y-100027764D01*
X132057359Y-100003887D01*
X132058107Y-99979395D01*
X132054063Y-99955227D01*
X132045381Y-99932312D01*
X132032396Y-99911532D01*
X132015606Y-99893684D01*
X131995657Y-99879454D01*
X131961513Y-99866048D01*
X131171152Y-99683579D01*
X131166737Y-99682091D01*
X131045105Y-99641099D01*
X130891208Y-99552694D01*
X130891206Y-99552693D01*
X130757517Y-99435964D01*
X130649167Y-99295397D01*
X130621968Y-99240545D01*
X130570320Y-99136389D01*
X130524010Y-98965055D01*
X130524010Y-98965053D01*
X130524009Y-98965050D01*
X130517440Y-98868062D01*
X130512015Y-98787980D01*
X130534798Y-98611967D01*
X130591480Y-98443780D01*
X130679885Y-98289883D01*
X130679886Y-98289881D01*
X130796615Y-98156192D01*
X130937182Y-98047842D01*
X130968454Y-98032335D01*
X131096190Y-97968995D01*
X131267524Y-97922685D01*
X131267526Y-97922685D01*
X131267529Y-97922684D01*
X131344271Y-97917486D01*
X131444599Y-97910690D01*
X131576508Y-97927764D01*
X131576508Y-97927764D01*
G37*
G36*
X123771865Y-95250855D02*
G01*
X124238928Y-95444319D01*
X124372610Y-95499692D01*
X124913265Y-95860946D01*
X125373054Y-96320735D01*
X125721996Y-96842964D01*
X125734309Y-96861392D01*
X125983145Y-97462135D01*
X126110000Y-98099879D01*
X126110000Y-98750121D01*
X125983145Y-99387865D01*
X125734309Y-99988608D01*
X125734308Y-99988610D01*
X125373054Y-100529265D01*
X124913265Y-100989054D01*
X124372610Y-101350308D01*
X124372609Y-101350309D01*
X124372608Y-101350309D01*
X123771865Y-101599145D01*
X123134121Y-101726000D01*
X122483879Y-101726000D01*
X121846135Y-101599145D01*
X121245392Y-101350309D01*
X121245391Y-101350309D01*
X121245390Y-101350308D01*
X120704735Y-100989054D01*
X120244946Y-100529265D01*
X119883692Y-99988610D01*
X119883691Y-99988608D01*
X119634855Y-99387865D01*
X119508000Y-98750121D01*
X119508000Y-98099879D01*
X119634855Y-97462135D01*
X119883691Y-96861392D01*
X119896004Y-96842964D01*
X120244946Y-96320735D01*
X120704735Y-95860946D01*
X121245390Y-95499692D01*
X121379072Y-95444319D01*
X121846135Y-95250855D01*
X122483879Y-95124000D01*
X123134121Y-95124000D01*
X123771865Y-95250855D01*
X123771865Y-95250855D01*
G37*
G36*
X142111335Y-100255590D02*
G01*
X142221191Y-100301094D01*
X142229809Y-100304664D01*
X142336433Y-100375908D01*
X142427110Y-100466585D01*
X142488456Y-100558395D01*
X142498355Y-100573211D01*
X142547428Y-100691683D01*
X142572445Y-100817454D01*
X142572445Y-100945692D01*
X142547428Y-101071463D01*
X142502901Y-101178961D01*
X142498354Y-101189937D01*
X142427110Y-101296561D01*
X142336433Y-101387238D01*
X142229809Y-101458482D01*
X142229808Y-101458483D01*
X142229807Y-101458483D01*
X142111335Y-101507556D01*
X141985564Y-101532573D01*
X141857326Y-101532573D01*
X141731555Y-101507556D01*
X141613083Y-101458483D01*
X141613082Y-101458483D01*
X141613081Y-101458482D01*
X141506457Y-101387238D01*
X141415780Y-101296561D01*
X141344536Y-101189937D01*
X141339990Y-101178961D01*
X141295462Y-101071463D01*
X141270445Y-100945692D01*
X141270445Y-100817454D01*
X141295462Y-100691683D01*
X141344535Y-100573211D01*
X141354435Y-100558395D01*
X141415780Y-100466585D01*
X141506457Y-100375908D01*
X141613081Y-100304664D01*
X141621700Y-100301094D01*
X141731555Y-100255590D01*
X141857326Y-100230573D01*
X141985564Y-100230573D01*
X142111335Y-100255590D01*
X142111335Y-100255590D01*
G37*
G36*
X135290744Y-98680933D02*
G01*
X135409218Y-98730007D01*
X135515842Y-98801251D01*
X135606519Y-98891928D01*
X135655378Y-98965050D01*
X135677764Y-98998554D01*
X135726837Y-99117026D01*
X135751854Y-99242797D01*
X135751854Y-99371035D01*
X135726837Y-99496806D01*
X135716678Y-99521333D01*
X135677763Y-99615280D01*
X135606519Y-99721904D01*
X135515842Y-99812581D01*
X135409218Y-99883825D01*
X135409217Y-99883826D01*
X135409216Y-99883826D01*
X135290744Y-99932899D01*
X135164973Y-99957916D01*
X135036735Y-99957916D01*
X134910964Y-99932899D01*
X134792492Y-99883826D01*
X134792491Y-99883826D01*
X134792490Y-99883825D01*
X134685866Y-99812581D01*
X134595189Y-99721904D01*
X134523945Y-99615280D01*
X134485031Y-99521333D01*
X134474871Y-99496806D01*
X134449854Y-99371035D01*
X134449854Y-99242797D01*
X134474871Y-99117026D01*
X134523944Y-98998554D01*
X134546331Y-98965050D01*
X134595189Y-98891928D01*
X134685866Y-98801251D01*
X134792490Y-98730007D01*
X134910964Y-98680933D01*
X135036735Y-98655916D01*
X135164973Y-98655916D01*
X135290744Y-98680933D01*
X135290744Y-98680933D01*
G37*
G36*
X142504999Y-98550443D02*
G01*
X142623473Y-98599517D01*
X142730097Y-98670761D01*
X142820774Y-98761438D01*
X142892018Y-98868062D01*
X142941092Y-98986536D01*
X142966109Y-99112308D01*
X142966109Y-99240544D01*
X142941092Y-99366316D01*
X142892018Y-99484790D01*
X142820774Y-99591414D01*
X142730097Y-99682091D01*
X142623473Y-99753335D01*
X142623472Y-99753336D01*
X142623471Y-99753336D01*
X142504999Y-99802409D01*
X142379228Y-99827426D01*
X142250990Y-99827426D01*
X142125219Y-99802409D01*
X142006747Y-99753336D01*
X142006746Y-99753336D01*
X142006745Y-99753335D01*
X141900121Y-99682091D01*
X141809444Y-99591414D01*
X141738200Y-99484790D01*
X141689126Y-99366316D01*
X141664109Y-99240544D01*
X141664109Y-99112308D01*
X141689126Y-98986536D01*
X141738200Y-98868062D01*
X141809444Y-98761438D01*
X141900121Y-98670761D01*
X142006745Y-98599517D01*
X142125219Y-98550443D01*
X142250990Y-98525426D01*
X142379228Y-98525426D01*
X142504999Y-98550443D01*
X142504999Y-98550443D01*
G37*
G36*
X135684409Y-96975785D02*
G01*
X135802883Y-97024859D01*
X135909507Y-97096103D01*
X136000184Y-97186780D01*
X136071429Y-97293406D01*
X136120502Y-97411878D01*
X136145519Y-97537649D01*
X136145519Y-97665887D01*
X136134705Y-97720253D01*
X136120502Y-97791658D01*
X136071428Y-97910132D01*
X136000184Y-98016756D01*
X135909507Y-98107433D01*
X135802883Y-98178677D01*
X135802882Y-98178678D01*
X135802881Y-98178678D01*
X135684409Y-98227751D01*
X135558638Y-98252768D01*
X135430400Y-98252768D01*
X135304629Y-98227751D01*
X135186157Y-98178678D01*
X135186156Y-98178678D01*
X135186155Y-98178677D01*
X135079531Y-98107433D01*
X134988854Y-98016756D01*
X134917610Y-97910132D01*
X134868536Y-97791658D01*
X134854333Y-97720253D01*
X134843519Y-97665887D01*
X134843519Y-97537649D01*
X134868536Y-97411878D01*
X134917609Y-97293406D01*
X134988854Y-97186780D01*
X135079531Y-97096103D01*
X135186155Y-97024859D01*
X135304629Y-96975785D01*
X135430400Y-96950768D01*
X135558638Y-96950768D01*
X135684409Y-96975785D01*
X135684409Y-96975785D01*
G37*
G36*
X140803448Y-95747494D02*
G01*
X141669186Y-95947364D01*
X141699631Y-95957625D01*
X141795235Y-95989845D01*
X141804663Y-95995261D01*
X141949132Y-96078249D01*
X142006709Y-96128522D01*
X142082825Y-96194981D01*
X142149333Y-96281266D01*
X142191176Y-96335551D01*
X142270020Y-96494554D01*
X142316331Y-96665891D01*
X142324384Y-96784780D01*
X142328325Y-96842964D01*
X142305543Y-97018977D01*
X142248860Y-97187164D01*
X142202529Y-97267817D01*
X142160454Y-97341063D01*
X142129804Y-97376166D01*
X142043724Y-97474754D01*
X141993693Y-97513317D01*
X141903154Y-97583105D01*
X141744151Y-97661949D01*
X141572813Y-97708260D01*
X141487888Y-97714012D01*
X141395740Y-97720254D01*
X141263831Y-97703180D01*
X141102297Y-97665887D01*
X140398092Y-97503309D01*
X140377126Y-97496243D01*
X140272045Y-97460829D01*
X140149824Y-97390620D01*
X140118146Y-97372423D01*
X139984457Y-97255694D01*
X139876107Y-97115127D01*
X139843197Y-97048757D01*
X139797260Y-96956119D01*
X139750950Y-96784785D01*
X139750950Y-96784783D01*
X139750949Y-96784780D01*
X139742918Y-96666208D01*
X139738955Y-96607710D01*
X139761738Y-96431697D01*
X139818420Y-96263510D01*
X139906642Y-96109932D01*
X139906826Y-96109611D01*
X140023555Y-95975922D01*
X140164122Y-95867572D01*
X140195394Y-95852065D01*
X140323130Y-95788725D01*
X140494464Y-95742415D01*
X140494466Y-95742415D01*
X140494469Y-95742414D01*
X140571211Y-95737216D01*
X140671539Y-95730420D01*
X140803448Y-95747494D01*
X140803448Y-95747494D01*
G37*
G36*
X133982858Y-94172836D02*
G01*
X134848596Y-94372706D01*
X134879041Y-94382967D01*
X134974645Y-94415187D01*
X134974649Y-94415189D01*
X134974648Y-94415189D01*
X135128542Y-94503591D01*
X135205101Y-94570438D01*
X135262235Y-94620323D01*
X135353557Y-94738801D01*
X135370586Y-94760893D01*
X135449430Y-94919896D01*
X135495741Y-95091233D01*
X135506553Y-95250855D01*
X135507735Y-95268306D01*
X135484953Y-95444319D01*
X135428270Y-95612506D01*
X135388904Y-95681035D01*
X135339864Y-95766405D01*
X135293329Y-95819701D01*
X135223134Y-95900096D01*
X135161810Y-95947364D01*
X135082564Y-96008447D01*
X134923561Y-96087291D01*
X134752223Y-96133602D01*
X134667298Y-96139354D01*
X134575150Y-96145596D01*
X134443241Y-96128522D01*
X134420960Y-96123378D01*
X133652876Y-95946053D01*
X133628574Y-95942907D01*
X133604126Y-95944563D01*
X133580471Y-95950957D01*
X133558518Y-95961843D01*
X133539110Y-95976802D01*
X133522993Y-95995261D01*
X133510788Y-96016509D01*
X133502962Y-96039729D01*
X133499816Y-96064031D01*
X133501472Y-96088479D01*
X133512770Y-96123378D01*
X133594210Y-96287617D01*
X133640521Y-96458954D01*
X133644135Y-96512310D01*
X133652515Y-96636027D01*
X133629733Y-96812040D01*
X133573050Y-96980227D01*
X133542501Y-97033407D01*
X133484644Y-97134126D01*
X133438670Y-97186780D01*
X133367914Y-97267817D01*
X133297630Y-97321991D01*
X133227344Y-97376168D01*
X133068341Y-97455012D01*
X132897003Y-97501323D01*
X132812078Y-97507075D01*
X132719930Y-97513317D01*
X132588021Y-97496243D01*
X132434626Y-97460829D01*
X131722282Y-97296372D01*
X131713475Y-97293404D01*
X131596235Y-97253892D01*
X131442338Y-97165487D01*
X131442336Y-97165486D01*
X131308647Y-97048757D01*
X131200297Y-96908190D01*
X131160760Y-96828456D01*
X131121450Y-96749182D01*
X131075140Y-96577848D01*
X131075140Y-96577846D01*
X131075139Y-96577843D01*
X131069498Y-96494554D01*
X131063145Y-96400773D01*
X131085928Y-96224760D01*
X131142610Y-96056573D01*
X131231015Y-95902676D01*
X131231016Y-95902674D01*
X131347745Y-95768985D01*
X131351095Y-95766403D01*
X131375626Y-95747494D01*
X131488312Y-95660635D01*
X131519584Y-95645128D01*
X131647320Y-95581788D01*
X131818654Y-95535478D01*
X131818656Y-95535478D01*
X131818659Y-95535477D01*
X131895401Y-95530279D01*
X131995729Y-95523483D01*
X132096543Y-95536532D01*
X132127641Y-95540557D01*
X132918005Y-95723026D01*
X132942306Y-95726172D01*
X132966754Y-95724516D01*
X132990409Y-95718122D01*
X133012363Y-95707236D01*
X133031770Y-95692277D01*
X133047887Y-95673818D01*
X133060092Y-95652570D01*
X133067918Y-95629349D01*
X133071064Y-95605048D01*
X133069408Y-95580600D01*
X133058111Y-95545701D01*
X133033043Y-95495145D01*
X132976670Y-95381461D01*
X132930360Y-95210127D01*
X132930360Y-95210125D01*
X132930359Y-95210122D01*
X132923840Y-95113872D01*
X132918365Y-95033052D01*
X132941148Y-94857039D01*
X132997830Y-94688852D01*
X133068039Y-94566631D01*
X133086236Y-94534953D01*
X133202965Y-94401264D01*
X133343532Y-94292914D01*
X133374804Y-94277407D01*
X133502540Y-94214067D01*
X133673874Y-94167757D01*
X133673876Y-94167757D01*
X133673879Y-94167756D01*
X133750621Y-94162558D01*
X133850949Y-94155762D01*
X133982858Y-94172836D01*
X133982858Y-94172836D01*
G37*
G36*
X137880338Y-95072641D02*
G01*
X138746076Y-95272511D01*
X138776521Y-95282772D01*
X138872125Y-95314992D01*
X138872129Y-95314994D01*
X138872128Y-95314994D01*
X139026022Y-95403396D01*
X139102581Y-95470243D01*
X139159715Y-95520128D01*
X139243902Y-95629349D01*
X139268066Y-95660698D01*
X139346910Y-95819701D01*
X139393221Y-95991038D01*
X139403690Y-96145595D01*
X139405215Y-96168111D01*
X139382433Y-96344124D01*
X139325750Y-96512311D01*
X139255541Y-96634532D01*
X139237344Y-96666210D01*
X139178979Y-96733055D01*
X139120614Y-96799901D01*
X139064748Y-96842962D01*
X138980044Y-96908252D01*
X138821041Y-96987096D01*
X138649703Y-97033407D01*
X138564778Y-97039159D01*
X138472630Y-97045401D01*
X138340721Y-97028327D01*
X138300222Y-97018977D01*
X137474982Y-96828456D01*
X137474979Y-96828455D01*
X137348935Y-96785976D01*
X137195038Y-96697571D01*
X137195036Y-96697570D01*
X137061347Y-96580841D01*
X136952997Y-96440274D01*
X136933410Y-96400773D01*
X136874150Y-96281266D01*
X136827840Y-96109932D01*
X136827840Y-96109930D01*
X136827839Y-96109927D01*
X136821512Y-96016509D01*
X136815845Y-95932857D01*
X136838628Y-95756844D01*
X136895310Y-95588657D01*
X136983715Y-95434760D01*
X136983716Y-95434758D01*
X137100445Y-95301069D01*
X137241012Y-95192719D01*
X137272284Y-95177212D01*
X137400020Y-95113872D01*
X137571354Y-95067562D01*
X137571356Y-95067562D01*
X137571359Y-95067561D01*
X137648101Y-95062363D01*
X137748429Y-95055567D01*
X137880338Y-95072641D01*
X137880338Y-95072641D01*
G37*
G36*
X85368974Y-92299434D02*
G01*
X85586974Y-92389733D01*
X85741123Y-92453583D01*
X86076048Y-92677373D01*
X86360877Y-92962202D01*
X86584667Y-93297127D01*
X86617062Y-93375336D01*
X86738816Y-93669276D01*
X86817400Y-94064344D01*
X86817400Y-94467156D01*
X86738816Y-94862224D01*
X86668056Y-95033054D01*
X86584667Y-95234373D01*
X86360877Y-95569298D01*
X86076048Y-95854127D01*
X85741123Y-96077917D01*
X85631370Y-96123378D01*
X85368974Y-96232066D01*
X84973906Y-96310650D01*
X84571094Y-96310650D01*
X84176026Y-96232066D01*
X83913630Y-96123378D01*
X83803877Y-96077917D01*
X83468952Y-95854127D01*
X83184123Y-95569298D01*
X82960333Y-95234373D01*
X82876944Y-95033054D01*
X82806184Y-94862224D01*
X82727600Y-94467156D01*
X82727600Y-94064344D01*
X82806184Y-93669276D01*
X82927938Y-93375336D01*
X82960333Y-93297127D01*
X83184123Y-92962202D01*
X83468952Y-92677373D01*
X83803877Y-92453583D01*
X83958026Y-92389733D01*
X84176026Y-92299434D01*
X84571094Y-92220850D01*
X84973906Y-92220850D01*
X85368974Y-92299434D01*
X85368974Y-92299434D01*
G37*
G36*
X104418974Y-92299434D02*
G01*
X104636974Y-92389733D01*
X104791123Y-92453583D01*
X105126048Y-92677373D01*
X105410877Y-92962202D01*
X105634667Y-93297127D01*
X105667062Y-93375336D01*
X105788816Y-93669276D01*
X105867400Y-94064344D01*
X105867400Y-94467156D01*
X105788816Y-94862224D01*
X105718056Y-95033054D01*
X105634667Y-95234373D01*
X105410877Y-95569298D01*
X105126048Y-95854127D01*
X104791123Y-96077917D01*
X104681370Y-96123378D01*
X104418974Y-96232066D01*
X104023906Y-96310650D01*
X103621094Y-96310650D01*
X103226026Y-96232066D01*
X102963630Y-96123378D01*
X102853877Y-96077917D01*
X102518952Y-95854127D01*
X102234123Y-95569298D01*
X102010333Y-95234373D01*
X101926944Y-95033054D01*
X101856184Y-94862224D01*
X101777600Y-94467156D01*
X101777600Y-94064344D01*
X101856184Y-93669276D01*
X101977938Y-93375336D01*
X102010333Y-93297127D01*
X102234123Y-92962202D01*
X102518952Y-92677373D01*
X102853877Y-92453583D01*
X103008026Y-92389733D01*
X103226026Y-92299434D01*
X103621094Y-92220850D01*
X104023906Y-92220850D01*
X104418974Y-92299434D01*
X104418974Y-92299434D01*
G37*
G36*
X79962604Y-93375335D02*
G01*
X80131126Y-93445139D01*
X80282791Y-93546478D01*
X80411772Y-93675459D01*
X80513111Y-93827124D01*
X80582915Y-93995646D01*
X80618500Y-94174547D01*
X80618500Y-94356953D01*
X80582915Y-94535854D01*
X80513111Y-94704376D01*
X80411772Y-94856041D01*
X80282791Y-94985022D01*
X80131126Y-95086361D01*
X79962604Y-95156165D01*
X79783703Y-95191750D01*
X79601297Y-95191750D01*
X79422396Y-95156165D01*
X79253874Y-95086361D01*
X79102209Y-94985022D01*
X78973228Y-94856041D01*
X78871889Y-94704376D01*
X78802085Y-94535854D01*
X78766500Y-94356953D01*
X78766500Y-94174547D01*
X78802085Y-93995646D01*
X78871889Y-93827124D01*
X78973228Y-93675459D01*
X79102209Y-93546478D01*
X79253874Y-93445139D01*
X79422396Y-93375335D01*
X79601297Y-93339750D01*
X79783703Y-93339750D01*
X79962604Y-93375335D01*
X79962604Y-93375335D01*
G37*
G36*
X90122604Y-93375335D02*
G01*
X90291126Y-93445139D01*
X90442791Y-93546478D01*
X90571772Y-93675459D01*
X90673111Y-93827124D01*
X90742915Y-93995646D01*
X90778500Y-94174547D01*
X90778500Y-94356953D01*
X90742915Y-94535854D01*
X90673111Y-94704376D01*
X90571772Y-94856041D01*
X90442791Y-94985022D01*
X90291126Y-95086361D01*
X90122604Y-95156165D01*
X89943703Y-95191750D01*
X89761297Y-95191750D01*
X89582396Y-95156165D01*
X89413874Y-95086361D01*
X89262209Y-94985022D01*
X89133228Y-94856041D01*
X89031889Y-94704376D01*
X88962085Y-94535854D01*
X88926500Y-94356953D01*
X88926500Y-94174547D01*
X88962085Y-93995646D01*
X89031889Y-93827124D01*
X89133228Y-93675459D01*
X89262209Y-93546478D01*
X89413874Y-93445139D01*
X89582396Y-93375335D01*
X89761297Y-93339750D01*
X89943703Y-93339750D01*
X90122604Y-93375335D01*
X90122604Y-93375335D01*
G37*
G36*
X99012604Y-93375335D02*
G01*
X99181126Y-93445139D01*
X99332791Y-93546478D01*
X99461772Y-93675459D01*
X99563111Y-93827124D01*
X99632915Y-93995646D01*
X99668500Y-94174547D01*
X99668500Y-94356953D01*
X99632915Y-94535854D01*
X99563111Y-94704376D01*
X99461772Y-94856041D01*
X99332791Y-94985022D01*
X99181126Y-95086361D01*
X99012604Y-95156165D01*
X98833703Y-95191750D01*
X98651297Y-95191750D01*
X98472396Y-95156165D01*
X98303874Y-95086361D01*
X98152209Y-94985022D01*
X98023228Y-94856041D01*
X97921889Y-94704376D01*
X97852085Y-94535854D01*
X97816500Y-94356953D01*
X97816500Y-94174547D01*
X97852085Y-93995646D01*
X97921889Y-93827124D01*
X98023228Y-93675459D01*
X98152209Y-93546478D01*
X98303874Y-93445139D01*
X98472396Y-93375335D01*
X98651297Y-93339750D01*
X98833703Y-93339750D01*
X99012604Y-93375335D01*
X99012604Y-93375335D01*
G37*
G36*
X109172604Y-93375335D02*
G01*
X109341126Y-93445139D01*
X109492791Y-93546478D01*
X109621772Y-93675459D01*
X109723111Y-93827124D01*
X109792915Y-93995646D01*
X109828500Y-94174547D01*
X109828500Y-94356953D01*
X109792915Y-94535854D01*
X109723111Y-94704376D01*
X109621772Y-94856041D01*
X109492791Y-94985022D01*
X109341126Y-95086361D01*
X109172604Y-95156165D01*
X108993703Y-95191750D01*
X108811297Y-95191750D01*
X108632396Y-95156165D01*
X108463874Y-95086361D01*
X108312209Y-94985022D01*
X108183228Y-94856041D01*
X108081889Y-94704376D01*
X108012085Y-94535854D01*
X107976500Y-94356953D01*
X107976500Y-94174547D01*
X108012085Y-93995646D01*
X108081889Y-93827124D01*
X108183228Y-93675459D01*
X108312209Y-93546478D01*
X108463874Y-93445139D01*
X108632396Y-93375335D01*
X108811297Y-93339750D01*
X108993703Y-93339750D01*
X109172604Y-93375335D01*
X109172604Y-93375335D01*
G37*
G36*
X45031865Y-87884855D02*
G01*
X45632608Y-88133691D01*
X45632610Y-88133692D01*
X46173265Y-88494946D01*
X46633054Y-88954735D01*
X46949843Y-89428844D01*
X46994309Y-89495392D01*
X47243145Y-90096135D01*
X47370000Y-90733879D01*
X47370000Y-91384121D01*
X47243145Y-92021865D01*
X47064321Y-92453583D01*
X46994308Y-92622610D01*
X46633054Y-93163265D01*
X46173265Y-93623054D01*
X45632610Y-93984308D01*
X45632609Y-93984309D01*
X45632608Y-93984309D01*
X45031865Y-94233145D01*
X44394121Y-94360000D01*
X43743879Y-94360000D01*
X43106135Y-94233145D01*
X42505392Y-93984309D01*
X42505391Y-93984309D01*
X42505390Y-93984308D01*
X41964735Y-93623054D01*
X41504946Y-93163265D01*
X41143692Y-92622610D01*
X41073679Y-92453583D01*
X40894855Y-92021865D01*
X40768000Y-91384121D01*
X40768000Y-90733879D01*
X40894855Y-90096135D01*
X41143691Y-89495392D01*
X41188157Y-89428844D01*
X41504946Y-88954735D01*
X41964735Y-88494946D01*
X42505390Y-88133692D01*
X42505392Y-88133691D01*
X43106135Y-87884855D01*
X43743879Y-87758000D01*
X44394121Y-87758000D01*
X45031865Y-87884855D01*
X45031865Y-87884855D01*
G37*
G36*
X71045500Y-92965500D02*
G01*
X69543500Y-92965500D01*
X69543500Y-91663500D01*
X71045500Y-91663500D01*
X71045500Y-92965500D01*
X71045500Y-92965500D01*
G37*
G36*
X36374500Y-92965500D02*
G01*
X34872500Y-92965500D01*
X34872500Y-91663500D01*
X36374500Y-91663500D01*
X36374500Y-92965500D01*
X36374500Y-92965500D01*
G37*
G36*
X28218974Y-87663934D02*
G01*
X28436974Y-87754233D01*
X28591123Y-87818083D01*
X28926048Y-88041873D01*
X29210877Y-88326702D01*
X29434667Y-88661627D01*
X29467062Y-88739836D01*
X29588816Y-89033776D01*
X29667400Y-89428844D01*
X29667400Y-89831656D01*
X29588816Y-90226724D01*
X29537951Y-90349522D01*
X29434667Y-90598873D01*
X29210877Y-90933798D01*
X28926048Y-91218627D01*
X28591123Y-91442417D01*
X28436974Y-91506267D01*
X28218974Y-91596566D01*
X27823906Y-91675150D01*
X27421094Y-91675150D01*
X27026026Y-91596566D01*
X26808026Y-91506267D01*
X26653877Y-91442417D01*
X26318952Y-91218627D01*
X26034123Y-90933798D01*
X25810333Y-90598873D01*
X25707049Y-90349522D01*
X25656184Y-90226724D01*
X25577600Y-89831656D01*
X25577600Y-89428844D01*
X25656184Y-89033776D01*
X25777938Y-88739836D01*
X25810333Y-88661627D01*
X26034123Y-88326702D01*
X26318952Y-88041873D01*
X26653877Y-87818083D01*
X26808026Y-87754233D01*
X27026026Y-87663934D01*
X27421094Y-87585350D01*
X27823906Y-87585350D01*
X28218974Y-87663934D01*
X28218974Y-87663934D01*
G37*
G36*
X93651500Y-91315500D02*
G01*
X92149500Y-91315500D01*
X92149500Y-90013500D01*
X93651500Y-90013500D01*
X93651500Y-91315500D01*
X93651500Y-91315500D01*
G37*
G36*
X112701500Y-91314500D02*
G01*
X111199500Y-91314500D01*
X111199500Y-90012500D01*
X112701500Y-90012500D01*
X112701500Y-91314500D01*
X112701500Y-91314500D01*
G37*
G36*
X32972604Y-88739835D02*
G01*
X33141126Y-88809639D01*
X33292791Y-88910978D01*
X33421772Y-89039959D01*
X33523111Y-89191624D01*
X33592915Y-89360146D01*
X33628500Y-89539047D01*
X33628500Y-89721453D01*
X33592915Y-89900354D01*
X33523111Y-90068876D01*
X33421772Y-90220541D01*
X33292791Y-90349522D01*
X33141126Y-90450861D01*
X32972604Y-90520665D01*
X32793703Y-90556250D01*
X32611297Y-90556250D01*
X32432396Y-90520665D01*
X32263874Y-90450861D01*
X32112209Y-90349522D01*
X31983228Y-90220541D01*
X31881889Y-90068876D01*
X31812085Y-89900354D01*
X31776500Y-89721453D01*
X31776500Y-89539047D01*
X31812085Y-89360146D01*
X31881889Y-89191624D01*
X31983228Y-89039959D01*
X32112209Y-88910978D01*
X32263874Y-88809639D01*
X32432396Y-88739835D01*
X32611297Y-88704250D01*
X32793703Y-88704250D01*
X32972604Y-88739835D01*
X32972604Y-88739835D01*
G37*
G36*
X22812604Y-88739835D02*
G01*
X22981126Y-88809639D01*
X23132791Y-88910978D01*
X23261772Y-89039959D01*
X23363111Y-89191624D01*
X23432915Y-89360146D01*
X23468500Y-89539047D01*
X23468500Y-89721453D01*
X23432915Y-89900354D01*
X23363111Y-90068876D01*
X23261772Y-90220541D01*
X23132791Y-90349522D01*
X22981126Y-90450861D01*
X22812604Y-90520665D01*
X22633703Y-90556250D01*
X22451297Y-90556250D01*
X22272396Y-90520665D01*
X22103874Y-90450861D01*
X21952209Y-90349522D01*
X21823228Y-90220541D01*
X21721889Y-90068876D01*
X21652085Y-89900354D01*
X21616500Y-89721453D01*
X21616500Y-89539047D01*
X21652085Y-89360146D01*
X21721889Y-89191624D01*
X21823228Y-89039959D01*
X21952209Y-88910978D01*
X22103874Y-88809639D01*
X22272396Y-88739835D01*
X22451297Y-88704250D01*
X22633703Y-88704250D01*
X22812604Y-88739835D01*
X22812604Y-88739835D01*
G37*
G36*
X71045500Y-89565500D02*
G01*
X69543500Y-89565500D01*
X69543500Y-88263500D01*
X71045500Y-88263500D01*
X71045500Y-89565500D01*
X71045500Y-89565500D01*
G37*
G36*
X36374500Y-89565500D02*
G01*
X34872500Y-89565500D01*
X34872500Y-88263500D01*
X36374500Y-88263500D01*
X36374500Y-89565500D01*
X36374500Y-89565500D01*
G37*
G36*
X93651500Y-87915500D02*
G01*
X92149500Y-87915500D01*
X92149500Y-86613500D01*
X93651500Y-86613500D01*
X93651500Y-87915500D01*
X93651500Y-87915500D01*
G37*
G36*
X112701500Y-87914500D02*
G01*
X111199500Y-87914500D01*
X111199500Y-86612500D01*
X112701500Y-86612500D01*
X112701500Y-87914500D01*
X112701500Y-87914500D01*
G37*
G36*
X66318974Y-83568184D02*
G01*
X66536974Y-83658483D01*
X66691123Y-83722333D01*
X67026048Y-83946123D01*
X67310877Y-84230952D01*
X67534667Y-84565877D01*
X67567062Y-84644086D01*
X67688816Y-84938026D01*
X67767400Y-85333094D01*
X67767400Y-85735906D01*
X67688816Y-86130974D01*
X67637951Y-86253772D01*
X67534667Y-86503123D01*
X67310877Y-86838048D01*
X67026048Y-87122877D01*
X66691123Y-87346667D01*
X66536974Y-87410517D01*
X66318974Y-87500816D01*
X65923906Y-87579400D01*
X65521094Y-87579400D01*
X65126026Y-87500816D01*
X64908026Y-87410517D01*
X64753877Y-87346667D01*
X64418952Y-87122877D01*
X64134123Y-86838048D01*
X63910333Y-86503123D01*
X63807049Y-86253772D01*
X63756184Y-86130974D01*
X63677600Y-85735906D01*
X63677600Y-85333094D01*
X63756184Y-84938026D01*
X63877938Y-84644086D01*
X63910333Y-84565877D01*
X64134123Y-84230952D01*
X64418952Y-83946123D01*
X64753877Y-83722333D01*
X64908026Y-83658483D01*
X65126026Y-83568184D01*
X65521094Y-83489600D01*
X65923906Y-83489600D01*
X66318974Y-83568184D01*
X66318974Y-83568184D01*
G37*
G36*
X71072604Y-84644085D02*
G01*
X71241126Y-84713889D01*
X71392791Y-84815228D01*
X71521772Y-84944209D01*
X71623111Y-85095874D01*
X71692915Y-85264396D01*
X71728500Y-85443297D01*
X71728500Y-85625703D01*
X71692915Y-85804604D01*
X71623111Y-85973126D01*
X71521772Y-86124791D01*
X71392791Y-86253772D01*
X71241126Y-86355111D01*
X71072604Y-86424915D01*
X70893703Y-86460500D01*
X70711297Y-86460500D01*
X70532396Y-86424915D01*
X70363874Y-86355111D01*
X70212209Y-86253772D01*
X70083228Y-86124791D01*
X69981889Y-85973126D01*
X69912085Y-85804604D01*
X69876500Y-85625703D01*
X69876500Y-85443297D01*
X69912085Y-85264396D01*
X69981889Y-85095874D01*
X70083228Y-84944209D01*
X70212209Y-84815228D01*
X70363874Y-84713889D01*
X70532396Y-84644085D01*
X70711297Y-84608500D01*
X70893703Y-84608500D01*
X71072604Y-84644085D01*
X71072604Y-84644085D01*
G37*
G36*
X60912604Y-84644085D02*
G01*
X61081126Y-84713889D01*
X61232791Y-84815228D01*
X61361772Y-84944209D01*
X61463111Y-85095874D01*
X61532915Y-85264396D01*
X61568500Y-85443297D01*
X61568500Y-85625703D01*
X61532915Y-85804604D01*
X61463111Y-85973126D01*
X61361772Y-86124791D01*
X61232791Y-86253772D01*
X61081126Y-86355111D01*
X60912604Y-86424915D01*
X60733703Y-86460500D01*
X60551297Y-86460500D01*
X60372396Y-86424915D01*
X60203874Y-86355111D01*
X60052209Y-86253772D01*
X59923228Y-86124791D01*
X59821889Y-85973126D01*
X59752085Y-85804604D01*
X59716500Y-85625703D01*
X59716500Y-85443297D01*
X59752085Y-85264396D01*
X59821889Y-85095874D01*
X59923228Y-84944209D01*
X60052209Y-84815228D01*
X60203874Y-84713889D01*
X60372396Y-84644085D01*
X60551297Y-84608500D01*
X60733703Y-84608500D01*
X60912604Y-84644085D01*
X60912604Y-84644085D01*
G37*
G36*
X104418974Y-73249434D02*
G01*
X104636974Y-73339733D01*
X104791123Y-73403583D01*
X105126048Y-73627373D01*
X105410877Y-73912202D01*
X105634667Y-74247127D01*
X105667062Y-74325336D01*
X105788816Y-74619276D01*
X105867400Y-75014344D01*
X105867400Y-75417156D01*
X105788816Y-75812224D01*
X105737951Y-75935022D01*
X105634667Y-76184373D01*
X105410877Y-76519298D01*
X105126048Y-76804127D01*
X104791123Y-77027917D01*
X104636974Y-77091767D01*
X104418974Y-77182066D01*
X104023906Y-77260650D01*
X103621094Y-77260650D01*
X103226026Y-77182066D01*
X103008026Y-77091767D01*
X102853877Y-77027917D01*
X102518952Y-76804127D01*
X102234123Y-76519298D01*
X102010333Y-76184373D01*
X101907049Y-75935022D01*
X101856184Y-75812224D01*
X101777600Y-75417156D01*
X101777600Y-75014344D01*
X101856184Y-74619276D01*
X101977938Y-74325336D01*
X102010333Y-74247127D01*
X102234123Y-73912202D01*
X102518952Y-73627373D01*
X102853877Y-73403583D01*
X103008026Y-73339733D01*
X103226026Y-73249434D01*
X103621094Y-73170850D01*
X104023906Y-73170850D01*
X104418974Y-73249434D01*
X104418974Y-73249434D01*
G37*
G36*
X85368974Y-73249434D02*
G01*
X85586974Y-73339733D01*
X85741123Y-73403583D01*
X86076048Y-73627373D01*
X86360877Y-73912202D01*
X86584667Y-74247127D01*
X86617062Y-74325336D01*
X86738816Y-74619276D01*
X86817400Y-75014344D01*
X86817400Y-75417156D01*
X86738816Y-75812224D01*
X86687951Y-75935022D01*
X86584667Y-76184373D01*
X86360877Y-76519298D01*
X86076048Y-76804127D01*
X85741123Y-77027917D01*
X85586974Y-77091767D01*
X85368974Y-77182066D01*
X84973906Y-77260650D01*
X84571094Y-77260650D01*
X84176026Y-77182066D01*
X83958026Y-77091767D01*
X83803877Y-77027917D01*
X83468952Y-76804127D01*
X83184123Y-76519298D01*
X82960333Y-76184373D01*
X82857049Y-75935022D01*
X82806184Y-75812224D01*
X82727600Y-75417156D01*
X82727600Y-75014344D01*
X82806184Y-74619276D01*
X82927938Y-74325336D01*
X82960333Y-74247127D01*
X83184123Y-73912202D01*
X83468952Y-73627373D01*
X83803877Y-73403583D01*
X83958026Y-73339733D01*
X84176026Y-73249434D01*
X84571094Y-73170850D01*
X84973906Y-73170850D01*
X85368974Y-73249434D01*
X85368974Y-73249434D01*
G37*
G36*
X47268974Y-73249434D02*
G01*
X47486974Y-73339733D01*
X47641123Y-73403583D01*
X47976048Y-73627373D01*
X48260877Y-73912202D01*
X48484667Y-74247127D01*
X48517062Y-74325336D01*
X48638816Y-74619276D01*
X48717400Y-75014344D01*
X48717400Y-75417156D01*
X48638816Y-75812224D01*
X48587951Y-75935022D01*
X48484667Y-76184373D01*
X48260877Y-76519298D01*
X47976048Y-76804127D01*
X47641123Y-77027917D01*
X47486974Y-77091767D01*
X47268974Y-77182066D01*
X46873906Y-77260650D01*
X46471094Y-77260650D01*
X46076026Y-77182066D01*
X45858026Y-77091767D01*
X45703877Y-77027917D01*
X45368952Y-76804127D01*
X45084123Y-76519298D01*
X44860333Y-76184373D01*
X44757049Y-75935022D01*
X44706184Y-75812224D01*
X44627600Y-75417156D01*
X44627600Y-75014344D01*
X44706184Y-74619276D01*
X44827938Y-74325336D01*
X44860333Y-74247127D01*
X45084123Y-73912202D01*
X45368952Y-73627373D01*
X45703877Y-73403583D01*
X45858026Y-73339733D01*
X46076026Y-73249434D01*
X46471094Y-73170850D01*
X46873906Y-73170850D01*
X47268974Y-73249434D01*
X47268974Y-73249434D01*
G37*
G36*
X52022604Y-74325335D02*
G01*
X52191126Y-74395139D01*
X52342791Y-74496478D01*
X52471772Y-74625459D01*
X52573111Y-74777124D01*
X52642915Y-74945646D01*
X52678500Y-75124547D01*
X52678500Y-75306953D01*
X52642915Y-75485854D01*
X52573111Y-75654376D01*
X52471772Y-75806041D01*
X52342791Y-75935022D01*
X52191126Y-76036361D01*
X52022604Y-76106165D01*
X51843703Y-76141750D01*
X51661297Y-76141750D01*
X51482396Y-76106165D01*
X51313874Y-76036361D01*
X51162209Y-75935022D01*
X51033228Y-75806041D01*
X50931889Y-75654376D01*
X50862085Y-75485854D01*
X50826500Y-75306953D01*
X50826500Y-75124547D01*
X50862085Y-74945646D01*
X50931889Y-74777124D01*
X51033228Y-74625459D01*
X51162209Y-74496478D01*
X51313874Y-74395139D01*
X51482396Y-74325335D01*
X51661297Y-74289750D01*
X51843703Y-74289750D01*
X52022604Y-74325335D01*
X52022604Y-74325335D01*
G37*
G36*
X109172604Y-74325335D02*
G01*
X109341126Y-74395139D01*
X109492791Y-74496478D01*
X109621772Y-74625459D01*
X109723111Y-74777124D01*
X109792915Y-74945646D01*
X109828500Y-75124547D01*
X109828500Y-75306953D01*
X109792915Y-75485854D01*
X109723111Y-75654376D01*
X109621772Y-75806041D01*
X109492791Y-75935022D01*
X109341126Y-76036361D01*
X109172604Y-76106165D01*
X108993703Y-76141750D01*
X108811297Y-76141750D01*
X108632396Y-76106165D01*
X108463874Y-76036361D01*
X108312209Y-75935022D01*
X108183228Y-75806041D01*
X108081889Y-75654376D01*
X108012085Y-75485854D01*
X107976500Y-75306953D01*
X107976500Y-75124547D01*
X108012085Y-74945646D01*
X108081889Y-74777124D01*
X108183228Y-74625459D01*
X108312209Y-74496478D01*
X108463874Y-74395139D01*
X108632396Y-74325335D01*
X108811297Y-74289750D01*
X108993703Y-74289750D01*
X109172604Y-74325335D01*
X109172604Y-74325335D01*
G37*
G36*
X99012604Y-74325335D02*
G01*
X99181126Y-74395139D01*
X99332791Y-74496478D01*
X99461772Y-74625459D01*
X99563111Y-74777124D01*
X99632915Y-74945646D01*
X99668500Y-75124547D01*
X99668500Y-75306953D01*
X99632915Y-75485854D01*
X99563111Y-75654376D01*
X99461772Y-75806041D01*
X99332791Y-75935022D01*
X99181126Y-76036361D01*
X99012604Y-76106165D01*
X98833703Y-76141750D01*
X98651297Y-76141750D01*
X98472396Y-76106165D01*
X98303874Y-76036361D01*
X98152209Y-75935022D01*
X98023228Y-75806041D01*
X97921889Y-75654376D01*
X97852085Y-75485854D01*
X97816500Y-75306953D01*
X97816500Y-75124547D01*
X97852085Y-74945646D01*
X97921889Y-74777124D01*
X98023228Y-74625459D01*
X98152209Y-74496478D01*
X98303874Y-74395139D01*
X98472396Y-74325335D01*
X98651297Y-74289750D01*
X98833703Y-74289750D01*
X99012604Y-74325335D01*
X99012604Y-74325335D01*
G37*
G36*
X41862604Y-74325335D02*
G01*
X42031126Y-74395139D01*
X42182791Y-74496478D01*
X42311772Y-74625459D01*
X42413111Y-74777124D01*
X42482915Y-74945646D01*
X42518500Y-75124547D01*
X42518500Y-75306953D01*
X42482915Y-75485854D01*
X42413111Y-75654376D01*
X42311772Y-75806041D01*
X42182791Y-75935022D01*
X42031126Y-76036361D01*
X41862604Y-76106165D01*
X41683703Y-76141750D01*
X41501297Y-76141750D01*
X41322396Y-76106165D01*
X41153874Y-76036361D01*
X41002209Y-75935022D01*
X40873228Y-75806041D01*
X40771889Y-75654376D01*
X40702085Y-75485854D01*
X40666500Y-75306953D01*
X40666500Y-75124547D01*
X40702085Y-74945646D01*
X40771889Y-74777124D01*
X40873228Y-74625459D01*
X41002209Y-74496478D01*
X41153874Y-74395139D01*
X41322396Y-74325335D01*
X41501297Y-74289750D01*
X41683703Y-74289750D01*
X41862604Y-74325335D01*
X41862604Y-74325335D01*
G37*
G36*
X90122604Y-74325335D02*
G01*
X90291126Y-74395139D01*
X90442791Y-74496478D01*
X90571772Y-74625459D01*
X90673111Y-74777124D01*
X90742915Y-74945646D01*
X90778500Y-75124547D01*
X90778500Y-75306953D01*
X90742915Y-75485854D01*
X90673111Y-75654376D01*
X90571772Y-75806041D01*
X90442791Y-75935022D01*
X90291126Y-76036361D01*
X90122604Y-76106165D01*
X89943703Y-76141750D01*
X89761297Y-76141750D01*
X89582396Y-76106165D01*
X89413874Y-76036361D01*
X89262209Y-75935022D01*
X89133228Y-75806041D01*
X89031889Y-75654376D01*
X88962085Y-75485854D01*
X88926500Y-75306953D01*
X88926500Y-75124547D01*
X88962085Y-74945646D01*
X89031889Y-74777124D01*
X89133228Y-74625459D01*
X89262209Y-74496478D01*
X89413874Y-74395139D01*
X89582396Y-74325335D01*
X89761297Y-74289750D01*
X89943703Y-74289750D01*
X90122604Y-74325335D01*
X90122604Y-74325335D01*
G37*
G36*
X79962604Y-74325335D02*
G01*
X80131126Y-74395139D01*
X80282791Y-74496478D01*
X80411772Y-74625459D01*
X80513111Y-74777124D01*
X80582915Y-74945646D01*
X80618500Y-75124547D01*
X80618500Y-75306953D01*
X80582915Y-75485854D01*
X80513111Y-75654376D01*
X80411772Y-75806041D01*
X80282791Y-75935022D01*
X80131126Y-76036361D01*
X79962604Y-76106165D01*
X79783703Y-76141750D01*
X79601297Y-76141750D01*
X79422396Y-76106165D01*
X79253874Y-76036361D01*
X79102209Y-75935022D01*
X78973228Y-75806041D01*
X78871889Y-75654376D01*
X78802085Y-75485854D01*
X78766500Y-75306953D01*
X78766500Y-75124547D01*
X78802085Y-74945646D01*
X78871889Y-74777124D01*
X78973228Y-74625459D01*
X79102209Y-74496478D01*
X79253874Y-74395139D01*
X79422396Y-74325335D01*
X79601297Y-74289750D01*
X79783703Y-74289750D01*
X79962604Y-74325335D01*
X79962604Y-74325335D01*
G37*
G36*
X55361000Y-74518750D02*
G01*
X53859000Y-74518750D01*
X53859000Y-73216750D01*
X55361000Y-73216750D01*
X55361000Y-74518750D01*
X55361000Y-74518750D01*
G37*
G36*
X93651500Y-72391500D02*
G01*
X92149500Y-72391500D01*
X92149500Y-71089500D01*
X93651500Y-71089500D01*
X93651500Y-72391500D01*
X93651500Y-72391500D01*
G37*
G36*
X111685500Y-72137500D02*
G01*
X110183500Y-72137500D01*
X110183500Y-70835500D01*
X111685500Y-70835500D01*
X111685500Y-72137500D01*
X111685500Y-72137500D01*
G37*
G36*
X55361000Y-71118750D02*
G01*
X53859000Y-71118750D01*
X53859000Y-69816750D01*
X55361000Y-69816750D01*
X55361000Y-71118750D01*
X55361000Y-71118750D01*
G37*
G36*
X74474500Y-69089500D02*
G01*
X72972500Y-69089500D01*
X72972500Y-67787500D01*
X74474500Y-67787500D01*
X74474500Y-69089500D01*
X74474500Y-69089500D01*
G37*
G36*
X93651500Y-68991500D02*
G01*
X92149500Y-68991500D01*
X92149500Y-67689500D01*
X93651500Y-67689500D01*
X93651500Y-68991500D01*
X93651500Y-68991500D01*
G37*
G36*
X111685500Y-68737500D02*
G01*
X110183500Y-68737500D01*
X110183500Y-67435500D01*
X111685500Y-67435500D01*
X111685500Y-68737500D01*
X111685500Y-68737500D01*
G37*
G36*
X66318974Y-63724434D02*
G01*
X66536974Y-63814733D01*
X66691123Y-63878583D01*
X67026048Y-64102373D01*
X67310877Y-64387202D01*
X67534667Y-64722127D01*
X67567062Y-64800336D01*
X67688816Y-65094276D01*
X67767400Y-65489344D01*
X67767400Y-65892156D01*
X67688816Y-66287224D01*
X67637951Y-66410022D01*
X67534667Y-66659373D01*
X67310877Y-66994298D01*
X67026048Y-67279127D01*
X66691123Y-67502917D01*
X66536974Y-67566767D01*
X66318974Y-67657066D01*
X65923906Y-67735650D01*
X65521094Y-67735650D01*
X65126026Y-67657066D01*
X64908026Y-67566767D01*
X64753877Y-67502917D01*
X64418952Y-67279127D01*
X64134123Y-66994298D01*
X63910333Y-66659373D01*
X63807049Y-66410022D01*
X63756184Y-66287224D01*
X63677600Y-65892156D01*
X63677600Y-65489344D01*
X63756184Y-65094276D01*
X63877938Y-64800336D01*
X63910333Y-64722127D01*
X64134123Y-64387202D01*
X64418952Y-64102373D01*
X64753877Y-63878583D01*
X64908026Y-63814733D01*
X65126026Y-63724434D01*
X65521094Y-63645850D01*
X65923906Y-63645850D01*
X66318974Y-63724434D01*
X66318974Y-63724434D01*
G37*
G36*
X71072604Y-64800335D02*
G01*
X71241126Y-64870139D01*
X71392791Y-64971478D01*
X71521772Y-65100459D01*
X71623111Y-65252124D01*
X71692915Y-65420646D01*
X71728500Y-65599547D01*
X71728500Y-65781953D01*
X71692915Y-65960854D01*
X71623111Y-66129376D01*
X71521772Y-66281041D01*
X71392791Y-66410022D01*
X71241126Y-66511361D01*
X71072604Y-66581165D01*
X70893703Y-66616750D01*
X70711297Y-66616750D01*
X70532396Y-66581165D01*
X70363874Y-66511361D01*
X70212209Y-66410022D01*
X70083228Y-66281041D01*
X69981889Y-66129376D01*
X69912085Y-65960854D01*
X69876500Y-65781953D01*
X69876500Y-65599547D01*
X69912085Y-65420646D01*
X69981889Y-65252124D01*
X70083228Y-65100459D01*
X70212209Y-64971478D01*
X70363874Y-64870139D01*
X70532396Y-64800335D01*
X70711297Y-64764750D01*
X70893703Y-64764750D01*
X71072604Y-64800335D01*
X71072604Y-64800335D01*
G37*
G36*
X60912604Y-64800335D02*
G01*
X61081126Y-64870139D01*
X61232791Y-64971478D01*
X61361772Y-65100459D01*
X61463111Y-65252124D01*
X61532915Y-65420646D01*
X61568500Y-65599547D01*
X61568500Y-65781953D01*
X61532915Y-65960854D01*
X61463111Y-66129376D01*
X61361772Y-66281041D01*
X61232791Y-66410022D01*
X61081126Y-66511361D01*
X60912604Y-66581165D01*
X60733703Y-66616750D01*
X60551297Y-66616750D01*
X60372396Y-66581165D01*
X60203874Y-66511361D01*
X60052209Y-66410022D01*
X59923228Y-66281041D01*
X59821889Y-66129376D01*
X59752085Y-65960854D01*
X59716500Y-65781953D01*
X59716500Y-65599547D01*
X59752085Y-65420646D01*
X59821889Y-65252124D01*
X59923228Y-65100459D01*
X60052209Y-64971478D01*
X60203874Y-64870139D01*
X60372396Y-64800335D01*
X60551297Y-64764750D01*
X60733703Y-64764750D01*
X60912604Y-64800335D01*
X60912604Y-64800335D01*
G37*
G36*
X74474500Y-65689500D02*
G01*
X72972500Y-65689500D01*
X72972500Y-64387500D01*
X74474500Y-64387500D01*
X74474500Y-65689500D01*
X74474500Y-65689500D01*
G37*
G36*
X85368974Y-54199434D02*
G01*
X85586974Y-54289733D01*
X85741123Y-54353583D01*
X86076048Y-54577373D01*
X86360877Y-54862202D01*
X86584667Y-55197127D01*
X86617062Y-55275336D01*
X86738816Y-55569276D01*
X86817400Y-55964344D01*
X86817400Y-56367156D01*
X86738816Y-56762224D01*
X86687951Y-56885022D01*
X86584667Y-57134373D01*
X86360877Y-57469298D01*
X86076048Y-57754127D01*
X85741123Y-57977917D01*
X85586974Y-58041767D01*
X85368974Y-58132066D01*
X84973906Y-58210650D01*
X84571094Y-58210650D01*
X84176026Y-58132066D01*
X83958026Y-58041767D01*
X83803877Y-57977917D01*
X83468952Y-57754127D01*
X83184123Y-57469298D01*
X82960333Y-57134373D01*
X82857049Y-56885022D01*
X82806184Y-56762224D01*
X82727600Y-56367156D01*
X82727600Y-55964344D01*
X82806184Y-55569276D01*
X82927938Y-55275336D01*
X82960333Y-55197127D01*
X83184123Y-54862202D01*
X83468952Y-54577373D01*
X83803877Y-54353583D01*
X83958026Y-54289733D01*
X84176026Y-54199434D01*
X84571094Y-54120850D01*
X84973906Y-54120850D01*
X85368974Y-54199434D01*
X85368974Y-54199434D01*
G37*
G36*
X104418974Y-54199434D02*
G01*
X104636974Y-54289733D01*
X104791123Y-54353583D01*
X105126048Y-54577373D01*
X105410877Y-54862202D01*
X105634667Y-55197127D01*
X105667062Y-55275336D01*
X105788816Y-55569276D01*
X105867400Y-55964344D01*
X105867400Y-56367156D01*
X105788816Y-56762224D01*
X105737951Y-56885022D01*
X105634667Y-57134373D01*
X105410877Y-57469298D01*
X105126048Y-57754127D01*
X104791123Y-57977917D01*
X104636974Y-58041767D01*
X104418974Y-58132066D01*
X104023906Y-58210650D01*
X103621094Y-58210650D01*
X103226026Y-58132066D01*
X103008026Y-58041767D01*
X102853877Y-57977917D01*
X102518952Y-57754127D01*
X102234123Y-57469298D01*
X102010333Y-57134373D01*
X101907049Y-56885022D01*
X101856184Y-56762224D01*
X101777600Y-56367156D01*
X101777600Y-55964344D01*
X101856184Y-55569276D01*
X101977938Y-55275336D01*
X102010333Y-55197127D01*
X102234123Y-54862202D01*
X102518952Y-54577373D01*
X102853877Y-54353583D01*
X103008026Y-54289733D01*
X103226026Y-54199434D01*
X103621094Y-54120850D01*
X104023906Y-54120850D01*
X104418974Y-54199434D01*
X104418974Y-54199434D01*
G37*
G36*
X47268974Y-54199434D02*
G01*
X47486974Y-54289733D01*
X47641123Y-54353583D01*
X47976048Y-54577373D01*
X48260877Y-54862202D01*
X48484667Y-55197127D01*
X48517062Y-55275336D01*
X48638816Y-55569276D01*
X48717400Y-55964344D01*
X48717400Y-56367156D01*
X48638816Y-56762224D01*
X48587951Y-56885022D01*
X48484667Y-57134373D01*
X48260877Y-57469298D01*
X47976048Y-57754127D01*
X47641123Y-57977917D01*
X47486974Y-58041767D01*
X47268974Y-58132066D01*
X46873906Y-58210650D01*
X46471094Y-58210650D01*
X46076026Y-58132066D01*
X45858026Y-58041767D01*
X45703877Y-57977917D01*
X45368952Y-57754127D01*
X45084123Y-57469298D01*
X44860333Y-57134373D01*
X44757049Y-56885022D01*
X44706184Y-56762224D01*
X44627600Y-56367156D01*
X44627600Y-55964344D01*
X44706184Y-55569276D01*
X44827938Y-55275336D01*
X44860333Y-55197127D01*
X45084123Y-54862202D01*
X45368952Y-54577373D01*
X45703877Y-54353583D01*
X45858026Y-54289733D01*
X46076026Y-54199434D01*
X46471094Y-54120850D01*
X46873906Y-54120850D01*
X47268974Y-54199434D01*
X47268974Y-54199434D01*
G37*
G36*
X109172604Y-55275335D02*
G01*
X109341126Y-55345139D01*
X109492791Y-55446478D01*
X109621772Y-55575459D01*
X109723111Y-55727124D01*
X109792915Y-55895646D01*
X109828500Y-56074547D01*
X109828500Y-56256953D01*
X109792915Y-56435854D01*
X109723111Y-56604376D01*
X109621772Y-56756041D01*
X109492791Y-56885022D01*
X109341126Y-56986361D01*
X109172604Y-57056165D01*
X108993703Y-57091750D01*
X108811297Y-57091750D01*
X108632396Y-57056165D01*
X108463874Y-56986361D01*
X108312209Y-56885022D01*
X108183228Y-56756041D01*
X108081889Y-56604376D01*
X108012085Y-56435854D01*
X107976500Y-56256953D01*
X107976500Y-56074547D01*
X108012085Y-55895646D01*
X108081889Y-55727124D01*
X108183228Y-55575459D01*
X108312209Y-55446478D01*
X108463874Y-55345139D01*
X108632396Y-55275335D01*
X108811297Y-55239750D01*
X108993703Y-55239750D01*
X109172604Y-55275335D01*
X109172604Y-55275335D01*
G37*
G36*
X41862604Y-55275335D02*
G01*
X42031126Y-55345139D01*
X42182791Y-55446478D01*
X42311772Y-55575459D01*
X42413111Y-55727124D01*
X42482915Y-55895646D01*
X42518500Y-56074547D01*
X42518500Y-56256953D01*
X42482915Y-56435854D01*
X42413111Y-56604376D01*
X42311772Y-56756041D01*
X42182791Y-56885022D01*
X42031126Y-56986361D01*
X41862604Y-57056165D01*
X41683703Y-57091750D01*
X41501297Y-57091750D01*
X41322396Y-57056165D01*
X41153874Y-56986361D01*
X41002209Y-56885022D01*
X40873228Y-56756041D01*
X40771889Y-56604376D01*
X40702085Y-56435854D01*
X40666500Y-56256953D01*
X40666500Y-56074547D01*
X40702085Y-55895646D01*
X40771889Y-55727124D01*
X40873228Y-55575459D01*
X41002209Y-55446478D01*
X41153874Y-55345139D01*
X41322396Y-55275335D01*
X41501297Y-55239750D01*
X41683703Y-55239750D01*
X41862604Y-55275335D01*
X41862604Y-55275335D01*
G37*
G36*
X90122604Y-55275335D02*
G01*
X90291126Y-55345139D01*
X90442791Y-55446478D01*
X90571772Y-55575459D01*
X90673111Y-55727124D01*
X90742915Y-55895646D01*
X90778500Y-56074547D01*
X90778500Y-56256953D01*
X90742915Y-56435854D01*
X90673111Y-56604376D01*
X90571772Y-56756041D01*
X90442791Y-56885022D01*
X90291126Y-56986361D01*
X90122604Y-57056165D01*
X89943703Y-57091750D01*
X89761297Y-57091750D01*
X89582396Y-57056165D01*
X89413874Y-56986361D01*
X89262209Y-56885022D01*
X89133228Y-56756041D01*
X89031889Y-56604376D01*
X88962085Y-56435854D01*
X88926500Y-56256953D01*
X88926500Y-56074547D01*
X88962085Y-55895646D01*
X89031889Y-55727124D01*
X89133228Y-55575459D01*
X89262209Y-55446478D01*
X89413874Y-55345139D01*
X89582396Y-55275335D01*
X89761297Y-55239750D01*
X89943703Y-55239750D01*
X90122604Y-55275335D01*
X90122604Y-55275335D01*
G37*
G36*
X52022604Y-55275335D02*
G01*
X52191126Y-55345139D01*
X52342791Y-55446478D01*
X52471772Y-55575459D01*
X52573111Y-55727124D01*
X52642915Y-55895646D01*
X52678500Y-56074547D01*
X52678500Y-56256953D01*
X52642915Y-56435854D01*
X52573111Y-56604376D01*
X52471772Y-56756041D01*
X52342791Y-56885022D01*
X52191126Y-56986361D01*
X52022604Y-57056165D01*
X51843703Y-57091750D01*
X51661297Y-57091750D01*
X51482396Y-57056165D01*
X51313874Y-56986361D01*
X51162209Y-56885022D01*
X51033228Y-56756041D01*
X50931889Y-56604376D01*
X50862085Y-56435854D01*
X50826500Y-56256953D01*
X50826500Y-56074547D01*
X50862085Y-55895646D01*
X50931889Y-55727124D01*
X51033228Y-55575459D01*
X51162209Y-55446478D01*
X51313874Y-55345139D01*
X51482396Y-55275335D01*
X51661297Y-55239750D01*
X51843703Y-55239750D01*
X52022604Y-55275335D01*
X52022604Y-55275335D01*
G37*
G36*
X79962604Y-55275335D02*
G01*
X80131126Y-55345139D01*
X80282791Y-55446478D01*
X80411772Y-55575459D01*
X80513111Y-55727124D01*
X80582915Y-55895646D01*
X80618500Y-56074547D01*
X80618500Y-56256953D01*
X80582915Y-56435854D01*
X80513111Y-56604376D01*
X80411772Y-56756041D01*
X80282791Y-56885022D01*
X80131126Y-56986361D01*
X79962604Y-57056165D01*
X79783703Y-57091750D01*
X79601297Y-57091750D01*
X79422396Y-57056165D01*
X79253874Y-56986361D01*
X79102209Y-56885022D01*
X78973228Y-56756041D01*
X78871889Y-56604376D01*
X78802085Y-56435854D01*
X78766500Y-56256953D01*
X78766500Y-56074547D01*
X78802085Y-55895646D01*
X78871889Y-55727124D01*
X78973228Y-55575459D01*
X79102209Y-55446478D01*
X79253874Y-55345139D01*
X79422396Y-55275335D01*
X79601297Y-55239750D01*
X79783703Y-55239750D01*
X79962604Y-55275335D01*
X79962604Y-55275335D01*
G37*
G36*
X99012604Y-55275335D02*
G01*
X99181126Y-55345139D01*
X99332791Y-55446478D01*
X99461772Y-55575459D01*
X99563111Y-55727124D01*
X99632915Y-55895646D01*
X99668500Y-56074547D01*
X99668500Y-56256953D01*
X99632915Y-56435854D01*
X99563111Y-56604376D01*
X99461772Y-56756041D01*
X99332791Y-56885022D01*
X99181126Y-56986361D01*
X99012604Y-57056165D01*
X98833703Y-57091750D01*
X98651297Y-57091750D01*
X98472396Y-57056165D01*
X98303874Y-56986361D01*
X98152209Y-56885022D01*
X98023228Y-56756041D01*
X97921889Y-56604376D01*
X97852085Y-56435854D01*
X97816500Y-56256953D01*
X97816500Y-56074547D01*
X97852085Y-55895646D01*
X97921889Y-55727124D01*
X98023228Y-55575459D01*
X98152209Y-55446478D01*
X98303874Y-55345139D01*
X98472396Y-55275335D01*
X98651297Y-55239750D01*
X98833703Y-55239750D01*
X99012604Y-55275335D01*
X99012604Y-55275335D01*
G37*
G36*
X55361000Y-55468750D02*
G01*
X53859000Y-55468750D01*
X53859000Y-54166750D01*
X55361000Y-54166750D01*
X55361000Y-55468750D01*
X55361000Y-55468750D01*
G37*
G36*
X93461000Y-53087500D02*
G01*
X91959000Y-53087500D01*
X91959000Y-51785500D01*
X93461000Y-51785500D01*
X93461000Y-53087500D01*
X93461000Y-53087500D01*
G37*
G36*
X111717250Y-53087500D02*
G01*
X110215250Y-53087500D01*
X110215250Y-51785500D01*
X111717250Y-51785500D01*
X111717250Y-53087500D01*
X111717250Y-53087500D01*
G37*
G36*
X55361000Y-52068750D02*
G01*
X53859000Y-52068750D01*
X53859000Y-50766750D01*
X55361000Y-50766750D01*
X55361000Y-52068750D01*
X55361000Y-52068750D01*
G37*
G36*
X74411000Y-49912500D02*
G01*
X72909000Y-49912500D01*
X72909000Y-48610500D01*
X74411000Y-48610500D01*
X74411000Y-49912500D01*
X74411000Y-49912500D01*
G37*
G36*
X93461000Y-49687500D02*
G01*
X91959000Y-49687500D01*
X91959000Y-48385500D01*
X93461000Y-48385500D01*
X93461000Y-49687500D01*
X93461000Y-49687500D01*
G37*
G36*
X111717250Y-49687500D02*
G01*
X110215250Y-49687500D01*
X110215250Y-48385500D01*
X111717250Y-48385500D01*
X111717250Y-49687500D01*
X111717250Y-49687500D01*
G37*
G36*
X66318974Y-44674434D02*
G01*
X66536974Y-44764733D01*
X66691123Y-44828583D01*
X67026048Y-45052373D01*
X67310877Y-45337202D01*
X67534667Y-45672127D01*
X67567062Y-45750336D01*
X67688816Y-46044276D01*
X67767400Y-46439344D01*
X67767400Y-46842156D01*
X67688816Y-47237224D01*
X67637951Y-47360022D01*
X67534667Y-47609373D01*
X67310877Y-47944298D01*
X67026048Y-48229127D01*
X66691123Y-48452917D01*
X66536974Y-48516767D01*
X66318974Y-48607066D01*
X65923906Y-48685650D01*
X65521094Y-48685650D01*
X65126026Y-48607066D01*
X64908026Y-48516767D01*
X64753877Y-48452917D01*
X64418952Y-48229127D01*
X64134123Y-47944298D01*
X63910333Y-47609373D01*
X63807049Y-47360022D01*
X63756184Y-47237224D01*
X63677600Y-46842156D01*
X63677600Y-46439344D01*
X63756184Y-46044276D01*
X63877938Y-45750336D01*
X63910333Y-45672127D01*
X64134123Y-45337202D01*
X64418952Y-45052373D01*
X64753877Y-44828583D01*
X64908026Y-44764733D01*
X65126026Y-44674434D01*
X65521094Y-44595850D01*
X65923906Y-44595850D01*
X66318974Y-44674434D01*
X66318974Y-44674434D01*
G37*
G36*
X71072604Y-45750335D02*
G01*
X71241126Y-45820139D01*
X71392791Y-45921478D01*
X71521772Y-46050459D01*
X71623111Y-46202124D01*
X71692915Y-46370646D01*
X71728500Y-46549547D01*
X71728500Y-46731953D01*
X71692915Y-46910854D01*
X71623111Y-47079376D01*
X71521772Y-47231041D01*
X71392791Y-47360022D01*
X71241126Y-47461361D01*
X71072604Y-47531165D01*
X70893703Y-47566750D01*
X70711297Y-47566750D01*
X70532396Y-47531165D01*
X70363874Y-47461361D01*
X70212209Y-47360022D01*
X70083228Y-47231041D01*
X69981889Y-47079376D01*
X69912085Y-46910854D01*
X69876500Y-46731953D01*
X69876500Y-46549547D01*
X69912085Y-46370646D01*
X69981889Y-46202124D01*
X70083228Y-46050459D01*
X70212209Y-45921478D01*
X70363874Y-45820139D01*
X70532396Y-45750335D01*
X70711297Y-45714750D01*
X70893703Y-45714750D01*
X71072604Y-45750335D01*
X71072604Y-45750335D01*
G37*
G36*
X60912604Y-45750335D02*
G01*
X61081126Y-45820139D01*
X61232791Y-45921478D01*
X61361772Y-46050459D01*
X61463111Y-46202124D01*
X61532915Y-46370646D01*
X61568500Y-46549547D01*
X61568500Y-46731953D01*
X61532915Y-46910854D01*
X61463111Y-47079376D01*
X61361772Y-47231041D01*
X61232791Y-47360022D01*
X61081126Y-47461361D01*
X60912604Y-47531165D01*
X60733703Y-47566750D01*
X60551297Y-47566750D01*
X60372396Y-47531165D01*
X60203874Y-47461361D01*
X60052209Y-47360022D01*
X59923228Y-47231041D01*
X59821889Y-47079376D01*
X59752085Y-46910854D01*
X59716500Y-46731953D01*
X59716500Y-46549547D01*
X59752085Y-46370646D01*
X59821889Y-46202124D01*
X59923228Y-46050459D01*
X60052209Y-45921478D01*
X60203874Y-45820139D01*
X60372396Y-45750335D01*
X60551297Y-45714750D01*
X60733703Y-45714750D01*
X60912604Y-45750335D01*
X60912604Y-45750335D01*
G37*
G36*
X74411000Y-46512500D02*
G01*
X72909000Y-46512500D01*
X72909000Y-45210500D01*
X74411000Y-45210500D01*
X74411000Y-46512500D01*
X74411000Y-46512500D01*
G37*
G36*
X51514983Y-43209085D02*
G01*
X51683740Y-43278986D01*
X51835618Y-43380468D01*
X51964782Y-43509632D01*
X52066264Y-43661510D01*
X52136165Y-43830267D01*
X52171800Y-44009418D01*
X52171800Y-44192082D01*
X52136165Y-44371233D01*
X52066264Y-44539990D01*
X51964782Y-44691868D01*
X51835618Y-44821032D01*
X51683740Y-44922514D01*
X51514983Y-44992415D01*
X51335832Y-45028050D01*
X51153168Y-45028050D01*
X50974017Y-44992415D01*
X50805260Y-44922514D01*
X50653382Y-44821032D01*
X50524218Y-44691868D01*
X50422736Y-44539990D01*
X50352835Y-44371233D01*
X50317200Y-44192082D01*
X50317200Y-44009418D01*
X50352835Y-43830267D01*
X50422736Y-43661510D01*
X50524218Y-43509632D01*
X50653382Y-43380468D01*
X50805260Y-43278986D01*
X50974017Y-43209085D01*
X51153168Y-43173450D01*
X51335832Y-43173450D01*
X51514983Y-43209085D01*
X51514983Y-43209085D01*
G37*
G36*
X36274983Y-43209085D02*
G01*
X36443740Y-43278986D01*
X36595618Y-43380468D01*
X36724782Y-43509632D01*
X36826264Y-43661510D01*
X36896165Y-43830267D01*
X36931800Y-44009418D01*
X36931800Y-44192082D01*
X36896165Y-44371233D01*
X36826264Y-44539990D01*
X36724782Y-44691868D01*
X36595618Y-44821032D01*
X36443740Y-44922514D01*
X36274983Y-44992415D01*
X36095832Y-45028050D01*
X35913168Y-45028050D01*
X35734017Y-44992415D01*
X35565260Y-44922514D01*
X35413382Y-44821032D01*
X35284218Y-44691868D01*
X35182736Y-44539990D01*
X35112835Y-44371233D01*
X35077200Y-44192082D01*
X35077200Y-44009418D01*
X35112835Y-43830267D01*
X35182736Y-43661510D01*
X35284218Y-43509632D01*
X35413382Y-43380468D01*
X35565260Y-43278986D01*
X35734017Y-43209085D01*
X35913168Y-43173450D01*
X36095832Y-43173450D01*
X36274983Y-43209085D01*
X36274983Y-43209085D01*
G37*
G36*
X49101983Y-41939085D02*
G01*
X49270740Y-42008986D01*
X49422618Y-42110468D01*
X49551782Y-42239632D01*
X49653264Y-42391510D01*
X49723165Y-42560267D01*
X49758800Y-42739418D01*
X49758800Y-42922082D01*
X49723165Y-43101233D01*
X49653264Y-43269990D01*
X49551782Y-43421868D01*
X49422618Y-43551032D01*
X49270740Y-43652514D01*
X49101983Y-43722415D01*
X48922832Y-43758050D01*
X48740168Y-43758050D01*
X48561017Y-43722415D01*
X48392260Y-43652514D01*
X48240382Y-43551032D01*
X48111218Y-43421868D01*
X48009736Y-43269990D01*
X47939835Y-43101233D01*
X47904200Y-42922082D01*
X47904200Y-42739418D01*
X47939835Y-42560267D01*
X48009736Y-42391510D01*
X48111218Y-42239632D01*
X48240382Y-42110468D01*
X48392260Y-42008986D01*
X48561017Y-41939085D01*
X48740168Y-41903450D01*
X48922832Y-41903450D01*
X49101983Y-41939085D01*
X49101983Y-41939085D01*
G37*
G36*
X33861983Y-41939085D02*
G01*
X34030740Y-42008986D01*
X34182618Y-42110468D01*
X34311782Y-42239632D01*
X34413264Y-42391510D01*
X34483165Y-42560267D01*
X34518800Y-42739418D01*
X34518800Y-42922082D01*
X34483165Y-43101233D01*
X34413264Y-43269990D01*
X34311782Y-43421868D01*
X34182618Y-43551032D01*
X34030740Y-43652514D01*
X33861983Y-43722415D01*
X33682832Y-43758050D01*
X33500168Y-43758050D01*
X33321017Y-43722415D01*
X33152260Y-43652514D01*
X33000382Y-43551032D01*
X32871218Y-43421868D01*
X32769736Y-43269990D01*
X32699835Y-43101233D01*
X32664200Y-42922082D01*
X32664200Y-42739418D01*
X32699835Y-42560267D01*
X32769736Y-42391510D01*
X32871218Y-42239632D01*
X33000382Y-42110468D01*
X33152260Y-42008986D01*
X33321017Y-41939085D01*
X33500168Y-41903450D01*
X33682832Y-41903450D01*
X33861983Y-41939085D01*
X33861983Y-41939085D01*
G37*
G36*
X51514983Y-40669085D02*
G01*
X51683740Y-40738986D01*
X51835618Y-40840468D01*
X51964782Y-40969632D01*
X52066264Y-41121510D01*
X52136165Y-41290267D01*
X52171800Y-41469418D01*
X52171800Y-41652082D01*
X52136165Y-41831233D01*
X52066264Y-41999990D01*
X51964782Y-42151868D01*
X51835618Y-42281032D01*
X51683740Y-42382514D01*
X51514983Y-42452415D01*
X51335832Y-42488050D01*
X51153168Y-42488050D01*
X50974017Y-42452415D01*
X50805260Y-42382514D01*
X50653382Y-42281032D01*
X50524218Y-42151868D01*
X50422736Y-41999990D01*
X50352835Y-41831233D01*
X50317200Y-41652082D01*
X50317200Y-41469418D01*
X50352835Y-41290267D01*
X50422736Y-41121510D01*
X50524218Y-40969632D01*
X50653382Y-40840468D01*
X50805260Y-40738986D01*
X50974017Y-40669085D01*
X51153168Y-40633450D01*
X51335832Y-40633450D01*
X51514983Y-40669085D01*
X51514983Y-40669085D01*
G37*
G36*
X36274983Y-40669085D02*
G01*
X36443740Y-40738986D01*
X36595618Y-40840468D01*
X36724782Y-40969632D01*
X36826264Y-41121510D01*
X36896165Y-41290267D01*
X36931800Y-41469418D01*
X36931800Y-41652082D01*
X36896165Y-41831233D01*
X36826264Y-41999990D01*
X36724782Y-42151868D01*
X36595618Y-42281032D01*
X36443740Y-42382514D01*
X36274983Y-42452415D01*
X36095832Y-42488050D01*
X35913168Y-42488050D01*
X35734017Y-42452415D01*
X35565260Y-42382514D01*
X35413382Y-42281032D01*
X35284218Y-42151868D01*
X35182736Y-41999990D01*
X35112835Y-41831233D01*
X35077200Y-41652082D01*
X35077200Y-41469418D01*
X35112835Y-41290267D01*
X35182736Y-41121510D01*
X35284218Y-40969632D01*
X35413382Y-40840468D01*
X35565260Y-40738986D01*
X35734017Y-40669085D01*
X35913168Y-40633450D01*
X36095832Y-40633450D01*
X36274983Y-40669085D01*
X36274983Y-40669085D01*
G37*
G36*
X33861983Y-39399085D02*
G01*
X34030740Y-39468986D01*
X34182618Y-39570468D01*
X34311782Y-39699632D01*
X34413264Y-39851510D01*
X34483165Y-40020267D01*
X34518800Y-40199418D01*
X34518800Y-40382082D01*
X34483165Y-40561233D01*
X34413264Y-40729990D01*
X34311782Y-40881868D01*
X34182618Y-41011032D01*
X34030740Y-41112514D01*
X33861983Y-41182415D01*
X33682832Y-41218050D01*
X33500168Y-41218050D01*
X33321017Y-41182415D01*
X33152260Y-41112514D01*
X33000382Y-41011032D01*
X32871218Y-40881868D01*
X32769736Y-40729990D01*
X32699835Y-40561233D01*
X32664200Y-40382082D01*
X32664200Y-40199418D01*
X32699835Y-40020267D01*
X32769736Y-39851510D01*
X32871218Y-39699632D01*
X33000382Y-39570468D01*
X33152260Y-39468986D01*
X33321017Y-39399085D01*
X33500168Y-39363450D01*
X33682832Y-39363450D01*
X33861983Y-39399085D01*
X33861983Y-39399085D01*
G37*
G36*
X49101983Y-39399085D02*
G01*
X49270740Y-39468986D01*
X49422618Y-39570468D01*
X49551782Y-39699632D01*
X49653264Y-39851510D01*
X49723165Y-40020267D01*
X49758800Y-40199418D01*
X49758800Y-40382082D01*
X49723165Y-40561233D01*
X49653264Y-40729990D01*
X49551782Y-40881868D01*
X49422618Y-41011032D01*
X49270740Y-41112514D01*
X49101983Y-41182415D01*
X48922832Y-41218050D01*
X48740168Y-41218050D01*
X48561017Y-41182415D01*
X48392260Y-41112514D01*
X48240382Y-41011032D01*
X48111218Y-40881868D01*
X48009736Y-40729990D01*
X47939835Y-40561233D01*
X47904200Y-40382082D01*
X47904200Y-40199418D01*
X47939835Y-40020267D01*
X48009736Y-39851510D01*
X48111218Y-39699632D01*
X48240382Y-39570468D01*
X48392260Y-39468986D01*
X48561017Y-39399085D01*
X48740168Y-39363450D01*
X48922832Y-39363450D01*
X49101983Y-39399085D01*
X49101983Y-39399085D01*
G37*
G36*
X36274983Y-38129085D02*
G01*
X36443740Y-38198986D01*
X36595618Y-38300468D01*
X36724782Y-38429632D01*
X36826264Y-38581510D01*
X36896165Y-38750267D01*
X36931800Y-38929418D01*
X36931800Y-39112082D01*
X36896165Y-39291233D01*
X36826264Y-39459990D01*
X36724782Y-39611868D01*
X36595618Y-39741032D01*
X36443740Y-39842514D01*
X36274983Y-39912415D01*
X36095832Y-39948050D01*
X35913168Y-39948050D01*
X35734017Y-39912415D01*
X35565260Y-39842514D01*
X35413382Y-39741032D01*
X35284218Y-39611868D01*
X35182736Y-39459990D01*
X35112835Y-39291233D01*
X35077200Y-39112082D01*
X35077200Y-38929418D01*
X35112835Y-38750267D01*
X35182736Y-38581510D01*
X35284218Y-38429632D01*
X35413382Y-38300468D01*
X35565260Y-38198986D01*
X35734017Y-38129085D01*
X35913168Y-38093450D01*
X36095832Y-38093450D01*
X36274983Y-38129085D01*
X36274983Y-38129085D01*
G37*
G36*
X51514983Y-38129085D02*
G01*
X51683740Y-38198986D01*
X51835618Y-38300468D01*
X51964782Y-38429632D01*
X52066264Y-38581510D01*
X52136165Y-38750267D01*
X52171800Y-38929418D01*
X52171800Y-39112082D01*
X52136165Y-39291233D01*
X52066264Y-39459990D01*
X51964782Y-39611868D01*
X51835618Y-39741032D01*
X51683740Y-39842514D01*
X51514983Y-39912415D01*
X51335832Y-39948050D01*
X51153168Y-39948050D01*
X50974017Y-39912415D01*
X50805260Y-39842514D01*
X50653382Y-39741032D01*
X50524218Y-39611868D01*
X50422736Y-39459990D01*
X50352835Y-39291233D01*
X50317200Y-39112082D01*
X50317200Y-38929418D01*
X50352835Y-38750267D01*
X50422736Y-38581510D01*
X50524218Y-38429632D01*
X50653382Y-38300468D01*
X50805260Y-38198986D01*
X50974017Y-38129085D01*
X51153168Y-38093450D01*
X51335832Y-38093450D01*
X51514983Y-38129085D01*
X51514983Y-38129085D01*
G37*
G36*
X85368974Y-35149434D02*
G01*
X85586974Y-35239733D01*
X85741123Y-35303583D01*
X86076048Y-35527373D01*
X86360877Y-35812202D01*
X86584667Y-36147127D01*
X86617062Y-36225336D01*
X86738816Y-36519276D01*
X86817400Y-36914344D01*
X86817400Y-37317156D01*
X86738816Y-37712224D01*
X86681619Y-37850309D01*
X86584667Y-38084373D01*
X86360877Y-38419298D01*
X86076048Y-38704127D01*
X85741123Y-38927917D01*
X85586974Y-38991767D01*
X85368974Y-39082066D01*
X84973906Y-39160650D01*
X84571094Y-39160650D01*
X84176026Y-39082066D01*
X83958026Y-38991767D01*
X83803877Y-38927917D01*
X83468952Y-38704127D01*
X83184123Y-38419298D01*
X82960333Y-38084373D01*
X82863381Y-37850309D01*
X82806184Y-37712224D01*
X82727600Y-37317156D01*
X82727600Y-36914344D01*
X82806184Y-36519276D01*
X82927938Y-36225336D01*
X82960333Y-36147127D01*
X83184123Y-35812202D01*
X83468952Y-35527373D01*
X83803877Y-35303583D01*
X83958026Y-35239733D01*
X84176026Y-35149434D01*
X84571094Y-35070850D01*
X84973906Y-35070850D01*
X85368974Y-35149434D01*
X85368974Y-35149434D01*
G37*
G36*
X33861983Y-36859085D02*
G01*
X34030740Y-36928986D01*
X34182618Y-37030468D01*
X34311782Y-37159632D01*
X34413264Y-37311510D01*
X34483165Y-37480267D01*
X34518800Y-37659418D01*
X34518800Y-37842082D01*
X34483165Y-38021233D01*
X34413264Y-38189990D01*
X34311782Y-38341868D01*
X34182618Y-38471032D01*
X34030740Y-38572514D01*
X33861983Y-38642415D01*
X33682832Y-38678050D01*
X33500168Y-38678050D01*
X33321017Y-38642415D01*
X33152260Y-38572514D01*
X33000382Y-38471032D01*
X32871218Y-38341868D01*
X32769736Y-38189990D01*
X32699835Y-38021233D01*
X32664200Y-37842082D01*
X32664200Y-37659418D01*
X32699835Y-37480267D01*
X32769736Y-37311510D01*
X32871218Y-37159632D01*
X33000382Y-37030468D01*
X33152260Y-36928986D01*
X33321017Y-36859085D01*
X33500168Y-36823450D01*
X33682832Y-36823450D01*
X33861983Y-36859085D01*
X33861983Y-36859085D01*
G37*
G36*
X49101983Y-36859085D02*
G01*
X49270740Y-36928986D01*
X49422618Y-37030468D01*
X49551782Y-37159632D01*
X49653264Y-37311510D01*
X49723165Y-37480267D01*
X49758800Y-37659418D01*
X49758800Y-37842082D01*
X49723165Y-38021233D01*
X49653264Y-38189990D01*
X49551782Y-38341868D01*
X49422618Y-38471032D01*
X49270740Y-38572514D01*
X49101983Y-38642415D01*
X48922832Y-38678050D01*
X48740168Y-38678050D01*
X48561017Y-38642415D01*
X48392260Y-38572514D01*
X48240382Y-38471032D01*
X48111218Y-38341868D01*
X48009736Y-38189990D01*
X47939835Y-38021233D01*
X47904200Y-37842082D01*
X47904200Y-37659418D01*
X47939835Y-37480267D01*
X48009736Y-37311510D01*
X48111218Y-37159632D01*
X48240382Y-37030468D01*
X48392260Y-36928986D01*
X48561017Y-36859085D01*
X48740168Y-36823450D01*
X48922832Y-36823450D01*
X49101983Y-36859085D01*
X49101983Y-36859085D01*
G37*
G36*
X104721865Y-31877855D02*
G01*
X105308946Y-32121032D01*
X105322610Y-32126692D01*
X105863265Y-32487946D01*
X106323054Y-32947735D01*
X106619255Y-33391032D01*
X106684309Y-33488392D01*
X106933145Y-34089135D01*
X107060000Y-34726879D01*
X107060000Y-35377121D01*
X106933145Y-36014865D01*
X106702338Y-36572081D01*
X106684308Y-36615610D01*
X106323054Y-37156265D01*
X105863265Y-37616054D01*
X105322610Y-37977308D01*
X105322609Y-37977309D01*
X105322608Y-37977309D01*
X104721865Y-38226145D01*
X104084121Y-38353000D01*
X103433879Y-38353000D01*
X102796135Y-38226145D01*
X102195392Y-37977309D01*
X102195391Y-37977309D01*
X102195390Y-37977308D01*
X101654735Y-37616054D01*
X101194946Y-37156265D01*
X100833692Y-36615610D01*
X100815662Y-36572081D01*
X100584855Y-36014865D01*
X100458000Y-35377121D01*
X100458000Y-34726879D01*
X100584855Y-34089135D01*
X100833691Y-33488392D01*
X100898745Y-33391032D01*
X101194946Y-32947735D01*
X101654735Y-32487946D01*
X102195390Y-32126692D01*
X102209054Y-32121032D01*
X102796135Y-31877855D01*
X103433879Y-31751000D01*
X104084121Y-31751000D01*
X104721865Y-31877855D01*
X104721865Y-31877855D01*
G37*
G36*
X28521865Y-31750855D02*
G01*
X29103724Y-31991869D01*
X29122610Y-31999692D01*
X29663265Y-32360946D01*
X30123054Y-32820735D01*
X30484308Y-33361390D01*
X30484309Y-33361392D01*
X30733145Y-33962135D01*
X30860000Y-34599879D01*
X30860000Y-35250121D01*
X30733145Y-35887865D01*
X30522470Y-36396479D01*
X30484308Y-36488610D01*
X30123054Y-37029265D01*
X29663265Y-37489054D01*
X29122610Y-37850308D01*
X29122609Y-37850309D01*
X29122608Y-37850309D01*
X28521865Y-38099145D01*
X27884121Y-38226000D01*
X27233879Y-38226000D01*
X26596135Y-38099145D01*
X25995392Y-37850309D01*
X25995391Y-37850309D01*
X25995390Y-37850308D01*
X25454735Y-37489054D01*
X24994946Y-37029265D01*
X24633692Y-36488610D01*
X24595530Y-36396479D01*
X24384855Y-35887865D01*
X24258000Y-35250121D01*
X24258000Y-34599879D01*
X24384855Y-33962135D01*
X24633691Y-33361392D01*
X24633692Y-33361390D01*
X24994946Y-32820735D01*
X25454735Y-32360946D01*
X25995390Y-31999692D01*
X26014276Y-31991869D01*
X26596135Y-31750855D01*
X27233879Y-31624000D01*
X27884121Y-31624000D01*
X28521865Y-31750855D01*
X28521865Y-31750855D01*
G37*
G36*
X79962604Y-36225335D02*
G01*
X80131126Y-36295139D01*
X80282791Y-36396478D01*
X80411772Y-36525459D01*
X80513111Y-36677124D01*
X80582915Y-36845646D01*
X80618500Y-37024547D01*
X80618500Y-37206953D01*
X80582915Y-37385854D01*
X80513111Y-37554376D01*
X80411772Y-37706041D01*
X80282791Y-37835022D01*
X80131126Y-37936361D01*
X79962604Y-38006165D01*
X79783703Y-38041750D01*
X79601297Y-38041750D01*
X79422396Y-38006165D01*
X79253874Y-37936361D01*
X79102209Y-37835022D01*
X78973228Y-37706041D01*
X78871889Y-37554376D01*
X78802085Y-37385854D01*
X78766500Y-37206953D01*
X78766500Y-37024547D01*
X78802085Y-36845646D01*
X78871889Y-36677124D01*
X78973228Y-36525459D01*
X79102209Y-36396478D01*
X79253874Y-36295139D01*
X79422396Y-36225335D01*
X79601297Y-36189750D01*
X79783703Y-36189750D01*
X79962604Y-36225335D01*
X79962604Y-36225335D01*
G37*
G36*
X90122604Y-36225335D02*
G01*
X90291126Y-36295139D01*
X90442791Y-36396478D01*
X90571772Y-36525459D01*
X90673111Y-36677124D01*
X90742915Y-36845646D01*
X90778500Y-37024547D01*
X90778500Y-37206953D01*
X90742915Y-37385854D01*
X90673111Y-37554376D01*
X90571772Y-37706041D01*
X90442791Y-37835022D01*
X90291126Y-37936361D01*
X90122604Y-38006165D01*
X89943703Y-38041750D01*
X89761297Y-38041750D01*
X89582396Y-38006165D01*
X89413874Y-37936361D01*
X89262209Y-37835022D01*
X89133228Y-37706041D01*
X89031889Y-37554376D01*
X88962085Y-37385854D01*
X88926500Y-37206953D01*
X88926500Y-37024547D01*
X88962085Y-36845646D01*
X89031889Y-36677124D01*
X89133228Y-36525459D01*
X89262209Y-36396478D01*
X89413874Y-36295139D01*
X89582396Y-36225335D01*
X89761297Y-36189750D01*
X89943703Y-36189750D01*
X90122604Y-36225335D01*
X90122604Y-36225335D01*
G37*
G36*
X36274983Y-35589085D02*
G01*
X36443740Y-35658986D01*
X36595618Y-35760468D01*
X36724782Y-35889632D01*
X36826264Y-36041510D01*
X36896165Y-36210267D01*
X36931800Y-36389418D01*
X36931800Y-36572082D01*
X36896165Y-36751233D01*
X36826264Y-36919990D01*
X36724782Y-37071868D01*
X36595618Y-37201032D01*
X36443740Y-37302514D01*
X36274983Y-37372415D01*
X36095832Y-37408050D01*
X35913168Y-37408050D01*
X35734017Y-37372415D01*
X35565260Y-37302514D01*
X35413382Y-37201032D01*
X35284218Y-37071868D01*
X35182736Y-36919990D01*
X35112835Y-36751233D01*
X35077200Y-36572082D01*
X35077200Y-36389418D01*
X35112835Y-36210267D01*
X35182736Y-36041510D01*
X35284218Y-35889632D01*
X35413382Y-35760468D01*
X35565260Y-35658986D01*
X35734017Y-35589085D01*
X35913168Y-35553450D01*
X36095832Y-35553450D01*
X36274983Y-35589085D01*
X36274983Y-35589085D01*
G37*
G36*
X51514983Y-35589085D02*
G01*
X51683740Y-35658986D01*
X51835618Y-35760468D01*
X51964782Y-35889632D01*
X52066264Y-36041510D01*
X52136165Y-36210267D01*
X52171800Y-36389418D01*
X52171800Y-36572082D01*
X52136165Y-36751233D01*
X52066264Y-36919990D01*
X51964782Y-37071868D01*
X51835618Y-37201032D01*
X51683740Y-37302514D01*
X51514983Y-37372415D01*
X51335832Y-37408050D01*
X51153168Y-37408050D01*
X50974017Y-37372415D01*
X50805260Y-37302514D01*
X50653382Y-37201032D01*
X50524218Y-37071868D01*
X50422736Y-36919990D01*
X50352835Y-36751233D01*
X50317200Y-36572082D01*
X50317200Y-36389418D01*
X50352835Y-36210267D01*
X50422736Y-36041510D01*
X50524218Y-35889632D01*
X50653382Y-35760468D01*
X50805260Y-35658986D01*
X50974017Y-35589085D01*
X51153168Y-35553450D01*
X51335832Y-35553450D01*
X51514983Y-35589085D01*
X51514983Y-35589085D01*
G37*
G36*
X49101983Y-34319085D02*
G01*
X49270740Y-34388986D01*
X49422618Y-34490468D01*
X49551782Y-34619632D01*
X49653264Y-34771510D01*
X49723165Y-34940267D01*
X49758800Y-35119418D01*
X49758800Y-35302082D01*
X49723165Y-35481233D01*
X49653264Y-35649990D01*
X49551782Y-35801868D01*
X49422618Y-35931032D01*
X49270740Y-36032514D01*
X49101983Y-36102415D01*
X48922832Y-36138050D01*
X48740168Y-36138050D01*
X48561017Y-36102415D01*
X48392260Y-36032514D01*
X48240382Y-35931032D01*
X48111218Y-35801868D01*
X48009736Y-35649990D01*
X47939835Y-35481233D01*
X47904200Y-35302082D01*
X47904200Y-35119418D01*
X47939835Y-34940267D01*
X48009736Y-34771510D01*
X48111218Y-34619632D01*
X48240382Y-34490468D01*
X48392260Y-34388986D01*
X48561017Y-34319085D01*
X48740168Y-34283450D01*
X48922832Y-34283450D01*
X49101983Y-34319085D01*
X49101983Y-34319085D01*
G37*
G36*
X33861983Y-34319085D02*
G01*
X34030740Y-34388986D01*
X34182618Y-34490468D01*
X34311782Y-34619632D01*
X34413264Y-34771510D01*
X34483165Y-34940267D01*
X34518800Y-35119418D01*
X34518800Y-35302082D01*
X34483165Y-35481233D01*
X34413264Y-35649990D01*
X34311782Y-35801868D01*
X34182618Y-35931032D01*
X34030740Y-36032514D01*
X33861983Y-36102415D01*
X33682832Y-36138050D01*
X33500168Y-36138050D01*
X33321017Y-36102415D01*
X33152260Y-36032514D01*
X33000382Y-35931032D01*
X32871218Y-35801868D01*
X32769736Y-35649990D01*
X32699835Y-35481233D01*
X32664200Y-35302082D01*
X32664200Y-35119418D01*
X32699835Y-34940267D01*
X32769736Y-34771510D01*
X32871218Y-34619632D01*
X33000382Y-34490468D01*
X33152260Y-34388986D01*
X33321017Y-34319085D01*
X33500168Y-34283450D01*
X33682832Y-34283450D01*
X33861983Y-34319085D01*
X33861983Y-34319085D01*
G37*
G36*
X51514983Y-33049085D02*
G01*
X51683740Y-33118986D01*
X51835618Y-33220468D01*
X51964782Y-33349632D01*
X52066264Y-33501510D01*
X52136165Y-33670267D01*
X52171800Y-33849418D01*
X52171800Y-34032082D01*
X52136165Y-34211233D01*
X52066264Y-34379990D01*
X51964782Y-34531868D01*
X51835618Y-34661032D01*
X51683740Y-34762514D01*
X51514983Y-34832415D01*
X51335832Y-34868050D01*
X51153168Y-34868050D01*
X50974017Y-34832415D01*
X50805260Y-34762514D01*
X50653382Y-34661032D01*
X50524218Y-34531868D01*
X50422736Y-34379990D01*
X50352835Y-34211233D01*
X50317200Y-34032082D01*
X50317200Y-33849418D01*
X50352835Y-33670267D01*
X50422736Y-33501510D01*
X50524218Y-33349632D01*
X50653382Y-33220468D01*
X50805260Y-33118986D01*
X50974017Y-33049085D01*
X51153168Y-33013450D01*
X51335832Y-33013450D01*
X51514983Y-33049085D01*
X51514983Y-33049085D01*
G37*
G36*
X36274983Y-33049085D02*
G01*
X36443740Y-33118986D01*
X36595618Y-33220468D01*
X36724782Y-33349632D01*
X36826264Y-33501510D01*
X36896165Y-33670267D01*
X36931800Y-33849418D01*
X36931800Y-34032082D01*
X36896165Y-34211233D01*
X36826264Y-34379990D01*
X36724782Y-34531868D01*
X36595618Y-34661032D01*
X36443740Y-34762514D01*
X36274983Y-34832415D01*
X36095832Y-34868050D01*
X35913168Y-34868050D01*
X35734017Y-34832415D01*
X35565260Y-34762514D01*
X35413382Y-34661032D01*
X35284218Y-34531868D01*
X35182736Y-34379990D01*
X35112835Y-34211233D01*
X35077200Y-34032082D01*
X35077200Y-33849418D01*
X35112835Y-33670267D01*
X35182736Y-33501510D01*
X35284218Y-33349632D01*
X35413382Y-33220468D01*
X35565260Y-33118986D01*
X35734017Y-33049085D01*
X35913168Y-33013450D01*
X36095832Y-33013450D01*
X36274983Y-33049085D01*
X36274983Y-33049085D01*
G37*
G36*
X49101983Y-31779085D02*
G01*
X49270740Y-31848986D01*
X49422618Y-31950468D01*
X49551782Y-32079632D01*
X49653264Y-32231510D01*
X49723165Y-32400267D01*
X49758800Y-32579418D01*
X49758800Y-32762082D01*
X49723165Y-32941233D01*
X49653264Y-33109990D01*
X49551782Y-33261868D01*
X49422618Y-33391032D01*
X49270740Y-33492514D01*
X49101983Y-33562415D01*
X48922832Y-33598050D01*
X48740168Y-33598050D01*
X48561017Y-33562415D01*
X48392260Y-33492514D01*
X48240382Y-33391032D01*
X48111218Y-33261868D01*
X48009736Y-33109990D01*
X47939835Y-32941233D01*
X47904200Y-32762082D01*
X47904200Y-32579418D01*
X47939835Y-32400267D01*
X48009736Y-32231510D01*
X48111218Y-32079632D01*
X48240382Y-31950468D01*
X48392260Y-31848986D01*
X48561017Y-31779085D01*
X48740168Y-31743450D01*
X48922832Y-31743450D01*
X49101983Y-31779085D01*
X49101983Y-31779085D01*
G37*
G36*
X33861983Y-31779085D02*
G01*
X34030740Y-31848986D01*
X34182618Y-31950468D01*
X34311782Y-32079632D01*
X34413264Y-32231510D01*
X34483165Y-32400267D01*
X34518800Y-32579418D01*
X34518800Y-32762082D01*
X34483165Y-32941233D01*
X34413264Y-33109990D01*
X34311782Y-33261868D01*
X34182618Y-33391032D01*
X34030740Y-33492514D01*
X33861983Y-33562415D01*
X33682832Y-33598050D01*
X33500168Y-33598050D01*
X33321017Y-33562415D01*
X33152260Y-33492514D01*
X33000382Y-33391032D01*
X32871218Y-33261868D01*
X32769736Y-33109990D01*
X32699835Y-32941233D01*
X32664200Y-32762082D01*
X32664200Y-32579418D01*
X32699835Y-32400267D01*
X32769736Y-32231510D01*
X32871218Y-32079632D01*
X33000382Y-31950468D01*
X33152260Y-31848986D01*
X33321017Y-31779085D01*
X33500168Y-31743450D01*
X33682832Y-31743450D01*
X33861983Y-31779085D01*
X33861983Y-31779085D01*
G37*
G36*
X91873500Y-32450000D02*
G01*
X90371500Y-32450000D01*
X90371500Y-31148000D01*
X91873500Y-31148000D01*
X91873500Y-32450000D01*
X91873500Y-32450000D01*
G37*
G36*
X36274983Y-30509085D02*
G01*
X36443740Y-30578986D01*
X36595618Y-30680468D01*
X36724782Y-30809632D01*
X36826264Y-30961510D01*
X36896165Y-31130267D01*
X36931800Y-31309418D01*
X36931800Y-31492082D01*
X36896165Y-31671233D01*
X36826264Y-31839990D01*
X36724782Y-31991868D01*
X36595618Y-32121032D01*
X36443740Y-32222514D01*
X36274983Y-32292415D01*
X36095832Y-32328050D01*
X35913168Y-32328050D01*
X35734017Y-32292415D01*
X35565260Y-32222514D01*
X35413382Y-32121032D01*
X35284218Y-31991868D01*
X35182736Y-31839990D01*
X35112835Y-31671233D01*
X35077200Y-31492082D01*
X35077200Y-31309418D01*
X35112835Y-31130267D01*
X35182736Y-30961510D01*
X35284218Y-30809632D01*
X35413382Y-30680468D01*
X35565260Y-30578986D01*
X35734017Y-30509085D01*
X35913168Y-30473450D01*
X36095832Y-30473450D01*
X36274983Y-30509085D01*
X36274983Y-30509085D01*
G37*
G36*
X51514983Y-30509085D02*
G01*
X51683740Y-30578986D01*
X51835618Y-30680468D01*
X51964782Y-30809632D01*
X52066264Y-30961510D01*
X52136165Y-31130267D01*
X52171800Y-31309418D01*
X52171800Y-31492082D01*
X52136165Y-31671233D01*
X52066264Y-31839990D01*
X51964782Y-31991868D01*
X51835618Y-32121032D01*
X51683740Y-32222514D01*
X51514983Y-32292415D01*
X51335832Y-32328050D01*
X51153168Y-32328050D01*
X50974017Y-32292415D01*
X50805260Y-32222514D01*
X50653382Y-32121032D01*
X50524218Y-31991868D01*
X50422736Y-31839990D01*
X50352835Y-31671233D01*
X50317200Y-31492082D01*
X50317200Y-31309418D01*
X50352835Y-31130267D01*
X50422736Y-30961510D01*
X50524218Y-30809632D01*
X50653382Y-30680468D01*
X50805260Y-30578986D01*
X50974017Y-30509085D01*
X51153168Y-30473450D01*
X51335832Y-30473450D01*
X51514983Y-30509085D01*
X51514983Y-30509085D01*
G37*
G36*
X49101983Y-29239085D02*
G01*
X49270740Y-29308986D01*
X49422618Y-29410468D01*
X49551782Y-29539632D01*
X49653264Y-29691510D01*
X49723165Y-29860267D01*
X49758800Y-30039418D01*
X49758800Y-30222082D01*
X49723165Y-30401233D01*
X49653264Y-30569990D01*
X49551782Y-30721868D01*
X49422618Y-30851032D01*
X49270740Y-30952514D01*
X49101983Y-31022415D01*
X48922832Y-31058050D01*
X48740168Y-31058050D01*
X48561017Y-31022415D01*
X48392260Y-30952514D01*
X48240382Y-30851032D01*
X48111218Y-30721868D01*
X48009736Y-30569990D01*
X47939835Y-30401233D01*
X47904200Y-30222082D01*
X47904200Y-30039418D01*
X47939835Y-29860267D01*
X48009736Y-29691510D01*
X48111218Y-29539632D01*
X48240382Y-29410468D01*
X48392260Y-29308986D01*
X48561017Y-29239085D01*
X48740168Y-29203450D01*
X48922832Y-29203450D01*
X49101983Y-29239085D01*
X49101983Y-29239085D01*
G37*
G36*
X33861983Y-29239085D02*
G01*
X34030740Y-29308986D01*
X34182618Y-29410468D01*
X34311782Y-29539632D01*
X34413264Y-29691510D01*
X34483165Y-29860267D01*
X34518800Y-30039418D01*
X34518800Y-30222082D01*
X34483165Y-30401233D01*
X34413264Y-30569990D01*
X34311782Y-30721868D01*
X34182618Y-30851032D01*
X34030740Y-30952514D01*
X33861983Y-31022415D01*
X33682832Y-31058050D01*
X33500168Y-31058050D01*
X33321017Y-31022415D01*
X33152260Y-30952514D01*
X33000382Y-30851032D01*
X32871218Y-30721868D01*
X32769736Y-30569990D01*
X32699835Y-30401233D01*
X32664200Y-30222082D01*
X32664200Y-30039418D01*
X32699835Y-29860267D01*
X32769736Y-29691510D01*
X32871218Y-29539632D01*
X33000382Y-29410468D01*
X33152260Y-29308986D01*
X33321017Y-29239085D01*
X33500168Y-29203450D01*
X33682832Y-29203450D01*
X33861983Y-29239085D01*
X33861983Y-29239085D01*
G37*
G36*
X51514983Y-27969085D02*
G01*
X51683740Y-28038986D01*
X51835618Y-28140468D01*
X51964782Y-28269632D01*
X52066264Y-28421510D01*
X52136165Y-28590267D01*
X52171800Y-28769418D01*
X52171800Y-28952082D01*
X52136165Y-29131233D01*
X52066264Y-29299990D01*
X51964782Y-29451868D01*
X51835618Y-29581032D01*
X51683740Y-29682514D01*
X51514983Y-29752415D01*
X51335832Y-29788050D01*
X51153168Y-29788050D01*
X50974017Y-29752415D01*
X50805260Y-29682514D01*
X50653382Y-29581032D01*
X50524218Y-29451868D01*
X50422736Y-29299990D01*
X50352835Y-29131233D01*
X50317200Y-28952082D01*
X50317200Y-28769418D01*
X50352835Y-28590267D01*
X50422736Y-28421510D01*
X50524218Y-28269632D01*
X50653382Y-28140468D01*
X50805260Y-28038986D01*
X50974017Y-27969085D01*
X51153168Y-27933450D01*
X51335832Y-27933450D01*
X51514983Y-27969085D01*
X51514983Y-27969085D01*
G37*
G36*
X36274983Y-27969085D02*
G01*
X36443740Y-28038986D01*
X36595618Y-28140468D01*
X36724782Y-28269632D01*
X36826264Y-28421510D01*
X36896165Y-28590267D01*
X36931800Y-28769418D01*
X36931800Y-28952082D01*
X36896165Y-29131233D01*
X36826264Y-29299990D01*
X36724782Y-29451868D01*
X36595618Y-29581032D01*
X36443740Y-29682514D01*
X36274983Y-29752415D01*
X36095832Y-29788050D01*
X35913168Y-29788050D01*
X35734017Y-29752415D01*
X35565260Y-29682514D01*
X35413382Y-29581032D01*
X35284218Y-29451868D01*
X35182736Y-29299990D01*
X35112835Y-29131233D01*
X35077200Y-28952082D01*
X35077200Y-28769418D01*
X35112835Y-28590267D01*
X35182736Y-28421510D01*
X35284218Y-28269632D01*
X35413382Y-28140468D01*
X35565260Y-28038986D01*
X35734017Y-27969085D01*
X35913168Y-27933450D01*
X36095832Y-27933450D01*
X36274983Y-27969085D01*
X36274983Y-27969085D01*
G37*
G36*
X66318974Y-25624434D02*
G01*
X66536974Y-25714733D01*
X66691123Y-25778583D01*
X67026048Y-26002373D01*
X67310877Y-26287202D01*
X67534667Y-26622127D01*
X67567062Y-26700336D01*
X67688816Y-26994276D01*
X67767400Y-27389344D01*
X67767400Y-27792156D01*
X67688816Y-28187224D01*
X67637951Y-28310022D01*
X67534667Y-28559373D01*
X67310877Y-28894298D01*
X67026048Y-29179127D01*
X66691123Y-29402917D01*
X66572944Y-29451868D01*
X66318974Y-29557066D01*
X65923906Y-29635650D01*
X65521094Y-29635650D01*
X65126026Y-29557066D01*
X64872056Y-29451868D01*
X64753877Y-29402917D01*
X64418952Y-29179127D01*
X64134123Y-28894298D01*
X63910333Y-28559373D01*
X63807049Y-28310022D01*
X63756184Y-28187224D01*
X63677600Y-27792156D01*
X63677600Y-27389344D01*
X63756184Y-26994276D01*
X63877938Y-26700336D01*
X63910333Y-26622127D01*
X64134123Y-26287202D01*
X64418952Y-26002373D01*
X64753877Y-25778583D01*
X64908026Y-25714733D01*
X65126026Y-25624434D01*
X65521094Y-25545850D01*
X65923906Y-25545850D01*
X66318974Y-25624434D01*
X66318974Y-25624434D01*
G37*
G36*
X74411000Y-29275000D02*
G01*
X72909000Y-29275000D01*
X72909000Y-27973000D01*
X74411000Y-27973000D01*
X74411000Y-29275000D01*
X74411000Y-29275000D01*
G37*
G36*
X91873500Y-29050000D02*
G01*
X90371500Y-29050000D01*
X90371500Y-27748000D01*
X91873500Y-27748000D01*
X91873500Y-29050000D01*
X91873500Y-29050000D01*
G37*
G36*
X49101983Y-26699085D02*
G01*
X49270740Y-26768986D01*
X49422618Y-26870468D01*
X49551782Y-26999632D01*
X49653264Y-27151510D01*
X49723165Y-27320267D01*
X49758800Y-27499418D01*
X49758800Y-27682082D01*
X49723165Y-27861233D01*
X49653264Y-28029990D01*
X49551782Y-28181868D01*
X49422618Y-28311032D01*
X49270740Y-28412514D01*
X49101983Y-28482415D01*
X48922832Y-28518050D01*
X48740168Y-28518050D01*
X48561017Y-28482415D01*
X48392260Y-28412514D01*
X48240382Y-28311032D01*
X48111218Y-28181868D01*
X48009736Y-28029990D01*
X47939835Y-27861233D01*
X47904200Y-27682082D01*
X47904200Y-27499418D01*
X47939835Y-27320267D01*
X48009736Y-27151510D01*
X48111218Y-26999632D01*
X48240382Y-26870468D01*
X48392260Y-26768986D01*
X48561017Y-26699085D01*
X48740168Y-26663450D01*
X48922832Y-26663450D01*
X49101983Y-26699085D01*
X49101983Y-26699085D01*
G37*
G36*
X33861983Y-26699085D02*
G01*
X34030740Y-26768986D01*
X34182618Y-26870468D01*
X34311782Y-26999632D01*
X34413264Y-27151510D01*
X34483165Y-27320267D01*
X34518800Y-27499418D01*
X34518800Y-27682082D01*
X34483165Y-27861233D01*
X34413264Y-28029990D01*
X34311782Y-28181868D01*
X34182618Y-28311032D01*
X34030740Y-28412514D01*
X33861983Y-28482415D01*
X33682832Y-28518050D01*
X33500168Y-28518050D01*
X33321017Y-28482415D01*
X33152260Y-28412514D01*
X33000382Y-28311032D01*
X32871218Y-28181868D01*
X32769736Y-28029990D01*
X32699835Y-27861233D01*
X32664200Y-27682082D01*
X32664200Y-27499418D01*
X32699835Y-27320267D01*
X32769736Y-27151510D01*
X32871218Y-26999632D01*
X33000382Y-26870468D01*
X33152260Y-26768986D01*
X33321017Y-26699085D01*
X33500168Y-26663450D01*
X33682832Y-26663450D01*
X33861983Y-26699085D01*
X33861983Y-26699085D01*
G37*
G36*
X71072604Y-26700335D02*
G01*
X71241126Y-26770139D01*
X71392791Y-26871478D01*
X71521772Y-27000459D01*
X71623111Y-27152124D01*
X71692915Y-27320646D01*
X71728500Y-27499547D01*
X71728500Y-27681953D01*
X71692915Y-27860854D01*
X71623111Y-28029376D01*
X71521772Y-28181041D01*
X71392791Y-28310022D01*
X71241126Y-28411361D01*
X71072604Y-28481165D01*
X70893703Y-28516750D01*
X70711297Y-28516750D01*
X70532396Y-28481165D01*
X70363874Y-28411361D01*
X70212209Y-28310022D01*
X70083228Y-28181041D01*
X69981889Y-28029376D01*
X69912085Y-27860854D01*
X69876500Y-27681953D01*
X69876500Y-27499547D01*
X69912085Y-27320646D01*
X69981889Y-27152124D01*
X70083228Y-27000459D01*
X70212209Y-26871478D01*
X70363874Y-26770139D01*
X70532396Y-26700335D01*
X70711297Y-26664750D01*
X70893703Y-26664750D01*
X71072604Y-26700335D01*
X71072604Y-26700335D01*
G37*
G36*
X60912604Y-26700335D02*
G01*
X61081126Y-26770139D01*
X61232791Y-26871478D01*
X61361772Y-27000459D01*
X61463111Y-27152124D01*
X61532915Y-27320646D01*
X61568500Y-27499547D01*
X61568500Y-27681953D01*
X61532915Y-27860854D01*
X61463111Y-28029376D01*
X61361772Y-28181041D01*
X61232791Y-28310022D01*
X61081126Y-28411361D01*
X60912604Y-28481165D01*
X60733703Y-28516750D01*
X60551297Y-28516750D01*
X60372396Y-28481165D01*
X60203874Y-28411361D01*
X60052209Y-28310022D01*
X59923228Y-28181041D01*
X59821889Y-28029376D01*
X59752085Y-27860854D01*
X59716500Y-27681953D01*
X59716500Y-27499547D01*
X59752085Y-27320646D01*
X59821889Y-27152124D01*
X59923228Y-27000459D01*
X60052209Y-26871478D01*
X60203874Y-26770139D01*
X60372396Y-26700335D01*
X60551297Y-26664750D01*
X60733703Y-26664750D01*
X60912604Y-26700335D01*
X60912604Y-26700335D01*
G37*
G36*
X36274983Y-25429085D02*
G01*
X36443740Y-25498986D01*
X36595618Y-25600468D01*
X36724782Y-25729632D01*
X36826264Y-25881510D01*
X36896165Y-26050267D01*
X36931800Y-26229418D01*
X36931800Y-26412082D01*
X36896165Y-26591233D01*
X36826264Y-26759990D01*
X36724782Y-26911868D01*
X36595618Y-27041032D01*
X36443740Y-27142514D01*
X36274983Y-27212415D01*
X36095832Y-27248050D01*
X35913168Y-27248050D01*
X35734017Y-27212415D01*
X35565260Y-27142514D01*
X35413382Y-27041032D01*
X35284218Y-26911868D01*
X35182736Y-26759990D01*
X35112835Y-26591233D01*
X35077200Y-26412082D01*
X35077200Y-26229418D01*
X35112835Y-26050267D01*
X35182736Y-25881510D01*
X35284218Y-25729632D01*
X35413382Y-25600468D01*
X35565260Y-25498986D01*
X35734017Y-25429085D01*
X35913168Y-25393450D01*
X36095832Y-25393450D01*
X36274983Y-25429085D01*
X36274983Y-25429085D01*
G37*
G36*
X51514983Y-25429085D02*
G01*
X51683740Y-25498986D01*
X51835618Y-25600468D01*
X51964782Y-25729632D01*
X52066264Y-25881510D01*
X52136165Y-26050267D01*
X52171800Y-26229418D01*
X52171800Y-26412082D01*
X52136165Y-26591233D01*
X52066264Y-26759990D01*
X51964782Y-26911868D01*
X51835618Y-27041032D01*
X51683740Y-27142514D01*
X51514983Y-27212415D01*
X51335832Y-27248050D01*
X51153168Y-27248050D01*
X50974017Y-27212415D01*
X50805260Y-27142514D01*
X50653382Y-27041032D01*
X50524218Y-26911868D01*
X50422736Y-26759990D01*
X50352835Y-26591233D01*
X50317200Y-26412082D01*
X50317200Y-26229418D01*
X50352835Y-26050267D01*
X50422736Y-25881510D01*
X50524218Y-25729632D01*
X50653382Y-25600468D01*
X50805260Y-25498986D01*
X50974017Y-25429085D01*
X51153168Y-25393450D01*
X51335832Y-25393450D01*
X51514983Y-25429085D01*
X51514983Y-25429085D01*
G37*
G36*
X33861983Y-24159085D02*
G01*
X34030740Y-24228986D01*
X34182618Y-24330468D01*
X34311782Y-24459632D01*
X34413264Y-24611510D01*
X34483165Y-24780267D01*
X34518800Y-24959418D01*
X34518800Y-25142082D01*
X34483165Y-25321233D01*
X34413264Y-25489990D01*
X34311782Y-25641868D01*
X34182618Y-25771032D01*
X34030740Y-25872514D01*
X33861983Y-25942415D01*
X33682832Y-25978050D01*
X33500168Y-25978050D01*
X33321017Y-25942415D01*
X33152260Y-25872514D01*
X33000382Y-25771032D01*
X32871218Y-25641868D01*
X32769736Y-25489990D01*
X32699835Y-25321233D01*
X32664200Y-25142082D01*
X32664200Y-24959418D01*
X32699835Y-24780267D01*
X32769736Y-24611510D01*
X32871218Y-24459632D01*
X33000382Y-24330468D01*
X33152260Y-24228986D01*
X33321017Y-24159085D01*
X33500168Y-24123450D01*
X33682832Y-24123450D01*
X33861983Y-24159085D01*
X33861983Y-24159085D01*
G37*
G36*
X49101983Y-24159085D02*
G01*
X49270740Y-24228986D01*
X49422618Y-24330468D01*
X49551782Y-24459632D01*
X49653264Y-24611510D01*
X49723165Y-24780267D01*
X49758800Y-24959418D01*
X49758800Y-25142082D01*
X49723165Y-25321233D01*
X49653264Y-25489990D01*
X49551782Y-25641868D01*
X49422618Y-25771032D01*
X49270740Y-25872514D01*
X49101983Y-25942415D01*
X48922832Y-25978050D01*
X48740168Y-25978050D01*
X48561017Y-25942415D01*
X48392260Y-25872514D01*
X48240382Y-25771032D01*
X48111218Y-25641868D01*
X48009736Y-25489990D01*
X47939835Y-25321233D01*
X47904200Y-25142082D01*
X47904200Y-24959418D01*
X47939835Y-24780267D01*
X48009736Y-24611510D01*
X48111218Y-24459632D01*
X48240382Y-24330468D01*
X48392260Y-24228986D01*
X48561017Y-24159085D01*
X48740168Y-24123450D01*
X48922832Y-24123450D01*
X49101983Y-24159085D01*
X49101983Y-24159085D01*
G37*
G36*
X74411000Y-25875000D02*
G01*
X72909000Y-25875000D01*
X72909000Y-24573000D01*
X74411000Y-24573000D01*
X74411000Y-25875000D01*
X74411000Y-25875000D01*
G37*
G36*
X51514983Y-22889085D02*
G01*
X51683740Y-22958986D01*
X51835618Y-23060468D01*
X51964782Y-23189632D01*
X52066264Y-23341510D01*
X52136165Y-23510267D01*
X52171800Y-23689418D01*
X52171800Y-23872082D01*
X52136165Y-24051233D01*
X52066264Y-24219990D01*
X51964782Y-24371868D01*
X51835618Y-24501032D01*
X51683740Y-24602514D01*
X51514983Y-24672415D01*
X51335832Y-24708050D01*
X51153168Y-24708050D01*
X50974017Y-24672415D01*
X50805260Y-24602514D01*
X50653382Y-24501032D01*
X50524218Y-24371868D01*
X50422736Y-24219990D01*
X50352835Y-24051233D01*
X50317200Y-23872082D01*
X50317200Y-23689418D01*
X50352835Y-23510267D01*
X50422736Y-23341510D01*
X50524218Y-23189632D01*
X50653382Y-23060468D01*
X50805260Y-22958986D01*
X50974017Y-22889085D01*
X51153168Y-22853450D01*
X51335832Y-22853450D01*
X51514983Y-22889085D01*
X51514983Y-22889085D01*
G37*
G36*
X36274983Y-22889085D02*
G01*
X36443740Y-22958986D01*
X36595618Y-23060468D01*
X36724782Y-23189632D01*
X36826264Y-23341510D01*
X36896165Y-23510267D01*
X36931800Y-23689418D01*
X36931800Y-23872082D01*
X36896165Y-24051233D01*
X36826264Y-24219990D01*
X36724782Y-24371868D01*
X36595618Y-24501032D01*
X36443740Y-24602514D01*
X36274983Y-24672415D01*
X36095832Y-24708050D01*
X35913168Y-24708050D01*
X35734017Y-24672415D01*
X35565260Y-24602514D01*
X35413382Y-24501032D01*
X35284218Y-24371868D01*
X35182736Y-24219990D01*
X35112835Y-24051233D01*
X35077200Y-23872082D01*
X35077200Y-23689418D01*
X35112835Y-23510267D01*
X35182736Y-23341510D01*
X35284218Y-23189632D01*
X35413382Y-23060468D01*
X35565260Y-22958986D01*
X35734017Y-22889085D01*
X35913168Y-22853450D01*
X36095832Y-22853450D01*
X36274983Y-22889085D01*
X36274983Y-22889085D01*
G37*
G36*
X49101983Y-21619085D02*
G01*
X49270740Y-21688986D01*
X49422618Y-21790468D01*
X49551782Y-21919632D01*
X49653264Y-22071510D01*
X49723165Y-22240267D01*
X49758800Y-22419418D01*
X49758800Y-22602082D01*
X49723165Y-22781233D01*
X49653264Y-22949990D01*
X49551782Y-23101868D01*
X49422618Y-23231032D01*
X49270740Y-23332514D01*
X49101983Y-23402415D01*
X48922832Y-23438050D01*
X48740168Y-23438050D01*
X48561017Y-23402415D01*
X48392260Y-23332514D01*
X48240382Y-23231032D01*
X48111218Y-23101868D01*
X48009736Y-22949990D01*
X47939835Y-22781233D01*
X47904200Y-22602082D01*
X47904200Y-22419418D01*
X47939835Y-22240267D01*
X48009736Y-22071510D01*
X48111218Y-21919632D01*
X48240382Y-21790468D01*
X48392260Y-21688986D01*
X48561017Y-21619085D01*
X48740168Y-21583450D01*
X48922832Y-21583450D01*
X49101983Y-21619085D01*
X49101983Y-21619085D01*
G37*
G36*
X33861983Y-21619085D02*
G01*
X34030740Y-21688986D01*
X34182618Y-21790468D01*
X34311782Y-21919632D01*
X34413264Y-22071510D01*
X34483165Y-22240267D01*
X34518800Y-22419418D01*
X34518800Y-22602082D01*
X34483165Y-22781233D01*
X34413264Y-22949990D01*
X34311782Y-23101868D01*
X34182618Y-23231032D01*
X34030740Y-23332514D01*
X33861983Y-23402415D01*
X33682832Y-23438050D01*
X33500168Y-23438050D01*
X33321017Y-23402415D01*
X33152260Y-23332514D01*
X33000382Y-23231032D01*
X32871218Y-23101868D01*
X32769736Y-22949990D01*
X32699835Y-22781233D01*
X32664200Y-22602082D01*
X32664200Y-22419418D01*
X32699835Y-22240267D01*
X32769736Y-22071510D01*
X32871218Y-21919632D01*
X33000382Y-21790468D01*
X33152260Y-21688986D01*
X33321017Y-21619085D01*
X33500168Y-21583450D01*
X33682832Y-21583450D01*
X33861983Y-21619085D01*
X33861983Y-21619085D01*
G37*
G36*
X51514983Y-20349085D02*
G01*
X51683740Y-20418986D01*
X51835618Y-20520468D01*
X51964782Y-20649632D01*
X52066264Y-20801510D01*
X52136165Y-20970267D01*
X52171800Y-21149418D01*
X52171800Y-21332082D01*
X52136165Y-21511233D01*
X52066264Y-21679990D01*
X51964782Y-21831868D01*
X51835618Y-21961032D01*
X51683740Y-22062514D01*
X51514983Y-22132415D01*
X51335832Y-22168050D01*
X51153168Y-22168050D01*
X50974017Y-22132415D01*
X50805260Y-22062514D01*
X50653382Y-21961032D01*
X50524218Y-21831868D01*
X50422736Y-21679990D01*
X50352835Y-21511233D01*
X50317200Y-21332082D01*
X50317200Y-21149418D01*
X50352835Y-20970267D01*
X50422736Y-20801510D01*
X50524218Y-20649632D01*
X50653382Y-20520468D01*
X50805260Y-20418986D01*
X50974017Y-20349085D01*
X51153168Y-20313450D01*
X51335832Y-20313450D01*
X51514983Y-20349085D01*
X51514983Y-20349085D01*
G37*
G36*
X36274983Y-20349085D02*
G01*
X36443740Y-20418986D01*
X36595618Y-20520468D01*
X36724782Y-20649632D01*
X36826264Y-20801510D01*
X36896165Y-20970267D01*
X36931800Y-21149418D01*
X36931800Y-21332082D01*
X36896165Y-21511233D01*
X36826264Y-21679990D01*
X36724782Y-21831868D01*
X36595618Y-21961032D01*
X36443740Y-22062514D01*
X36274983Y-22132415D01*
X36095832Y-22168050D01*
X35913168Y-22168050D01*
X35734017Y-22132415D01*
X35565260Y-22062514D01*
X35413382Y-21961032D01*
X35284218Y-21831868D01*
X35182736Y-21679990D01*
X35112835Y-21511233D01*
X35077200Y-21332082D01*
X35077200Y-21149418D01*
X35112835Y-20970267D01*
X35182736Y-20801510D01*
X35284218Y-20649632D01*
X35413382Y-20520468D01*
X35565260Y-20418986D01*
X35734017Y-20349085D01*
X35913168Y-20313450D01*
X36095832Y-20313450D01*
X36274983Y-20349085D01*
X36274983Y-20349085D01*
G37*
G36*
X49101983Y-19079085D02*
G01*
X49270740Y-19148986D01*
X49422618Y-19250468D01*
X49551782Y-19379632D01*
X49653264Y-19531510D01*
X49723165Y-19700267D01*
X49758800Y-19879418D01*
X49758800Y-20062082D01*
X49723165Y-20241233D01*
X49653264Y-20409990D01*
X49551782Y-20561868D01*
X49422618Y-20691032D01*
X49270740Y-20792514D01*
X49101983Y-20862415D01*
X48922832Y-20898050D01*
X48740168Y-20898050D01*
X48561017Y-20862415D01*
X48392260Y-20792514D01*
X48240382Y-20691032D01*
X48111218Y-20561868D01*
X48009736Y-20409990D01*
X47939835Y-20241233D01*
X47904200Y-20062082D01*
X47904200Y-19879418D01*
X47939835Y-19700267D01*
X48009736Y-19531510D01*
X48111218Y-19379632D01*
X48240382Y-19250468D01*
X48392260Y-19148986D01*
X48561017Y-19079085D01*
X48740168Y-19043450D01*
X48922832Y-19043450D01*
X49101983Y-19079085D01*
X49101983Y-19079085D01*
G37*
G36*
X33861983Y-19079085D02*
G01*
X34030740Y-19148986D01*
X34182618Y-19250468D01*
X34311782Y-19379632D01*
X34413264Y-19531510D01*
X34483165Y-19700267D01*
X34518800Y-19879418D01*
X34518800Y-20062082D01*
X34483165Y-20241233D01*
X34413264Y-20409990D01*
X34311782Y-20561868D01*
X34182618Y-20691032D01*
X34030740Y-20792514D01*
X33861983Y-20862415D01*
X33682832Y-20898050D01*
X33500168Y-20898050D01*
X33321017Y-20862415D01*
X33152260Y-20792514D01*
X33000382Y-20691032D01*
X32871218Y-20561868D01*
X32769736Y-20409990D01*
X32699835Y-20241233D01*
X32664200Y-20062082D01*
X32664200Y-19879418D01*
X32699835Y-19700267D01*
X32769736Y-19531510D01*
X32871218Y-19379632D01*
X33000382Y-19250468D01*
X33152260Y-19148986D01*
X33321017Y-19079085D01*
X33500168Y-19043450D01*
X33682832Y-19043450D01*
X33861983Y-19079085D01*
X33861983Y-19079085D01*
G37*
G36*
X51514983Y-17809085D02*
G01*
X51683740Y-17878986D01*
X51835618Y-17980468D01*
X51964782Y-18109632D01*
X52066264Y-18261510D01*
X52136165Y-18430267D01*
X52171800Y-18609418D01*
X52171800Y-18792082D01*
X52136165Y-18971233D01*
X52066264Y-19139990D01*
X51964782Y-19291868D01*
X51835618Y-19421032D01*
X51683740Y-19522514D01*
X51514983Y-19592415D01*
X51335832Y-19628050D01*
X51153168Y-19628050D01*
X50974017Y-19592415D01*
X50805260Y-19522514D01*
X50653382Y-19421032D01*
X50524218Y-19291868D01*
X50422736Y-19139990D01*
X50352835Y-18971233D01*
X50317200Y-18792082D01*
X50317200Y-18609418D01*
X50352835Y-18430267D01*
X50422736Y-18261510D01*
X50524218Y-18109632D01*
X50653382Y-17980468D01*
X50805260Y-17878986D01*
X50974017Y-17809085D01*
X51153168Y-17773450D01*
X51335832Y-17773450D01*
X51514983Y-17809085D01*
X51514983Y-17809085D01*
G37*
G36*
X36274983Y-17809085D02*
G01*
X36443740Y-17878986D01*
X36595618Y-17980468D01*
X36724782Y-18109632D01*
X36826264Y-18261510D01*
X36896165Y-18430267D01*
X36931800Y-18609418D01*
X36931800Y-18792082D01*
X36896165Y-18971233D01*
X36826264Y-19139990D01*
X36724782Y-19291868D01*
X36595618Y-19421032D01*
X36443740Y-19522514D01*
X36274983Y-19592415D01*
X36095832Y-19628050D01*
X35913168Y-19628050D01*
X35734017Y-19592415D01*
X35565260Y-19522514D01*
X35413382Y-19421032D01*
X35284218Y-19291868D01*
X35182736Y-19139990D01*
X35112835Y-18971233D01*
X35077200Y-18792082D01*
X35077200Y-18609418D01*
X35112835Y-18430267D01*
X35182736Y-18261510D01*
X35284218Y-18109632D01*
X35413382Y-17980468D01*
X35565260Y-17878986D01*
X35734017Y-17809085D01*
X35913168Y-17773450D01*
X36095832Y-17773450D01*
X36274983Y-17809085D01*
X36274983Y-17809085D01*
G37*
G36*
X49101983Y-16539085D02*
G01*
X49270740Y-16608986D01*
X49422618Y-16710468D01*
X49551782Y-16839632D01*
X49653264Y-16991510D01*
X49723165Y-17160267D01*
X49758800Y-17339418D01*
X49758800Y-17522082D01*
X49723165Y-17701233D01*
X49653264Y-17869990D01*
X49551782Y-18021868D01*
X49422618Y-18151032D01*
X49270740Y-18252514D01*
X49101983Y-18322415D01*
X48922832Y-18358050D01*
X48740168Y-18358050D01*
X48561017Y-18322415D01*
X48392260Y-18252514D01*
X48240382Y-18151032D01*
X48111218Y-18021868D01*
X48009736Y-17869990D01*
X47939835Y-17701233D01*
X47904200Y-17522082D01*
X47904200Y-17339418D01*
X47939835Y-17160267D01*
X48009736Y-16991510D01*
X48111218Y-16839632D01*
X48240382Y-16710468D01*
X48392260Y-16608986D01*
X48561017Y-16539085D01*
X48740168Y-16503450D01*
X48922832Y-16503450D01*
X49101983Y-16539085D01*
X49101983Y-16539085D01*
G37*
G36*
X33861983Y-16539085D02*
G01*
X34030740Y-16608986D01*
X34182618Y-16710468D01*
X34311782Y-16839632D01*
X34413264Y-16991510D01*
X34483165Y-17160267D01*
X34518800Y-17339418D01*
X34518800Y-17522082D01*
X34483165Y-17701233D01*
X34413264Y-17869990D01*
X34311782Y-18021868D01*
X34182618Y-18151032D01*
X34030740Y-18252514D01*
X33861983Y-18322415D01*
X33682832Y-18358050D01*
X33500168Y-18358050D01*
X33321017Y-18322415D01*
X33152260Y-18252514D01*
X33000382Y-18151032D01*
X32871218Y-18021868D01*
X32769736Y-17869990D01*
X32699835Y-17701233D01*
X32664200Y-17522082D01*
X32664200Y-17339418D01*
X32699835Y-17160267D01*
X32769736Y-16991510D01*
X32871218Y-16839632D01*
X33000382Y-16710468D01*
X33152260Y-16608986D01*
X33321017Y-16539085D01*
X33500168Y-16503450D01*
X33682832Y-16503450D01*
X33861983Y-16539085D01*
X33861983Y-16539085D01*
G37*
G36*
X52171800Y-17088050D02*
G01*
X50317200Y-17088050D01*
X50317200Y-15233450D01*
X52171800Y-15233450D01*
X52171800Y-17088050D01*
X52171800Y-17088050D01*
G37*
G36*
X36274983Y-15269085D02*
G01*
X36443740Y-15338986D01*
X36595618Y-15440468D01*
X36724782Y-15569632D01*
X36826264Y-15721510D01*
X36896165Y-15890267D01*
X36931800Y-16069418D01*
X36931800Y-16252082D01*
X36896165Y-16431233D01*
X36826264Y-16599990D01*
X36724782Y-16751868D01*
X36595618Y-16881032D01*
X36443740Y-16982514D01*
X36274983Y-17052415D01*
X36095832Y-17088050D01*
X35913168Y-17088050D01*
X35734017Y-17052415D01*
X35565260Y-16982514D01*
X35413382Y-16881032D01*
X35284218Y-16751868D01*
X35182736Y-16599990D01*
X35112835Y-16431233D01*
X35077200Y-16252082D01*
X35077200Y-16069418D01*
X35112835Y-15890267D01*
X35182736Y-15721510D01*
X35284218Y-15569632D01*
X35413382Y-15440468D01*
X35565260Y-15338986D01*
X35734017Y-15269085D01*
X35913168Y-15233450D01*
X36095832Y-15233450D01*
X36274983Y-15269085D01*
X36274983Y-15269085D01*
G37*
G36*
X49101983Y-13999085D02*
G01*
X49270740Y-14068986D01*
X49422618Y-14170468D01*
X49551782Y-14299632D01*
X49653264Y-14451510D01*
X49723165Y-14620267D01*
X49758800Y-14799418D01*
X49758800Y-14982082D01*
X49723165Y-15161233D01*
X49653264Y-15329990D01*
X49551782Y-15481868D01*
X49422618Y-15611032D01*
X49270740Y-15712514D01*
X49101983Y-15782415D01*
X48922832Y-15818050D01*
X48740168Y-15818050D01*
X48561017Y-15782415D01*
X48392260Y-15712514D01*
X48240382Y-15611032D01*
X48111218Y-15481868D01*
X48009736Y-15329990D01*
X47939835Y-15161233D01*
X47904200Y-14982082D01*
X47904200Y-14799418D01*
X47939835Y-14620267D01*
X48009736Y-14451510D01*
X48111218Y-14299632D01*
X48240382Y-14170468D01*
X48392260Y-14068986D01*
X48561017Y-13999085D01*
X48740168Y-13963450D01*
X48922832Y-13963450D01*
X49101983Y-13999085D01*
X49101983Y-13999085D01*
G37*
G36*
X34518800Y-15818050D02*
G01*
X32664200Y-15818050D01*
X32664200Y-13963450D01*
X34518800Y-13963450D01*
X34518800Y-15818050D01*
X34518800Y-15818050D01*
G37*
M02*
