M48
; DRILL file {KiCad (5.1.4-0)} date Thursday, February 04, 2021 at 12:36:43 AM
; FORMAT={-:-/ absolute / inch / decimal}
; #@! TF.CreationDate,2021-02-04T00:36:43-05:00
; #@! TF.GenerationSoftware,Kicad,Pcbnew,(5.1.4-0)
; #@! TF.FileFunction,NonPlated,1,2,NPTH
FMAT,2
INCH
T1C0.0472
T2C0.0689
T3C0.1570
%
G90
G05
T1
X4.7654Y-2.5311
X4.7654Y-2.6
X5.0409Y-2.5311
X5.0409Y-2.6
T2
X3.1125Y-2.245
X3.5125Y-2.245
X4.05Y-4.6825
X4.45Y-4.6825
X3.1125Y-3.745
X3.5125Y-3.745
X3.3Y-4.6825
X3.7Y-4.6825
X3.1125Y-2.995
X3.5125Y-2.995
X3.8625Y-3.9325
X4.2625Y-3.9325
X4.9875Y-5.4325
X5.3875Y-5.4325
X3.8625Y-2.4325
X4.2625Y-2.4325
X1.6125Y-2.995
X3.8625Y-3.1825
X2.3625Y-3.5575
X2.7625Y-3.5575
X0.8625Y-3.5575
X1.2625Y-3.5575
X2.3625Y-1.3075
X2.7625Y-1.3075
X4.6375Y-5.4325
X2.3625Y-2.0575
X2.0125Y-2.995
X4.2375Y-5.4325
X4.6125Y-3.1825
X5.0125Y-3.1825
X4.2625Y-3.1825
X1.6125Y-2.245
X2.0125Y-2.245
X4.8Y-4.6825
X5.2Y-4.6825
X2.7625Y-2.0575
X2.3625Y-2.8075
X2.7625Y-2.8075
X3.1125Y-1.495
X3.5125Y-1.495
T3
X4.4375Y-5.4325
X4.0625Y-3.1825
X1.8125Y-2.245
X5.0Y-4.6825
X2.5625Y-2.8075
X1.8125Y-2.995
X4.8125Y-3.1825
X2.5625Y-3.5575
X1.0625Y-3.5575
X2.5625Y-1.3075
X2.5625Y-2.0575
X3.3125Y-1.495
X3.3125Y-2.245
X4.25Y-4.6825
X3.3125Y-3.745
X3.5Y-4.6825
X3.3125Y-2.995
X4.0625Y-3.9325
X5.1875Y-5.4325
X4.0625Y-2.4325
T0
M30
