M48
; DRILL file {KiCad (5.1.4-0)} date Sunday, February 07, 2021 at 11:01:03 PM
; FORMAT={-:-/ absolute / inch / decimal}
; #@! TF.CreationDate,2021-02-07T23:01:03-05:00
; #@! TF.GenerationSoftware,Kicad,Pcbnew,(5.1.4-0)
; #@! TF.FileFunction,Plated,1,2,PTH
FMAT,2
INCH
T1C0.0157
T2C0.0394
T3C0.0430
T4C0.0579
T5C0.2559
%
G90
G05
T1
X1.6875Y-3.0825
X1.6925Y-3.2431
X2.2325Y-3.3025
X2.2331Y-3.661
X2.2725Y-3.3025
X2.2725Y-3.661
X2.4375Y-3.0504
X2.7625Y-3.4575
X3.0175Y-3.7053
X3.0575Y-3.6775
X3.0775Y-3.3325
X3.2375Y-3.1075
X3.2907Y-4.2233
X3.2941Y-4.1841
X3.3346Y-4.1304
X3.6525Y-1.1325
X3.6775Y-4.7725
X3.7175Y-1.8625
X3.9375Y-2.5425
X4.0667Y-4.1933
X4.0996Y-4.1454
X4.3825Y-4.6225
X4.4125Y-3.3875
X4.4908Y-4.1169
X4.5125Y-4.6225
X4.8825Y-4.1275
X4.9937Y-2.6012
X5.0777Y-2.7512
X5.0975Y-4.5975
X5.1063Y-2.6513
X5.1725Y-4.6725
T3
X4.5825Y-2.2512
X4.5825Y-2.3512
X4.5825Y-2.4512
X4.5825Y-2.5513
X4.5825Y-2.6513
X4.5825Y-2.7512
X4.5825Y-2.8512
X4.5825Y-2.9512
X4.5825Y-3.0513
X4.5825Y-3.1513
X4.5825Y-3.2512
X4.5825Y-3.3512
X4.6775Y-2.3013
X4.6775Y-2.4013
X4.6775Y-2.5012
X4.6775Y-2.6012
X4.6775Y-2.7012
X4.6775Y-2.8013
X4.6775Y-2.9013
X4.6775Y-3.0012
X4.6775Y-3.1012
X4.6775Y-3.2012
X4.6775Y-3.3013
X4.6775Y-3.4013
X5.1825Y-2.2512
X5.1825Y-2.3512
X5.1825Y-2.4512
X5.1825Y-2.5513
X5.1825Y-2.6513
X5.1825Y-2.7512
X5.1825Y-2.8512
X5.1825Y-2.9512
X5.1825Y-3.0513
X5.1825Y-3.1513
X5.1825Y-3.2512
X5.1825Y-3.3512
X5.2775Y-2.3013
X5.2775Y-2.4013
X5.2775Y-2.5012
X5.2775Y-2.6012
X5.2775Y-2.7012
X5.2775Y-2.8013
X5.2775Y-2.9013
X5.2775Y-3.0012
X5.2775Y-3.1012
X5.2775Y-3.2012
X5.2775Y-3.3013
X5.2775Y-3.4013
T4
X3.1875Y-3.6113
X3.2375Y-3.5112
X3.4375Y-3.5112
X3.4875Y-3.6113
X4.3125Y-5.1113
X4.3625Y-5.0112
X4.5625Y-5.0112
X4.6125Y-5.1113
X3.9375Y-2.1113
X3.9875Y-2.0112
X3.9375Y-3.6113
X3.9875Y-3.5112
X4.1875Y-3.5112
X4.2375Y-3.6113
X4.1875Y-2.0112
X4.2375Y-2.1113
X3.425Y-4.2612
X3.625Y-4.2612
X3.675Y-4.3613
X4.125Y-4.3613
X2.4875Y-0.8862
X2.7375Y-0.9862
X2.4375Y-1.7363
X3.375Y-4.3613
X4.175Y-4.2612
X4.375Y-4.2612
X4.425Y-4.3613
X2.6875Y-0.8862
X2.4875Y-1.6362
X2.6875Y-1.6362
X2.7375Y-1.7363
X0.9375Y-3.4287
X0.9875Y-3.3287
X1.1875Y-3.3287
X1.2375Y-3.4287
X2.4375Y-0.9862
X5.0625Y-5.1113
X5.1125Y-5.0112
X2.4375Y-2.4863
X2.4875Y-2.3862
X2.6875Y-2.3862
X2.7375Y-2.4863
X3.1875Y-2.8613
X3.2375Y-2.7612
X3.4375Y-2.7612
X3.4875Y-2.8613
X2.4375Y-3.2675
X1.9875Y-2.8613
X1.6875Y-2.8613
X1.7375Y-2.7612
X1.9375Y-2.7612
X2.4875Y-3.1675
X2.6875Y-3.1675
X2.7375Y-3.2675
X5.3125Y-5.0112
X5.3625Y-5.1113
X3.9875Y-2.7612
X4.1875Y-2.7612
X4.2375Y-2.8613
X3.1875Y-2.1113
X3.2375Y-2.0112
X3.4375Y-2.0112
X3.4875Y-2.1113
X3.9375Y-2.8613
X3.1875Y-1.3613
X3.2375Y-1.2612
X3.4375Y-1.2612
X3.4875Y-1.3613
X1.6875Y-2.1113
X1.7375Y-2.0112
X1.9375Y-2.0112
X1.9875Y-2.1113
X4.875Y-4.3613
X4.925Y-4.2612
X5.125Y-4.2612
X5.175Y-4.3613
T5
X2.785Y-4.18
X4.085Y-1.38
X1.735Y-3.585
X4.835Y-3.875
X5.085Y-5.73
X1.085Y-1.375
T2
G00X5.1988Y-3.8961
M15
G01X5.1796Y-3.8917
M16
G05
G00X5.2205Y-3.8022
M15
G01X5.2013Y-3.7977
M16
G05
G00X5.2409Y-3.9766
M15
G01X5.2217Y-3.9721
M16
G05
G00X5.2936Y-3.7483
M15
G01X5.2744Y-3.7439
M16
G05
G00X5.3943Y-4.012
M15
G01X5.3751Y-4.0075
M16
G05
G00X5.447Y-3.7837
M15
G01X5.4278Y-3.7793
M16
G05
G00X5.5094Y-4.0385
M15
G01X5.4902Y-4.0341
M16
G05
G00X5.5621Y-3.8103
M15
G01X5.5429Y-3.8059
M16
G05
T0
M30
