M48
; DRILL file {KiCad (5.1.4-0)} date Thursday, February 04, 2021 at 12:36:43 AM
; FORMAT={-:-/ absolute / inch / decimal}
; #@! TF.CreationDate,2021-02-04T00:36:43-05:00
; #@! TF.GenerationSoftware,Kicad,Pcbnew,(5.1.4-0)
; #@! TF.FileFunction,Plated,1,2,PTH
FMAT,2
INCH
T1C0.0157
T2C0.0394
T3C0.0430
T4C0.0579
%
G90
G05
T1
X1.4312Y-3.2512
X1.925Y-2.435
X1.925Y-3.235
X2.9062Y-1.1875
X2.9062Y-1.7812
X3.0625Y-1.0938
X3.44Y-3.085
X3.44Y-3.92
X3.49Y-2.43
X3.5312Y-1.75
X3.9062Y-4.5625
X3.9062Y-4.8438
X4.065Y-2.205
X4.2Y-2.69
X4.2302Y-1.375
X4.2812Y-4.25
X4.29Y-2.51
X4.3438Y-2.8125
X4.4062Y-3.5625
X4.745Y-4.015
X4.755Y-2.285
X4.8738Y-1.6062
X4.9363Y-1.5062
X5.0Y-2.285
T3
X4.5438Y-1.1062
X4.5438Y-1.2063
X4.5438Y-1.3062
X4.5438Y-1.4062
X4.5438Y-1.5062
X4.5438Y-1.6062
X4.5438Y-1.7063
X4.5438Y-1.8062
X4.5438Y-1.9062
X4.5438Y-2.0063
X4.5438Y-2.1062
X4.5438Y-2.2062
X4.6387Y-1.1562
X4.6387Y-1.2562
X4.6387Y-1.3562
X4.6387Y-1.4563
X4.6387Y-1.5562
X4.6387Y-1.6562
X4.6387Y-1.7562
X4.6387Y-1.8562
X4.6387Y-1.9563
X4.6387Y-2.0562
X4.6387Y-2.1562
X4.6387Y-2.2563
X5.1437Y-1.1062
X5.1437Y-1.2063
X5.1437Y-1.3062
X5.1437Y-1.4062
X5.1437Y-1.5062
X5.1437Y-1.6062
X5.1437Y-1.7063
X5.1437Y-1.8062
X5.1437Y-1.9062
X5.1437Y-2.0063
X5.1437Y-2.1062
X5.1437Y-2.2062
X5.2387Y-1.1562
X5.2387Y-1.2562
X5.2387Y-1.3562
X5.2387Y-1.4563
X5.2387Y-1.5562
X5.2387Y-1.6562
X5.2387Y-1.7562
X5.2387Y-1.8562
X5.2387Y-1.9563
X5.2387Y-2.0562
X5.2387Y-2.1562
X5.2387Y-2.2563
T4
X4.2875Y-5.3325
X3.1625Y-2.145
X3.2125Y-2.045
X3.4125Y-2.045
X3.4625Y-2.145
X4.1Y-4.5825
X4.15Y-4.4825
X4.35Y-4.4825
X3.2125Y-3.545
X3.1625Y-3.645
X3.4125Y-3.545
X3.4625Y-3.645
X4.4Y-4.5825
X3.35Y-4.5825
X3.4Y-4.4825
X3.6Y-4.4825
X3.65Y-4.5825
X5.0375Y-5.3325
X5.0875Y-5.2325
X5.2875Y-5.2325
X5.3375Y-5.3325
X3.9125Y-3.8325
X3.9625Y-3.7325
X4.1625Y-3.7325
X4.2125Y-3.8325
X2.4125Y-3.4575
X2.6625Y-3.3575
X2.7125Y-3.4575
X3.1625Y-2.895
X3.2125Y-2.795
X3.4125Y-2.795
X3.4625Y-2.895
X2.4625Y-3.3575
X4.3375Y-5.2325
X3.9125Y-2.3325
X3.9625Y-2.2325
X4.1625Y-2.2325
X4.2125Y-2.3325
X4.6625Y-3.0825
X4.7125Y-2.9825
X4.9125Y-2.9825
X4.9625Y-3.0825
X3.9125Y-3.0825
X3.9625Y-2.9825
X4.1625Y-2.9825
X4.2125Y-3.0825
X2.4125Y-1.2075
X1.6625Y-2.895
X1.7125Y-2.795
X4.5375Y-5.2325
X4.5875Y-5.3325
X0.9125Y-3.4575
X1.6625Y-2.145
X1.7125Y-2.045
X1.9125Y-2.045
X4.85Y-4.5825
X4.9Y-4.4825
X5.15Y-4.5825
X2.4125Y-2.7075
X2.4625Y-2.6075
X2.6625Y-2.6075
X2.7125Y-2.7075
X1.9125Y-2.795
X1.9625Y-2.895
X0.9625Y-3.3575
X5.1Y-4.4825
X1.1625Y-3.3575
X1.2125Y-3.4575
X2.4625Y-1.1075
X2.6625Y-1.1075
X2.7125Y-1.2075
X1.9625Y-2.145
X2.4125Y-1.9575
X2.4625Y-1.8575
X2.6625Y-1.8575
X2.7125Y-1.9575
X3.1625Y-1.395
X3.2125Y-1.295
X3.4125Y-1.295
X3.4625Y-1.395
T2
G00X4.6453Y-2.5173
M15
G01X4.6256Y-2.5173
M16
G05
G00X4.6453Y-2.6138
M15
G01X4.6256Y-2.6138
M16
G05
G00X4.7043Y-2.4484
M15
G01X4.6846Y-2.4484
M16
G05
G00X4.7043Y-2.6827
M15
G01X4.6846Y-2.6827
M16
G05
G00X4.8618Y-2.4484
M15
G01X4.8421Y-2.4484
M16
G05
G00X4.8618Y-2.6827
M15
G01X4.8421Y-2.6827
M16
G05
G00X4.9799Y-2.4484
M15
G01X4.9602Y-2.4484
M16
G05
G00X4.9799Y-2.6827
M15
G01X4.9602Y-2.6827
M16
G05
T0
M30
