M48
; DRILL file {KiCad (5.1.4-0)} date Thursday, March 11, 2021 at 10:57:57 PM
; FORMAT={-:-/ absolute / inch / decimal}
; #@! TF.CreationDate,2021-03-11T22:57:57-05:00
; #@! TF.GenerationSoftware,Kicad,Pcbnew,(5.1.4-0)
; #@! TF.FileFunction,NonPlated,1,2,NPTH
FMAT,2
INCH
T1C0.0472
T2C0.0689
T3C0.1570
%
G90
G05
T1
X5.3189Y-3.9097
X5.3344Y-3.8426
X5.5875Y-3.9717
X5.603Y-3.9046
T2
X3.325Y-4.4612
X3.725Y-4.4612
X3.1375Y-2.2113
X3.5375Y-2.2113
X4.075Y-4.4612
X4.475Y-4.4612
X1.6375Y-2.2113
X5.0125Y-5.2112
X5.4125Y-5.2112
X2.0375Y-2.2113
X3.8875Y-2.9612
X4.2875Y-2.9612
X2.3875Y-1.0862
X2.7875Y-1.0862
X2.3875Y-2.5863
X2.7875Y-2.5863
X3.1375Y-3.7112
X3.5375Y-3.7112
X3.8875Y-2.2113
X4.2875Y-2.2113
X0.8875Y-3.5288
X1.2875Y-3.5288
X4.825Y-4.4612
X5.225Y-4.4612
X3.1375Y-2.9612
X3.5375Y-2.9612
X2.3875Y-1.8362
X2.7875Y-1.8362
X4.2625Y-5.2112
X4.6625Y-5.2112
X3.8875Y-3.7112
X4.2875Y-3.7112
X1.6375Y-2.9612
X2.0375Y-2.9612
X3.1375Y-1.4612
X3.5375Y-1.4612
X2.3875Y-3.3675
X2.7875Y-3.3675
T3
X2.5875Y-1.0862
X3.3375Y-3.7112
X1.0875Y-3.5288
X4.0875Y-2.2113
X5.025Y-4.4612
X3.3375Y-2.9612
X2.5875Y-1.8362
X4.4625Y-5.2112
X4.0875Y-3.7112
X1.8375Y-2.9612
X3.3375Y-1.4612
X2.5875Y-3.3675
X5.2125Y-5.2112
X3.525Y-4.4612
X3.3375Y-2.2113
X1.8375Y-2.2113
X4.0875Y-2.9612
X2.5875Y-2.5863
X4.275Y-4.4612
T0
M30
