G04 #@! TF.GenerationSoftware,KiCad,Pcbnew,(5.1.4-0)*
G04 #@! TF.CreationDate,2021-02-04T00:36:41-05:00*
G04 #@! TF.ProjectId,mxnatee,6d786e61-7465-4652-9e6b-696361645f70,rev?*
G04 #@! TF.SameCoordinates,Original*
G04 #@! TF.FileFunction,Legend,Top*
G04 #@! TF.FilePolarity,Positive*
%FSLAX46Y46*%
G04 Gerber Fmt 4.6, Leading zero omitted, Abs format (unit mm)*
G04 Created by KiCad (PCBNEW (5.1.4-0)) date 2021-02-04 00:36:41*
%MOMM*%
%LPD*%
G04 APERTURE LIST*
%ADD10C,0.010000*%
%ADD11C,0.150000*%
%ADD12C,0.381000*%
%ADD13C,0.203200*%
G04 APERTURE END LIST*
D10*
G36*
X102882648Y-40430213D02*
G01*
X103420451Y-40539532D01*
X104171030Y-40726860D01*
X105067900Y-40976144D01*
X105592605Y-41131766D01*
X106765667Y-41487131D01*
X108042497Y-41873600D01*
X109280067Y-42247900D01*
X110335349Y-42566760D01*
X110471857Y-42607972D01*
X111466308Y-42913784D01*
X112483125Y-43235979D01*
X113391095Y-43532492D01*
X113964357Y-43727660D01*
X115279715Y-44190175D01*
X115279715Y-45402944D01*
X115112371Y-47027610D01*
X114634176Y-48619009D01*
X113880883Y-50084342D01*
X113068115Y-51142938D01*
X112529718Y-51647006D01*
X112089565Y-51900441D01*
X111945536Y-51921747D01*
X111645996Y-51886475D01*
X111054951Y-51801888D01*
X110238867Y-51678037D01*
X109264207Y-51524971D01*
X108385429Y-51383429D01*
X107125266Y-51178767D01*
X105773385Y-50960155D01*
X104459293Y-50748475D01*
X103312501Y-50564612D01*
X102865340Y-50493300D01*
X101967741Y-50338665D01*
X101190094Y-50182585D01*
X100608332Y-50041871D01*
X100298388Y-49933339D01*
X100279983Y-49920832D01*
X100055090Y-49571839D01*
X100083961Y-49492527D01*
X101157337Y-49492527D01*
X101356276Y-49547580D01*
X101852819Y-49645900D01*
X102585798Y-49776471D01*
X103494041Y-49928276D01*
X104224306Y-50044876D01*
X105423004Y-50234014D01*
X106684925Y-50435362D01*
X107884973Y-50628818D01*
X108898055Y-50794286D01*
X109201857Y-50844623D01*
X110276534Y-51021039D01*
X111056475Y-51132357D01*
X111604876Y-51173068D01*
X111984931Y-51137667D01*
X112259835Y-51020645D01*
X112492783Y-50816496D01*
X112732705Y-50536928D01*
X113115559Y-49999938D01*
X113535657Y-49298529D01*
X113835522Y-48719964D01*
X114122560Y-48008770D01*
X114377486Y-47187905D01*
X114578559Y-46355281D01*
X114704041Y-45608810D01*
X114732191Y-45046402D01*
X114695960Y-44844691D01*
X114485613Y-44682344D01*
X113992164Y-44455219D01*
X113283237Y-44191577D01*
X112623369Y-43978517D01*
X111599093Y-43663209D01*
X110403286Y-43289199D01*
X109209189Y-42910911D01*
X108476143Y-42675630D01*
X107068492Y-42227495D01*
X105827650Y-41846229D01*
X104788729Y-41541782D01*
X103986841Y-41324099D01*
X103457099Y-41203127D01*
X103234614Y-41188815D01*
X103232950Y-41190241D01*
X103240838Y-41391407D01*
X103348054Y-41815300D01*
X103433601Y-42082705D01*
X103595908Y-42783220D01*
X103651678Y-43668304D01*
X103630433Y-44472294D01*
X103462021Y-45896906D01*
X103102245Y-47059539D01*
X102526151Y-48020665D01*
X101891392Y-48686319D01*
X101472915Y-49078823D01*
X101209535Y-49373443D01*
X101157337Y-49492527D01*
X100083961Y-49492527D01*
X100187796Y-49207285D01*
X100538643Y-48920936D01*
X101551460Y-48123906D01*
X102292186Y-47139823D01*
X102782216Y-45931383D01*
X103031602Y-44574546D01*
X103029191Y-43354937D01*
X102849770Y-42508714D01*
X102603156Y-41638098D01*
X102468322Y-41051220D01*
X102438873Y-40688742D01*
X102508412Y-40491328D01*
X102624105Y-40414957D01*
X102882648Y-40430213D01*
X102882648Y-40430213D01*
G37*
X102882648Y-40430213D02*
X103420451Y-40539532D01*
X104171030Y-40726860D01*
X105067900Y-40976144D01*
X105592605Y-41131766D01*
X106765667Y-41487131D01*
X108042497Y-41873600D01*
X109280067Y-42247900D01*
X110335349Y-42566760D01*
X110471857Y-42607972D01*
X111466308Y-42913784D01*
X112483125Y-43235979D01*
X113391095Y-43532492D01*
X113964357Y-43727660D01*
X115279715Y-44190175D01*
X115279715Y-45402944D01*
X115112371Y-47027610D01*
X114634176Y-48619009D01*
X113880883Y-50084342D01*
X113068115Y-51142938D01*
X112529718Y-51647006D01*
X112089565Y-51900441D01*
X111945536Y-51921747D01*
X111645996Y-51886475D01*
X111054951Y-51801888D01*
X110238867Y-51678037D01*
X109264207Y-51524971D01*
X108385429Y-51383429D01*
X107125266Y-51178767D01*
X105773385Y-50960155D01*
X104459293Y-50748475D01*
X103312501Y-50564612D01*
X102865340Y-50493300D01*
X101967741Y-50338665D01*
X101190094Y-50182585D01*
X100608332Y-50041871D01*
X100298388Y-49933339D01*
X100279983Y-49920832D01*
X100055090Y-49571839D01*
X100083961Y-49492527D01*
X101157337Y-49492527D01*
X101356276Y-49547580D01*
X101852819Y-49645900D01*
X102585798Y-49776471D01*
X103494041Y-49928276D01*
X104224306Y-50044876D01*
X105423004Y-50234014D01*
X106684925Y-50435362D01*
X107884973Y-50628818D01*
X108898055Y-50794286D01*
X109201857Y-50844623D01*
X110276534Y-51021039D01*
X111056475Y-51132357D01*
X111604876Y-51173068D01*
X111984931Y-51137667D01*
X112259835Y-51020645D01*
X112492783Y-50816496D01*
X112732705Y-50536928D01*
X113115559Y-49999938D01*
X113535657Y-49298529D01*
X113835522Y-48719964D01*
X114122560Y-48008770D01*
X114377486Y-47187905D01*
X114578559Y-46355281D01*
X114704041Y-45608810D01*
X114732191Y-45046402D01*
X114695960Y-44844691D01*
X114485613Y-44682344D01*
X113992164Y-44455219D01*
X113283237Y-44191577D01*
X112623369Y-43978517D01*
X111599093Y-43663209D01*
X110403286Y-43289199D01*
X109209189Y-42910911D01*
X108476143Y-42675630D01*
X107068492Y-42227495D01*
X105827650Y-41846229D01*
X104788729Y-41541782D01*
X103986841Y-41324099D01*
X103457099Y-41203127D01*
X103234614Y-41188815D01*
X103232950Y-41190241D01*
X103240838Y-41391407D01*
X103348054Y-41815300D01*
X103433601Y-42082705D01*
X103595908Y-42783220D01*
X103651678Y-43668304D01*
X103630433Y-44472294D01*
X103462021Y-45896906D01*
X103102245Y-47059539D01*
X102526151Y-48020665D01*
X101891392Y-48686319D01*
X101472915Y-49078823D01*
X101209535Y-49373443D01*
X101157337Y-49492527D01*
X100083961Y-49492527D01*
X100187796Y-49207285D01*
X100538643Y-48920936D01*
X101551460Y-48123906D01*
X102292186Y-47139823D01*
X102782216Y-45931383D01*
X103031602Y-44574546D01*
X103029191Y-43354937D01*
X102849770Y-42508714D01*
X102603156Y-41638098D01*
X102468322Y-41051220D01*
X102438873Y-40688742D01*
X102508412Y-40491328D01*
X102624105Y-40414957D01*
X102882648Y-40430213D01*
G36*
X45646514Y-53788715D02*
G01*
X45993212Y-53975923D01*
X46131218Y-54329445D01*
X46077372Y-54731341D01*
X45848512Y-55063670D01*
X45461474Y-55208489D01*
X45443785Y-55208714D01*
X45049007Y-55086946D01*
X44921714Y-54991000D01*
X44710047Y-54583037D01*
X44788191Y-54178882D01*
X45096014Y-53878282D01*
X45573384Y-53780983D01*
X45646514Y-53788715D01*
X45646514Y-53788715D01*
G37*
X45646514Y-53788715D02*
X45993212Y-53975923D01*
X46131218Y-54329445D01*
X46077372Y-54731341D01*
X45848512Y-55063670D01*
X45461474Y-55208489D01*
X45443785Y-55208714D01*
X45049007Y-55086946D01*
X44921714Y-54991000D01*
X44710047Y-54583037D01*
X44788191Y-54178882D01*
X45096014Y-53878282D01*
X45573384Y-53780983D01*
X45646514Y-53788715D01*
G36*
X61905899Y-54738836D02*
G01*
X62388867Y-55097148D01*
X62401533Y-55109753D01*
X62774824Y-55671396D01*
X62799329Y-56229221D01*
X62475938Y-56736512D01*
X62368819Y-56828403D01*
X61907798Y-57130261D01*
X61539481Y-57168530D01*
X61118765Y-56953692D01*
X61072941Y-56921998D01*
X60756020Y-56501552D01*
X60665258Y-55933568D01*
X60803606Y-55356592D01*
X61032572Y-55027285D01*
X61476895Y-54716939D01*
X61905899Y-54738836D01*
X61905899Y-54738836D01*
G37*
X61905899Y-54738836D02*
X62388867Y-55097148D01*
X62401533Y-55109753D01*
X62774824Y-55671396D01*
X62799329Y-56229221D01*
X62475938Y-56736512D01*
X62368819Y-56828403D01*
X61907798Y-57130261D01*
X61539481Y-57168530D01*
X61118765Y-56953692D01*
X61072941Y-56921998D01*
X60756020Y-56501552D01*
X60665258Y-55933568D01*
X60803606Y-55356592D01*
X61032572Y-55027285D01*
X61476895Y-54716939D01*
X61905899Y-54738836D01*
G36*
X49147245Y-62887124D02*
G01*
X49654440Y-63479809D01*
X49696876Y-63554428D01*
X49737837Y-63692263D01*
X49554941Y-63570493D01*
X49483401Y-63509071D01*
X48973117Y-63268428D01*
X48283183Y-63202175D01*
X47553554Y-63312889D01*
X47153286Y-63466162D01*
X46609000Y-63738517D01*
X47201505Y-63192901D01*
X47886991Y-62738775D01*
X48546833Y-62638481D01*
X49147245Y-62887124D01*
X49147245Y-62887124D01*
G37*
X49147245Y-62887124D02*
X49654440Y-63479809D01*
X49696876Y-63554428D01*
X49737837Y-63692263D01*
X49554941Y-63570493D01*
X49483401Y-63509071D01*
X48973117Y-63268428D01*
X48283183Y-63202175D01*
X47553554Y-63312889D01*
X47153286Y-63466162D01*
X46609000Y-63738517D01*
X47201505Y-63192901D01*
X47886991Y-62738775D01*
X48546833Y-62638481D01*
X49147245Y-62887124D01*
G36*
X43661671Y-62829716D02*
G01*
X43790474Y-62998215D01*
X43954912Y-63375789D01*
X43941989Y-63526766D01*
X43760572Y-63409285D01*
X43327025Y-63204108D01*
X42801351Y-63321667D01*
X42309999Y-63679086D01*
X41991124Y-63954894D01*
X41813983Y-64050440D01*
X41801143Y-64032934D01*
X41908909Y-63679566D01*
X42163032Y-63241529D01*
X42459747Y-62879013D01*
X42625700Y-62759985D01*
X43223680Y-62653260D01*
X43661671Y-62829716D01*
X43661671Y-62829716D01*
G37*
X43661671Y-62829716D02*
X43790474Y-62998215D01*
X43954912Y-63375789D01*
X43941989Y-63526766D01*
X43760572Y-63409285D01*
X43327025Y-63204108D01*
X42801351Y-63321667D01*
X42309999Y-63679086D01*
X41991124Y-63954894D01*
X41813983Y-64050440D01*
X41801143Y-64032934D01*
X41908909Y-63679566D01*
X42163032Y-63241529D01*
X42459747Y-62879013D01*
X42625700Y-62759985D01*
X43223680Y-62653260D01*
X43661671Y-62829716D01*
G36*
X44810747Y-67167238D02*
G01*
X44849557Y-67572930D01*
X44871465Y-68269005D01*
X44879860Y-69291278D01*
X44879912Y-69314785D01*
X44877084Y-70236319D01*
X44865562Y-71012879D01*
X44847016Y-71580124D01*
X44823116Y-71873710D01*
X44812810Y-71900143D01*
X44733815Y-71740324D01*
X44609025Y-71329993D01*
X44518025Y-70974046D01*
X44413412Y-70287287D01*
X44373600Y-69457256D01*
X44394183Y-68597549D01*
X44470758Y-67821766D01*
X44598920Y-67243504D01*
X44668873Y-67083729D01*
X44751649Y-67016110D01*
X44810747Y-67167238D01*
X44810747Y-67167238D01*
G37*
X44810747Y-67167238D02*
X44849557Y-67572930D01*
X44871465Y-68269005D01*
X44879860Y-69291278D01*
X44879912Y-69314785D01*
X44877084Y-70236319D01*
X44865562Y-71012879D01*
X44847016Y-71580124D01*
X44823116Y-71873710D01*
X44812810Y-71900143D01*
X44733815Y-71740324D01*
X44609025Y-71329993D01*
X44518025Y-70974046D01*
X44413412Y-70287287D01*
X44373600Y-69457256D01*
X44394183Y-68597549D01*
X44470758Y-67821766D01*
X44598920Y-67243504D01*
X44668873Y-67083729D01*
X44751649Y-67016110D01*
X44810747Y-67167238D01*
G36*
X63028286Y-76526571D02*
G01*
X62937572Y-76617285D01*
X62846857Y-76526571D01*
X62937572Y-76435857D01*
X63028286Y-76526571D01*
X63028286Y-76526571D01*
G37*
X63028286Y-76526571D02*
X62937572Y-76617285D01*
X62846857Y-76526571D01*
X62937572Y-76435857D01*
X63028286Y-76526571D01*
G36*
X84411282Y-28751984D02*
G01*
X85058466Y-28772401D01*
X86154800Y-28825517D01*
X87084295Y-28905039D01*
X87965352Y-29028792D01*
X88916372Y-29214603D01*
X90055756Y-29480298D01*
X90514715Y-29593904D01*
X92175675Y-30040078D01*
X94057081Y-30598159D01*
X96047920Y-31232402D01*
X98037180Y-31907062D01*
X99913848Y-32586393D01*
X100493286Y-32806959D01*
X101897361Y-33319384D01*
X103448304Y-33835040D01*
X105054450Y-34327264D01*
X106624135Y-34769392D01*
X108065697Y-35134760D01*
X109287473Y-35396704D01*
X109564715Y-35445728D01*
X111794384Y-35980346D01*
X113808707Y-36801640D01*
X115597911Y-37901763D01*
X117152219Y-39272866D01*
X118461856Y-40907102D01*
X119517048Y-42796621D01*
X119917524Y-43757915D01*
X120462091Y-45436057D01*
X120751893Y-46926727D01*
X120795136Y-48292479D01*
X120652576Y-49362052D01*
X120324907Y-50588135D01*
X119886083Y-51554827D01*
X119283740Y-52360800D01*
X118825157Y-52805563D01*
X118388779Y-53209479D01*
X118090052Y-53523856D01*
X118001143Y-53660508D01*
X118109077Y-53855786D01*
X118391786Y-54242032D01*
X118780352Y-54726206D01*
X120857016Y-57493290D01*
X122607568Y-60415837D01*
X124036460Y-63502991D01*
X125148142Y-66763896D01*
X125689969Y-68922281D01*
X126346476Y-72279783D01*
X126817537Y-75476737D01*
X127102561Y-78489518D01*
X127200958Y-81294503D01*
X127112135Y-83868067D01*
X126835503Y-86186585D01*
X126370469Y-88226434D01*
X126187333Y-88800336D01*
X126004352Y-89479143D01*
X125841441Y-90338332D01*
X125732954Y-91195705D01*
X125730663Y-91222285D01*
X125647447Y-92058463D01*
X125527133Y-93086163D01*
X125389814Y-94138584D01*
X125321452Y-94619257D01*
X125213081Y-95459978D01*
X125145353Y-96202278D01*
X125125335Y-96751466D01*
X125145387Y-96977828D01*
X125218771Y-97159474D01*
X125374875Y-97432415D01*
X125634119Y-97824924D01*
X126016921Y-98365273D01*
X126543700Y-99081736D01*
X127234875Y-100002586D01*
X128110866Y-101156096D01*
X129058050Y-102395521D01*
X129497237Y-102927158D01*
X130150375Y-103661796D01*
X130970920Y-104549837D01*
X131912327Y-105541682D01*
X132928054Y-106587730D01*
X133971555Y-107638383D01*
X134066060Y-107732285D01*
X135182707Y-108844058D01*
X136071974Y-109740792D01*
X136766684Y-110460349D01*
X137299659Y-111040592D01*
X137703722Y-111519384D01*
X138011697Y-111934589D01*
X138256406Y-112324070D01*
X138470672Y-112725689D01*
X138568755Y-112926408D01*
X139165468Y-114367783D01*
X139479288Y-115652993D01*
X139513639Y-116848780D01*
X139271946Y-118021884D01*
X138880054Y-118993232D01*
X138398277Y-119817690D01*
X137740050Y-120621215D01*
X136861059Y-121447382D01*
X135716993Y-122339766D01*
X134874000Y-122932532D01*
X132661263Y-124334498D01*
X130521600Y-125455674D01*
X128360236Y-126336974D01*
X126082397Y-127019310D01*
X124658503Y-127342477D01*
X124019212Y-127436038D01*
X123104539Y-127521781D01*
X122001933Y-127596181D01*
X120798844Y-127655710D01*
X119582721Y-127696842D01*
X118441012Y-127716052D01*
X117461168Y-127709813D01*
X116730639Y-127674599D01*
X116640429Y-127665792D01*
X114852920Y-127405046D01*
X113224541Y-127010104D01*
X111653356Y-126444969D01*
X110037426Y-125673645D01*
X108476143Y-124782842D01*
X106996558Y-123817972D01*
X105534447Y-122736961D01*
X104140114Y-121586259D01*
X102863858Y-120412317D01*
X101755981Y-119261583D01*
X100866785Y-118180507D01*
X100246571Y-117215539D01*
X100214809Y-117154092D01*
X99944052Y-116604613D01*
X99777588Y-116177399D01*
X99697264Y-115760010D01*
X99684926Y-115240002D01*
X99722422Y-114504934D01*
X99741069Y-114219711D01*
X99815280Y-113229846D01*
X99908831Y-112166116D01*
X100004605Y-111219446D01*
X100029886Y-110998000D01*
X100083362Y-110361952D01*
X100131053Y-109446150D01*
X100170108Y-108333685D01*
X100197674Y-107107649D01*
X100210898Y-105851133D01*
X100211361Y-105712097D01*
X100221143Y-101877623D01*
X99314430Y-101581052D01*
X98830217Y-101401071D01*
X98100006Y-101102724D01*
X97206630Y-100721056D01*
X96232922Y-100291115D01*
X95756840Y-100075841D01*
X94758140Y-99624815D01*
X94037605Y-99313800D01*
X93545687Y-99127018D01*
X93232837Y-99048690D01*
X93049510Y-99063039D01*
X92946156Y-99154287D01*
X92932836Y-99176559D01*
X92735664Y-99462919D01*
X92376885Y-99930111D01*
X91930082Y-100482647D01*
X91878585Y-100544697D01*
X91197438Y-101261936D01*
X90351474Y-101956943D01*
X89286345Y-102668341D01*
X87947701Y-103434753D01*
X87409713Y-103720418D01*
X86341760Y-104390521D01*
X85206206Y-105303926D01*
X84688285Y-105785409D01*
X83491205Y-106908494D01*
X82482495Y-107759662D01*
X81631618Y-108356387D01*
X80908037Y-108716143D01*
X80281217Y-108856401D01*
X79720622Y-108794636D01*
X79540456Y-108731041D01*
X78954587Y-108389362D01*
X78596738Y-107921861D01*
X78464821Y-107294283D01*
X78556747Y-106472371D01*
X78870425Y-105421867D01*
X79276401Y-104401387D01*
X79719197Y-103375028D01*
X80232001Y-102198152D01*
X80736009Y-101051182D01*
X80991289Y-100475143D01*
X81461047Y-99395384D01*
X81930916Y-98272357D01*
X82372414Y-97178290D01*
X82757059Y-96185411D01*
X83056367Y-95365949D01*
X83241858Y-94792134D01*
X83261703Y-94717560D01*
X83291483Y-94511695D01*
X83228880Y-94335243D01*
X83022016Y-94148555D01*
X82619011Y-93911979D01*
X81967986Y-93585864D01*
X81464493Y-93343978D01*
X80666195Y-92968609D01*
X79953306Y-92644271D01*
X79409440Y-92408340D01*
X79136853Y-92303470D01*
X78722314Y-92120294D01*
X78086081Y-91772446D01*
X77301567Y-91306391D01*
X76442183Y-90768592D01*
X75581342Y-90205511D01*
X74792457Y-89663612D01*
X74148939Y-89189359D01*
X73903873Y-88991474D01*
X73018066Y-88179389D01*
X72021733Y-87162936D01*
X71006087Y-86039355D01*
X70062341Y-84905886D01*
X70013286Y-84843862D01*
X69287572Y-83923479D01*
X66384715Y-83820272D01*
X64931411Y-83749717D01*
X63723617Y-83643850D01*
X62644637Y-83489110D01*
X61577775Y-83271938D01*
X61489453Y-83251461D01*
X60691990Y-83066048D01*
X60037490Y-82915667D01*
X59598666Y-82816904D01*
X59448381Y-82785857D01*
X59421915Y-82948665D01*
X59409249Y-83362823D01*
X59409851Y-83647643D01*
X59510074Y-84533865D01*
X59811584Y-85403706D01*
X60348053Y-86329129D01*
X61153151Y-87382095D01*
X61162396Y-87393180D01*
X61792145Y-88184906D01*
X62456031Y-89078720D01*
X63029740Y-89906130D01*
X63129233Y-90058963D01*
X63707212Y-90906785D01*
X64279095Y-91605079D01*
X64925792Y-92231713D01*
X65728215Y-92864556D01*
X66767278Y-93581474D01*
X66838286Y-93628448D01*
X68262986Y-94598012D01*
X69512212Y-95519539D01*
X70678548Y-96469735D01*
X71854576Y-97525309D01*
X73132879Y-98762967D01*
X73595282Y-99226789D01*
X74892095Y-100576849D01*
X75915209Y-101738328D01*
X76681824Y-102739539D01*
X77209142Y-103608793D01*
X77514363Y-104374402D01*
X77614688Y-105064678D01*
X77529065Y-105701638D01*
X77133207Y-106520539D01*
X76476764Y-107115377D01*
X75585712Y-107484685D01*
X74486023Y-107626997D01*
X73203674Y-107540848D01*
X71764637Y-107224770D01*
X70194888Y-106677297D01*
X69079464Y-106178611D01*
X67715494Y-105465603D01*
X66212533Y-104590727D01*
X64618966Y-103589378D01*
X62983179Y-102496952D01*
X61353554Y-101348846D01*
X59778477Y-100180454D01*
X58306333Y-99027173D01*
X56985506Y-97924398D01*
X55864381Y-96907525D01*
X54991342Y-96011951D01*
X54684221Y-95647743D01*
X53494092Y-93938357D01*
X52369507Y-91916381D01*
X51334036Y-89629646D01*
X50411245Y-87125982D01*
X50268655Y-86686571D01*
X50085203Y-85966601D01*
X49899088Y-84991555D01*
X49725057Y-83868794D01*
X49577861Y-82705682D01*
X49472246Y-81609580D01*
X49422962Y-80687852D01*
X49421143Y-80517077D01*
X49421143Y-79349344D01*
X49406676Y-79342500D01*
X50113278Y-79342500D01*
X50237320Y-81109535D01*
X50542696Y-83618953D01*
X51093549Y-86142393D01*
X51863709Y-88605106D01*
X52827007Y-90932343D01*
X53957274Y-93049356D01*
X54918574Y-94480712D01*
X55933626Y-95677230D01*
X57274724Y-96990616D01*
X58928262Y-98410066D01*
X60880633Y-99924774D01*
X63118229Y-101523936D01*
X65627442Y-103196747D01*
X66978271Y-104056528D01*
X68071655Y-104686669D01*
X69262901Y-105278187D01*
X70487824Y-105807925D01*
X71682238Y-106252729D01*
X72781959Y-106589443D01*
X73722800Y-106794911D01*
X74440576Y-106845977D01*
X74639715Y-106820469D01*
X75004275Y-106744150D01*
X75499651Y-106643220D01*
X75501275Y-106642893D01*
X76124458Y-106362622D01*
X76502486Y-105849186D01*
X76625934Y-105145278D01*
X76485377Y-104293589D01*
X76184170Y-103549694D01*
X75877289Y-103075480D01*
X75350401Y-102407085D01*
X74650917Y-101595587D01*
X73826248Y-100692066D01*
X72923806Y-99747599D01*
X71991002Y-98813265D01*
X71075248Y-97940144D01*
X70467086Y-97390386D01*
X69821727Y-96858204D01*
X68987346Y-96220309D01*
X68081725Y-95564730D01*
X67382800Y-95085171D01*
X66067516Y-94186420D01*
X65021714Y-93412903D01*
X64194541Y-92719415D01*
X63535143Y-92060749D01*
X62992666Y-91391700D01*
X62640543Y-90869612D01*
X62155987Y-90151139D01*
X61535124Y-89303936D01*
X60883379Y-88469884D01*
X60622487Y-88153702D01*
X59710152Y-86948939D01*
X59083795Y-85813086D01*
X58702783Y-84656972D01*
X58540970Y-83585788D01*
X58447526Y-82480719D01*
X56519692Y-81609961D01*
X55702436Y-81230620D01*
X54964464Y-80869627D01*
X54394768Y-80571607D01*
X54110279Y-80401816D01*
X53709867Y-80165448D01*
X53413769Y-80064477D01*
X53409960Y-80064428D01*
X53145196Y-79983787D01*
X52671618Y-79773515D01*
X52155208Y-79512239D01*
X51549839Y-79211276D01*
X51138734Y-79079438D01*
X50810333Y-79090560D01*
X50616237Y-79151275D01*
X50113278Y-79342500D01*
X49406676Y-79342500D01*
X48439367Y-78884890D01*
X47799327Y-78509307D01*
X47151711Y-78011442D01*
X46591558Y-77476596D01*
X46213910Y-76990072D01*
X46129536Y-76811749D01*
X45960411Y-76736842D01*
X45549652Y-76867001D01*
X45153353Y-77057668D01*
X43925222Y-77522238D01*
X42720210Y-77657137D01*
X41583516Y-77468994D01*
X40560341Y-76964439D01*
X39796528Y-76271890D01*
X39231567Y-75570575D01*
X38851896Y-74957039D01*
X38623207Y-74326547D01*
X38511193Y-73574362D01*
X38481546Y-72595747D01*
X38483372Y-72263000D01*
X38499797Y-71843957D01*
X39309819Y-71843957D01*
X39325448Y-73044862D01*
X39601254Y-74143911D01*
X40096927Y-75102528D01*
X40772158Y-75882137D01*
X41586639Y-76444163D01*
X42500060Y-76750030D01*
X43472113Y-76761163D01*
X44225794Y-76548557D01*
X44759565Y-76231407D01*
X45198578Y-75822842D01*
X45481837Y-75499099D01*
X45669858Y-75348632D01*
X45678924Y-75347285D01*
X45815088Y-75494506D01*
X46041096Y-75868591D01*
X46172216Y-76118357D01*
X46693073Y-76988345D01*
X47304586Y-77622484D01*
X48130721Y-78146249D01*
X48222448Y-78193592D01*
X48879074Y-78476830D01*
X49444585Y-78572415D01*
X49946019Y-78541715D01*
X50459370Y-78488429D01*
X51228303Y-78421306D01*
X52146248Y-78349172D01*
X53049715Y-78284685D01*
X54276525Y-78177132D01*
X55196385Y-78031058D01*
X55864670Y-77827621D01*
X56336752Y-77547982D01*
X56668006Y-77173297D01*
X56757137Y-77023219D01*
X56941780Y-76714296D01*
X57018439Y-76711625D01*
X57033879Y-76899195D01*
X56887174Y-77315359D01*
X56494168Y-77780635D01*
X55946823Y-78212822D01*
X55337102Y-78529722D01*
X55136143Y-78595462D01*
X54554670Y-78701865D01*
X53799584Y-78773787D01*
X53216024Y-78793416D01*
X52588115Y-78810905D01*
X52113149Y-78855638D01*
X51901821Y-78914226D01*
X51911073Y-79098808D01*
X52210927Y-79313707D01*
X52734790Y-79525394D01*
X53416068Y-79700340D01*
X53491971Y-79714834D01*
X54852704Y-79794100D01*
X56292454Y-79571972D01*
X57742916Y-79078659D01*
X59135782Y-78344371D01*
X60402746Y-77399318D01*
X61475501Y-76273709D01*
X61580757Y-76137462D01*
X62221328Y-75203680D01*
X62688055Y-74291378D01*
X63039121Y-73266393D01*
X63294078Y-72186726D01*
X63698261Y-70790501D01*
X64210162Y-69737440D01*
X64712822Y-68823700D01*
X65105358Y-67923247D01*
X65346099Y-67140540D01*
X65401181Y-66751975D01*
X65444306Y-66536860D01*
X65505624Y-66589186D01*
X65531869Y-66979472D01*
X65432239Y-67597550D01*
X65233878Y-68342199D01*
X64963929Y-69112196D01*
X64649537Y-69806320D01*
X64636143Y-69831596D01*
X64407286Y-70356722D01*
X64174305Y-71050059D01*
X63957353Y-71825790D01*
X63776583Y-72598103D01*
X63652147Y-73281183D01*
X63604197Y-73789214D01*
X63649448Y-74033210D01*
X63763145Y-73928434D01*
X63976180Y-73563565D01*
X64246266Y-73012587D01*
X64298290Y-72897990D01*
X64971514Y-71715962D01*
X65668069Y-70947114D01*
X66549788Y-70038680D01*
X67390670Y-68935870D01*
X68102792Y-67767537D01*
X68598228Y-66662533D01*
X68604892Y-66643218D01*
X69010785Y-65459428D01*
X68903091Y-66366571D01*
X68585452Y-67626201D01*
X67939507Y-68927437D01*
X66989671Y-70226720D01*
X66349933Y-70921330D01*
X65746020Y-71564937D01*
X65204524Y-72204783D01*
X64804854Y-72744190D01*
X64676449Y-72958713D01*
X64337777Y-73519958D01*
X63878669Y-74157773D01*
X63605204Y-74493154D01*
X63127658Y-75079778D01*
X62680912Y-75685021D01*
X62486988Y-75977452D01*
X61739991Y-76947498D01*
X60751583Y-77887512D01*
X59614738Y-78731947D01*
X58422431Y-79415258D01*
X57267637Y-79871900D01*
X56806462Y-79982115D01*
X56377748Y-80109977D01*
X56185286Y-80270823D01*
X56186395Y-80312325D01*
X56381939Y-80467419D01*
X56852444Y-80706537D01*
X57527604Y-81002097D01*
X58337110Y-81326516D01*
X59210658Y-81652212D01*
X60077941Y-81951601D01*
X60868652Y-82197100D01*
X61260017Y-82302817D01*
X62979616Y-82625701D01*
X64957618Y-82812112D01*
X67115639Y-82860635D01*
X69375295Y-82769851D01*
X71658202Y-82538344D01*
X71963643Y-82496269D01*
X72482448Y-82436806D01*
X72736933Y-82470741D01*
X72819608Y-82625596D01*
X72825429Y-82752668D01*
X72720514Y-83047824D01*
X72355464Y-83255134D01*
X72145072Y-83320603D01*
X71589026Y-83446938D01*
X71116814Y-83509221D01*
X71067208Y-83510559D01*
X70749555Y-83537635D01*
X70583521Y-83638604D01*
X70585820Y-83846039D01*
X70773166Y-84192515D01*
X71162272Y-84710605D01*
X71769853Y-85432882D01*
X72453654Y-86212603D01*
X74141991Y-87882791D01*
X76109841Y-89415742D01*
X78284114Y-90759865D01*
X80264000Y-91725724D01*
X81034169Y-92063972D01*
X81827384Y-92423376D01*
X82350429Y-92668379D01*
X82882745Y-92901191D01*
X83290423Y-93038336D01*
X83438345Y-93055342D01*
X83581756Y-92862393D01*
X83715832Y-92441944D01*
X83745389Y-92295956D01*
X83835125Y-91519788D01*
X83870247Y-90598716D01*
X83853721Y-89650567D01*
X83788516Y-88793168D01*
X83677600Y-88144344D01*
X83637481Y-88012507D01*
X83317397Y-87357797D01*
X82780340Y-86527238D01*
X82078172Y-85588686D01*
X81262755Y-84609997D01*
X80385953Y-83659028D01*
X80058764Y-83330143D01*
X78722132Y-81854127D01*
X77542389Y-80192425D01*
X76482878Y-78286741D01*
X75520463Y-76112712D01*
X74958334Y-74653835D01*
X74548932Y-73468389D01*
X74278208Y-72507549D01*
X74132113Y-71722486D01*
X74095429Y-71159804D01*
X74022444Y-70723431D01*
X73779345Y-70539984D01*
X73329916Y-70602839D01*
X72655355Y-70896531D01*
X71682565Y-71289385D01*
X70433292Y-71636153D01*
X68993133Y-71914465D01*
X68471143Y-71990061D01*
X67936823Y-72084904D01*
X67532243Y-72245742D01*
X67170398Y-72537228D01*
X66764281Y-73024014D01*
X66394715Y-73533000D01*
X65706685Y-74460207D01*
X65120011Y-75142135D01*
X64564670Y-75653342D01*
X64075106Y-76002851D01*
X63553300Y-76318995D01*
X63323065Y-76419897D01*
X63389192Y-76312627D01*
X63756473Y-76004258D01*
X63966682Y-75842854D01*
X64429648Y-75413159D01*
X64980321Y-74784013D01*
X65522216Y-74068597D01*
X65691062Y-73820118D01*
X66242366Y-72991911D01*
X66672202Y-72412861D01*
X67057880Y-72028554D01*
X67476708Y-71784580D01*
X68005994Y-71626526D01*
X68723048Y-71499980D01*
X69060010Y-71448960D01*
X69866374Y-71296461D01*
X70760537Y-71076924D01*
X71665171Y-70815521D01*
X72502946Y-70537427D01*
X73196532Y-70267815D01*
X73440971Y-70145636D01*
X74665393Y-70145636D01*
X74701419Y-71260615D01*
X74817565Y-72093924D01*
X75055521Y-72939716D01*
X75415946Y-74008328D01*
X75859395Y-75200366D01*
X76346424Y-76416433D01*
X76837587Y-77557134D01*
X77293439Y-78523072D01*
X77584645Y-79066571D01*
X78059017Y-79837312D01*
X78586331Y-80625377D01*
X79121447Y-81371065D01*
X79619225Y-82014674D01*
X80034525Y-82496503D01*
X80322205Y-82756851D01*
X80396811Y-82785857D01*
X80416270Y-82622323D01*
X80399685Y-82199040D01*
X80363889Y-81754439D01*
X80275787Y-81116862D01*
X80121205Y-80267767D01*
X79926583Y-79346393D01*
X79821260Y-78896939D01*
X79482949Y-77473372D01*
X79221797Y-76266719D01*
X79027981Y-75190712D01*
X78891680Y-74159084D01*
X78803073Y-73085569D01*
X78752339Y-71883899D01*
X78730652Y-70529951D01*
X79240710Y-70529951D01*
X79479220Y-73387628D01*
X79810093Y-75619428D01*
X80044505Y-76950818D01*
X80237062Y-77962745D01*
X80399812Y-78694578D01*
X80544805Y-79185687D01*
X80684090Y-79475439D01*
X80829717Y-79603204D01*
X80993733Y-79608350D01*
X81027990Y-79598709D01*
X81437939Y-79607627D01*
X81630087Y-79706030D01*
X81793890Y-79911551D01*
X81715780Y-80163398D01*
X81621380Y-80305674D01*
X81369295Y-80963855D01*
X81362710Y-81810976D01*
X81585065Y-82784996D01*
X82019803Y-83823874D01*
X82650364Y-84865570D01*
X82942332Y-85254857D01*
X83871094Y-86586349D01*
X84481438Y-87876398D01*
X84797050Y-89204510D01*
X84841620Y-90650189D01*
X84774364Y-91403714D01*
X84568213Y-92764354D01*
X84271200Y-94135549D01*
X83865591Y-95571027D01*
X83333647Y-97124518D01*
X82657632Y-98849751D01*
X81819809Y-100800453D01*
X81270627Y-102017285D01*
X80577199Y-103564848D01*
X80049703Y-104822728D01*
X79680198Y-105819732D01*
X79460744Y-106584665D01*
X79383401Y-107146333D01*
X79440229Y-107533542D01*
X79623288Y-107775095D01*
X79674357Y-107808467D01*
X80072779Y-107968510D01*
X80484931Y-107940077D01*
X81011844Y-107703355D01*
X81397781Y-107470470D01*
X81864423Y-107130161D01*
X82500900Y-106605918D01*
X83221171Y-105971084D01*
X83894313Y-105342350D01*
X84745053Y-104567309D01*
X85570793Y-103895609D01*
X86285986Y-103394629D01*
X86580368Y-103226693D01*
X87166632Y-102925713D01*
X87647919Y-102670488D01*
X87884000Y-102537473D01*
X88229913Y-102326173D01*
X88673231Y-102057445D01*
X89760351Y-101336908D01*
X90621476Y-100603995D01*
X91381027Y-99752126D01*
X91415651Y-99708218D01*
X91713871Y-99315551D01*
X91970575Y-98935648D01*
X92212892Y-98511863D01*
X92467953Y-97987549D01*
X92489119Y-97938640D01*
X93547805Y-97938640D01*
X93721770Y-98034938D01*
X94144144Y-98254342D01*
X94738849Y-98557550D01*
X95050429Y-98714896D01*
X96078823Y-99203758D01*
X97269469Y-99723343D01*
X98528527Y-100236845D01*
X99762157Y-100707462D01*
X100876518Y-101098387D01*
X101777771Y-101372817D01*
X101921905Y-101409921D01*
X102536873Y-101572758D01*
X102870367Y-101710158D01*
X102995652Y-101873006D01*
X102985994Y-102112183D01*
X102979954Y-102144735D01*
X102899984Y-102396816D01*
X102732471Y-102510861D01*
X102400463Y-102494189D01*
X101827012Y-102354114D01*
X101562697Y-102279486D01*
X101445561Y-102254225D01*
X101354116Y-102280794D01*
X101283961Y-102399800D01*
X101230693Y-102651851D01*
X101189910Y-103077553D01*
X101157210Y-103717514D01*
X101128192Y-104612340D01*
X101098453Y-105802638D01*
X101076391Y-106765476D01*
X101037556Y-108160085D01*
X100985623Y-109560509D01*
X100924539Y-110885835D01*
X100858251Y-112055147D01*
X100790705Y-112987534D01*
X100754064Y-113373605D01*
X100654894Y-114460153D01*
X100640628Y-115333896D01*
X100740650Y-116066742D01*
X100984343Y-116730594D01*
X101401090Y-117397360D01*
X102020274Y-118138944D01*
X102871278Y-119027253D01*
X103198364Y-119355247D01*
X104684467Y-120776551D01*
X106082578Y-121972091D01*
X107497709Y-123023374D01*
X109034871Y-124011907D01*
X109710275Y-124409650D01*
X110887824Y-125064923D01*
X111864900Y-125547633D01*
X112736131Y-125896355D01*
X113596147Y-126149667D01*
X114396970Y-126320255D01*
X117306621Y-126694695D01*
X120300256Y-126750468D01*
X123415591Y-126487535D01*
X124606627Y-126309471D01*
X125576169Y-126132725D01*
X126530025Y-125931947D01*
X127345823Y-125734320D01*
X127819627Y-125595810D01*
X129103882Y-125092852D01*
X130551823Y-124407064D01*
X132054180Y-123594695D01*
X133501681Y-122711994D01*
X133786656Y-122524162D01*
X135212636Y-121531563D01*
X136337870Y-120650113D01*
X137192347Y-119841687D01*
X137806054Y-119068164D01*
X138208978Y-118291422D01*
X138431107Y-117473337D01*
X138502426Y-116575788D01*
X138502572Y-116528878D01*
X138450357Y-115560559D01*
X138277150Y-114653769D01*
X137958103Y-113768595D01*
X137468368Y-112865125D01*
X136783101Y-111903447D01*
X135877452Y-110843649D01*
X134726577Y-109645818D01*
X133440767Y-108397966D01*
X131883251Y-106862860D01*
X130328600Y-105222933D01*
X128850735Y-103561018D01*
X127523578Y-101959947D01*
X126528286Y-100652216D01*
X126078721Y-100030262D01*
X125541812Y-99288653D01*
X125097508Y-98675783D01*
X124598060Y-97952774D01*
X124284973Y-97364224D01*
X124138285Y-96803021D01*
X124138032Y-96162049D01*
X124264252Y-95334195D01*
X124373696Y-94792123D01*
X124556996Y-93782242D01*
X124726698Y-92612673D01*
X124854483Y-91486289D01*
X124884685Y-91131571D01*
X124977120Y-90194898D01*
X125106294Y-89262104D01*
X125251058Y-88475120D01*
X125326393Y-88167361D01*
X125737214Y-86427976D01*
X126013831Y-84577052D01*
X126156482Y-82576450D01*
X126165404Y-80388031D01*
X126040836Y-77973657D01*
X125783017Y-75295187D01*
X125424064Y-72535143D01*
X125205736Y-71080843D01*
X124997879Y-69879997D01*
X124774965Y-68824989D01*
X124511468Y-67808204D01*
X124181859Y-66722029D01*
X123760612Y-65458848D01*
X123711679Y-65316371D01*
X122540457Y-62425692D01*
X121043678Y-59586769D01*
X119258379Y-56865142D01*
X118050771Y-55299428D01*
X117603481Y-54766527D01*
X117253955Y-54441382D01*
X116900423Y-54293071D01*
X116441112Y-54290671D01*
X115774250Y-54403257D01*
X115370429Y-54485010D01*
X114723412Y-54564920D01*
X113811018Y-54609479D01*
X112728772Y-54620934D01*
X111572201Y-54601532D01*
X110436830Y-54553522D01*
X109418187Y-54479152D01*
X108611798Y-54380668D01*
X108299808Y-54318643D01*
X107833446Y-54223263D01*
X107541768Y-54201295D01*
X107506151Y-54213230D01*
X107494212Y-54412280D01*
X107518280Y-54894950D01*
X107573376Y-55584323D01*
X107637627Y-56244276D01*
X107837601Y-59490066D01*
X107751857Y-62618297D01*
X107383096Y-65588057D01*
X106868296Y-67887737D01*
X106616960Y-68751171D01*
X106360617Y-69481386D01*
X106052320Y-70183817D01*
X105645122Y-70963897D01*
X105092076Y-71927060D01*
X105000817Y-72081706D01*
X104087939Y-73494286D01*
X102934808Y-75065764D01*
X101590166Y-76735611D01*
X100102753Y-78443298D01*
X98521333Y-80128273D01*
X97920804Y-80760916D01*
X97426802Y-81313216D01*
X97088682Y-81727688D01*
X96955802Y-81946850D01*
X96955429Y-81952002D01*
X96997424Y-82202624D01*
X97112126Y-82730479D01*
X97282614Y-83461189D01*
X97491966Y-84320374D01*
X97518791Y-84428157D01*
X97825886Y-85796627D01*
X97979116Y-86926287D01*
X97962533Y-87908061D01*
X97760187Y-88832872D01*
X97356130Y-89791643D01*
X96734412Y-90875298D01*
X96259000Y-91610120D01*
X96021382Y-92024015D01*
X95705262Y-92653578D01*
X95337481Y-93436152D01*
X94944881Y-94309083D01*
X94554306Y-95209715D01*
X94192597Y-96075392D01*
X93886596Y-96843459D01*
X93663146Y-97451261D01*
X93549089Y-97836141D01*
X93547805Y-97938640D01*
X92489119Y-97938640D01*
X92762887Y-97306057D01*
X93124822Y-96410740D01*
X93580888Y-95244951D01*
X93698479Y-94941571D01*
X94315872Y-93436959D01*
X94922350Y-92165265D01*
X95579947Y-91003959D01*
X96102529Y-90193148D01*
X96519529Y-89517277D01*
X96821744Y-88865357D01*
X97008351Y-88188161D01*
X97078527Y-87436465D01*
X97031448Y-86561043D01*
X96866292Y-85512672D01*
X96582236Y-84242125D01*
X96178456Y-82700178D01*
X95964364Y-81929148D01*
X95648105Y-80793353D01*
X95326052Y-79619128D01*
X95029331Y-78521091D01*
X94789065Y-77613860D01*
X94760413Y-77503026D01*
X95678673Y-77503026D01*
X96649591Y-80940278D01*
X97145348Y-80573749D01*
X97439411Y-80311816D01*
X97917379Y-79835861D01*
X98523050Y-79203920D01*
X99200224Y-78474027D01*
X99520767Y-78120801D01*
X101251788Y-76130178D01*
X102703236Y-74304076D01*
X103897775Y-72606223D01*
X104858067Y-71000346D01*
X105606777Y-69450171D01*
X106166567Y-67919425D01*
X106387776Y-67129956D01*
X106722512Y-65563442D01*
X106984064Y-63852968D01*
X107159959Y-62120631D01*
X107237725Y-60488527D01*
X107207097Y-59109428D01*
X107080891Y-57427487D01*
X106962046Y-56082308D01*
X106846897Y-55047965D01*
X106731780Y-54298532D01*
X106613028Y-53808082D01*
X106486978Y-53550687D01*
X106414010Y-53499300D01*
X106106408Y-53426958D01*
X105545327Y-53310617D01*
X104834239Y-53171480D01*
X104575429Y-53122514D01*
X103833587Y-52982771D01*
X103202899Y-52862789D01*
X102788409Y-52782592D01*
X102715786Y-52768026D01*
X102550043Y-52775288D01*
X102453956Y-52929338D01*
X102409258Y-53300979D01*
X102397679Y-53961015D01*
X102397643Y-54001056D01*
X102360281Y-55865925D01*
X102255373Y-57846280D01*
X102091032Y-59877144D01*
X101875374Y-61893539D01*
X101616511Y-63830484D01*
X101322558Y-65623003D01*
X101001628Y-67206115D01*
X100661837Y-68514843D01*
X100536365Y-68906571D01*
X99902286Y-70533678D01*
X99098555Y-72244820D01*
X98185170Y-73929154D01*
X97222125Y-75475835D01*
X96294922Y-76742655D01*
X95678673Y-77503026D01*
X94760413Y-77503026D01*
X94719044Y-77343000D01*
X94515463Y-76567026D01*
X94331284Y-75899985D01*
X94193177Y-75436855D01*
X94145884Y-75301928D01*
X94115045Y-75077076D01*
X94332918Y-74992226D01*
X94554768Y-74984428D01*
X94952160Y-75042854D01*
X95143951Y-75292813D01*
X95207048Y-75540738D01*
X95330595Y-75914701D01*
X95489447Y-75953376D01*
X95689545Y-75650072D01*
X95936831Y-74998100D01*
X96071739Y-74567005D01*
X96314554Y-73824535D01*
X96584078Y-73106703D01*
X96846125Y-72493425D01*
X97066510Y-72064615D01*
X97211047Y-71900188D01*
X97212578Y-71900143D01*
X97207928Y-72063458D01*
X97136600Y-72499133D01*
X97012625Y-73125759D01*
X96954645Y-73396928D01*
X96813128Y-74084820D01*
X96718355Y-74622737D01*
X96684881Y-74924516D01*
X96690761Y-74958887D01*
X96823419Y-74866847D01*
X97082586Y-74511774D01*
X97432179Y-73955021D01*
X97836113Y-73257944D01*
X98258304Y-72481899D01*
X98662667Y-71688240D01*
X98871979Y-71250125D01*
X99780312Y-69057468D01*
X100428603Y-66966368D01*
X100754127Y-65359876D01*
X100870366Y-64565164D01*
X101014098Y-63574522D01*
X101161664Y-62551256D01*
X101225973Y-62103000D01*
X101295504Y-61501294D01*
X101366989Y-60679740D01*
X101437775Y-59695679D01*
X101505210Y-58606455D01*
X101566640Y-57469408D01*
X101619411Y-56341881D01*
X101660872Y-55281217D01*
X101688369Y-54344756D01*
X101699248Y-53589841D01*
X101690857Y-53073815D01*
X101660543Y-52854019D01*
X101654082Y-52850143D01*
X101455817Y-52830276D01*
X100968205Y-52776034D01*
X100262271Y-52695449D01*
X99409036Y-52596554D01*
X99312888Y-52585329D01*
X98137965Y-52462598D01*
X96800939Y-52345529D01*
X95499523Y-52250533D01*
X94778286Y-52208979D01*
X93372583Y-52123459D01*
X92222463Y-52009554D01*
X91220816Y-51849715D01*
X90260531Y-51626394D01*
X89234495Y-51322043D01*
X89100477Y-51278791D01*
X88387769Y-51074449D01*
X87765075Y-50944418D01*
X87344480Y-50910887D01*
X87286191Y-50919632D01*
X86870531Y-51124955D01*
X86285683Y-51545660D01*
X85598405Y-52121452D01*
X84875451Y-52792039D01*
X84183578Y-53497128D01*
X83589541Y-54176423D01*
X83377762Y-54449705D01*
X82025188Y-56568881D01*
X80961112Y-58874549D01*
X80172653Y-61396162D01*
X79986949Y-62203800D01*
X79493311Y-65033892D01*
X79244986Y-67777324D01*
X79240710Y-70529951D01*
X78730652Y-70529951D01*
X78729656Y-70467807D01*
X78725181Y-69269428D01*
X78727359Y-67840675D01*
X78739316Y-66707923D01*
X78765526Y-65804356D01*
X78810462Y-65063157D01*
X78878598Y-64417510D01*
X78974407Y-63800597D01*
X79102362Y-63145602D01*
X79150316Y-62919428D01*
X79493962Y-61410189D01*
X79829576Y-60158762D01*
X80191269Y-59062556D01*
X80613155Y-58018982D01*
X81129347Y-56925450D01*
X81171303Y-56841571D01*
X82221362Y-55019511D01*
X83445131Y-53363646D01*
X84790089Y-51935580D01*
X86203719Y-50796916D01*
X86477929Y-50616986D01*
X86820993Y-50363748D01*
X86975520Y-50177541D01*
X86976223Y-50169889D01*
X86828167Y-50023388D01*
X86442313Y-49770889D01*
X85951108Y-49493714D01*
X85235781Y-49074441D01*
X84444667Y-48552641D01*
X83910671Y-48163644D01*
X82894715Y-47377860D01*
X82018085Y-48345073D01*
X80970735Y-49678738D01*
X79939699Y-51336627D01*
X78941016Y-53280108D01*
X77990724Y-55470548D01*
X77104861Y-57869313D01*
X76299466Y-60437771D01*
X75590576Y-63137289D01*
X75252051Y-64643000D01*
X75005461Y-66008911D01*
X74822259Y-67436706D01*
X74707288Y-68843307D01*
X74665393Y-70145636D01*
X73440971Y-70145636D01*
X73668600Y-70031860D01*
X73828004Y-69896794D01*
X73884804Y-69663618D01*
X73968271Y-69141815D01*
X74068062Y-68403723D01*
X74173832Y-67521680D01*
X74196012Y-67323329D01*
X74557784Y-64880645D01*
X75132435Y-62166285D01*
X75915866Y-59199412D01*
X75981621Y-58971745D01*
X76228527Y-58159950D01*
X76502285Y-57347048D01*
X76831813Y-56455591D01*
X77246032Y-55408132D01*
X77773860Y-54127222D01*
X77928701Y-53757285D01*
X78346019Y-52871447D01*
X78908820Y-51826525D01*
X79555410Y-50724565D01*
X80224098Y-49667612D01*
X80853191Y-48757712D01*
X81284156Y-48206989D01*
X82116626Y-47232573D01*
X80357278Y-45369572D01*
X78937597Y-43759592D01*
X77578043Y-42017100D01*
X76375490Y-40270374D01*
X75820761Y-39362380D01*
X75311386Y-38483903D01*
X69487336Y-38560001D01*
X67848487Y-38582976D01*
X66518142Y-38607080D01*
X65441958Y-38636074D01*
X64565590Y-38673719D01*
X63834695Y-38723777D01*
X63194930Y-38790009D01*
X62591950Y-38876177D01*
X61971413Y-38986043D01*
X61278975Y-39123369D01*
X61243407Y-39130631D01*
X58540516Y-39802840D01*
X56084429Y-40674909D01*
X53800697Y-41777985D01*
X51614874Y-43143215D01*
X51558703Y-43182470D01*
X50365144Y-44110018D01*
X49098809Y-45251013D01*
X47854671Y-46508993D01*
X46727698Y-47787494D01*
X45812861Y-48990054D01*
X45750227Y-49082253D01*
X45059720Y-50196219D01*
X44354758Y-51484162D01*
X43696504Y-52823142D01*
X43146119Y-54090217D01*
X42830511Y-54951178D01*
X42669153Y-55513747D01*
X42479379Y-56274996D01*
X42281113Y-57141589D01*
X42094280Y-58020189D01*
X41938803Y-58817461D01*
X41834607Y-59440069D01*
X41801143Y-59773329D01*
X41884043Y-60063460D01*
X42066344Y-60057629D01*
X42248444Y-59763293D01*
X42256360Y-59739243D01*
X42430667Y-59453718D01*
X42801365Y-58993055D01*
X43304101Y-58434464D01*
X43599847Y-58127371D01*
X44768442Y-57102315D01*
X46009266Y-56301855D01*
X47256084Y-55760258D01*
X48442662Y-55511792D01*
X48678127Y-55500061D01*
X49261032Y-55504161D01*
X49567117Y-55563413D01*
X49681389Y-55705700D01*
X49693286Y-55833034D01*
X49634700Y-56033144D01*
X49410788Y-56182521D01*
X48949318Y-56314846D01*
X48443252Y-56415920D01*
X47003689Y-56862884D01*
X45637487Y-57646492D01*
X44365348Y-58744370D01*
X43207978Y-60134147D01*
X42186079Y-61793449D01*
X41320356Y-63699904D01*
X41071724Y-64381624D01*
X40860411Y-65063256D01*
X40606743Y-65985237D01*
X40330622Y-67063275D01*
X40051952Y-68213079D01*
X39790633Y-69350356D01*
X39566567Y-70390815D01*
X39399656Y-71250163D01*
X39309819Y-71843957D01*
X38499797Y-71843957D01*
X38524731Y-71207879D01*
X38636758Y-70161306D01*
X38834121Y-69049665D01*
X39131494Y-67799345D01*
X39543547Y-66336732D01*
X39890204Y-65204174D01*
X40337466Y-63507445D01*
X40624648Y-61733711D01*
X40693501Y-61069177D01*
X41145092Y-57928708D01*
X41908697Y-54960897D01*
X42977378Y-52176507D01*
X44344197Y-49586303D01*
X46002216Y-47201047D01*
X47944496Y-45031504D01*
X50164100Y-43088436D01*
X52654090Y-41382608D01*
X53807864Y-40723818D01*
X55390452Y-39971409D01*
X57256372Y-39258806D01*
X59326302Y-38613709D01*
X61253085Y-38123978D01*
X61765033Y-38015577D01*
X62286679Y-37927049D01*
X62865771Y-37855353D01*
X63550054Y-37797446D01*
X64387277Y-37750287D01*
X65425184Y-37710833D01*
X66711523Y-37676042D01*
X68294040Y-37642872D01*
X69013735Y-37629501D01*
X75089898Y-37519428D01*
X75103928Y-37452205D01*
X76185869Y-37452205D01*
X76230606Y-37890265D01*
X76374638Y-38333641D01*
X76642408Y-38853368D01*
X77058356Y-39520482D01*
X77646923Y-40406017D01*
X77769387Y-40588581D01*
X79637517Y-43094630D01*
X81746492Y-45387501D01*
X84149933Y-47525242D01*
X84255429Y-47610335D01*
X84753749Y-47978154D01*
X85400519Y-48410542D01*
X86119341Y-48861918D01*
X86833817Y-49286705D01*
X87467552Y-49639324D01*
X87944146Y-49874194D01*
X88172508Y-49947285D01*
X88303040Y-49780333D01*
X88416324Y-49337218D01*
X88450038Y-49077151D01*
X89183805Y-49077151D01*
X89189208Y-49425502D01*
X89244715Y-50393680D01*
X90602233Y-50708361D01*
X91255998Y-50827302D01*
X92174577Y-50950237D01*
X93260229Y-51066242D01*
X94415219Y-51164391D01*
X95081339Y-51209009D01*
X96860034Y-51337106D01*
X98610307Y-51511915D01*
X100397403Y-51743534D01*
X102286564Y-52042061D01*
X104343036Y-52417594D01*
X106632062Y-52880230D01*
X108566857Y-53296184D01*
X110117273Y-53562950D01*
X111701303Y-53703099D01*
X113234129Y-53717307D01*
X114630934Y-53606251D01*
X115806900Y-53370607D01*
X116213132Y-53235196D01*
X117385190Y-52685947D01*
X118266152Y-52038508D01*
X118925565Y-51234700D01*
X119205979Y-50731567D01*
X119442856Y-50218087D01*
X119593142Y-49771719D01*
X119675054Y-49284726D01*
X119706812Y-48649369D01*
X119706750Y-47770143D01*
X119668813Y-46650523D01*
X119568825Y-45773612D01*
X119391309Y-45022264D01*
X119311229Y-44776571D01*
X118506324Y-42906750D01*
X117438462Y-41223827D01*
X116098911Y-39689889D01*
X115383428Y-38995324D01*
X114790711Y-38493276D01*
X114204760Y-38103034D01*
X113509575Y-37743882D01*
X112921143Y-37478801D01*
X111785066Y-37035226D01*
X110524427Y-36652675D01*
X109037081Y-36301461D01*
X108475647Y-36186694D01*
X106963287Y-35842470D01*
X105196576Y-35363929D01*
X103248368Y-34773606D01*
X101191516Y-34094037D01*
X99098873Y-33347757D01*
X98180072Y-33001973D01*
X97587575Y-32791991D01*
X97153592Y-32670203D01*
X96961207Y-32659335D01*
X96958277Y-32667773D01*
X97110971Y-32798663D01*
X97524634Y-33055660D01*
X98136163Y-33401651D01*
X98882452Y-33799521D01*
X98883649Y-33800143D01*
X99848788Y-34319834D01*
X100526583Y-34739881D01*
X100963674Y-35102488D01*
X101206700Y-35449857D01*
X101302301Y-35824192D01*
X101309715Y-35995439D01*
X101279867Y-36309276D01*
X101151260Y-36557430D01*
X100865298Y-36783811D01*
X100363386Y-37032328D01*
X99586929Y-37346889D01*
X99420290Y-37411294D01*
X98217195Y-37978155D01*
X96954468Y-38783057D01*
X95598590Y-39850756D01*
X94116041Y-41206009D01*
X93615025Y-41698844D01*
X92041607Y-43387832D01*
X90812822Y-44968329D01*
X89927625Y-46442163D01*
X89384968Y-47811161D01*
X89183805Y-49077151D01*
X88450038Y-49077151D01*
X88472505Y-48903846D01*
X88748024Y-47539287D01*
X89337714Y-46102648D01*
X90248778Y-44581789D01*
X91488415Y-42964568D01*
X92948771Y-41356934D01*
X94495963Y-39845101D01*
X95989274Y-38548796D01*
X97396745Y-37491871D01*
X98686415Y-36698180D01*
X99826326Y-36191576D01*
X99903643Y-36166217D01*
X100394803Y-35974371D01*
X100555041Y-35781589D01*
X100410974Y-35525018D01*
X100243838Y-35362824D01*
X99829342Y-35073475D01*
X99125827Y-34678428D01*
X98183829Y-34199920D01*
X97053885Y-33660183D01*
X95786532Y-33081453D01*
X94432306Y-32485966D01*
X93041745Y-31895955D01*
X91665385Y-31333656D01*
X90353762Y-30821304D01*
X89157415Y-30381133D01*
X88156143Y-30044555D01*
X87458460Y-29812397D01*
X86883122Y-29597482D01*
X86528266Y-29437217D01*
X86479694Y-29405564D01*
X86106494Y-29260074D01*
X85464985Y-29164593D01*
X84646754Y-29122890D01*
X83743392Y-29138732D01*
X82846487Y-29215885D01*
X82622572Y-29246918D01*
X81103021Y-29594711D01*
X79844122Y-30152685D01*
X78791616Y-30950755D01*
X78088592Y-31746514D01*
X77365739Y-32821539D01*
X76853391Y-33898686D01*
X76502696Y-35102300D01*
X76296517Y-36307892D01*
X76215986Y-36948425D01*
X76185869Y-37452205D01*
X75103928Y-37452205D01*
X75373898Y-36158714D01*
X75714892Y-34712966D01*
X76088088Y-33545922D01*
X76528856Y-32573443D01*
X77072569Y-31711389D01*
X77443760Y-31235184D01*
X78104272Y-30505291D01*
X78715909Y-29997707D01*
X79399723Y-29614138D01*
X79492163Y-29571872D01*
X80370932Y-29214863D01*
X81213017Y-28967183D01*
X82107629Y-28816018D01*
X83143980Y-28748557D01*
X84411282Y-28751984D01*
X84411282Y-28751984D01*
G37*
X84411282Y-28751984D02*
X85058466Y-28772401D01*
X86154800Y-28825517D01*
X87084295Y-28905039D01*
X87965352Y-29028792D01*
X88916372Y-29214603D01*
X90055756Y-29480298D01*
X90514715Y-29593904D01*
X92175675Y-30040078D01*
X94057081Y-30598159D01*
X96047920Y-31232402D01*
X98037180Y-31907062D01*
X99913848Y-32586393D01*
X100493286Y-32806959D01*
X101897361Y-33319384D01*
X103448304Y-33835040D01*
X105054450Y-34327264D01*
X106624135Y-34769392D01*
X108065697Y-35134760D01*
X109287473Y-35396704D01*
X109564715Y-35445728D01*
X111794384Y-35980346D01*
X113808707Y-36801640D01*
X115597911Y-37901763D01*
X117152219Y-39272866D01*
X118461856Y-40907102D01*
X119517048Y-42796621D01*
X119917524Y-43757915D01*
X120462091Y-45436057D01*
X120751893Y-46926727D01*
X120795136Y-48292479D01*
X120652576Y-49362052D01*
X120324907Y-50588135D01*
X119886083Y-51554827D01*
X119283740Y-52360800D01*
X118825157Y-52805563D01*
X118388779Y-53209479D01*
X118090052Y-53523856D01*
X118001143Y-53660508D01*
X118109077Y-53855786D01*
X118391786Y-54242032D01*
X118780352Y-54726206D01*
X120857016Y-57493290D01*
X122607568Y-60415837D01*
X124036460Y-63502991D01*
X125148142Y-66763896D01*
X125689969Y-68922281D01*
X126346476Y-72279783D01*
X126817537Y-75476737D01*
X127102561Y-78489518D01*
X127200958Y-81294503D01*
X127112135Y-83868067D01*
X126835503Y-86186585D01*
X126370469Y-88226434D01*
X126187333Y-88800336D01*
X126004352Y-89479143D01*
X125841441Y-90338332D01*
X125732954Y-91195705D01*
X125730663Y-91222285D01*
X125647447Y-92058463D01*
X125527133Y-93086163D01*
X125389814Y-94138584D01*
X125321452Y-94619257D01*
X125213081Y-95459978D01*
X125145353Y-96202278D01*
X125125335Y-96751466D01*
X125145387Y-96977828D01*
X125218771Y-97159474D01*
X125374875Y-97432415D01*
X125634119Y-97824924D01*
X126016921Y-98365273D01*
X126543700Y-99081736D01*
X127234875Y-100002586D01*
X128110866Y-101156096D01*
X129058050Y-102395521D01*
X129497237Y-102927158D01*
X130150375Y-103661796D01*
X130970920Y-104549837D01*
X131912327Y-105541682D01*
X132928054Y-106587730D01*
X133971555Y-107638383D01*
X134066060Y-107732285D01*
X135182707Y-108844058D01*
X136071974Y-109740792D01*
X136766684Y-110460349D01*
X137299659Y-111040592D01*
X137703722Y-111519384D01*
X138011697Y-111934589D01*
X138256406Y-112324070D01*
X138470672Y-112725689D01*
X138568755Y-112926408D01*
X139165468Y-114367783D01*
X139479288Y-115652993D01*
X139513639Y-116848780D01*
X139271946Y-118021884D01*
X138880054Y-118993232D01*
X138398277Y-119817690D01*
X137740050Y-120621215D01*
X136861059Y-121447382D01*
X135716993Y-122339766D01*
X134874000Y-122932532D01*
X132661263Y-124334498D01*
X130521600Y-125455674D01*
X128360236Y-126336974D01*
X126082397Y-127019310D01*
X124658503Y-127342477D01*
X124019212Y-127436038D01*
X123104539Y-127521781D01*
X122001933Y-127596181D01*
X120798844Y-127655710D01*
X119582721Y-127696842D01*
X118441012Y-127716052D01*
X117461168Y-127709813D01*
X116730639Y-127674599D01*
X116640429Y-127665792D01*
X114852920Y-127405046D01*
X113224541Y-127010104D01*
X111653356Y-126444969D01*
X110037426Y-125673645D01*
X108476143Y-124782842D01*
X106996558Y-123817972D01*
X105534447Y-122736961D01*
X104140114Y-121586259D01*
X102863858Y-120412317D01*
X101755981Y-119261583D01*
X100866785Y-118180507D01*
X100246571Y-117215539D01*
X100214809Y-117154092D01*
X99944052Y-116604613D01*
X99777588Y-116177399D01*
X99697264Y-115760010D01*
X99684926Y-115240002D01*
X99722422Y-114504934D01*
X99741069Y-114219711D01*
X99815280Y-113229846D01*
X99908831Y-112166116D01*
X100004605Y-111219446D01*
X100029886Y-110998000D01*
X100083362Y-110361952D01*
X100131053Y-109446150D01*
X100170108Y-108333685D01*
X100197674Y-107107649D01*
X100210898Y-105851133D01*
X100211361Y-105712097D01*
X100221143Y-101877623D01*
X99314430Y-101581052D01*
X98830217Y-101401071D01*
X98100006Y-101102724D01*
X97206630Y-100721056D01*
X96232922Y-100291115D01*
X95756840Y-100075841D01*
X94758140Y-99624815D01*
X94037605Y-99313800D01*
X93545687Y-99127018D01*
X93232837Y-99048690D01*
X93049510Y-99063039D01*
X92946156Y-99154287D01*
X92932836Y-99176559D01*
X92735664Y-99462919D01*
X92376885Y-99930111D01*
X91930082Y-100482647D01*
X91878585Y-100544697D01*
X91197438Y-101261936D01*
X90351474Y-101956943D01*
X89286345Y-102668341D01*
X87947701Y-103434753D01*
X87409713Y-103720418D01*
X86341760Y-104390521D01*
X85206206Y-105303926D01*
X84688285Y-105785409D01*
X83491205Y-106908494D01*
X82482495Y-107759662D01*
X81631618Y-108356387D01*
X80908037Y-108716143D01*
X80281217Y-108856401D01*
X79720622Y-108794636D01*
X79540456Y-108731041D01*
X78954587Y-108389362D01*
X78596738Y-107921861D01*
X78464821Y-107294283D01*
X78556747Y-106472371D01*
X78870425Y-105421867D01*
X79276401Y-104401387D01*
X79719197Y-103375028D01*
X80232001Y-102198152D01*
X80736009Y-101051182D01*
X80991289Y-100475143D01*
X81461047Y-99395384D01*
X81930916Y-98272357D01*
X82372414Y-97178290D01*
X82757059Y-96185411D01*
X83056367Y-95365949D01*
X83241858Y-94792134D01*
X83261703Y-94717560D01*
X83291483Y-94511695D01*
X83228880Y-94335243D01*
X83022016Y-94148555D01*
X82619011Y-93911979D01*
X81967986Y-93585864D01*
X81464493Y-93343978D01*
X80666195Y-92968609D01*
X79953306Y-92644271D01*
X79409440Y-92408340D01*
X79136853Y-92303470D01*
X78722314Y-92120294D01*
X78086081Y-91772446D01*
X77301567Y-91306391D01*
X76442183Y-90768592D01*
X75581342Y-90205511D01*
X74792457Y-89663612D01*
X74148939Y-89189359D01*
X73903873Y-88991474D01*
X73018066Y-88179389D01*
X72021733Y-87162936D01*
X71006087Y-86039355D01*
X70062341Y-84905886D01*
X70013286Y-84843862D01*
X69287572Y-83923479D01*
X66384715Y-83820272D01*
X64931411Y-83749717D01*
X63723617Y-83643850D01*
X62644637Y-83489110D01*
X61577775Y-83271938D01*
X61489453Y-83251461D01*
X60691990Y-83066048D01*
X60037490Y-82915667D01*
X59598666Y-82816904D01*
X59448381Y-82785857D01*
X59421915Y-82948665D01*
X59409249Y-83362823D01*
X59409851Y-83647643D01*
X59510074Y-84533865D01*
X59811584Y-85403706D01*
X60348053Y-86329129D01*
X61153151Y-87382095D01*
X61162396Y-87393180D01*
X61792145Y-88184906D01*
X62456031Y-89078720D01*
X63029740Y-89906130D01*
X63129233Y-90058963D01*
X63707212Y-90906785D01*
X64279095Y-91605079D01*
X64925792Y-92231713D01*
X65728215Y-92864556D01*
X66767278Y-93581474D01*
X66838286Y-93628448D01*
X68262986Y-94598012D01*
X69512212Y-95519539D01*
X70678548Y-96469735D01*
X71854576Y-97525309D01*
X73132879Y-98762967D01*
X73595282Y-99226789D01*
X74892095Y-100576849D01*
X75915209Y-101738328D01*
X76681824Y-102739539D01*
X77209142Y-103608793D01*
X77514363Y-104374402D01*
X77614688Y-105064678D01*
X77529065Y-105701638D01*
X77133207Y-106520539D01*
X76476764Y-107115377D01*
X75585712Y-107484685D01*
X74486023Y-107626997D01*
X73203674Y-107540848D01*
X71764637Y-107224770D01*
X70194888Y-106677297D01*
X69079464Y-106178611D01*
X67715494Y-105465603D01*
X66212533Y-104590727D01*
X64618966Y-103589378D01*
X62983179Y-102496952D01*
X61353554Y-101348846D01*
X59778477Y-100180454D01*
X58306333Y-99027173D01*
X56985506Y-97924398D01*
X55864381Y-96907525D01*
X54991342Y-96011951D01*
X54684221Y-95647743D01*
X53494092Y-93938357D01*
X52369507Y-91916381D01*
X51334036Y-89629646D01*
X50411245Y-87125982D01*
X50268655Y-86686571D01*
X50085203Y-85966601D01*
X49899088Y-84991555D01*
X49725057Y-83868794D01*
X49577861Y-82705682D01*
X49472246Y-81609580D01*
X49422962Y-80687852D01*
X49421143Y-80517077D01*
X49421143Y-79349344D01*
X49406676Y-79342500D01*
X50113278Y-79342500D01*
X50237320Y-81109535D01*
X50542696Y-83618953D01*
X51093549Y-86142393D01*
X51863709Y-88605106D01*
X52827007Y-90932343D01*
X53957274Y-93049356D01*
X54918574Y-94480712D01*
X55933626Y-95677230D01*
X57274724Y-96990616D01*
X58928262Y-98410066D01*
X60880633Y-99924774D01*
X63118229Y-101523936D01*
X65627442Y-103196747D01*
X66978271Y-104056528D01*
X68071655Y-104686669D01*
X69262901Y-105278187D01*
X70487824Y-105807925D01*
X71682238Y-106252729D01*
X72781959Y-106589443D01*
X73722800Y-106794911D01*
X74440576Y-106845977D01*
X74639715Y-106820469D01*
X75004275Y-106744150D01*
X75499651Y-106643220D01*
X75501275Y-106642893D01*
X76124458Y-106362622D01*
X76502486Y-105849186D01*
X76625934Y-105145278D01*
X76485377Y-104293589D01*
X76184170Y-103549694D01*
X75877289Y-103075480D01*
X75350401Y-102407085D01*
X74650917Y-101595587D01*
X73826248Y-100692066D01*
X72923806Y-99747599D01*
X71991002Y-98813265D01*
X71075248Y-97940144D01*
X70467086Y-97390386D01*
X69821727Y-96858204D01*
X68987346Y-96220309D01*
X68081725Y-95564730D01*
X67382800Y-95085171D01*
X66067516Y-94186420D01*
X65021714Y-93412903D01*
X64194541Y-92719415D01*
X63535143Y-92060749D01*
X62992666Y-91391700D01*
X62640543Y-90869612D01*
X62155987Y-90151139D01*
X61535124Y-89303936D01*
X60883379Y-88469884D01*
X60622487Y-88153702D01*
X59710152Y-86948939D01*
X59083795Y-85813086D01*
X58702783Y-84656972D01*
X58540970Y-83585788D01*
X58447526Y-82480719D01*
X56519692Y-81609961D01*
X55702436Y-81230620D01*
X54964464Y-80869627D01*
X54394768Y-80571607D01*
X54110279Y-80401816D01*
X53709867Y-80165448D01*
X53413769Y-80064477D01*
X53409960Y-80064428D01*
X53145196Y-79983787D01*
X52671618Y-79773515D01*
X52155208Y-79512239D01*
X51549839Y-79211276D01*
X51138734Y-79079438D01*
X50810333Y-79090560D01*
X50616237Y-79151275D01*
X50113278Y-79342500D01*
X49406676Y-79342500D01*
X48439367Y-78884890D01*
X47799327Y-78509307D01*
X47151711Y-78011442D01*
X46591558Y-77476596D01*
X46213910Y-76990072D01*
X46129536Y-76811749D01*
X45960411Y-76736842D01*
X45549652Y-76867001D01*
X45153353Y-77057668D01*
X43925222Y-77522238D01*
X42720210Y-77657137D01*
X41583516Y-77468994D01*
X40560341Y-76964439D01*
X39796528Y-76271890D01*
X39231567Y-75570575D01*
X38851896Y-74957039D01*
X38623207Y-74326547D01*
X38511193Y-73574362D01*
X38481546Y-72595747D01*
X38483372Y-72263000D01*
X38499797Y-71843957D01*
X39309819Y-71843957D01*
X39325448Y-73044862D01*
X39601254Y-74143911D01*
X40096927Y-75102528D01*
X40772158Y-75882137D01*
X41586639Y-76444163D01*
X42500060Y-76750030D01*
X43472113Y-76761163D01*
X44225794Y-76548557D01*
X44759565Y-76231407D01*
X45198578Y-75822842D01*
X45481837Y-75499099D01*
X45669858Y-75348632D01*
X45678924Y-75347285D01*
X45815088Y-75494506D01*
X46041096Y-75868591D01*
X46172216Y-76118357D01*
X46693073Y-76988345D01*
X47304586Y-77622484D01*
X48130721Y-78146249D01*
X48222448Y-78193592D01*
X48879074Y-78476830D01*
X49444585Y-78572415D01*
X49946019Y-78541715D01*
X50459370Y-78488429D01*
X51228303Y-78421306D01*
X52146248Y-78349172D01*
X53049715Y-78284685D01*
X54276525Y-78177132D01*
X55196385Y-78031058D01*
X55864670Y-77827621D01*
X56336752Y-77547982D01*
X56668006Y-77173297D01*
X56757137Y-77023219D01*
X56941780Y-76714296D01*
X57018439Y-76711625D01*
X57033879Y-76899195D01*
X56887174Y-77315359D01*
X56494168Y-77780635D01*
X55946823Y-78212822D01*
X55337102Y-78529722D01*
X55136143Y-78595462D01*
X54554670Y-78701865D01*
X53799584Y-78773787D01*
X53216024Y-78793416D01*
X52588115Y-78810905D01*
X52113149Y-78855638D01*
X51901821Y-78914226D01*
X51911073Y-79098808D01*
X52210927Y-79313707D01*
X52734790Y-79525394D01*
X53416068Y-79700340D01*
X53491971Y-79714834D01*
X54852704Y-79794100D01*
X56292454Y-79571972D01*
X57742916Y-79078659D01*
X59135782Y-78344371D01*
X60402746Y-77399318D01*
X61475501Y-76273709D01*
X61580757Y-76137462D01*
X62221328Y-75203680D01*
X62688055Y-74291378D01*
X63039121Y-73266393D01*
X63294078Y-72186726D01*
X63698261Y-70790501D01*
X64210162Y-69737440D01*
X64712822Y-68823700D01*
X65105358Y-67923247D01*
X65346099Y-67140540D01*
X65401181Y-66751975D01*
X65444306Y-66536860D01*
X65505624Y-66589186D01*
X65531869Y-66979472D01*
X65432239Y-67597550D01*
X65233878Y-68342199D01*
X64963929Y-69112196D01*
X64649537Y-69806320D01*
X64636143Y-69831596D01*
X64407286Y-70356722D01*
X64174305Y-71050059D01*
X63957353Y-71825790D01*
X63776583Y-72598103D01*
X63652147Y-73281183D01*
X63604197Y-73789214D01*
X63649448Y-74033210D01*
X63763145Y-73928434D01*
X63976180Y-73563565D01*
X64246266Y-73012587D01*
X64298290Y-72897990D01*
X64971514Y-71715962D01*
X65668069Y-70947114D01*
X66549788Y-70038680D01*
X67390670Y-68935870D01*
X68102792Y-67767537D01*
X68598228Y-66662533D01*
X68604892Y-66643218D01*
X69010785Y-65459428D01*
X68903091Y-66366571D01*
X68585452Y-67626201D01*
X67939507Y-68927437D01*
X66989671Y-70226720D01*
X66349933Y-70921330D01*
X65746020Y-71564937D01*
X65204524Y-72204783D01*
X64804854Y-72744190D01*
X64676449Y-72958713D01*
X64337777Y-73519958D01*
X63878669Y-74157773D01*
X63605204Y-74493154D01*
X63127658Y-75079778D01*
X62680912Y-75685021D01*
X62486988Y-75977452D01*
X61739991Y-76947498D01*
X60751583Y-77887512D01*
X59614738Y-78731947D01*
X58422431Y-79415258D01*
X57267637Y-79871900D01*
X56806462Y-79982115D01*
X56377748Y-80109977D01*
X56185286Y-80270823D01*
X56186395Y-80312325D01*
X56381939Y-80467419D01*
X56852444Y-80706537D01*
X57527604Y-81002097D01*
X58337110Y-81326516D01*
X59210658Y-81652212D01*
X60077941Y-81951601D01*
X60868652Y-82197100D01*
X61260017Y-82302817D01*
X62979616Y-82625701D01*
X64957618Y-82812112D01*
X67115639Y-82860635D01*
X69375295Y-82769851D01*
X71658202Y-82538344D01*
X71963643Y-82496269D01*
X72482448Y-82436806D01*
X72736933Y-82470741D01*
X72819608Y-82625596D01*
X72825429Y-82752668D01*
X72720514Y-83047824D01*
X72355464Y-83255134D01*
X72145072Y-83320603D01*
X71589026Y-83446938D01*
X71116814Y-83509221D01*
X71067208Y-83510559D01*
X70749555Y-83537635D01*
X70583521Y-83638604D01*
X70585820Y-83846039D01*
X70773166Y-84192515D01*
X71162272Y-84710605D01*
X71769853Y-85432882D01*
X72453654Y-86212603D01*
X74141991Y-87882791D01*
X76109841Y-89415742D01*
X78284114Y-90759865D01*
X80264000Y-91725724D01*
X81034169Y-92063972D01*
X81827384Y-92423376D01*
X82350429Y-92668379D01*
X82882745Y-92901191D01*
X83290423Y-93038336D01*
X83438345Y-93055342D01*
X83581756Y-92862393D01*
X83715832Y-92441944D01*
X83745389Y-92295956D01*
X83835125Y-91519788D01*
X83870247Y-90598716D01*
X83853721Y-89650567D01*
X83788516Y-88793168D01*
X83677600Y-88144344D01*
X83637481Y-88012507D01*
X83317397Y-87357797D01*
X82780340Y-86527238D01*
X82078172Y-85588686D01*
X81262755Y-84609997D01*
X80385953Y-83659028D01*
X80058764Y-83330143D01*
X78722132Y-81854127D01*
X77542389Y-80192425D01*
X76482878Y-78286741D01*
X75520463Y-76112712D01*
X74958334Y-74653835D01*
X74548932Y-73468389D01*
X74278208Y-72507549D01*
X74132113Y-71722486D01*
X74095429Y-71159804D01*
X74022444Y-70723431D01*
X73779345Y-70539984D01*
X73329916Y-70602839D01*
X72655355Y-70896531D01*
X71682565Y-71289385D01*
X70433292Y-71636153D01*
X68993133Y-71914465D01*
X68471143Y-71990061D01*
X67936823Y-72084904D01*
X67532243Y-72245742D01*
X67170398Y-72537228D01*
X66764281Y-73024014D01*
X66394715Y-73533000D01*
X65706685Y-74460207D01*
X65120011Y-75142135D01*
X64564670Y-75653342D01*
X64075106Y-76002851D01*
X63553300Y-76318995D01*
X63323065Y-76419897D01*
X63389192Y-76312627D01*
X63756473Y-76004258D01*
X63966682Y-75842854D01*
X64429648Y-75413159D01*
X64980321Y-74784013D01*
X65522216Y-74068597D01*
X65691062Y-73820118D01*
X66242366Y-72991911D01*
X66672202Y-72412861D01*
X67057880Y-72028554D01*
X67476708Y-71784580D01*
X68005994Y-71626526D01*
X68723048Y-71499980D01*
X69060010Y-71448960D01*
X69866374Y-71296461D01*
X70760537Y-71076924D01*
X71665171Y-70815521D01*
X72502946Y-70537427D01*
X73196532Y-70267815D01*
X73440971Y-70145636D01*
X74665393Y-70145636D01*
X74701419Y-71260615D01*
X74817565Y-72093924D01*
X75055521Y-72939716D01*
X75415946Y-74008328D01*
X75859395Y-75200366D01*
X76346424Y-76416433D01*
X76837587Y-77557134D01*
X77293439Y-78523072D01*
X77584645Y-79066571D01*
X78059017Y-79837312D01*
X78586331Y-80625377D01*
X79121447Y-81371065D01*
X79619225Y-82014674D01*
X80034525Y-82496503D01*
X80322205Y-82756851D01*
X80396811Y-82785857D01*
X80416270Y-82622323D01*
X80399685Y-82199040D01*
X80363889Y-81754439D01*
X80275787Y-81116862D01*
X80121205Y-80267767D01*
X79926583Y-79346393D01*
X79821260Y-78896939D01*
X79482949Y-77473372D01*
X79221797Y-76266719D01*
X79027981Y-75190712D01*
X78891680Y-74159084D01*
X78803073Y-73085569D01*
X78752339Y-71883899D01*
X78730652Y-70529951D01*
X79240710Y-70529951D01*
X79479220Y-73387628D01*
X79810093Y-75619428D01*
X80044505Y-76950818D01*
X80237062Y-77962745D01*
X80399812Y-78694578D01*
X80544805Y-79185687D01*
X80684090Y-79475439D01*
X80829717Y-79603204D01*
X80993733Y-79608350D01*
X81027990Y-79598709D01*
X81437939Y-79607627D01*
X81630087Y-79706030D01*
X81793890Y-79911551D01*
X81715780Y-80163398D01*
X81621380Y-80305674D01*
X81369295Y-80963855D01*
X81362710Y-81810976D01*
X81585065Y-82784996D01*
X82019803Y-83823874D01*
X82650364Y-84865570D01*
X82942332Y-85254857D01*
X83871094Y-86586349D01*
X84481438Y-87876398D01*
X84797050Y-89204510D01*
X84841620Y-90650189D01*
X84774364Y-91403714D01*
X84568213Y-92764354D01*
X84271200Y-94135549D01*
X83865591Y-95571027D01*
X83333647Y-97124518D01*
X82657632Y-98849751D01*
X81819809Y-100800453D01*
X81270627Y-102017285D01*
X80577199Y-103564848D01*
X80049703Y-104822728D01*
X79680198Y-105819732D01*
X79460744Y-106584665D01*
X79383401Y-107146333D01*
X79440229Y-107533542D01*
X79623288Y-107775095D01*
X79674357Y-107808467D01*
X80072779Y-107968510D01*
X80484931Y-107940077D01*
X81011844Y-107703355D01*
X81397781Y-107470470D01*
X81864423Y-107130161D01*
X82500900Y-106605918D01*
X83221171Y-105971084D01*
X83894313Y-105342350D01*
X84745053Y-104567309D01*
X85570793Y-103895609D01*
X86285986Y-103394629D01*
X86580368Y-103226693D01*
X87166632Y-102925713D01*
X87647919Y-102670488D01*
X87884000Y-102537473D01*
X88229913Y-102326173D01*
X88673231Y-102057445D01*
X89760351Y-101336908D01*
X90621476Y-100603995D01*
X91381027Y-99752126D01*
X91415651Y-99708218D01*
X91713871Y-99315551D01*
X91970575Y-98935648D01*
X92212892Y-98511863D01*
X92467953Y-97987549D01*
X92489119Y-97938640D01*
X93547805Y-97938640D01*
X93721770Y-98034938D01*
X94144144Y-98254342D01*
X94738849Y-98557550D01*
X95050429Y-98714896D01*
X96078823Y-99203758D01*
X97269469Y-99723343D01*
X98528527Y-100236845D01*
X99762157Y-100707462D01*
X100876518Y-101098387D01*
X101777771Y-101372817D01*
X101921905Y-101409921D01*
X102536873Y-101572758D01*
X102870367Y-101710158D01*
X102995652Y-101873006D01*
X102985994Y-102112183D01*
X102979954Y-102144735D01*
X102899984Y-102396816D01*
X102732471Y-102510861D01*
X102400463Y-102494189D01*
X101827012Y-102354114D01*
X101562697Y-102279486D01*
X101445561Y-102254225D01*
X101354116Y-102280794D01*
X101283961Y-102399800D01*
X101230693Y-102651851D01*
X101189910Y-103077553D01*
X101157210Y-103717514D01*
X101128192Y-104612340D01*
X101098453Y-105802638D01*
X101076391Y-106765476D01*
X101037556Y-108160085D01*
X100985623Y-109560509D01*
X100924539Y-110885835D01*
X100858251Y-112055147D01*
X100790705Y-112987534D01*
X100754064Y-113373605D01*
X100654894Y-114460153D01*
X100640628Y-115333896D01*
X100740650Y-116066742D01*
X100984343Y-116730594D01*
X101401090Y-117397360D01*
X102020274Y-118138944D01*
X102871278Y-119027253D01*
X103198364Y-119355247D01*
X104684467Y-120776551D01*
X106082578Y-121972091D01*
X107497709Y-123023374D01*
X109034871Y-124011907D01*
X109710275Y-124409650D01*
X110887824Y-125064923D01*
X111864900Y-125547633D01*
X112736131Y-125896355D01*
X113596147Y-126149667D01*
X114396970Y-126320255D01*
X117306621Y-126694695D01*
X120300256Y-126750468D01*
X123415591Y-126487535D01*
X124606627Y-126309471D01*
X125576169Y-126132725D01*
X126530025Y-125931947D01*
X127345823Y-125734320D01*
X127819627Y-125595810D01*
X129103882Y-125092852D01*
X130551823Y-124407064D01*
X132054180Y-123594695D01*
X133501681Y-122711994D01*
X133786656Y-122524162D01*
X135212636Y-121531563D01*
X136337870Y-120650113D01*
X137192347Y-119841687D01*
X137806054Y-119068164D01*
X138208978Y-118291422D01*
X138431107Y-117473337D01*
X138502426Y-116575788D01*
X138502572Y-116528878D01*
X138450357Y-115560559D01*
X138277150Y-114653769D01*
X137958103Y-113768595D01*
X137468368Y-112865125D01*
X136783101Y-111903447D01*
X135877452Y-110843649D01*
X134726577Y-109645818D01*
X133440767Y-108397966D01*
X131883251Y-106862860D01*
X130328600Y-105222933D01*
X128850735Y-103561018D01*
X127523578Y-101959947D01*
X126528286Y-100652216D01*
X126078721Y-100030262D01*
X125541812Y-99288653D01*
X125097508Y-98675783D01*
X124598060Y-97952774D01*
X124284973Y-97364224D01*
X124138285Y-96803021D01*
X124138032Y-96162049D01*
X124264252Y-95334195D01*
X124373696Y-94792123D01*
X124556996Y-93782242D01*
X124726698Y-92612673D01*
X124854483Y-91486289D01*
X124884685Y-91131571D01*
X124977120Y-90194898D01*
X125106294Y-89262104D01*
X125251058Y-88475120D01*
X125326393Y-88167361D01*
X125737214Y-86427976D01*
X126013831Y-84577052D01*
X126156482Y-82576450D01*
X126165404Y-80388031D01*
X126040836Y-77973657D01*
X125783017Y-75295187D01*
X125424064Y-72535143D01*
X125205736Y-71080843D01*
X124997879Y-69879997D01*
X124774965Y-68824989D01*
X124511468Y-67808204D01*
X124181859Y-66722029D01*
X123760612Y-65458848D01*
X123711679Y-65316371D01*
X122540457Y-62425692D01*
X121043678Y-59586769D01*
X119258379Y-56865142D01*
X118050771Y-55299428D01*
X117603481Y-54766527D01*
X117253955Y-54441382D01*
X116900423Y-54293071D01*
X116441112Y-54290671D01*
X115774250Y-54403257D01*
X115370429Y-54485010D01*
X114723412Y-54564920D01*
X113811018Y-54609479D01*
X112728772Y-54620934D01*
X111572201Y-54601532D01*
X110436830Y-54553522D01*
X109418187Y-54479152D01*
X108611798Y-54380668D01*
X108299808Y-54318643D01*
X107833446Y-54223263D01*
X107541768Y-54201295D01*
X107506151Y-54213230D01*
X107494212Y-54412280D01*
X107518280Y-54894950D01*
X107573376Y-55584323D01*
X107637627Y-56244276D01*
X107837601Y-59490066D01*
X107751857Y-62618297D01*
X107383096Y-65588057D01*
X106868296Y-67887737D01*
X106616960Y-68751171D01*
X106360617Y-69481386D01*
X106052320Y-70183817D01*
X105645122Y-70963897D01*
X105092076Y-71927060D01*
X105000817Y-72081706D01*
X104087939Y-73494286D01*
X102934808Y-75065764D01*
X101590166Y-76735611D01*
X100102753Y-78443298D01*
X98521333Y-80128273D01*
X97920804Y-80760916D01*
X97426802Y-81313216D01*
X97088682Y-81727688D01*
X96955802Y-81946850D01*
X96955429Y-81952002D01*
X96997424Y-82202624D01*
X97112126Y-82730479D01*
X97282614Y-83461189D01*
X97491966Y-84320374D01*
X97518791Y-84428157D01*
X97825886Y-85796627D01*
X97979116Y-86926287D01*
X97962533Y-87908061D01*
X97760187Y-88832872D01*
X97356130Y-89791643D01*
X96734412Y-90875298D01*
X96259000Y-91610120D01*
X96021382Y-92024015D01*
X95705262Y-92653578D01*
X95337481Y-93436152D01*
X94944881Y-94309083D01*
X94554306Y-95209715D01*
X94192597Y-96075392D01*
X93886596Y-96843459D01*
X93663146Y-97451261D01*
X93549089Y-97836141D01*
X93547805Y-97938640D01*
X92489119Y-97938640D01*
X92762887Y-97306057D01*
X93124822Y-96410740D01*
X93580888Y-95244951D01*
X93698479Y-94941571D01*
X94315872Y-93436959D01*
X94922350Y-92165265D01*
X95579947Y-91003959D01*
X96102529Y-90193148D01*
X96519529Y-89517277D01*
X96821744Y-88865357D01*
X97008351Y-88188161D01*
X97078527Y-87436465D01*
X97031448Y-86561043D01*
X96866292Y-85512672D01*
X96582236Y-84242125D01*
X96178456Y-82700178D01*
X95964364Y-81929148D01*
X95648105Y-80793353D01*
X95326052Y-79619128D01*
X95029331Y-78521091D01*
X94789065Y-77613860D01*
X94760413Y-77503026D01*
X95678673Y-77503026D01*
X96649591Y-80940278D01*
X97145348Y-80573749D01*
X97439411Y-80311816D01*
X97917379Y-79835861D01*
X98523050Y-79203920D01*
X99200224Y-78474027D01*
X99520767Y-78120801D01*
X101251788Y-76130178D01*
X102703236Y-74304076D01*
X103897775Y-72606223D01*
X104858067Y-71000346D01*
X105606777Y-69450171D01*
X106166567Y-67919425D01*
X106387776Y-67129956D01*
X106722512Y-65563442D01*
X106984064Y-63852968D01*
X107159959Y-62120631D01*
X107237725Y-60488527D01*
X107207097Y-59109428D01*
X107080891Y-57427487D01*
X106962046Y-56082308D01*
X106846897Y-55047965D01*
X106731780Y-54298532D01*
X106613028Y-53808082D01*
X106486978Y-53550687D01*
X106414010Y-53499300D01*
X106106408Y-53426958D01*
X105545327Y-53310617D01*
X104834239Y-53171480D01*
X104575429Y-53122514D01*
X103833587Y-52982771D01*
X103202899Y-52862789D01*
X102788409Y-52782592D01*
X102715786Y-52768026D01*
X102550043Y-52775288D01*
X102453956Y-52929338D01*
X102409258Y-53300979D01*
X102397679Y-53961015D01*
X102397643Y-54001056D01*
X102360281Y-55865925D01*
X102255373Y-57846280D01*
X102091032Y-59877144D01*
X101875374Y-61893539D01*
X101616511Y-63830484D01*
X101322558Y-65623003D01*
X101001628Y-67206115D01*
X100661837Y-68514843D01*
X100536365Y-68906571D01*
X99902286Y-70533678D01*
X99098555Y-72244820D01*
X98185170Y-73929154D01*
X97222125Y-75475835D01*
X96294922Y-76742655D01*
X95678673Y-77503026D01*
X94760413Y-77503026D01*
X94719044Y-77343000D01*
X94515463Y-76567026D01*
X94331284Y-75899985D01*
X94193177Y-75436855D01*
X94145884Y-75301928D01*
X94115045Y-75077076D01*
X94332918Y-74992226D01*
X94554768Y-74984428D01*
X94952160Y-75042854D01*
X95143951Y-75292813D01*
X95207048Y-75540738D01*
X95330595Y-75914701D01*
X95489447Y-75953376D01*
X95689545Y-75650072D01*
X95936831Y-74998100D01*
X96071739Y-74567005D01*
X96314554Y-73824535D01*
X96584078Y-73106703D01*
X96846125Y-72493425D01*
X97066510Y-72064615D01*
X97211047Y-71900188D01*
X97212578Y-71900143D01*
X97207928Y-72063458D01*
X97136600Y-72499133D01*
X97012625Y-73125759D01*
X96954645Y-73396928D01*
X96813128Y-74084820D01*
X96718355Y-74622737D01*
X96684881Y-74924516D01*
X96690761Y-74958887D01*
X96823419Y-74866847D01*
X97082586Y-74511774D01*
X97432179Y-73955021D01*
X97836113Y-73257944D01*
X98258304Y-72481899D01*
X98662667Y-71688240D01*
X98871979Y-71250125D01*
X99780312Y-69057468D01*
X100428603Y-66966368D01*
X100754127Y-65359876D01*
X100870366Y-64565164D01*
X101014098Y-63574522D01*
X101161664Y-62551256D01*
X101225973Y-62103000D01*
X101295504Y-61501294D01*
X101366989Y-60679740D01*
X101437775Y-59695679D01*
X101505210Y-58606455D01*
X101566640Y-57469408D01*
X101619411Y-56341881D01*
X101660872Y-55281217D01*
X101688369Y-54344756D01*
X101699248Y-53589841D01*
X101690857Y-53073815D01*
X101660543Y-52854019D01*
X101654082Y-52850143D01*
X101455817Y-52830276D01*
X100968205Y-52776034D01*
X100262271Y-52695449D01*
X99409036Y-52596554D01*
X99312888Y-52585329D01*
X98137965Y-52462598D01*
X96800939Y-52345529D01*
X95499523Y-52250533D01*
X94778286Y-52208979D01*
X93372583Y-52123459D01*
X92222463Y-52009554D01*
X91220816Y-51849715D01*
X90260531Y-51626394D01*
X89234495Y-51322043D01*
X89100477Y-51278791D01*
X88387769Y-51074449D01*
X87765075Y-50944418D01*
X87344480Y-50910887D01*
X87286191Y-50919632D01*
X86870531Y-51124955D01*
X86285683Y-51545660D01*
X85598405Y-52121452D01*
X84875451Y-52792039D01*
X84183578Y-53497128D01*
X83589541Y-54176423D01*
X83377762Y-54449705D01*
X82025188Y-56568881D01*
X80961112Y-58874549D01*
X80172653Y-61396162D01*
X79986949Y-62203800D01*
X79493311Y-65033892D01*
X79244986Y-67777324D01*
X79240710Y-70529951D01*
X78730652Y-70529951D01*
X78729656Y-70467807D01*
X78725181Y-69269428D01*
X78727359Y-67840675D01*
X78739316Y-66707923D01*
X78765526Y-65804356D01*
X78810462Y-65063157D01*
X78878598Y-64417510D01*
X78974407Y-63800597D01*
X79102362Y-63145602D01*
X79150316Y-62919428D01*
X79493962Y-61410189D01*
X79829576Y-60158762D01*
X80191269Y-59062556D01*
X80613155Y-58018982D01*
X81129347Y-56925450D01*
X81171303Y-56841571D01*
X82221362Y-55019511D01*
X83445131Y-53363646D01*
X84790089Y-51935580D01*
X86203719Y-50796916D01*
X86477929Y-50616986D01*
X86820993Y-50363748D01*
X86975520Y-50177541D01*
X86976223Y-50169889D01*
X86828167Y-50023388D01*
X86442313Y-49770889D01*
X85951108Y-49493714D01*
X85235781Y-49074441D01*
X84444667Y-48552641D01*
X83910671Y-48163644D01*
X82894715Y-47377860D01*
X82018085Y-48345073D01*
X80970735Y-49678738D01*
X79939699Y-51336627D01*
X78941016Y-53280108D01*
X77990724Y-55470548D01*
X77104861Y-57869313D01*
X76299466Y-60437771D01*
X75590576Y-63137289D01*
X75252051Y-64643000D01*
X75005461Y-66008911D01*
X74822259Y-67436706D01*
X74707288Y-68843307D01*
X74665393Y-70145636D01*
X73440971Y-70145636D01*
X73668600Y-70031860D01*
X73828004Y-69896794D01*
X73884804Y-69663618D01*
X73968271Y-69141815D01*
X74068062Y-68403723D01*
X74173832Y-67521680D01*
X74196012Y-67323329D01*
X74557784Y-64880645D01*
X75132435Y-62166285D01*
X75915866Y-59199412D01*
X75981621Y-58971745D01*
X76228527Y-58159950D01*
X76502285Y-57347048D01*
X76831813Y-56455591D01*
X77246032Y-55408132D01*
X77773860Y-54127222D01*
X77928701Y-53757285D01*
X78346019Y-52871447D01*
X78908820Y-51826525D01*
X79555410Y-50724565D01*
X80224098Y-49667612D01*
X80853191Y-48757712D01*
X81284156Y-48206989D01*
X82116626Y-47232573D01*
X80357278Y-45369572D01*
X78937597Y-43759592D01*
X77578043Y-42017100D01*
X76375490Y-40270374D01*
X75820761Y-39362380D01*
X75311386Y-38483903D01*
X69487336Y-38560001D01*
X67848487Y-38582976D01*
X66518142Y-38607080D01*
X65441958Y-38636074D01*
X64565590Y-38673719D01*
X63834695Y-38723777D01*
X63194930Y-38790009D01*
X62591950Y-38876177D01*
X61971413Y-38986043D01*
X61278975Y-39123369D01*
X61243407Y-39130631D01*
X58540516Y-39802840D01*
X56084429Y-40674909D01*
X53800697Y-41777985D01*
X51614874Y-43143215D01*
X51558703Y-43182470D01*
X50365144Y-44110018D01*
X49098809Y-45251013D01*
X47854671Y-46508993D01*
X46727698Y-47787494D01*
X45812861Y-48990054D01*
X45750227Y-49082253D01*
X45059720Y-50196219D01*
X44354758Y-51484162D01*
X43696504Y-52823142D01*
X43146119Y-54090217D01*
X42830511Y-54951178D01*
X42669153Y-55513747D01*
X42479379Y-56274996D01*
X42281113Y-57141589D01*
X42094280Y-58020189D01*
X41938803Y-58817461D01*
X41834607Y-59440069D01*
X41801143Y-59773329D01*
X41884043Y-60063460D01*
X42066344Y-60057629D01*
X42248444Y-59763293D01*
X42256360Y-59739243D01*
X42430667Y-59453718D01*
X42801365Y-58993055D01*
X43304101Y-58434464D01*
X43599847Y-58127371D01*
X44768442Y-57102315D01*
X46009266Y-56301855D01*
X47256084Y-55760258D01*
X48442662Y-55511792D01*
X48678127Y-55500061D01*
X49261032Y-55504161D01*
X49567117Y-55563413D01*
X49681389Y-55705700D01*
X49693286Y-55833034D01*
X49634700Y-56033144D01*
X49410788Y-56182521D01*
X48949318Y-56314846D01*
X48443252Y-56415920D01*
X47003689Y-56862884D01*
X45637487Y-57646492D01*
X44365348Y-58744370D01*
X43207978Y-60134147D01*
X42186079Y-61793449D01*
X41320356Y-63699904D01*
X41071724Y-64381624D01*
X40860411Y-65063256D01*
X40606743Y-65985237D01*
X40330622Y-67063275D01*
X40051952Y-68213079D01*
X39790633Y-69350356D01*
X39566567Y-70390815D01*
X39399656Y-71250163D01*
X39309819Y-71843957D01*
X38499797Y-71843957D01*
X38524731Y-71207879D01*
X38636758Y-70161306D01*
X38834121Y-69049665D01*
X39131494Y-67799345D01*
X39543547Y-66336732D01*
X39890204Y-65204174D01*
X40337466Y-63507445D01*
X40624648Y-61733711D01*
X40693501Y-61069177D01*
X41145092Y-57928708D01*
X41908697Y-54960897D01*
X42977378Y-52176507D01*
X44344197Y-49586303D01*
X46002216Y-47201047D01*
X47944496Y-45031504D01*
X50164100Y-43088436D01*
X52654090Y-41382608D01*
X53807864Y-40723818D01*
X55390452Y-39971409D01*
X57256372Y-39258806D01*
X59326302Y-38613709D01*
X61253085Y-38123978D01*
X61765033Y-38015577D01*
X62286679Y-37927049D01*
X62865771Y-37855353D01*
X63550054Y-37797446D01*
X64387277Y-37750287D01*
X65425184Y-37710833D01*
X66711523Y-37676042D01*
X68294040Y-37642872D01*
X69013735Y-37629501D01*
X75089898Y-37519428D01*
X75103928Y-37452205D01*
X76185869Y-37452205D01*
X76230606Y-37890265D01*
X76374638Y-38333641D01*
X76642408Y-38853368D01*
X77058356Y-39520482D01*
X77646923Y-40406017D01*
X77769387Y-40588581D01*
X79637517Y-43094630D01*
X81746492Y-45387501D01*
X84149933Y-47525242D01*
X84255429Y-47610335D01*
X84753749Y-47978154D01*
X85400519Y-48410542D01*
X86119341Y-48861918D01*
X86833817Y-49286705D01*
X87467552Y-49639324D01*
X87944146Y-49874194D01*
X88172508Y-49947285D01*
X88303040Y-49780333D01*
X88416324Y-49337218D01*
X88450038Y-49077151D01*
X89183805Y-49077151D01*
X89189208Y-49425502D01*
X89244715Y-50393680D01*
X90602233Y-50708361D01*
X91255998Y-50827302D01*
X92174577Y-50950237D01*
X93260229Y-51066242D01*
X94415219Y-51164391D01*
X95081339Y-51209009D01*
X96860034Y-51337106D01*
X98610307Y-51511915D01*
X100397403Y-51743534D01*
X102286564Y-52042061D01*
X104343036Y-52417594D01*
X106632062Y-52880230D01*
X108566857Y-53296184D01*
X110117273Y-53562950D01*
X111701303Y-53703099D01*
X113234129Y-53717307D01*
X114630934Y-53606251D01*
X115806900Y-53370607D01*
X116213132Y-53235196D01*
X117385190Y-52685947D01*
X118266152Y-52038508D01*
X118925565Y-51234700D01*
X119205979Y-50731567D01*
X119442856Y-50218087D01*
X119593142Y-49771719D01*
X119675054Y-49284726D01*
X119706812Y-48649369D01*
X119706750Y-47770143D01*
X119668813Y-46650523D01*
X119568825Y-45773612D01*
X119391309Y-45022264D01*
X119311229Y-44776571D01*
X118506324Y-42906750D01*
X117438462Y-41223827D01*
X116098911Y-39689889D01*
X115383428Y-38995324D01*
X114790711Y-38493276D01*
X114204760Y-38103034D01*
X113509575Y-37743882D01*
X112921143Y-37478801D01*
X111785066Y-37035226D01*
X110524427Y-36652675D01*
X109037081Y-36301461D01*
X108475647Y-36186694D01*
X106963287Y-35842470D01*
X105196576Y-35363929D01*
X103248368Y-34773606D01*
X101191516Y-34094037D01*
X99098873Y-33347757D01*
X98180072Y-33001973D01*
X97587575Y-32791991D01*
X97153592Y-32670203D01*
X96961207Y-32659335D01*
X96958277Y-32667773D01*
X97110971Y-32798663D01*
X97524634Y-33055660D01*
X98136163Y-33401651D01*
X98882452Y-33799521D01*
X98883649Y-33800143D01*
X99848788Y-34319834D01*
X100526583Y-34739881D01*
X100963674Y-35102488D01*
X101206700Y-35449857D01*
X101302301Y-35824192D01*
X101309715Y-35995439D01*
X101279867Y-36309276D01*
X101151260Y-36557430D01*
X100865298Y-36783811D01*
X100363386Y-37032328D01*
X99586929Y-37346889D01*
X99420290Y-37411294D01*
X98217195Y-37978155D01*
X96954468Y-38783057D01*
X95598590Y-39850756D01*
X94116041Y-41206009D01*
X93615025Y-41698844D01*
X92041607Y-43387832D01*
X90812822Y-44968329D01*
X89927625Y-46442163D01*
X89384968Y-47811161D01*
X89183805Y-49077151D01*
X88450038Y-49077151D01*
X88472505Y-48903846D01*
X88748024Y-47539287D01*
X89337714Y-46102648D01*
X90248778Y-44581789D01*
X91488415Y-42964568D01*
X92948771Y-41356934D01*
X94495963Y-39845101D01*
X95989274Y-38548796D01*
X97396745Y-37491871D01*
X98686415Y-36698180D01*
X99826326Y-36191576D01*
X99903643Y-36166217D01*
X100394803Y-35974371D01*
X100555041Y-35781589D01*
X100410974Y-35525018D01*
X100243838Y-35362824D01*
X99829342Y-35073475D01*
X99125827Y-34678428D01*
X98183829Y-34199920D01*
X97053885Y-33660183D01*
X95786532Y-33081453D01*
X94432306Y-32485966D01*
X93041745Y-31895955D01*
X91665385Y-31333656D01*
X90353762Y-30821304D01*
X89157415Y-30381133D01*
X88156143Y-30044555D01*
X87458460Y-29812397D01*
X86883122Y-29597482D01*
X86528266Y-29437217D01*
X86479694Y-29405564D01*
X86106494Y-29260074D01*
X85464985Y-29164593D01*
X84646754Y-29122890D01*
X83743392Y-29138732D01*
X82846487Y-29215885D01*
X82622572Y-29246918D01*
X81103021Y-29594711D01*
X79844122Y-30152685D01*
X78791616Y-30950755D01*
X78088592Y-31746514D01*
X77365739Y-32821539D01*
X76853391Y-33898686D01*
X76502696Y-35102300D01*
X76296517Y-36307892D01*
X76215986Y-36948425D01*
X76185869Y-37452205D01*
X75103928Y-37452205D01*
X75373898Y-36158714D01*
X75714892Y-34712966D01*
X76088088Y-33545922D01*
X76528856Y-32573443D01*
X77072569Y-31711389D01*
X77443760Y-31235184D01*
X78104272Y-30505291D01*
X78715909Y-29997707D01*
X79399723Y-29614138D01*
X79492163Y-29571872D01*
X80370932Y-29214863D01*
X81213017Y-28967183D01*
X82107629Y-28816018D01*
X83143980Y-28748557D01*
X84411282Y-28751984D01*
D11*
X129540000Y-63040000D02*
X129540000Y-69040000D01*
X129540000Y-69040000D02*
X117540000Y-69040000D01*
X117540000Y-69040000D02*
X117540000Y-63040000D01*
X117540000Y-63040000D02*
X129540000Y-63040000D01*
D12*
X134334250Y-58578750D02*
X114141250Y-58451750D01*
X134334250Y-26828750D02*
X134334250Y-58578750D01*
X114141250Y-26828750D02*
X114141250Y-58451750D01*
X134334250Y-26828750D02*
X114141250Y-26828750D01*
D11*
X122542380Y-67051904D02*
X122542380Y-66480476D01*
X123542380Y-66766190D02*
X122542380Y-66766190D01*
X123542380Y-65575714D02*
X123066190Y-65909047D01*
X123542380Y-66147142D02*
X122542380Y-66147142D01*
X122542380Y-65766190D01*
X122590000Y-65670952D01*
X122637619Y-65623333D01*
X122732857Y-65575714D01*
X122875714Y-65575714D01*
X122970952Y-65623333D01*
X123018571Y-65670952D01*
X123066190Y-65766190D01*
X123066190Y-66147142D01*
X123542380Y-64575714D02*
X123066190Y-64909047D01*
X123542380Y-65147142D02*
X122542380Y-65147142D01*
X122542380Y-64766190D01*
X122590000Y-64670952D01*
X122637619Y-64623333D01*
X122732857Y-64575714D01*
X122875714Y-64575714D01*
X122970952Y-64623333D01*
X123018571Y-64670952D01*
X123066190Y-64766190D01*
X123066190Y-65147142D01*
X123494761Y-64194761D02*
X123542380Y-64051904D01*
X123542380Y-63813809D01*
X123494761Y-63718571D01*
X123447142Y-63670952D01*
X123351904Y-63623333D01*
X123256666Y-63623333D01*
X123161428Y-63670952D01*
X123113809Y-63718571D01*
X123066190Y-63813809D01*
X123018571Y-64004285D01*
X122970952Y-64099523D01*
X122923333Y-64147142D01*
X122828095Y-64194761D01*
X122732857Y-64194761D01*
X122637619Y-64147142D01*
X122590000Y-64099523D01*
X122542380Y-64004285D01*
X122542380Y-63766190D01*
X122590000Y-63623333D01*
D13*
X120710773Y-43229892D02*
X121738869Y-43229892D01*
X121859821Y-43157321D01*
X121920297Y-43084750D01*
X121980773Y-42939607D01*
X121980773Y-42649321D01*
X121920297Y-42504178D01*
X121859821Y-42431607D01*
X121738869Y-42359035D01*
X120710773Y-42359035D01*
X121980773Y-40835035D02*
X121980773Y-41705892D01*
X121980773Y-41270464D02*
X120710773Y-41270464D01*
X120892202Y-41415607D01*
X121013154Y-41560750D01*
X121073630Y-41705892D01*
D11*
X128706154Y-28891130D02*
X129277583Y-28891130D01*
X128991869Y-29891130D02*
X128991869Y-28891130D01*
X129515678Y-28891130D02*
X130182345Y-29891130D01*
X130182345Y-28891130D02*
X129515678Y-29891130D01*
X130753773Y-28891130D02*
X130849011Y-28891130D01*
X130944250Y-28938750D01*
X130991869Y-28986369D01*
X131039488Y-29081607D01*
X131087107Y-29272083D01*
X131087107Y-29510178D01*
X131039488Y-29700654D01*
X130991869Y-29795892D01*
X130944250Y-29843511D01*
X130849011Y-29891130D01*
X130753773Y-29891130D01*
X130658535Y-29843511D01*
X130610916Y-29795892D01*
X130563297Y-29700654D01*
X130515678Y-29510178D01*
X130515678Y-29272083D01*
X130563297Y-29081607D01*
X130610916Y-28986369D01*
X130658535Y-28938750D01*
X130753773Y-28891130D01*
X120153773Y-29891130D02*
X119820440Y-29414940D01*
X119582345Y-29891130D02*
X119582345Y-28891130D01*
X119963297Y-28891130D01*
X120058535Y-28938750D01*
X120106154Y-28986369D01*
X120153773Y-29081607D01*
X120153773Y-29224464D01*
X120106154Y-29319702D01*
X120058535Y-29367321D01*
X119963297Y-29414940D01*
X119582345Y-29414940D01*
X120534726Y-29605416D02*
X121010916Y-29605416D01*
X120439488Y-29891130D02*
X120772821Y-28891130D01*
X121106154Y-29891130D01*
X121344250Y-28891130D02*
X121582345Y-29891130D01*
X121772821Y-29176845D01*
X121963297Y-29891130D01*
X122201392Y-28891130D01*
X117293154Y-27621130D02*
X117864583Y-27621130D01*
X117578869Y-28621130D02*
X117578869Y-27621130D01*
X118102678Y-27621130D02*
X118769345Y-28621130D01*
X118769345Y-27621130D02*
X118102678Y-28621130D01*
X119340773Y-27621130D02*
X119436011Y-27621130D01*
X119531250Y-27668750D01*
X119578869Y-27716369D01*
X119626488Y-27811607D01*
X119674107Y-28002083D01*
X119674107Y-28240178D01*
X119626488Y-28430654D01*
X119578869Y-28525892D01*
X119531250Y-28573511D01*
X119436011Y-28621130D01*
X119340773Y-28621130D01*
X119245535Y-28573511D01*
X119197916Y-28525892D01*
X119150297Y-28430654D01*
X119102678Y-28240178D01*
X119102678Y-28002083D01*
X119150297Y-27811607D01*
X119197916Y-27716369D01*
X119245535Y-27668750D01*
X119340773Y-27621130D01*
X126940773Y-28621130D02*
X126607440Y-28144940D01*
X126369345Y-28621130D02*
X126369345Y-27621130D01*
X126750297Y-27621130D01*
X126845535Y-27668750D01*
X126893154Y-27716369D01*
X126940773Y-27811607D01*
X126940773Y-27954464D01*
X126893154Y-28049702D01*
X126845535Y-28097321D01*
X126750297Y-28144940D01*
X126369345Y-28144940D01*
X127321726Y-28335416D02*
X127797916Y-28335416D01*
X127226488Y-28621130D02*
X127559821Y-27621130D01*
X127893154Y-28621130D01*
X128131250Y-27621130D02*
X128369345Y-28621130D01*
X128559821Y-27906845D01*
X128750297Y-28621130D01*
X128988392Y-27621130D01*
X110696595Y-143390880D02*
X110696595Y-142390880D01*
X111029928Y-143105166D01*
X111363261Y-142390880D01*
X111363261Y-143390880D01*
X111744214Y-142390880D02*
X112410880Y-143390880D01*
X112410880Y-142390880D02*
X111744214Y-143390880D01*
X112744214Y-142486119D02*
X112791833Y-142438500D01*
X112887071Y-142390880D01*
X113125166Y-142390880D01*
X113220404Y-142438500D01*
X113268023Y-142486119D01*
X113315642Y-142581357D01*
X113315642Y-142676595D01*
X113268023Y-142819452D01*
X112696595Y-143390880D01*
X113315642Y-143390880D01*
X113934690Y-142390880D02*
X114029928Y-142390880D01*
X114125166Y-142438500D01*
X114172785Y-142486119D01*
X114220404Y-142581357D01*
X114268023Y-142771833D01*
X114268023Y-143009928D01*
X114220404Y-143200404D01*
X114172785Y-143295642D01*
X114125166Y-143343261D01*
X114029928Y-143390880D01*
X113934690Y-143390880D01*
X113839452Y-143343261D01*
X113791833Y-143295642D01*
X113744214Y-143200404D01*
X113696595Y-143009928D01*
X113696595Y-142771833D01*
X113744214Y-142581357D01*
X113791833Y-142486119D01*
X113839452Y-142438500D01*
X113934690Y-142390880D01*
X105934095Y-124340880D02*
X105934095Y-123340880D01*
X106267428Y-124055166D01*
X106600761Y-123340880D01*
X106600761Y-124340880D01*
X106981714Y-123340880D02*
X107648380Y-124340880D01*
X107648380Y-123340880D02*
X106981714Y-124340880D01*
X108553142Y-124340880D02*
X107981714Y-124340880D01*
X108267428Y-124340880D02*
X108267428Y-123340880D01*
X108172190Y-123483738D01*
X108076952Y-123578976D01*
X107981714Y-123626595D01*
X109029333Y-124340880D02*
X109219809Y-124340880D01*
X109315047Y-124293261D01*
X109362666Y-124245642D01*
X109457904Y-124102785D01*
X109505523Y-123912309D01*
X109505523Y-123531357D01*
X109457904Y-123436119D01*
X109410285Y-123388500D01*
X109315047Y-123340880D01*
X109124571Y-123340880D01*
X109029333Y-123388500D01*
X108981714Y-123436119D01*
X108934095Y-123531357D01*
X108934095Y-123769452D01*
X108981714Y-123864690D01*
X109029333Y-123912309D01*
X109124571Y-123959928D01*
X109315047Y-123959928D01*
X109410285Y-123912309D01*
X109457904Y-123864690D01*
X109505523Y-123769452D01*
X82121595Y-100528380D02*
X82121595Y-99528380D01*
X82454928Y-100242666D01*
X82788261Y-99528380D01*
X82788261Y-100528380D01*
X83169214Y-99528380D02*
X83835880Y-100528380D01*
X83835880Y-99528380D02*
X83169214Y-100528380D01*
X84740642Y-100528380D02*
X84169214Y-100528380D01*
X84454928Y-100528380D02*
X84454928Y-99528380D01*
X84359690Y-99671238D01*
X84264452Y-99766476D01*
X84169214Y-99814095D01*
X85312071Y-99956952D02*
X85216833Y-99909333D01*
X85169214Y-99861714D01*
X85121595Y-99766476D01*
X85121595Y-99718857D01*
X85169214Y-99623619D01*
X85216833Y-99576000D01*
X85312071Y-99528380D01*
X85502547Y-99528380D01*
X85597785Y-99576000D01*
X85645404Y-99623619D01*
X85693023Y-99718857D01*
X85693023Y-99766476D01*
X85645404Y-99861714D01*
X85597785Y-99909333D01*
X85502547Y-99956952D01*
X85312071Y-99956952D01*
X85216833Y-100004571D01*
X85169214Y-100052190D01*
X85121595Y-100147428D01*
X85121595Y-100337904D01*
X85169214Y-100433142D01*
X85216833Y-100480761D01*
X85312071Y-100528380D01*
X85502547Y-100528380D01*
X85597785Y-100480761D01*
X85645404Y-100433142D01*
X85693023Y-100337904D01*
X85693023Y-100147428D01*
X85645404Y-100052190D01*
X85597785Y-100004571D01*
X85502547Y-99956952D01*
X86884095Y-124340880D02*
X86884095Y-123340880D01*
X87217428Y-124055166D01*
X87550761Y-123340880D01*
X87550761Y-124340880D01*
X87931714Y-123340880D02*
X88598380Y-124340880D01*
X88598380Y-123340880D02*
X87931714Y-124340880D01*
X89503142Y-124340880D02*
X88931714Y-124340880D01*
X89217428Y-124340880D02*
X89217428Y-123340880D01*
X89122190Y-123483738D01*
X89026952Y-123578976D01*
X88931714Y-123626595D01*
X89836476Y-123340880D02*
X90503142Y-123340880D01*
X90074571Y-124340880D01*
X24971595Y-95765880D02*
X24971595Y-94765880D01*
X25304928Y-95480166D01*
X25638261Y-94765880D01*
X25638261Y-95765880D01*
X26019214Y-94765880D02*
X26685880Y-95765880D01*
X26685880Y-94765880D02*
X26019214Y-95765880D01*
X27590642Y-95765880D02*
X27019214Y-95765880D01*
X27304928Y-95765880D02*
X27304928Y-94765880D01*
X27209690Y-94908738D01*
X27114452Y-95003976D01*
X27019214Y-95051595D01*
X28447785Y-94765880D02*
X28257309Y-94765880D01*
X28162071Y-94813500D01*
X28114452Y-94861119D01*
X28019214Y-95003976D01*
X27971595Y-95194452D01*
X27971595Y-95575404D01*
X28019214Y-95670642D01*
X28066833Y-95718261D01*
X28162071Y-95765880D01*
X28352547Y-95765880D01*
X28447785Y-95718261D01*
X28495404Y-95670642D01*
X28543023Y-95575404D01*
X28543023Y-95337309D01*
X28495404Y-95242071D01*
X28447785Y-95194452D01*
X28352547Y-95146833D01*
X28162071Y-95146833D01*
X28066833Y-95194452D01*
X28019214Y-95242071D01*
X27971595Y-95337309D01*
X129746595Y-143390880D02*
X129746595Y-142390880D01*
X130079928Y-143105166D01*
X130413261Y-142390880D01*
X130413261Y-143390880D01*
X130794214Y-142390880D02*
X131460880Y-143390880D01*
X131460880Y-142390880D02*
X130794214Y-143390880D01*
X132365642Y-143390880D02*
X131794214Y-143390880D01*
X132079928Y-143390880D02*
X132079928Y-142390880D01*
X131984690Y-142533738D01*
X131889452Y-142628976D01*
X131794214Y-142676595D01*
X133270404Y-142390880D02*
X132794214Y-142390880D01*
X132746595Y-142867071D01*
X132794214Y-142819452D01*
X132889452Y-142771833D01*
X133127547Y-142771833D01*
X133222785Y-142819452D01*
X133270404Y-142867071D01*
X133318023Y-142962309D01*
X133318023Y-143200404D01*
X133270404Y-143295642D01*
X133222785Y-143343261D01*
X133127547Y-143390880D01*
X132889452Y-143390880D01*
X132794214Y-143343261D01*
X132746595Y-143295642D01*
X101171595Y-105290880D02*
X101171595Y-104290880D01*
X101504928Y-105005166D01*
X101838261Y-104290880D01*
X101838261Y-105290880D01*
X102219214Y-104290880D02*
X102885880Y-105290880D01*
X102885880Y-104290880D02*
X102219214Y-105290880D01*
X103790642Y-105290880D02*
X103219214Y-105290880D01*
X103504928Y-105290880D02*
X103504928Y-104290880D01*
X103409690Y-104433738D01*
X103314452Y-104528976D01*
X103219214Y-104576595D01*
X104647785Y-104624214D02*
X104647785Y-105290880D01*
X104409690Y-104243261D02*
X104171595Y-104957547D01*
X104790642Y-104957547D01*
X82121595Y-81478380D02*
X82121595Y-80478380D01*
X82454928Y-81192666D01*
X82788261Y-80478380D01*
X82788261Y-81478380D01*
X83169214Y-80478380D02*
X83835880Y-81478380D01*
X83835880Y-80478380D02*
X83169214Y-81478380D01*
X84740642Y-81478380D02*
X84169214Y-81478380D01*
X84454928Y-81478380D02*
X84454928Y-80478380D01*
X84359690Y-80621238D01*
X84264452Y-80716476D01*
X84169214Y-80764095D01*
X85073976Y-80478380D02*
X85693023Y-80478380D01*
X85359690Y-80859333D01*
X85502547Y-80859333D01*
X85597785Y-80906952D01*
X85645404Y-80954571D01*
X85693023Y-81049809D01*
X85693023Y-81287904D01*
X85645404Y-81383142D01*
X85597785Y-81430761D01*
X85502547Y-81478380D01*
X85216833Y-81478380D01*
X85121595Y-81430761D01*
X85073976Y-81383142D01*
X63071595Y-95765880D02*
X63071595Y-94765880D01*
X63404928Y-95480166D01*
X63738261Y-94765880D01*
X63738261Y-95765880D01*
X64119214Y-94765880D02*
X64785880Y-95765880D01*
X64785880Y-94765880D02*
X64119214Y-95765880D01*
X65690642Y-95765880D02*
X65119214Y-95765880D01*
X65404928Y-95765880D02*
X65404928Y-94765880D01*
X65309690Y-94908738D01*
X65214452Y-95003976D01*
X65119214Y-95051595D01*
X66071595Y-94861119D02*
X66119214Y-94813500D01*
X66214452Y-94765880D01*
X66452547Y-94765880D01*
X66547785Y-94813500D01*
X66595404Y-94861119D01*
X66643023Y-94956357D01*
X66643023Y-95051595D01*
X66595404Y-95194452D01*
X66023976Y-95765880D01*
X66643023Y-95765880D01*
X44021595Y-81478380D02*
X44021595Y-80478380D01*
X44354928Y-81192666D01*
X44688261Y-80478380D01*
X44688261Y-81478380D01*
X45069214Y-80478380D02*
X45735880Y-81478380D01*
X45735880Y-80478380D02*
X45069214Y-81478380D01*
X46640642Y-81478380D02*
X46069214Y-81478380D01*
X46354928Y-81478380D02*
X46354928Y-80478380D01*
X46259690Y-80621238D01*
X46164452Y-80716476D01*
X46069214Y-80764095D01*
X47593023Y-81478380D02*
X47021595Y-81478380D01*
X47307309Y-81478380D02*
X47307309Y-80478380D01*
X47212071Y-80621238D01*
X47116833Y-80716476D01*
X47021595Y-80764095D01*
X124984095Y-124340880D02*
X124984095Y-123340880D01*
X125317428Y-124055166D01*
X125650761Y-123340880D01*
X125650761Y-124340880D01*
X126031714Y-123340880D02*
X126698380Y-124340880D01*
X126698380Y-123340880D02*
X126031714Y-124340880D01*
X127603142Y-124340880D02*
X127031714Y-124340880D01*
X127317428Y-124340880D02*
X127317428Y-123340880D01*
X127222190Y-123483738D01*
X127126952Y-123578976D01*
X127031714Y-123626595D01*
X128222190Y-123340880D02*
X128317428Y-123340880D01*
X128412666Y-123388500D01*
X128460285Y-123436119D01*
X128507904Y-123531357D01*
X128555523Y-123721833D01*
X128555523Y-123959928D01*
X128507904Y-124150404D01*
X128460285Y-124245642D01*
X128412666Y-124293261D01*
X128317428Y-124340880D01*
X128222190Y-124340880D01*
X128126952Y-124293261D01*
X128079333Y-124245642D01*
X128031714Y-124150404D01*
X127984095Y-123959928D01*
X127984095Y-123721833D01*
X128031714Y-123531357D01*
X128079333Y-123436119D01*
X128126952Y-123388500D01*
X128222190Y-123340880D01*
X101647785Y-86240880D02*
X101647785Y-85240880D01*
X101981119Y-85955166D01*
X102314452Y-85240880D01*
X102314452Y-86240880D01*
X102695404Y-85240880D02*
X103362071Y-86240880D01*
X103362071Y-85240880D02*
X102695404Y-86240880D01*
X103790642Y-86240880D02*
X103981119Y-86240880D01*
X104076357Y-86193261D01*
X104123976Y-86145642D01*
X104219214Y-86002785D01*
X104266833Y-85812309D01*
X104266833Y-85431357D01*
X104219214Y-85336119D01*
X104171595Y-85288500D01*
X104076357Y-85240880D01*
X103885880Y-85240880D01*
X103790642Y-85288500D01*
X103743023Y-85336119D01*
X103695404Y-85431357D01*
X103695404Y-85669452D01*
X103743023Y-85764690D01*
X103790642Y-85812309D01*
X103885880Y-85859928D01*
X104076357Y-85859928D01*
X104171595Y-85812309D01*
X104219214Y-85764690D01*
X104266833Y-85669452D01*
X82597785Y-62428380D02*
X82597785Y-61428380D01*
X82931119Y-62142666D01*
X83264452Y-61428380D01*
X83264452Y-62428380D01*
X83645404Y-61428380D02*
X84312071Y-62428380D01*
X84312071Y-61428380D02*
X83645404Y-62428380D01*
X84835880Y-61856952D02*
X84740642Y-61809333D01*
X84693023Y-61761714D01*
X84645404Y-61666476D01*
X84645404Y-61618857D01*
X84693023Y-61523619D01*
X84740642Y-61476000D01*
X84835880Y-61428380D01*
X85026357Y-61428380D01*
X85121595Y-61476000D01*
X85169214Y-61523619D01*
X85216833Y-61618857D01*
X85216833Y-61666476D01*
X85169214Y-61761714D01*
X85121595Y-61809333D01*
X85026357Y-61856952D01*
X84835880Y-61856952D01*
X84740642Y-61904571D01*
X84693023Y-61952190D01*
X84645404Y-62047428D01*
X84645404Y-62237904D01*
X84693023Y-62333142D01*
X84740642Y-62380761D01*
X84835880Y-62428380D01*
X85026357Y-62428380D01*
X85121595Y-62380761D01*
X85169214Y-62333142D01*
X85216833Y-62237904D01*
X85216833Y-62047428D01*
X85169214Y-61952190D01*
X85121595Y-61904571D01*
X85026357Y-61856952D01*
X63547785Y-76715880D02*
X63547785Y-75715880D01*
X63881119Y-76430166D01*
X64214452Y-75715880D01*
X64214452Y-76715880D01*
X64595404Y-75715880D02*
X65262071Y-76715880D01*
X65262071Y-75715880D02*
X64595404Y-76715880D01*
X65547785Y-75715880D02*
X66214452Y-75715880D01*
X65785880Y-76715880D01*
X44497785Y-62428380D02*
X44497785Y-61428380D01*
X44831119Y-62142666D01*
X45164452Y-61428380D01*
X45164452Y-62428380D01*
X45545404Y-61428380D02*
X46212071Y-62428380D01*
X46212071Y-61428380D02*
X45545404Y-62428380D01*
X47021595Y-61428380D02*
X46831119Y-61428380D01*
X46735880Y-61476000D01*
X46688261Y-61523619D01*
X46593023Y-61666476D01*
X46545404Y-61856952D01*
X46545404Y-62237904D01*
X46593023Y-62333142D01*
X46640642Y-62380761D01*
X46735880Y-62428380D01*
X46926357Y-62428380D01*
X47021595Y-62380761D01*
X47069214Y-62333142D01*
X47116833Y-62237904D01*
X47116833Y-61999809D01*
X47069214Y-61904571D01*
X47021595Y-61856952D01*
X46926357Y-61809333D01*
X46735880Y-61809333D01*
X46640642Y-61856952D01*
X46593023Y-61904571D01*
X46545404Y-61999809D01*
X120697785Y-86240880D02*
X120697785Y-85240880D01*
X121031119Y-85955166D01*
X121364452Y-85240880D01*
X121364452Y-86240880D01*
X121745404Y-85240880D02*
X122412071Y-86240880D01*
X122412071Y-85240880D02*
X121745404Y-86240880D01*
X123269214Y-85240880D02*
X122793023Y-85240880D01*
X122745404Y-85717071D01*
X122793023Y-85669452D01*
X122888261Y-85621833D01*
X123126357Y-85621833D01*
X123221595Y-85669452D01*
X123269214Y-85717071D01*
X123316833Y-85812309D01*
X123316833Y-86050404D01*
X123269214Y-86145642D01*
X123221595Y-86193261D01*
X123126357Y-86240880D01*
X122888261Y-86240880D01*
X122793023Y-86193261D01*
X122745404Y-86145642D01*
X101647785Y-67190880D02*
X101647785Y-66190880D01*
X101981119Y-66905166D01*
X102314452Y-66190880D01*
X102314452Y-67190880D01*
X102695404Y-66190880D02*
X103362071Y-67190880D01*
X103362071Y-66190880D02*
X102695404Y-67190880D01*
X104171595Y-66524214D02*
X104171595Y-67190880D01*
X103933500Y-66143261D02*
X103695404Y-66857547D01*
X104314452Y-66857547D01*
X82597785Y-43378380D02*
X82597785Y-42378380D01*
X82931119Y-43092666D01*
X83264452Y-42378380D01*
X83264452Y-43378380D01*
X83645404Y-42378380D02*
X84312071Y-43378380D01*
X84312071Y-42378380D02*
X83645404Y-43378380D01*
X84597785Y-42378380D02*
X85216833Y-42378380D01*
X84883500Y-42759333D01*
X85026357Y-42759333D01*
X85121595Y-42806952D01*
X85169214Y-42854571D01*
X85216833Y-42949809D01*
X85216833Y-43187904D01*
X85169214Y-43283142D01*
X85121595Y-43330761D01*
X85026357Y-43378380D01*
X84740642Y-43378380D01*
X84645404Y-43330761D01*
X84597785Y-43283142D01*
X63547785Y-57665880D02*
X63547785Y-56665880D01*
X63881119Y-57380166D01*
X64214452Y-56665880D01*
X64214452Y-57665880D01*
X64595404Y-56665880D02*
X65262071Y-57665880D01*
X65262071Y-56665880D02*
X64595404Y-57665880D01*
X65595404Y-56761119D02*
X65643023Y-56713500D01*
X65738261Y-56665880D01*
X65976357Y-56665880D01*
X66071595Y-56713500D01*
X66119214Y-56761119D01*
X66166833Y-56856357D01*
X66166833Y-56951595D01*
X66119214Y-57094452D01*
X65547785Y-57665880D01*
X66166833Y-57665880D01*
X63547785Y-38615880D02*
X63547785Y-37615880D01*
X63881119Y-38330166D01*
X64214452Y-37615880D01*
X64214452Y-38615880D01*
X64595404Y-37615880D02*
X65262071Y-38615880D01*
X65262071Y-37615880D02*
X64595404Y-38615880D01*
X66166833Y-38615880D02*
X65595404Y-38615880D01*
X65881119Y-38615880D02*
X65881119Y-37615880D01*
X65785880Y-37758738D01*
X65690642Y-37853976D01*
X65595404Y-37901595D01*
M02*
