G04 #@! TF.GenerationSoftware,KiCad,Pcbnew,(5.1.4-0)*
G04 #@! TF.CreationDate,2021-02-04T00:36:41-05:00*
G04 #@! TF.ProjectId,mxnatee,6d786e61-7465-4652-9e6b-696361645f70,rev?*
G04 #@! TF.SameCoordinates,Original*
G04 #@! TF.FileFunction,Paste,Bot*
G04 #@! TF.FilePolarity,Positive*
%FSLAX46Y46*%
G04 Gerber Fmt 4.6, Leading zero omitted, Abs format (unit mm)*
G04 Created by KiCad (PCBNEW (5.1.4-0)) date 2021-02-04 00:36:41*
%MOMM*%
%LPD*%
G04 APERTURE LIST*
%ADD10R,1.200000X0.900000*%
%ADD11R,0.900000X1.200000*%
G04 APERTURE END LIST*
D10*
X126206250Y-30100000D03*
X126206250Y-33400000D03*
X108966000Y-68325000D03*
X108966000Y-65025000D03*
X104775000Y-127001000D03*
X104775000Y-130301000D03*
D11*
X99156250Y-113506250D03*
X102456250Y-113506250D03*
D10*
X87312500Y-104043750D03*
X87312500Y-100743750D03*
X83343750Y-110268750D03*
X83343750Y-113568750D03*
X30956250Y-97693750D03*
X30956250Y-94393750D03*
X120523000Y-97410000D03*
X120523000Y-100710000D03*
X110331250Y-92012500D03*
X110331250Y-95312500D03*
X87312500Y-82612500D03*
X87312500Y-79312500D03*
X73025000Y-82487500D03*
X73025000Y-85787500D03*
D11*
X53720000Y-82169000D03*
X50420000Y-82169000D03*
D10*
X123825000Y-97568750D03*
X123825000Y-100868750D03*
X109537500Y-72962500D03*
X109537500Y-76262500D03*
X90487500Y-65150000D03*
X90487500Y-61850000D03*
X73025000Y-64231250D03*
X73025000Y-67531250D03*
D11*
X54037500Y-61912500D03*
X50737500Y-61912500D03*
X114555000Y-73025000D03*
X117855000Y-73025000D03*
D10*
X92075000Y-47687500D03*
X92075000Y-44387500D03*
D11*
X73881250Y-46831250D03*
X70581250Y-46831250D03*
X73881250Y-28575000D03*
X70581250Y-28575000D03*
M02*
