M48
; DRILL file {KiCad (5.1.4-0)} date Thursday, March 11, 2021 at 10:57:57 PM
; FORMAT={-:-/ absolute / inch / decimal}
; #@! TF.CreationDate,2021-03-11T22:57:57-05:00
; #@! TF.GenerationSoftware,Kicad,Pcbnew,(5.1.4-0)
; #@! TF.FileFunction,Plated,1,2,PTH
FMAT,2
INCH
T1C0.0157
T2C0.0394
T3C0.0430
T4C0.0579
T5C0.2559
%
G90
G05
T1
X1.4585Y-1.5835
X1.4863Y-1.3362
X1.4933Y-3.44
X1.4937Y-1.5362
X1.539Y-1.2835
X1.5687Y-1.1362
X1.6925Y-3.2431
X2.2325Y-3.3025
X2.2331Y-3.661
X2.2725Y-3.3025
X2.2725Y-3.661
X2.4125Y-3.594
X2.4375Y-1.335
X2.7625Y-3.4575
X2.8975Y-0.82
X3.0175Y-3.7053
X3.0425Y-4.74
X3.0525Y-1.125
X3.0575Y-3.6775
X3.0775Y-3.3325
X3.2907Y-4.2233
X3.2941Y-4.1841
X3.3346Y-4.1304
X3.603Y-1.2047
X3.6059Y-1.1654
X3.645Y-1.5325
X3.6675Y-1.0425
X3.6775Y-4.7725
X3.9375Y-2.5425
X4.0667Y-4.1933
X4.0996Y-4.1454
X4.3825Y-4.6225
X4.505Y-3.7225
X4.5325Y-3.6925
X4.565Y-3.66
X5.0975Y-4.5975
X5.1725Y-4.6725
X5.2675Y-3.664
X2.9Y-1.8056
X2.9Y-1.9394
X3.5875Y-1.2519
X2.9Y-0.9931
X2.9Y-1.1269
X3.65Y-1.9306
X3.65Y-2.0644
X3.5875Y-1.1181
X2.15Y-2.7743
X2.15Y-2.9082
X1.4025Y-3.5006
X1.4025Y-3.6344
X4.3687Y-1.9306
X4.3687Y-2.0644
X2.9025Y-2.5606
X2.9025Y-2.6944
X4.3675Y-2.6806
X4.3675Y-2.8144
X5.0375Y-4.6706
X5.0375Y-4.8044
X4.3806Y-4.7925
X4.5144Y-4.7925
X2.7675Y-3.5006
X2.7675Y-3.6344
X4.7575Y-4.8006
X4.7575Y-4.9344
X3.6575Y-2.6906
X3.6575Y-2.8244
X4.5144Y-4.6925
X3.6575Y-3.4356
X3.6575Y-3.5695
X4.4075Y-3.4356
X4.4075Y-3.5694
X2.15Y-2.0243
X2.15Y-2.1582
X4.3806Y-4.6925
X4.9175Y-4.8006
X4.9175Y-4.9344
T3
X1.3225Y-0.5862
X1.3225Y-0.6863
X1.3225Y-0.7863
X1.3225Y-0.8862
X1.3225Y-0.9862
X1.3225Y-1.0862
X1.3225Y-1.1863
X1.3225Y-1.2862
X1.3225Y-1.3862
X1.3225Y-1.4863
X1.3225Y-1.5862
X1.3225Y-1.6863
X1.4175Y-0.6362
X1.4175Y-0.7362
X1.4175Y-0.8362
X1.4175Y-0.9363
X1.4175Y-1.0362
X1.4175Y-1.1362
X1.4175Y-1.2363
X1.4175Y-1.3362
X1.4175Y-1.4363
X1.4175Y-1.5362
X1.4175Y-1.6362
X1.4175Y-1.7363
X1.9225Y-0.5862
X1.9225Y-0.6863
X1.9225Y-0.7863
X1.9225Y-0.8862
X1.9225Y-0.9862
X1.9225Y-1.0862
X1.9225Y-1.1863
X1.9225Y-1.2862
X1.9225Y-1.3862
X1.9225Y-1.4863
X1.9225Y-1.5862
X1.9225Y-1.6863
X2.0175Y-0.6362
X2.0175Y-0.7362
X2.0175Y-0.8362
X2.0175Y-0.9363
X2.0175Y-1.0362
X2.0175Y-1.1362
X2.0175Y-1.2363
X2.0175Y-1.3362
X2.0175Y-1.4363
X2.0175Y-1.5362
X2.0175Y-1.6362
X2.0175Y-1.7363
T4
X3.375Y-4.3613
X3.425Y-4.2612
X0.9375Y-3.4287
X0.9875Y-3.3287
X1.1875Y-3.3287
X2.4375Y-1.7363
X2.4875Y-1.6362
X4.3125Y-5.1113
X4.3625Y-5.0112
X4.5625Y-5.0112
X4.6125Y-5.1113
X3.1875Y-1.3613
X3.2375Y-1.2612
X3.4375Y-1.2612
X4.875Y-4.3613
X2.6875Y-1.6362
X2.7375Y-1.7363
X3.4875Y-1.3613
X3.9375Y-3.6113
X3.9875Y-3.5112
X4.1875Y-3.5112
X4.2375Y-3.6113
X1.6875Y-2.8613
X1.7375Y-2.7612
X1.9375Y-2.7612
X1.9875Y-2.8613
X5.125Y-4.2612
X3.1875Y-2.8613
X4.925Y-4.2612
X5.175Y-4.3613
X3.2375Y-2.7612
X3.4375Y-2.7612
X3.4875Y-2.8613
X2.4375Y-3.2675
X2.4875Y-3.1675
X2.6875Y-3.1675
X2.7375Y-3.2675
X3.9375Y-2.8613
X3.1875Y-2.1113
X3.2375Y-2.0112
X3.4375Y-2.0112
X3.4875Y-2.1113
X3.9875Y-2.7612
X4.1875Y-2.7612
X4.2375Y-2.8613
X5.0625Y-5.1113
X5.1125Y-5.0112
X5.3125Y-5.0112
X5.3625Y-5.1113
X3.625Y-4.2612
X3.675Y-4.3613
X1.6875Y-2.1113
X1.7375Y-2.0112
X1.9375Y-2.0112
X1.9875Y-2.1113
X2.4375Y-2.4863
X2.4875Y-2.3862
X2.6875Y-2.3862
X2.7375Y-2.4863
X3.1875Y-3.6113
X3.2375Y-3.5112
X3.4375Y-3.5112
X3.4875Y-3.6113
X4.125Y-4.3613
X4.175Y-4.2612
X4.375Y-4.2612
X4.425Y-4.3613
X3.9375Y-2.1113
X3.9875Y-2.0112
X4.1875Y-2.0112
X4.2375Y-2.1113
X2.4375Y-0.9862
X2.4875Y-0.8862
X2.6875Y-0.8862
X2.7375Y-0.9862
X1.2375Y-3.4287
T5
X1.085Y-1.375
X1.735Y-3.585
X2.785Y-4.18
X5.085Y-5.73
X4.835Y-3.875
X4.085Y-1.38
T2
G00X5.1988Y-3.8961
M15
G01X5.1796Y-3.8917
M16
G05
G00X5.2205Y-3.8022
M15
G01X5.2013Y-3.7977
M16
G05
G00X5.2409Y-3.9766
M15
G01X5.2217Y-3.9721
M16
G05
G00X5.2936Y-3.7483
M15
G01X5.2744Y-3.7439
M16
G05
G00X5.3943Y-4.012
M15
G01X5.3751Y-4.0075
M16
G05
G00X5.447Y-3.7837
M15
G01X5.4278Y-3.7793
M16
G05
G00X5.5094Y-4.0385
M15
G01X5.4902Y-4.0341
M16
G05
G00X5.5621Y-3.8103
M15
G01X5.5429Y-3.8059
M16
G05
T0
M30
