G04 #@! TF.GenerationSoftware,KiCad,Pcbnew,(5.1.4-0)*
G04 #@! TF.CreationDate,2021-02-08T09:21:35-05:00*
G04 #@! TF.ProjectId,mxnatee_bot_plate,6d786e61-7465-4655-9f62-6f745f706c61,rev?*
G04 #@! TF.SameCoordinates,Original*
G04 #@! TF.FileFunction,Legend,Bot*
G04 #@! TF.FilePolarity,Positive*
%FSLAX46Y46*%
G04 Gerber Fmt 4.6, Leading zero omitted, Abs format (unit mm)*
G04 Created by KiCad (PCBNEW (5.1.4-0)) date 2021-02-08 09:21:35*
%MOMM*%
%LPD*%
G04 APERTURE LIST*
%ADD10C,0.010000*%
%ADD11C,6.602000*%
G04 APERTURE END LIST*
D10*
G36*
X78870865Y-33861282D02*
G01*
X78779888Y-33941683D01*
X78681313Y-34067302D01*
X78650835Y-34224277D01*
X78693331Y-34475779D01*
X78813678Y-34884977D01*
X78865185Y-35046355D01*
X79085918Y-36075613D01*
X79085587Y-37064876D01*
X78872484Y-37982871D01*
X78454905Y-38798328D01*
X77841141Y-39479972D01*
X77648942Y-39632538D01*
X77194082Y-40024080D01*
X76982631Y-40346567D01*
X77014783Y-40599444D01*
X77247750Y-40765223D01*
X77437012Y-40812579D01*
X77847269Y-40893636D01*
X78448493Y-41003335D01*
X79210652Y-41136616D01*
X80103718Y-41288420D01*
X81097661Y-41453687D01*
X82162451Y-41627359D01*
X83268059Y-41804377D01*
X84384455Y-41979680D01*
X85222877Y-42108838D01*
X85596350Y-42115340D01*
X85895833Y-41963914D01*
X86013760Y-41862013D01*
X86373250Y-41456651D01*
X86768034Y-40898345D01*
X87145223Y-40272348D01*
X87451926Y-39663918D01*
X87584396Y-39330231D01*
X87731968Y-38691080D01*
X87807127Y-37892500D01*
X87814189Y-37592000D01*
X87820500Y-36512500D01*
X86741000Y-36157338D01*
X86207347Y-35983825D01*
X85514146Y-35761497D01*
X84706471Y-35504516D01*
X83829392Y-35227043D01*
X82927981Y-34943238D01*
X82047309Y-34667261D01*
X81232448Y-34413274D01*
X80528469Y-34195438D01*
X79980443Y-34027913D01*
X79655811Y-33931282D01*
X79259219Y-33826266D01*
X79024067Y-33802618D01*
X78870865Y-33861282D01*
X78870865Y-33861282D01*
G37*
X78870865Y-33861282D02*
X78779888Y-33941683D01*
X78681313Y-34067302D01*
X78650835Y-34224277D01*
X78693331Y-34475779D01*
X78813678Y-34884977D01*
X78865185Y-35046355D01*
X79085918Y-36075613D01*
X79085587Y-37064876D01*
X78872484Y-37982871D01*
X78454905Y-38798328D01*
X77841141Y-39479972D01*
X77648942Y-39632538D01*
X77194082Y-40024080D01*
X76982631Y-40346567D01*
X77014783Y-40599444D01*
X77247750Y-40765223D01*
X77437012Y-40812579D01*
X77847269Y-40893636D01*
X78448493Y-41003335D01*
X79210652Y-41136616D01*
X80103718Y-41288420D01*
X81097661Y-41453687D01*
X82162451Y-41627359D01*
X83268059Y-41804377D01*
X84384455Y-41979680D01*
X85222877Y-42108838D01*
X85596350Y-42115340D01*
X85895833Y-41963914D01*
X86013760Y-41862013D01*
X86373250Y-41456651D01*
X86768034Y-40898345D01*
X87145223Y-40272348D01*
X87451926Y-39663918D01*
X87584396Y-39330231D01*
X87731968Y-38691080D01*
X87807127Y-37892500D01*
X87814189Y-37592000D01*
X87820500Y-36512500D01*
X86741000Y-36157338D01*
X86207347Y-35983825D01*
X85514146Y-35761497D01*
X84706471Y-35504516D01*
X83829392Y-35227043D01*
X82927981Y-34943238D01*
X82047309Y-34667261D01*
X81232448Y-34413274D01*
X80528469Y-34195438D01*
X79980443Y-34027913D01*
X79655811Y-33931282D01*
X79259219Y-33826266D01*
X79024067Y-33802618D01*
X78870865Y-33861282D01*
G36*
X38649223Y-43256394D02*
G01*
X38405822Y-43497500D01*
X38271448Y-43746064D01*
X38293181Y-43941506D01*
X38405822Y-44132500D01*
X38687064Y-44397207D01*
X39001125Y-44417079D01*
X39286817Y-44217749D01*
X39478845Y-43869501D01*
X39419041Y-43535124D01*
X39297429Y-43379571D01*
X38974097Y-43196932D01*
X38649223Y-43256394D01*
X38649223Y-43256394D01*
G37*
X38649223Y-43256394D02*
X38405822Y-43497500D01*
X38271448Y-43746064D01*
X38293181Y-43941506D01*
X38405822Y-44132500D01*
X38687064Y-44397207D01*
X39001125Y-44417079D01*
X39286817Y-44217749D01*
X39478845Y-43869501D01*
X39419041Y-43535124D01*
X39297429Y-43379571D01*
X38974097Y-43196932D01*
X38649223Y-43256394D01*
G36*
X49971320Y-44002814D02*
G01*
X49657645Y-44203817D01*
X49455214Y-44525089D01*
X49404191Y-44922112D01*
X49544741Y-45350363D01*
X49600702Y-45437741D01*
X49892271Y-45657328D01*
X50281520Y-45721419D01*
X50662045Y-45625733D01*
X50843817Y-45487749D01*
X51020254Y-45141094D01*
X51051839Y-44724757D01*
X50944151Y-44343051D01*
X50771742Y-44139701D01*
X50356074Y-43966602D01*
X49971320Y-44002814D01*
X49971320Y-44002814D01*
G37*
X49971320Y-44002814D02*
X49657645Y-44203817D01*
X49455214Y-44525089D01*
X49404191Y-44922112D01*
X49544741Y-45350363D01*
X49600702Y-45437741D01*
X49892271Y-45657328D01*
X50281520Y-45721419D01*
X50662045Y-45625733D01*
X50843817Y-45487749D01*
X51020254Y-45141094D01*
X51051839Y-44724757D01*
X50944151Y-44343051D01*
X50771742Y-44139701D01*
X50356074Y-43966602D01*
X49971320Y-44002814D01*
G36*
X40675527Y-49523804D02*
G01*
X40253545Y-49680515D01*
X40164232Y-49740553D01*
X39913200Y-49974458D01*
X39778162Y-50188475D01*
X39775348Y-50200292D01*
X39782233Y-50309200D01*
X39902304Y-50300667D01*
X40186718Y-50169433D01*
X40214951Y-50155083D01*
X40722914Y-49953957D01*
X41131339Y-49943503D01*
X41509602Y-50124697D01*
X41575373Y-50174217D01*
X41801800Y-50342175D01*
X41892804Y-50353430D01*
X41909972Y-50211606D01*
X41910000Y-50193901D01*
X41800157Y-49865791D01*
X41514211Y-49633420D01*
X41117542Y-49513765D01*
X40675527Y-49523804D01*
X40675527Y-49523804D01*
G37*
X40675527Y-49523804D02*
X40253545Y-49680515D01*
X40164232Y-49740553D01*
X39913200Y-49974458D01*
X39778162Y-50188475D01*
X39775348Y-50200292D01*
X39782233Y-50309200D01*
X39902304Y-50300667D01*
X40186718Y-50169433D01*
X40214951Y-50155083D01*
X40722914Y-49953957D01*
X41131339Y-49943503D01*
X41509602Y-50124697D01*
X41575373Y-50174217D01*
X41801800Y-50342175D01*
X41892804Y-50353430D01*
X41909972Y-50211606D01*
X41910000Y-50193901D01*
X41800157Y-49865791D01*
X41514211Y-49633420D01*
X41117542Y-49513765D01*
X40675527Y-49523804D01*
G36*
X36998036Y-49522827D02*
G01*
X36657210Y-49737819D01*
X36379875Y-50095453D01*
X36218798Y-50466371D01*
X36220451Y-50650931D01*
X36369330Y-50636198D01*
X36649928Y-50409238D01*
X36697913Y-50360748D01*
X37050520Y-50040411D01*
X37303805Y-49927131D01*
X37492103Y-50011971D01*
X37576164Y-50132192D01*
X37715168Y-50279094D01*
X37809305Y-50215533D01*
X37821858Y-49984916D01*
X37799142Y-49868589D01*
X37626977Y-49578945D01*
X37340617Y-49466780D01*
X36998036Y-49522827D01*
X36998036Y-49522827D01*
G37*
X36998036Y-49522827D02*
X36657210Y-49737819D01*
X36379875Y-50095453D01*
X36218798Y-50466371D01*
X36220451Y-50650931D01*
X36369330Y-50636198D01*
X36649928Y-50409238D01*
X36697913Y-50360748D01*
X37050520Y-50040411D01*
X37303805Y-49927131D01*
X37492103Y-50011971D01*
X37576164Y-50132192D01*
X37715168Y-50279094D01*
X37809305Y-50215533D01*
X37821858Y-49984916D01*
X37799142Y-49868589D01*
X37626977Y-49578945D01*
X37340617Y-49466780D01*
X36998036Y-49522827D01*
G36*
X38342780Y-52484622D02*
G01*
X38159310Y-52983620D01*
X38066318Y-53641304D01*
X38062369Y-54379571D01*
X38146025Y-55120320D01*
X38315849Y-55785450D01*
X38407703Y-56013090D01*
X38490946Y-56182509D01*
X38545113Y-56242341D01*
X38573769Y-56163168D01*
X38580479Y-55915571D01*
X38568808Y-55470133D01*
X38545537Y-54875810D01*
X38519823Y-54213445D01*
X38498275Y-53593455D01*
X38483240Y-53087700D01*
X38477139Y-52780310D01*
X38463505Y-52472681D01*
X38420107Y-52389210D01*
X38342780Y-52484622D01*
X38342780Y-52484622D01*
G37*
X38342780Y-52484622D02*
X38159310Y-52983620D01*
X38066318Y-53641304D01*
X38062369Y-54379571D01*
X38146025Y-55120320D01*
X38315849Y-55785450D01*
X38407703Y-56013090D01*
X38490946Y-56182509D01*
X38545113Y-56242341D01*
X38573769Y-56163168D01*
X38580479Y-55915571D01*
X38568808Y-55470133D01*
X38545537Y-54875810D01*
X38519823Y-54213445D01*
X38498275Y-53593455D01*
X38483240Y-53087700D01*
X38477139Y-52780310D01*
X38463505Y-52472681D01*
X38420107Y-52389210D01*
X38342780Y-52484622D01*
G36*
X64988799Y-25769696D02*
G01*
X64072617Y-25866826D01*
X63306999Y-26046456D01*
X62643991Y-26319146D01*
X62149362Y-26615416D01*
X61598787Y-27088984D01*
X61052516Y-27727238D01*
X60574271Y-28447911D01*
X60287265Y-29019500D01*
X60120760Y-29486742D01*
X59956111Y-30068692D01*
X59815283Y-30672813D01*
X59720243Y-31206570D01*
X59691878Y-31527750D01*
X59690000Y-31877000D01*
X56509995Y-31876999D01*
X54560871Y-31902799D01*
X52826517Y-31984050D01*
X51272606Y-32126532D01*
X49864814Y-32336022D01*
X48568813Y-32618301D01*
X47350278Y-32979145D01*
X46174883Y-33424335D01*
X45475432Y-33734637D01*
X43619175Y-34735476D01*
X41933307Y-35920405D01*
X40424860Y-37279015D01*
X39100865Y-38800895D01*
X37968355Y-40475636D01*
X37034360Y-42292828D01*
X36305913Y-44242061D01*
X35790045Y-46312925D01*
X35493787Y-48495011D01*
X35492231Y-48514000D01*
X35409911Y-49142594D01*
X35264284Y-49897775D01*
X35078276Y-50667212D01*
X34986813Y-50990500D01*
X34517273Y-52679016D01*
X34181471Y-54155761D01*
X33978952Y-55424623D01*
X33909262Y-56489489D01*
X33971947Y-57354246D01*
X34165383Y-58020210D01*
X34663647Y-58880879D01*
X35274554Y-59514085D01*
X35999032Y-59920480D01*
X36838012Y-60100716D01*
X37147607Y-60110611D01*
X37994639Y-60001932D01*
X38707552Y-59700193D01*
X38993153Y-59489476D01*
X39123398Y-59420053D01*
X39264871Y-59479788D01*
X39466678Y-59701492D01*
X39628153Y-59913757D01*
X40235312Y-60527282D01*
X40780750Y-60871864D01*
X41493000Y-61235798D01*
X41579582Y-62590149D01*
X41844314Y-64767164D01*
X42353560Y-66881575D01*
X43102509Y-68919163D01*
X44086350Y-70865709D01*
X44728527Y-71896374D01*
X45406941Y-72774392D01*
X46318015Y-73728211D01*
X47454123Y-74751304D01*
X48807636Y-75837143D01*
X50370929Y-76979200D01*
X51808526Y-77956033D01*
X53241063Y-78867965D01*
X54519381Y-79609070D01*
X55666872Y-80190098D01*
X56706928Y-80621799D01*
X57662942Y-80914925D01*
X58558304Y-81080225D01*
X58622593Y-81087650D01*
X59475753Y-81096585D01*
X60204678Y-80934244D01*
X60785989Y-80618408D01*
X61196305Y-80166855D01*
X61412247Y-79597364D01*
X61414418Y-79237634D01*
X60699167Y-79237634D01*
X60623821Y-79646549D01*
X60480695Y-79879101D01*
X60104181Y-80150533D01*
X59540220Y-80291296D01*
X58819411Y-80300999D01*
X57972353Y-80179247D01*
X57029647Y-79925649D01*
X57023000Y-79923480D01*
X56139782Y-79577810D01*
X55128734Y-79085098D01*
X54022881Y-78469258D01*
X52855246Y-77754203D01*
X51658854Y-76963847D01*
X50466729Y-76122102D01*
X49311895Y-75252882D01*
X48227376Y-74380102D01*
X47246195Y-73527674D01*
X46401377Y-72719511D01*
X45725947Y-71979528D01*
X45334113Y-71459288D01*
X44703101Y-70401543D01*
X44088407Y-69176325D01*
X43526676Y-67869344D01*
X43054557Y-66566313D01*
X42708697Y-65352942D01*
X42691178Y-65278000D01*
X42614899Y-64869249D01*
X42537244Y-64322463D01*
X42463357Y-63693930D01*
X42398385Y-63039938D01*
X42347472Y-62416775D01*
X42315763Y-61880729D01*
X42308405Y-61488088D01*
X42327693Y-61301562D01*
X42387208Y-61179212D01*
X42473849Y-61104453D01*
X42614523Y-61086364D01*
X42836137Y-61134025D01*
X43165596Y-61256516D01*
X43629808Y-61462916D01*
X44255678Y-61762304D01*
X45070114Y-62163759D01*
X45466000Y-62360572D01*
X46042238Y-62639962D01*
X46604918Y-62900084D01*
X47071813Y-63103481D01*
X47267138Y-63181003D01*
X47861775Y-63400929D01*
X47945141Y-64244214D01*
X48177791Y-65318542D01*
X48655326Y-66357131D01*
X49369224Y-67341618D01*
X49397178Y-67373500D01*
X49791142Y-67851620D01*
X50234443Y-68437627D01*
X50644988Y-69022051D01*
X50730555Y-69151500D01*
X51077623Y-69662342D01*
X51413304Y-70094163D01*
X51778838Y-70485154D01*
X52215470Y-70873506D01*
X52764440Y-71297411D01*
X53466993Y-71795060D01*
X53918748Y-72103828D01*
X55374790Y-73178847D01*
X56855755Y-74437152D01*
X58299070Y-75823571D01*
X59106278Y-76677824D01*
X59802803Y-77489385D01*
X60295739Y-78175545D01*
X60592167Y-78752797D01*
X60699167Y-79237634D01*
X61414418Y-79237634D01*
X61416074Y-78963411D01*
X61275624Y-78431827D01*
X60998253Y-77858666D01*
X60566148Y-77217334D01*
X59961497Y-76481236D01*
X59208080Y-75666877D01*
X58021357Y-74473843D01*
X56922522Y-73455204D01*
X55864347Y-72570278D01*
X54799600Y-71778382D01*
X54292500Y-71432750D01*
X53473612Y-70873471D01*
X52833523Y-70393310D01*
X52327533Y-69950710D01*
X51910939Y-69504110D01*
X51539039Y-69011952D01*
X51304359Y-68654700D01*
X50935102Y-68112236D01*
X50483631Y-67510390D01*
X50043341Y-66973292D01*
X50014360Y-66940200D01*
X49365730Y-66074776D01*
X48935728Y-65180059D01*
X48705339Y-64275009D01*
X48612342Y-63716518D01*
X48975921Y-63794094D01*
X49285733Y-63860089D01*
X49742943Y-63957357D01*
X50228500Y-64060575D01*
X50994127Y-64199779D01*
X51850830Y-64317231D01*
X52727570Y-64406632D01*
X53553306Y-64461684D01*
X54256999Y-64476087D01*
X54676415Y-64454951D01*
X55441330Y-64374959D01*
X56327415Y-65477544D01*
X57685161Y-67000857D01*
X59136891Y-68313472D01*
X60664594Y-69400022D01*
X61468000Y-69862606D01*
X61802629Y-70030154D01*
X62304959Y-70269074D01*
X62909975Y-70548954D01*
X63552664Y-70839383D01*
X63626601Y-70872330D01*
X64286187Y-71179222D01*
X64797012Y-71444568D01*
X65129274Y-71651716D01*
X65252706Y-71780950D01*
X65223913Y-72018479D01*
X65094383Y-72463521D01*
X64872463Y-73094209D01*
X64566503Y-73888672D01*
X64184850Y-74825042D01*
X63735854Y-75881451D01*
X63359053Y-76741367D01*
X62875119Y-77844747D01*
X62496124Y-78745362D01*
X62216828Y-79469305D01*
X62031989Y-80042670D01*
X61936365Y-80491550D01*
X61924716Y-80842038D01*
X61991801Y-81120229D01*
X62132377Y-81352214D01*
X62341204Y-81564089D01*
X62383117Y-81599986D01*
X62759684Y-81842184D01*
X63159213Y-81935121D01*
X63604867Y-81869409D01*
X64119813Y-81635656D01*
X64727215Y-81224473D01*
X65450238Y-80626470D01*
X65986502Y-80139362D01*
X66764031Y-79445475D01*
X67469040Y-78890997D01*
X68184148Y-78414221D01*
X68697415Y-78114579D01*
X69522881Y-77642787D01*
X70162707Y-77246469D01*
X70660493Y-76891716D01*
X71059840Y-76544623D01*
X71404351Y-76171280D01*
X71716952Y-75766379D01*
X72298483Y-74964523D01*
X73709492Y-75630706D01*
X74375180Y-75936628D01*
X75071969Y-76242970D01*
X75706006Y-76509138D01*
X76089032Y-76659908D01*
X77057563Y-77022927D01*
X77141936Y-78034641D01*
X77175816Y-78747691D01*
X77179447Y-79654014D01*
X77155149Y-80694981D01*
X77105240Y-81811960D01*
X77032039Y-82946322D01*
X76937865Y-84039436D01*
X76884442Y-84545107D01*
X76798618Y-85394808D01*
X76763807Y-86052930D01*
X76786331Y-86577929D01*
X76872516Y-87028265D01*
X77028687Y-87462394D01*
X77249120Y-87915886D01*
X77548237Y-88369887D01*
X78015358Y-88935716D01*
X78612646Y-89576383D01*
X79302266Y-90254899D01*
X80046381Y-90934277D01*
X80807155Y-91577526D01*
X81546752Y-92147659D01*
X81664643Y-92232506D01*
X82481509Y-92775585D01*
X83381530Y-93309079D01*
X84309414Y-93805212D01*
X85209870Y-94236208D01*
X86027607Y-94574293D01*
X86707333Y-94791690D01*
X86804500Y-94814497D01*
X87381733Y-94906140D01*
X88154310Y-94978951D01*
X89064210Y-95031986D01*
X90053407Y-95064299D01*
X91063879Y-95074947D01*
X92037601Y-95062986D01*
X92916550Y-95027472D01*
X93642701Y-94967459D01*
X93916500Y-94930232D01*
X95814124Y-94522809D01*
X97612058Y-93922761D01*
X99355876Y-93111568D01*
X101091154Y-92070709D01*
X101301669Y-91929022D01*
X102260215Y-91250273D01*
X103015822Y-90652311D01*
X103596035Y-90109185D01*
X104028401Y-89594948D01*
X104340466Y-89083649D01*
X104356633Y-89051141D01*
X104534832Y-88653870D01*
X104641773Y-88295764D01*
X104694762Y-87885840D01*
X104711104Y-87333115D01*
X104711500Y-87185500D01*
X104708982Y-87103634D01*
X103943679Y-87103634D01*
X103913752Y-87747005D01*
X103800075Y-88309081D01*
X103579304Y-88822313D01*
X103228096Y-89319153D01*
X102723107Y-89832053D01*
X102040993Y-90393465D01*
X101158411Y-91035841D01*
X101071423Y-91096594D01*
X99342714Y-92188388D01*
X97619216Y-93044043D01*
X95863828Y-93677869D01*
X94039445Y-94104178D01*
X92837000Y-94272747D01*
X92076179Y-94323770D01*
X91150697Y-94338992D01*
X90147070Y-94320365D01*
X89151818Y-94269840D01*
X88251457Y-94189370D01*
X88051377Y-94164808D01*
X87255133Y-94044500D01*
X86610870Y-93903149D01*
X86016641Y-93713730D01*
X85398693Y-93461612D01*
X83880931Y-92691098D01*
X82350273Y-91715502D01*
X80861817Y-90574475D01*
X79470657Y-89307665D01*
X79097929Y-88927290D01*
X78482745Y-88255934D01*
X78041756Y-87688399D01*
X77754564Y-87165259D01*
X77600772Y-86627089D01*
X77559979Y-86014463D01*
X77611789Y-85267957D01*
X77672799Y-84775567D01*
X77731968Y-84228258D01*
X77790886Y-83486996D01*
X77845928Y-82611806D01*
X77893471Y-81662714D01*
X77929891Y-80699744D01*
X77939781Y-80353527D01*
X78017775Y-77331554D01*
X78410638Y-77419022D01*
X78826161Y-77497601D01*
X79064173Y-77486688D01*
X79191007Y-77367899D01*
X79256522Y-77184579D01*
X79296225Y-76985892D01*
X79243936Y-76859362D01*
X79049226Y-76760741D01*
X78661669Y-76645783D01*
X78633679Y-76638086D01*
X77958478Y-76433797D01*
X77163814Y-76163362D01*
X76301465Y-75847409D01*
X75423206Y-75506565D01*
X74580812Y-75161460D01*
X73826060Y-74832721D01*
X73210724Y-74540977D01*
X72793687Y-74311364D01*
X72751382Y-74143429D01*
X72810125Y-73791027D01*
X72953626Y-73294964D01*
X73165593Y-72696045D01*
X73429735Y-72035076D01*
X73729764Y-71352863D01*
X74049386Y-70690210D01*
X74372313Y-70087924D01*
X74676441Y-69595351D01*
X75172423Y-68796130D01*
X75510479Y-68062137D01*
X75697369Y-67338995D01*
X75739848Y-66572328D01*
X75644675Y-65707760D01*
X75418607Y-64690915D01*
X75327839Y-64353686D01*
X74948349Y-62984873D01*
X76262738Y-61623186D01*
X77816401Y-59936599D01*
X79133970Y-58340355D01*
X80216286Y-56833260D01*
X81064185Y-55414120D01*
X81678508Y-54081742D01*
X81802987Y-53740940D01*
X82201601Y-52285604D01*
X82466615Y-50636444D01*
X82595781Y-48817040D01*
X82586847Y-46850971D01*
X82542058Y-45997543D01*
X82498214Y-45277476D01*
X82466852Y-44649109D01*
X82449521Y-44154689D01*
X82447770Y-43836463D01*
X82459171Y-43736496D01*
X82603525Y-43729471D01*
X82937653Y-43762953D01*
X83401771Y-43830155D01*
X83646881Y-43871297D01*
X84730542Y-44008302D01*
X85842439Y-44055151D01*
X86901314Y-44012630D01*
X87825907Y-43881525D01*
X88050909Y-43828723D01*
X88916318Y-43603089D01*
X89465005Y-44248794D01*
X90840603Y-46030134D01*
X92010183Y-47901384D01*
X92984011Y-49885631D01*
X93772356Y-52005964D01*
X94385486Y-54285470D01*
X94733660Y-56095851D01*
X94967029Y-57643232D01*
X95132347Y-59033082D01*
X95237114Y-60350370D01*
X95288829Y-61680069D01*
X95297459Y-62484000D01*
X95275929Y-63822363D01*
X95201389Y-64965565D01*
X95067169Y-65968183D01*
X94866599Y-66884792D01*
X94684448Y-67500500D01*
X94475425Y-68353251D01*
X94342090Y-69373671D01*
X94318365Y-69708193D01*
X94261147Y-70412816D01*
X94173306Y-71164537D01*
X94070311Y-71838109D01*
X94027988Y-72059275D01*
X93919187Y-72711319D01*
X93879718Y-73256987D01*
X93900362Y-73555137D01*
X94009041Y-73853207D01*
X94253104Y-74293677D01*
X94639054Y-74886038D01*
X95173390Y-75639782D01*
X95862616Y-76564398D01*
X96713233Y-77669379D01*
X96759062Y-77728180D01*
X97103301Y-78141930D01*
X97595248Y-78694722D01*
X98199877Y-79349174D01*
X98882167Y-80067905D01*
X99607092Y-80813533D01*
X100324810Y-81534000D01*
X101099039Y-82303622D01*
X101714442Y-82923815D01*
X102194655Y-83421853D01*
X102563312Y-83825011D01*
X102844049Y-84160563D01*
X103060500Y-84455783D01*
X103236300Y-84737946D01*
X103395085Y-85034326D01*
X103445426Y-85135134D01*
X103694169Y-85664370D01*
X103842750Y-86074161D01*
X103916791Y-86465729D01*
X103941911Y-86940298D01*
X103943679Y-87103634D01*
X104708982Y-87103634D01*
X104692114Y-86555262D01*
X104623014Y-85984391D01*
X104487786Y-85446401D01*
X104270017Y-84914806D01*
X103953294Y-84363122D01*
X103521203Y-83764862D01*
X102957331Y-83093542D01*
X102245265Y-82322676D01*
X101368590Y-81425778D01*
X100776315Y-80835500D01*
X99520182Y-79565127D01*
X98455759Y-78430368D01*
X97569838Y-77416752D01*
X96951012Y-76644500D01*
X96272060Y-75751069D01*
X95735822Y-75036198D01*
X95327516Y-74479174D01*
X95032356Y-74059283D01*
X94835558Y-73755813D01*
X94722338Y-73548050D01*
X94696884Y-73486391D01*
X94684680Y-73267700D01*
X94719121Y-72864464D01*
X94793255Y-72340420D01*
X94867285Y-71924194D01*
X94979071Y-71257592D01*
X95066062Y-70572622D01*
X95115887Y-69975132D01*
X95123000Y-69736434D01*
X95190170Y-68914118D01*
X95372689Y-68148087D01*
X95376189Y-68137857D01*
X95611486Y-67388804D01*
X95790396Y-66651572D01*
X95919240Y-65875150D01*
X96004337Y-65008523D01*
X96052007Y-64000680D01*
X96068568Y-62800608D01*
X96068720Y-62547500D01*
X95998190Y-60178318D01*
X95796270Y-57849699D01*
X95469767Y-55598489D01*
X95025490Y-53461532D01*
X94470246Y-51475677D01*
X93810844Y-49677768D01*
X93602515Y-49199897D01*
X93095596Y-48189722D01*
X92449104Y-47071082D01*
X91705325Y-45912838D01*
X90906544Y-44783846D01*
X90818089Y-44665666D01*
X90440187Y-44158427D01*
X90124690Y-43724899D01*
X89899787Y-43404585D01*
X89793667Y-43236984D01*
X89789000Y-43223629D01*
X89876720Y-43105877D01*
X90103676Y-42878831D01*
X90339839Y-42663654D01*
X90829823Y-42111493D01*
X91239664Y-41415475D01*
X91257207Y-41377643D01*
X91421924Y-40995573D01*
X91528013Y-40665458D01*
X91587755Y-40312285D01*
X91613429Y-39861039D01*
X91617318Y-39236709D01*
X91617067Y-39179500D01*
X91613489Y-39011083D01*
X90789163Y-39011083D01*
X90766766Y-39758429D01*
X90679600Y-40430275D01*
X90530683Y-40948048D01*
X90496439Y-41021000D01*
X89960421Y-41793893D01*
X89229415Y-42408016D01*
X88311170Y-42857607D01*
X87820500Y-43009557D01*
X87243565Y-43102747D01*
X86478262Y-43142414D01*
X85583878Y-43131478D01*
X84619694Y-43072859D01*
X83644995Y-42969474D01*
X82719065Y-42824244D01*
X82659775Y-42812093D01*
X78137887Y-42812093D01*
X78072746Y-45567796D01*
X77991372Y-47545157D01*
X77839899Y-49316240D01*
X77608811Y-50921435D01*
X77288587Y-52401135D01*
X76869712Y-53795729D01*
X76342665Y-55145611D01*
X75697930Y-56491170D01*
X75344141Y-57146857D01*
X75120788Y-57523141D01*
X74945484Y-57773301D01*
X74850377Y-57852531D01*
X74843870Y-57844109D01*
X74855299Y-57667505D01*
X74924469Y-57319748D01*
X75036789Y-56873166D01*
X75047828Y-56833078D01*
X75159578Y-56392684D01*
X75225650Y-56055846D01*
X75233316Y-55888864D01*
X75230058Y-55883724D01*
X75106158Y-55906934D01*
X74932133Y-56125151D01*
X74734451Y-56491203D01*
X74539577Y-56957919D01*
X74412700Y-57340500D01*
X74262064Y-57830706D01*
X74118522Y-58263536D01*
X74012989Y-58545793D01*
X74012465Y-58547000D01*
X73874425Y-58864500D01*
X73746966Y-58445213D01*
X73630415Y-58161303D01*
X73460611Y-58059983D01*
X73227004Y-58064213D01*
X72941315Y-58137427D01*
X72879247Y-58287992D01*
X72880395Y-58293000D01*
X72929667Y-58482887D01*
X73031286Y-58864718D01*
X73171024Y-59385319D01*
X73334651Y-59991513D01*
X73356168Y-60071000D01*
X73752808Y-61540637D01*
X74085185Y-62787760D01*
X74357249Y-63834524D01*
X74572952Y-64703083D01*
X74736247Y-65415591D01*
X74851085Y-65994204D01*
X74921417Y-66461075D01*
X74951196Y-66838360D01*
X74944372Y-67148211D01*
X74904899Y-67412785D01*
X74836728Y-67654236D01*
X74749348Y-67881500D01*
X74579366Y-68226777D01*
X74315122Y-68695418D01*
X74005861Y-69201211D01*
X73915132Y-69342000D01*
X73618804Y-69850205D01*
X73275918Y-70525776D01*
X72921637Y-71295582D01*
X72591125Y-72086493D01*
X72571651Y-72136000D01*
X72194480Y-73084706D01*
X71882260Y-73831797D01*
X71615586Y-74415242D01*
X71375055Y-74873008D01*
X71141262Y-75243065D01*
X70894804Y-75563380D01*
X70717460Y-75764158D01*
X70192021Y-76246194D01*
X69479024Y-76770287D01*
X68632407Y-77299788D01*
X67774155Y-77764078D01*
X67334325Y-78033002D01*
X66782822Y-78443268D01*
X66179319Y-78948715D01*
X65819793Y-79275918D01*
X65312275Y-79744312D01*
X64820164Y-80183482D01*
X64398864Y-80544890D01*
X64103783Y-80779999D01*
X64098333Y-80783961D01*
X63612267Y-81057394D01*
X63187822Y-81145870D01*
X62864619Y-81046229D01*
X62734672Y-80892780D01*
X62681824Y-80763717D01*
X62664625Y-80609216D01*
X62692823Y-80400360D01*
X62776167Y-80108230D01*
X62924405Y-79703910D01*
X63147284Y-79158482D01*
X63454552Y-78443029D01*
X63855957Y-77528632D01*
X63909883Y-77406500D01*
X64538896Y-75962170D01*
X65060732Y-74713595D01*
X65484459Y-73630690D01*
X65819145Y-72683371D01*
X66073857Y-71841553D01*
X66257663Y-71075152D01*
X66379631Y-70354083D01*
X66448829Y-69648262D01*
X66474323Y-68927605D01*
X66474566Y-68897500D01*
X66473762Y-68834000D01*
X65718854Y-68834000D01*
X65697068Y-69658193D01*
X65638264Y-70256144D01*
X65543800Y-70619261D01*
X65417848Y-70739000D01*
X65269671Y-70688942D01*
X64933559Y-70550967D01*
X64452307Y-70343370D01*
X63868705Y-70084447D01*
X63542099Y-69937010D01*
X62088486Y-69229617D01*
X60836869Y-68509854D01*
X59736433Y-67740823D01*
X58736361Y-66885622D01*
X57785839Y-65907350D01*
X57428980Y-65497923D01*
X57061904Y-65058804D01*
X56765186Y-64691008D01*
X56572306Y-64436886D01*
X56515000Y-64341684D01*
X56618052Y-64270206D01*
X56699249Y-64262000D01*
X56924612Y-64236513D01*
X57294065Y-64171550D01*
X57524749Y-64124476D01*
X57906853Y-64026876D01*
X58098864Y-63918763D01*
X58162573Y-63756918D01*
X58166000Y-63675990D01*
X58105548Y-63413567D01*
X57999427Y-63301107D01*
X57807583Y-63292750D01*
X57430256Y-63323119D01*
X56931963Y-63386050D01*
X56634177Y-63431583D01*
X55535620Y-63558389D01*
X54305119Y-63615085D01*
X53045569Y-63601774D01*
X51859865Y-63518560D01*
X51171630Y-63426051D01*
X50457965Y-63280951D01*
X49643314Y-63074952D01*
X48800777Y-62830323D01*
X48003452Y-62569333D01*
X47324441Y-62314250D01*
X46916031Y-62129654D01*
X46455556Y-61893416D01*
X47326028Y-61608721D01*
X48392901Y-61162956D01*
X49311927Y-60556242D01*
X49905693Y-60013928D01*
X50241993Y-59710188D01*
X50548265Y-59500401D01*
X50731193Y-59434759D01*
X51114074Y-59352919D01*
X51599773Y-59139932D01*
X52107563Y-58840227D01*
X52556718Y-58498234D01*
X52720493Y-58339930D01*
X53044853Y-57954832D01*
X53402653Y-57472970D01*
X53635258Y-57125141D01*
X53830827Y-56822760D01*
X54008092Y-56601224D01*
X54213170Y-56438706D01*
X54492178Y-56313375D01*
X54891233Y-56203402D01*
X55456450Y-56086958D01*
X56070610Y-55972378D01*
X56693576Y-55825178D01*
X57348117Y-55619946D01*
X57889861Y-55402280D01*
X58351798Y-55204050D01*
X58640113Y-55129154D01*
X58730923Y-55164123D01*
X58772739Y-55357469D01*
X58844172Y-55718449D01*
X58920338Y-56118891D01*
X59066594Y-56721498D01*
X59301344Y-57483026D01*
X59599211Y-58335349D01*
X59934822Y-59210342D01*
X60282801Y-60039880D01*
X60617773Y-60755835D01*
X60723506Y-60960000D01*
X61224057Y-61805919D01*
X61814146Y-62659937D01*
X62439072Y-63449900D01*
X63044130Y-64103658D01*
X63255412Y-64299563D01*
X63777101Y-64818835D01*
X64340263Y-65479452D01*
X64876252Y-66193871D01*
X65316421Y-66874549D01*
X65420037Y-67060047D01*
X65568168Y-67375457D01*
X65658733Y-67692825D01*
X65704646Y-68088812D01*
X65718818Y-68640081D01*
X65718854Y-68834000D01*
X66473762Y-68834000D01*
X66465673Y-68195957D01*
X66412833Y-67628399D01*
X66293640Y-67132423D01*
X66085692Y-66645630D01*
X65766583Y-66105618D01*
X65313911Y-65449984D01*
X65160612Y-65237789D01*
X64611289Y-64424855D01*
X64247615Y-63740326D01*
X64059702Y-63150491D01*
X64037660Y-62621641D01*
X64171601Y-62120069D01*
X64216488Y-62019531D01*
X64335609Y-61639317D01*
X64251844Y-61405137D01*
X63956890Y-61299763D01*
X63865959Y-61292316D01*
X63734548Y-61258960D01*
X63620284Y-61153497D01*
X63513127Y-60945554D01*
X63403036Y-60604758D01*
X63279971Y-60100738D01*
X63133891Y-59403121D01*
X62979391Y-58610500D01*
X62825131Y-57589022D01*
X62713279Y-56401594D01*
X62645672Y-55122836D01*
X62624147Y-53827367D01*
X62650541Y-52589805D01*
X62726691Y-51484768D01*
X62790982Y-50956877D01*
X63148908Y-49101587D01*
X63652256Y-47386615D01*
X64292158Y-45828942D01*
X65059742Y-44445553D01*
X65946139Y-43253429D01*
X66942479Y-42269555D01*
X67576044Y-41795129D01*
X67977126Y-41532503D01*
X68239735Y-41392583D01*
X68436401Y-41356674D01*
X68639655Y-41406085D01*
X68812722Y-41476387D01*
X69636341Y-41757948D01*
X70642743Y-41982740D01*
X71852955Y-42154362D01*
X73288002Y-42276414D01*
X73593527Y-42294617D01*
X74964241Y-42383058D01*
X76100165Y-42482536D01*
X77020346Y-42595065D01*
X77743833Y-42722658D01*
X77835694Y-42743021D01*
X78137887Y-42812093D01*
X82659775Y-42812093D01*
X82296000Y-42737541D01*
X80863789Y-42422228D01*
X79625584Y-42164933D01*
X78530028Y-41957991D01*
X77525766Y-41793741D01*
X76561443Y-41664519D01*
X75585702Y-41562662D01*
X74547189Y-41480508D01*
X73406000Y-41411015D01*
X72623893Y-41357850D01*
X71858332Y-41286987D01*
X71177054Y-41205994D01*
X70647797Y-41122443D01*
X70460341Y-41081820D01*
X70003676Y-40955782D01*
X69736332Y-40842049D01*
X69598487Y-40703508D01*
X69530769Y-40505115D01*
X69520837Y-40100381D01*
X69611762Y-39552481D01*
X69782622Y-38941152D01*
X70012495Y-38346132D01*
X70188999Y-37996486D01*
X70693141Y-37226874D01*
X71364866Y-36368520D01*
X72158426Y-35470543D01*
X73028072Y-34582061D01*
X73928053Y-33752191D01*
X74812622Y-33030051D01*
X74819985Y-33024485D01*
X75474312Y-32579398D01*
X76173894Y-32183907D01*
X76724985Y-31934105D01*
X77339999Y-31682476D01*
X77747390Y-31467881D01*
X77984791Y-31261288D01*
X78089836Y-31033666D01*
X78105000Y-30869574D01*
X78070830Y-30678243D01*
X77305132Y-30678243D01*
X77218414Y-30785041D01*
X76949591Y-30923604D01*
X76647674Y-31033796D01*
X76064734Y-31289500D01*
X75362112Y-31713669D01*
X74576856Y-32274887D01*
X73746012Y-32941738D01*
X72906628Y-33682809D01*
X72095750Y-34466682D01*
X71350427Y-35261943D01*
X70707705Y-36037176D01*
X70636129Y-36131500D01*
X70048638Y-36988861D01*
X69551821Y-37861249D01*
X69171655Y-38694813D01*
X68934121Y-39435703D01*
X68873605Y-39784968D01*
X68825234Y-40176070D01*
X68777227Y-40440337D01*
X68747673Y-40513000D01*
X68614583Y-40460467D01*
X68334437Y-40327138D01*
X68162191Y-40240789D01*
X66901894Y-39490290D01*
X65871226Y-38710584D01*
X64400567Y-38710584D01*
X63644002Y-39707042D01*
X62572254Y-41298130D01*
X61619322Y-43093359D01*
X60783688Y-45097153D01*
X60063836Y-47313933D01*
X59458248Y-49748122D01*
X58965406Y-52404143D01*
X58734855Y-54015138D01*
X58671568Y-54385465D01*
X58557915Y-54604906D01*
X58324009Y-54763450D01*
X58061711Y-54881920D01*
X57558449Y-55063204D01*
X56888069Y-55256794D01*
X56135245Y-55441580D01*
X55384651Y-55596451D01*
X54841189Y-55684827D01*
X54358009Y-55797764D01*
X53958696Y-56016360D01*
X53593246Y-56381964D01*
X53211656Y-56935926D01*
X53097027Y-57127149D01*
X52662180Y-57778499D01*
X52182947Y-58346317D01*
X51698733Y-58793913D01*
X51248941Y-59084600D01*
X50890094Y-59182000D01*
X50752827Y-59163610D01*
X50750769Y-59069808D01*
X50891173Y-58842646D01*
X50941741Y-58769250D01*
X51210190Y-58410095D01*
X51537569Y-58008331D01*
X51644439Y-57884809D01*
X51958139Y-57476205D01*
X52267332Y-56991108D01*
X52376358Y-56790989D01*
X52657013Y-56358057D01*
X53045811Y-55902566D01*
X53328413Y-55635701D01*
X53999241Y-54955289D01*
X54582508Y-54135209D01*
X55046373Y-53238934D01*
X55359000Y-52329938D01*
X55488551Y-51471695D01*
X55489953Y-51326372D01*
X55480905Y-50736500D01*
X55254547Y-51527894D01*
X54821552Y-52731674D01*
X54242379Y-53776099D01*
X53474722Y-54733601D01*
X53241278Y-54975012D01*
X52813517Y-55429687D01*
X52432596Y-55882987D01*
X52152089Y-56268791D01*
X52054682Y-56439483D01*
X51812542Y-56959500D01*
X51887214Y-56134000D01*
X52029186Y-55359752D01*
X52328847Y-54666414D01*
X52346798Y-54634697D01*
X52591034Y-54145474D01*
X52799317Y-53615068D01*
X52959332Y-53093907D01*
X53058765Y-52632418D01*
X53085301Y-52281028D01*
X53026624Y-52090164D01*
X52973134Y-52070000D01*
X52878696Y-52181148D01*
X52789307Y-52455605D01*
X52774571Y-52526808D01*
X52677316Y-52840839D01*
X52488603Y-53299286D01*
X52241361Y-53825106D01*
X52109590Y-54082558D01*
X51678803Y-55023493D01*
X51361777Y-55969627D01*
X51296355Y-56235339D01*
X50896170Y-57515936D01*
X50301081Y-58633795D01*
X49512596Y-59587231D01*
X48532223Y-60374561D01*
X47361470Y-60994101D01*
X46863000Y-61186581D01*
X46293889Y-61356748D01*
X45769083Y-61431530D01*
X45148691Y-61429812D01*
X45085000Y-61426635D01*
X44561998Y-61378552D01*
X44091817Y-61299697D01*
X43772948Y-61206763D01*
X43764263Y-61202767D01*
X43396025Y-61028926D01*
X43700763Y-60943622D01*
X43991685Y-60895408D01*
X44427969Y-60859183D01*
X44790983Y-60845659D01*
X45277453Y-60816765D01*
X45713037Y-60755384D01*
X45933983Y-60697920D01*
X46460765Y-60395713D01*
X46844220Y-59970060D01*
X47053359Y-59475794D01*
X47057196Y-58967751D01*
X47005978Y-58801000D01*
X46879101Y-58483500D01*
X46871051Y-58824482D01*
X46815941Y-59319391D01*
X46657287Y-59693542D01*
X46365335Y-59965225D01*
X45910336Y-60152728D01*
X45262539Y-60274341D01*
X44392191Y-60348351D01*
X44392116Y-60348356D01*
X43717191Y-60390986D01*
X43063751Y-60439760D01*
X42513745Y-60488150D01*
X42193458Y-60523484D01*
X41467317Y-60536817D01*
X40832698Y-60359851D01*
X40263857Y-59976067D01*
X39735048Y-59368944D01*
X39298230Y-58665722D01*
X39095238Y-58312803D01*
X38959384Y-58107432D01*
X38913921Y-58083727D01*
X38919282Y-58109742D01*
X38887395Y-58391064D01*
X38640530Y-58697474D01*
X38182988Y-59061601D01*
X37736239Y-59250062D01*
X37186491Y-59308540D01*
X37117214Y-59309000D01*
X36391599Y-59189088D01*
X35755509Y-58839070D01*
X35230295Y-58273518D01*
X34985684Y-57854113D01*
X34814517Y-57481966D01*
X34716380Y-57174276D01*
X34677960Y-56843508D01*
X34685947Y-56402129D01*
X34708556Y-56031719D01*
X34769494Y-55489351D01*
X34883752Y-54786050D01*
X35036044Y-54005443D01*
X35211080Y-53231156D01*
X35247072Y-53086000D01*
X35636093Y-51654023D01*
X36031451Y-50439534D01*
X36450064Y-49406242D01*
X36908849Y-48517856D01*
X37424726Y-47738084D01*
X38014613Y-47030634D01*
X38124303Y-46914080D01*
X38880992Y-46221255D01*
X39669025Y-45719575D01*
X40578709Y-45355999D01*
X40964980Y-45245655D01*
X41426374Y-45115946D01*
X41692026Y-45007332D01*
X41814481Y-44887324D01*
X41846281Y-44723438D01*
X41846500Y-44700622D01*
X41777196Y-44463881D01*
X41553962Y-44350411D01*
X41153817Y-44357243D01*
X40553779Y-44481408D01*
X40420902Y-44516494D01*
X39430273Y-44903214D01*
X38445352Y-45513884D01*
X37504738Y-46320596D01*
X36736400Y-47180500D01*
X36497168Y-47456043D01*
X36386791Y-47513444D01*
X36383773Y-47434500D01*
X36430867Y-47179788D01*
X36505094Y-46769735D01*
X36579341Y-46355000D01*
X37048474Y-44433123D01*
X37749993Y-42595821D01*
X38671455Y-40860034D01*
X39800416Y-39242701D01*
X41124433Y-37760764D01*
X42631062Y-36431164D01*
X44307859Y-35270840D01*
X45025155Y-34856964D01*
X45953756Y-34409983D01*
X47056041Y-33976979D01*
X48251996Y-33584330D01*
X49461609Y-33258417D01*
X50554803Y-33033920D01*
X51266065Y-32938327D01*
X52171598Y-32852624D01*
X53211782Y-32779257D01*
X54326996Y-32720672D01*
X55457620Y-32679315D01*
X56544035Y-32657631D01*
X57526620Y-32658067D01*
X58345755Y-32683069D01*
X58637168Y-32702330D01*
X59753500Y-32793430D01*
X60316910Y-33689627D01*
X61495868Y-35408952D01*
X62777362Y-36991742D01*
X63386168Y-37653963D01*
X64400567Y-38710584D01*
X65871226Y-38710584D01*
X65624475Y-38523916D01*
X64363525Y-37374679D01*
X63152636Y-36075589D01*
X62025399Y-34659657D01*
X61106688Y-33307138D01*
X60756518Y-32713343D01*
X60546217Y-32233053D01*
X60461971Y-31781526D01*
X60489968Y-31274019D01*
X60616396Y-30625790D01*
X60647697Y-30491201D01*
X60990028Y-29413955D01*
X61471631Y-28447393D01*
X62060900Y-27652703D01*
X62175707Y-27532890D01*
X62863832Y-26955509D01*
X63615232Y-26562874D01*
X64513027Y-26312329D01*
X64577975Y-26300030D01*
X65071303Y-26231692D01*
X65642825Y-26187239D01*
X66230417Y-26167091D01*
X66771953Y-26171668D01*
X67205308Y-26201389D01*
X67468357Y-26256672D01*
X67506851Y-26280252D01*
X67661989Y-26361462D01*
X68013761Y-26510331D01*
X68519339Y-26709816D01*
X69135894Y-26942874D01*
X69596000Y-27111585D01*
X70718085Y-27530021D01*
X71832320Y-27967784D01*
X72912412Y-28412709D01*
X73932068Y-28852633D01*
X74864996Y-29275390D01*
X75684903Y-29668817D01*
X76365496Y-30020749D01*
X76880483Y-30319021D01*
X77203572Y-30551470D01*
X77305132Y-30678243D01*
X78070830Y-30678243D01*
X78040957Y-30510978D01*
X77827494Y-30187988D01*
X77432615Y-29866669D01*
X76827717Y-29514866D01*
X76418334Y-29292297D01*
X76120008Y-29115761D01*
X75983433Y-29015738D01*
X75980939Y-29005728D01*
X76109642Y-29029554D01*
X76423209Y-29127356D01*
X76869383Y-29282064D01*
X77222752Y-29411391D01*
X78230355Y-29771983D01*
X79297264Y-30126720D01*
X80366615Y-30458698D01*
X81381547Y-30751008D01*
X82285196Y-30986744D01*
X83020701Y-31149000D01*
X83139650Y-31170631D01*
X84430200Y-31437475D01*
X85520075Y-31765406D01*
X86459853Y-32178265D01*
X87300115Y-32699896D01*
X88091439Y-33354141D01*
X88395512Y-33648181D01*
X89303618Y-34734206D01*
X90030667Y-35974206D01*
X90549542Y-37320119D01*
X90627590Y-37604173D01*
X90743777Y-38266807D01*
X90789163Y-39011083D01*
X91613489Y-39011083D01*
X91601855Y-38463488D01*
X91555114Y-37905790D01*
X91463346Y-37411360D01*
X91313052Y-36885150D01*
X91274376Y-36766500D01*
X90667951Y-35310314D01*
X89871509Y-34019146D01*
X88895680Y-32902269D01*
X87751099Y-31968958D01*
X86448396Y-31228490D01*
X84998205Y-30690139D01*
X84052095Y-30466169D01*
X83116126Y-30280157D01*
X82275333Y-30092313D01*
X81468310Y-29885383D01*
X80633652Y-29642114D01*
X79709952Y-29345253D01*
X78635805Y-28977545D01*
X78165919Y-28812296D01*
X76393453Y-28190694D01*
X74833271Y-27656044D01*
X73461321Y-27202229D01*
X72253552Y-26823132D01*
X71185912Y-26512636D01*
X70234351Y-26264624D01*
X69374817Y-26072979D01*
X68583259Y-25931585D01*
X67835625Y-25834324D01*
X67107864Y-25775079D01*
X66375925Y-25747735D01*
X66103500Y-25744502D01*
X64988799Y-25769696D01*
X64988799Y-25769696D01*
G37*
X64988799Y-25769696D02*
X64072617Y-25866826D01*
X63306999Y-26046456D01*
X62643991Y-26319146D01*
X62149362Y-26615416D01*
X61598787Y-27088984D01*
X61052516Y-27727238D01*
X60574271Y-28447911D01*
X60287265Y-29019500D01*
X60120760Y-29486742D01*
X59956111Y-30068692D01*
X59815283Y-30672813D01*
X59720243Y-31206570D01*
X59691878Y-31527750D01*
X59690000Y-31877000D01*
X56509995Y-31876999D01*
X54560871Y-31902799D01*
X52826517Y-31984050D01*
X51272606Y-32126532D01*
X49864814Y-32336022D01*
X48568813Y-32618301D01*
X47350278Y-32979145D01*
X46174883Y-33424335D01*
X45475432Y-33734637D01*
X43619175Y-34735476D01*
X41933307Y-35920405D01*
X40424860Y-37279015D01*
X39100865Y-38800895D01*
X37968355Y-40475636D01*
X37034360Y-42292828D01*
X36305913Y-44242061D01*
X35790045Y-46312925D01*
X35493787Y-48495011D01*
X35492231Y-48514000D01*
X35409911Y-49142594D01*
X35264284Y-49897775D01*
X35078276Y-50667212D01*
X34986813Y-50990500D01*
X34517273Y-52679016D01*
X34181471Y-54155761D01*
X33978952Y-55424623D01*
X33909262Y-56489489D01*
X33971947Y-57354246D01*
X34165383Y-58020210D01*
X34663647Y-58880879D01*
X35274554Y-59514085D01*
X35999032Y-59920480D01*
X36838012Y-60100716D01*
X37147607Y-60110611D01*
X37994639Y-60001932D01*
X38707552Y-59700193D01*
X38993153Y-59489476D01*
X39123398Y-59420053D01*
X39264871Y-59479788D01*
X39466678Y-59701492D01*
X39628153Y-59913757D01*
X40235312Y-60527282D01*
X40780750Y-60871864D01*
X41493000Y-61235798D01*
X41579582Y-62590149D01*
X41844314Y-64767164D01*
X42353560Y-66881575D01*
X43102509Y-68919163D01*
X44086350Y-70865709D01*
X44728527Y-71896374D01*
X45406941Y-72774392D01*
X46318015Y-73728211D01*
X47454123Y-74751304D01*
X48807636Y-75837143D01*
X50370929Y-76979200D01*
X51808526Y-77956033D01*
X53241063Y-78867965D01*
X54519381Y-79609070D01*
X55666872Y-80190098D01*
X56706928Y-80621799D01*
X57662942Y-80914925D01*
X58558304Y-81080225D01*
X58622593Y-81087650D01*
X59475753Y-81096585D01*
X60204678Y-80934244D01*
X60785989Y-80618408D01*
X61196305Y-80166855D01*
X61412247Y-79597364D01*
X61414418Y-79237634D01*
X60699167Y-79237634D01*
X60623821Y-79646549D01*
X60480695Y-79879101D01*
X60104181Y-80150533D01*
X59540220Y-80291296D01*
X58819411Y-80300999D01*
X57972353Y-80179247D01*
X57029647Y-79925649D01*
X57023000Y-79923480D01*
X56139782Y-79577810D01*
X55128734Y-79085098D01*
X54022881Y-78469258D01*
X52855246Y-77754203D01*
X51658854Y-76963847D01*
X50466729Y-76122102D01*
X49311895Y-75252882D01*
X48227376Y-74380102D01*
X47246195Y-73527674D01*
X46401377Y-72719511D01*
X45725947Y-71979528D01*
X45334113Y-71459288D01*
X44703101Y-70401543D01*
X44088407Y-69176325D01*
X43526676Y-67869344D01*
X43054557Y-66566313D01*
X42708697Y-65352942D01*
X42691178Y-65278000D01*
X42614899Y-64869249D01*
X42537244Y-64322463D01*
X42463357Y-63693930D01*
X42398385Y-63039938D01*
X42347472Y-62416775D01*
X42315763Y-61880729D01*
X42308405Y-61488088D01*
X42327693Y-61301562D01*
X42387208Y-61179212D01*
X42473849Y-61104453D01*
X42614523Y-61086364D01*
X42836137Y-61134025D01*
X43165596Y-61256516D01*
X43629808Y-61462916D01*
X44255678Y-61762304D01*
X45070114Y-62163759D01*
X45466000Y-62360572D01*
X46042238Y-62639962D01*
X46604918Y-62900084D01*
X47071813Y-63103481D01*
X47267138Y-63181003D01*
X47861775Y-63400929D01*
X47945141Y-64244214D01*
X48177791Y-65318542D01*
X48655326Y-66357131D01*
X49369224Y-67341618D01*
X49397178Y-67373500D01*
X49791142Y-67851620D01*
X50234443Y-68437627D01*
X50644988Y-69022051D01*
X50730555Y-69151500D01*
X51077623Y-69662342D01*
X51413304Y-70094163D01*
X51778838Y-70485154D01*
X52215470Y-70873506D01*
X52764440Y-71297411D01*
X53466993Y-71795060D01*
X53918748Y-72103828D01*
X55374790Y-73178847D01*
X56855755Y-74437152D01*
X58299070Y-75823571D01*
X59106278Y-76677824D01*
X59802803Y-77489385D01*
X60295739Y-78175545D01*
X60592167Y-78752797D01*
X60699167Y-79237634D01*
X61414418Y-79237634D01*
X61416074Y-78963411D01*
X61275624Y-78431827D01*
X60998253Y-77858666D01*
X60566148Y-77217334D01*
X59961497Y-76481236D01*
X59208080Y-75666877D01*
X58021357Y-74473843D01*
X56922522Y-73455204D01*
X55864347Y-72570278D01*
X54799600Y-71778382D01*
X54292500Y-71432750D01*
X53473612Y-70873471D01*
X52833523Y-70393310D01*
X52327533Y-69950710D01*
X51910939Y-69504110D01*
X51539039Y-69011952D01*
X51304359Y-68654700D01*
X50935102Y-68112236D01*
X50483631Y-67510390D01*
X50043341Y-66973292D01*
X50014360Y-66940200D01*
X49365730Y-66074776D01*
X48935728Y-65180059D01*
X48705339Y-64275009D01*
X48612342Y-63716518D01*
X48975921Y-63794094D01*
X49285733Y-63860089D01*
X49742943Y-63957357D01*
X50228500Y-64060575D01*
X50994127Y-64199779D01*
X51850830Y-64317231D01*
X52727570Y-64406632D01*
X53553306Y-64461684D01*
X54256999Y-64476087D01*
X54676415Y-64454951D01*
X55441330Y-64374959D01*
X56327415Y-65477544D01*
X57685161Y-67000857D01*
X59136891Y-68313472D01*
X60664594Y-69400022D01*
X61468000Y-69862606D01*
X61802629Y-70030154D01*
X62304959Y-70269074D01*
X62909975Y-70548954D01*
X63552664Y-70839383D01*
X63626601Y-70872330D01*
X64286187Y-71179222D01*
X64797012Y-71444568D01*
X65129274Y-71651716D01*
X65252706Y-71780950D01*
X65223913Y-72018479D01*
X65094383Y-72463521D01*
X64872463Y-73094209D01*
X64566503Y-73888672D01*
X64184850Y-74825042D01*
X63735854Y-75881451D01*
X63359053Y-76741367D01*
X62875119Y-77844747D01*
X62496124Y-78745362D01*
X62216828Y-79469305D01*
X62031989Y-80042670D01*
X61936365Y-80491550D01*
X61924716Y-80842038D01*
X61991801Y-81120229D01*
X62132377Y-81352214D01*
X62341204Y-81564089D01*
X62383117Y-81599986D01*
X62759684Y-81842184D01*
X63159213Y-81935121D01*
X63604867Y-81869409D01*
X64119813Y-81635656D01*
X64727215Y-81224473D01*
X65450238Y-80626470D01*
X65986502Y-80139362D01*
X66764031Y-79445475D01*
X67469040Y-78890997D01*
X68184148Y-78414221D01*
X68697415Y-78114579D01*
X69522881Y-77642787D01*
X70162707Y-77246469D01*
X70660493Y-76891716D01*
X71059840Y-76544623D01*
X71404351Y-76171280D01*
X71716952Y-75766379D01*
X72298483Y-74964523D01*
X73709492Y-75630706D01*
X74375180Y-75936628D01*
X75071969Y-76242970D01*
X75706006Y-76509138D01*
X76089032Y-76659908D01*
X77057563Y-77022927D01*
X77141936Y-78034641D01*
X77175816Y-78747691D01*
X77179447Y-79654014D01*
X77155149Y-80694981D01*
X77105240Y-81811960D01*
X77032039Y-82946322D01*
X76937865Y-84039436D01*
X76884442Y-84545107D01*
X76798618Y-85394808D01*
X76763807Y-86052930D01*
X76786331Y-86577929D01*
X76872516Y-87028265D01*
X77028687Y-87462394D01*
X77249120Y-87915886D01*
X77548237Y-88369887D01*
X78015358Y-88935716D01*
X78612646Y-89576383D01*
X79302266Y-90254899D01*
X80046381Y-90934277D01*
X80807155Y-91577526D01*
X81546752Y-92147659D01*
X81664643Y-92232506D01*
X82481509Y-92775585D01*
X83381530Y-93309079D01*
X84309414Y-93805212D01*
X85209870Y-94236208D01*
X86027607Y-94574293D01*
X86707333Y-94791690D01*
X86804500Y-94814497D01*
X87381733Y-94906140D01*
X88154310Y-94978951D01*
X89064210Y-95031986D01*
X90053407Y-95064299D01*
X91063879Y-95074947D01*
X92037601Y-95062986D01*
X92916550Y-95027472D01*
X93642701Y-94967459D01*
X93916500Y-94930232D01*
X95814124Y-94522809D01*
X97612058Y-93922761D01*
X99355876Y-93111568D01*
X101091154Y-92070709D01*
X101301669Y-91929022D01*
X102260215Y-91250273D01*
X103015822Y-90652311D01*
X103596035Y-90109185D01*
X104028401Y-89594948D01*
X104340466Y-89083649D01*
X104356633Y-89051141D01*
X104534832Y-88653870D01*
X104641773Y-88295764D01*
X104694762Y-87885840D01*
X104711104Y-87333115D01*
X104711500Y-87185500D01*
X104708982Y-87103634D01*
X103943679Y-87103634D01*
X103913752Y-87747005D01*
X103800075Y-88309081D01*
X103579304Y-88822313D01*
X103228096Y-89319153D01*
X102723107Y-89832053D01*
X102040993Y-90393465D01*
X101158411Y-91035841D01*
X101071423Y-91096594D01*
X99342714Y-92188388D01*
X97619216Y-93044043D01*
X95863828Y-93677869D01*
X94039445Y-94104178D01*
X92837000Y-94272747D01*
X92076179Y-94323770D01*
X91150697Y-94338992D01*
X90147070Y-94320365D01*
X89151818Y-94269840D01*
X88251457Y-94189370D01*
X88051377Y-94164808D01*
X87255133Y-94044500D01*
X86610870Y-93903149D01*
X86016641Y-93713730D01*
X85398693Y-93461612D01*
X83880931Y-92691098D01*
X82350273Y-91715502D01*
X80861817Y-90574475D01*
X79470657Y-89307665D01*
X79097929Y-88927290D01*
X78482745Y-88255934D01*
X78041756Y-87688399D01*
X77754564Y-87165259D01*
X77600772Y-86627089D01*
X77559979Y-86014463D01*
X77611789Y-85267957D01*
X77672799Y-84775567D01*
X77731968Y-84228258D01*
X77790886Y-83486996D01*
X77845928Y-82611806D01*
X77893471Y-81662714D01*
X77929891Y-80699744D01*
X77939781Y-80353527D01*
X78017775Y-77331554D01*
X78410638Y-77419022D01*
X78826161Y-77497601D01*
X79064173Y-77486688D01*
X79191007Y-77367899D01*
X79256522Y-77184579D01*
X79296225Y-76985892D01*
X79243936Y-76859362D01*
X79049226Y-76760741D01*
X78661669Y-76645783D01*
X78633679Y-76638086D01*
X77958478Y-76433797D01*
X77163814Y-76163362D01*
X76301465Y-75847409D01*
X75423206Y-75506565D01*
X74580812Y-75161460D01*
X73826060Y-74832721D01*
X73210724Y-74540977D01*
X72793687Y-74311364D01*
X72751382Y-74143429D01*
X72810125Y-73791027D01*
X72953626Y-73294964D01*
X73165593Y-72696045D01*
X73429735Y-72035076D01*
X73729764Y-71352863D01*
X74049386Y-70690210D01*
X74372313Y-70087924D01*
X74676441Y-69595351D01*
X75172423Y-68796130D01*
X75510479Y-68062137D01*
X75697369Y-67338995D01*
X75739848Y-66572328D01*
X75644675Y-65707760D01*
X75418607Y-64690915D01*
X75327839Y-64353686D01*
X74948349Y-62984873D01*
X76262738Y-61623186D01*
X77816401Y-59936599D01*
X79133970Y-58340355D01*
X80216286Y-56833260D01*
X81064185Y-55414120D01*
X81678508Y-54081742D01*
X81802987Y-53740940D01*
X82201601Y-52285604D01*
X82466615Y-50636444D01*
X82595781Y-48817040D01*
X82586847Y-46850971D01*
X82542058Y-45997543D01*
X82498214Y-45277476D01*
X82466852Y-44649109D01*
X82449521Y-44154689D01*
X82447770Y-43836463D01*
X82459171Y-43736496D01*
X82603525Y-43729471D01*
X82937653Y-43762953D01*
X83401771Y-43830155D01*
X83646881Y-43871297D01*
X84730542Y-44008302D01*
X85842439Y-44055151D01*
X86901314Y-44012630D01*
X87825907Y-43881525D01*
X88050909Y-43828723D01*
X88916318Y-43603089D01*
X89465005Y-44248794D01*
X90840603Y-46030134D01*
X92010183Y-47901384D01*
X92984011Y-49885631D01*
X93772356Y-52005964D01*
X94385486Y-54285470D01*
X94733660Y-56095851D01*
X94967029Y-57643232D01*
X95132347Y-59033082D01*
X95237114Y-60350370D01*
X95288829Y-61680069D01*
X95297459Y-62484000D01*
X95275929Y-63822363D01*
X95201389Y-64965565D01*
X95067169Y-65968183D01*
X94866599Y-66884792D01*
X94684448Y-67500500D01*
X94475425Y-68353251D01*
X94342090Y-69373671D01*
X94318365Y-69708193D01*
X94261147Y-70412816D01*
X94173306Y-71164537D01*
X94070311Y-71838109D01*
X94027988Y-72059275D01*
X93919187Y-72711319D01*
X93879718Y-73256987D01*
X93900362Y-73555137D01*
X94009041Y-73853207D01*
X94253104Y-74293677D01*
X94639054Y-74886038D01*
X95173390Y-75639782D01*
X95862616Y-76564398D01*
X96713233Y-77669379D01*
X96759062Y-77728180D01*
X97103301Y-78141930D01*
X97595248Y-78694722D01*
X98199877Y-79349174D01*
X98882167Y-80067905D01*
X99607092Y-80813533D01*
X100324810Y-81534000D01*
X101099039Y-82303622D01*
X101714442Y-82923815D01*
X102194655Y-83421853D01*
X102563312Y-83825011D01*
X102844049Y-84160563D01*
X103060500Y-84455783D01*
X103236300Y-84737946D01*
X103395085Y-85034326D01*
X103445426Y-85135134D01*
X103694169Y-85664370D01*
X103842750Y-86074161D01*
X103916791Y-86465729D01*
X103941911Y-86940298D01*
X103943679Y-87103634D01*
X104708982Y-87103634D01*
X104692114Y-86555262D01*
X104623014Y-85984391D01*
X104487786Y-85446401D01*
X104270017Y-84914806D01*
X103953294Y-84363122D01*
X103521203Y-83764862D01*
X102957331Y-83093542D01*
X102245265Y-82322676D01*
X101368590Y-81425778D01*
X100776315Y-80835500D01*
X99520182Y-79565127D01*
X98455759Y-78430368D01*
X97569838Y-77416752D01*
X96951012Y-76644500D01*
X96272060Y-75751069D01*
X95735822Y-75036198D01*
X95327516Y-74479174D01*
X95032356Y-74059283D01*
X94835558Y-73755813D01*
X94722338Y-73548050D01*
X94696884Y-73486391D01*
X94684680Y-73267700D01*
X94719121Y-72864464D01*
X94793255Y-72340420D01*
X94867285Y-71924194D01*
X94979071Y-71257592D01*
X95066062Y-70572622D01*
X95115887Y-69975132D01*
X95123000Y-69736434D01*
X95190170Y-68914118D01*
X95372689Y-68148087D01*
X95376189Y-68137857D01*
X95611486Y-67388804D01*
X95790396Y-66651572D01*
X95919240Y-65875150D01*
X96004337Y-65008523D01*
X96052007Y-64000680D01*
X96068568Y-62800608D01*
X96068720Y-62547500D01*
X95998190Y-60178318D01*
X95796270Y-57849699D01*
X95469767Y-55598489D01*
X95025490Y-53461532D01*
X94470246Y-51475677D01*
X93810844Y-49677768D01*
X93602515Y-49199897D01*
X93095596Y-48189722D01*
X92449104Y-47071082D01*
X91705325Y-45912838D01*
X90906544Y-44783846D01*
X90818089Y-44665666D01*
X90440187Y-44158427D01*
X90124690Y-43724899D01*
X89899787Y-43404585D01*
X89793667Y-43236984D01*
X89789000Y-43223629D01*
X89876720Y-43105877D01*
X90103676Y-42878831D01*
X90339839Y-42663654D01*
X90829823Y-42111493D01*
X91239664Y-41415475D01*
X91257207Y-41377643D01*
X91421924Y-40995573D01*
X91528013Y-40665458D01*
X91587755Y-40312285D01*
X91613429Y-39861039D01*
X91617318Y-39236709D01*
X91617067Y-39179500D01*
X91613489Y-39011083D01*
X90789163Y-39011083D01*
X90766766Y-39758429D01*
X90679600Y-40430275D01*
X90530683Y-40948048D01*
X90496439Y-41021000D01*
X89960421Y-41793893D01*
X89229415Y-42408016D01*
X88311170Y-42857607D01*
X87820500Y-43009557D01*
X87243565Y-43102747D01*
X86478262Y-43142414D01*
X85583878Y-43131478D01*
X84619694Y-43072859D01*
X83644995Y-42969474D01*
X82719065Y-42824244D01*
X82659775Y-42812093D01*
X78137887Y-42812093D01*
X78072746Y-45567796D01*
X77991372Y-47545157D01*
X77839899Y-49316240D01*
X77608811Y-50921435D01*
X77288587Y-52401135D01*
X76869712Y-53795729D01*
X76342665Y-55145611D01*
X75697930Y-56491170D01*
X75344141Y-57146857D01*
X75120788Y-57523141D01*
X74945484Y-57773301D01*
X74850377Y-57852531D01*
X74843870Y-57844109D01*
X74855299Y-57667505D01*
X74924469Y-57319748D01*
X75036789Y-56873166D01*
X75047828Y-56833078D01*
X75159578Y-56392684D01*
X75225650Y-56055846D01*
X75233316Y-55888864D01*
X75230058Y-55883724D01*
X75106158Y-55906934D01*
X74932133Y-56125151D01*
X74734451Y-56491203D01*
X74539577Y-56957919D01*
X74412700Y-57340500D01*
X74262064Y-57830706D01*
X74118522Y-58263536D01*
X74012989Y-58545793D01*
X74012465Y-58547000D01*
X73874425Y-58864500D01*
X73746966Y-58445213D01*
X73630415Y-58161303D01*
X73460611Y-58059983D01*
X73227004Y-58064213D01*
X72941315Y-58137427D01*
X72879247Y-58287992D01*
X72880395Y-58293000D01*
X72929667Y-58482887D01*
X73031286Y-58864718D01*
X73171024Y-59385319D01*
X73334651Y-59991513D01*
X73356168Y-60071000D01*
X73752808Y-61540637D01*
X74085185Y-62787760D01*
X74357249Y-63834524D01*
X74572952Y-64703083D01*
X74736247Y-65415591D01*
X74851085Y-65994204D01*
X74921417Y-66461075D01*
X74951196Y-66838360D01*
X74944372Y-67148211D01*
X74904899Y-67412785D01*
X74836728Y-67654236D01*
X74749348Y-67881500D01*
X74579366Y-68226777D01*
X74315122Y-68695418D01*
X74005861Y-69201211D01*
X73915132Y-69342000D01*
X73618804Y-69850205D01*
X73275918Y-70525776D01*
X72921637Y-71295582D01*
X72591125Y-72086493D01*
X72571651Y-72136000D01*
X72194480Y-73084706D01*
X71882260Y-73831797D01*
X71615586Y-74415242D01*
X71375055Y-74873008D01*
X71141262Y-75243065D01*
X70894804Y-75563380D01*
X70717460Y-75764158D01*
X70192021Y-76246194D01*
X69479024Y-76770287D01*
X68632407Y-77299788D01*
X67774155Y-77764078D01*
X67334325Y-78033002D01*
X66782822Y-78443268D01*
X66179319Y-78948715D01*
X65819793Y-79275918D01*
X65312275Y-79744312D01*
X64820164Y-80183482D01*
X64398864Y-80544890D01*
X64103783Y-80779999D01*
X64098333Y-80783961D01*
X63612267Y-81057394D01*
X63187822Y-81145870D01*
X62864619Y-81046229D01*
X62734672Y-80892780D01*
X62681824Y-80763717D01*
X62664625Y-80609216D01*
X62692823Y-80400360D01*
X62776167Y-80108230D01*
X62924405Y-79703910D01*
X63147284Y-79158482D01*
X63454552Y-78443029D01*
X63855957Y-77528632D01*
X63909883Y-77406500D01*
X64538896Y-75962170D01*
X65060732Y-74713595D01*
X65484459Y-73630690D01*
X65819145Y-72683371D01*
X66073857Y-71841553D01*
X66257663Y-71075152D01*
X66379631Y-70354083D01*
X66448829Y-69648262D01*
X66474323Y-68927605D01*
X66474566Y-68897500D01*
X66473762Y-68834000D01*
X65718854Y-68834000D01*
X65697068Y-69658193D01*
X65638264Y-70256144D01*
X65543800Y-70619261D01*
X65417848Y-70739000D01*
X65269671Y-70688942D01*
X64933559Y-70550967D01*
X64452307Y-70343370D01*
X63868705Y-70084447D01*
X63542099Y-69937010D01*
X62088486Y-69229617D01*
X60836869Y-68509854D01*
X59736433Y-67740823D01*
X58736361Y-66885622D01*
X57785839Y-65907350D01*
X57428980Y-65497923D01*
X57061904Y-65058804D01*
X56765186Y-64691008D01*
X56572306Y-64436886D01*
X56515000Y-64341684D01*
X56618052Y-64270206D01*
X56699249Y-64262000D01*
X56924612Y-64236513D01*
X57294065Y-64171550D01*
X57524749Y-64124476D01*
X57906853Y-64026876D01*
X58098864Y-63918763D01*
X58162573Y-63756918D01*
X58166000Y-63675990D01*
X58105548Y-63413567D01*
X57999427Y-63301107D01*
X57807583Y-63292750D01*
X57430256Y-63323119D01*
X56931963Y-63386050D01*
X56634177Y-63431583D01*
X55535620Y-63558389D01*
X54305119Y-63615085D01*
X53045569Y-63601774D01*
X51859865Y-63518560D01*
X51171630Y-63426051D01*
X50457965Y-63280951D01*
X49643314Y-63074952D01*
X48800777Y-62830323D01*
X48003452Y-62569333D01*
X47324441Y-62314250D01*
X46916031Y-62129654D01*
X46455556Y-61893416D01*
X47326028Y-61608721D01*
X48392901Y-61162956D01*
X49311927Y-60556242D01*
X49905693Y-60013928D01*
X50241993Y-59710188D01*
X50548265Y-59500401D01*
X50731193Y-59434759D01*
X51114074Y-59352919D01*
X51599773Y-59139932D01*
X52107563Y-58840227D01*
X52556718Y-58498234D01*
X52720493Y-58339930D01*
X53044853Y-57954832D01*
X53402653Y-57472970D01*
X53635258Y-57125141D01*
X53830827Y-56822760D01*
X54008092Y-56601224D01*
X54213170Y-56438706D01*
X54492178Y-56313375D01*
X54891233Y-56203402D01*
X55456450Y-56086958D01*
X56070610Y-55972378D01*
X56693576Y-55825178D01*
X57348117Y-55619946D01*
X57889861Y-55402280D01*
X58351798Y-55204050D01*
X58640113Y-55129154D01*
X58730923Y-55164123D01*
X58772739Y-55357469D01*
X58844172Y-55718449D01*
X58920338Y-56118891D01*
X59066594Y-56721498D01*
X59301344Y-57483026D01*
X59599211Y-58335349D01*
X59934822Y-59210342D01*
X60282801Y-60039880D01*
X60617773Y-60755835D01*
X60723506Y-60960000D01*
X61224057Y-61805919D01*
X61814146Y-62659937D01*
X62439072Y-63449900D01*
X63044130Y-64103658D01*
X63255412Y-64299563D01*
X63777101Y-64818835D01*
X64340263Y-65479452D01*
X64876252Y-66193871D01*
X65316421Y-66874549D01*
X65420037Y-67060047D01*
X65568168Y-67375457D01*
X65658733Y-67692825D01*
X65704646Y-68088812D01*
X65718818Y-68640081D01*
X65718854Y-68834000D01*
X66473762Y-68834000D01*
X66465673Y-68195957D01*
X66412833Y-67628399D01*
X66293640Y-67132423D01*
X66085692Y-66645630D01*
X65766583Y-66105618D01*
X65313911Y-65449984D01*
X65160612Y-65237789D01*
X64611289Y-64424855D01*
X64247615Y-63740326D01*
X64059702Y-63150491D01*
X64037660Y-62621641D01*
X64171601Y-62120069D01*
X64216488Y-62019531D01*
X64335609Y-61639317D01*
X64251844Y-61405137D01*
X63956890Y-61299763D01*
X63865959Y-61292316D01*
X63734548Y-61258960D01*
X63620284Y-61153497D01*
X63513127Y-60945554D01*
X63403036Y-60604758D01*
X63279971Y-60100738D01*
X63133891Y-59403121D01*
X62979391Y-58610500D01*
X62825131Y-57589022D01*
X62713279Y-56401594D01*
X62645672Y-55122836D01*
X62624147Y-53827367D01*
X62650541Y-52589805D01*
X62726691Y-51484768D01*
X62790982Y-50956877D01*
X63148908Y-49101587D01*
X63652256Y-47386615D01*
X64292158Y-45828942D01*
X65059742Y-44445553D01*
X65946139Y-43253429D01*
X66942479Y-42269555D01*
X67576044Y-41795129D01*
X67977126Y-41532503D01*
X68239735Y-41392583D01*
X68436401Y-41356674D01*
X68639655Y-41406085D01*
X68812722Y-41476387D01*
X69636341Y-41757948D01*
X70642743Y-41982740D01*
X71852955Y-42154362D01*
X73288002Y-42276414D01*
X73593527Y-42294617D01*
X74964241Y-42383058D01*
X76100165Y-42482536D01*
X77020346Y-42595065D01*
X77743833Y-42722658D01*
X77835694Y-42743021D01*
X78137887Y-42812093D01*
X82659775Y-42812093D01*
X82296000Y-42737541D01*
X80863789Y-42422228D01*
X79625584Y-42164933D01*
X78530028Y-41957991D01*
X77525766Y-41793741D01*
X76561443Y-41664519D01*
X75585702Y-41562662D01*
X74547189Y-41480508D01*
X73406000Y-41411015D01*
X72623893Y-41357850D01*
X71858332Y-41286987D01*
X71177054Y-41205994D01*
X70647797Y-41122443D01*
X70460341Y-41081820D01*
X70003676Y-40955782D01*
X69736332Y-40842049D01*
X69598487Y-40703508D01*
X69530769Y-40505115D01*
X69520837Y-40100381D01*
X69611762Y-39552481D01*
X69782622Y-38941152D01*
X70012495Y-38346132D01*
X70188999Y-37996486D01*
X70693141Y-37226874D01*
X71364866Y-36368520D01*
X72158426Y-35470543D01*
X73028072Y-34582061D01*
X73928053Y-33752191D01*
X74812622Y-33030051D01*
X74819985Y-33024485D01*
X75474312Y-32579398D01*
X76173894Y-32183907D01*
X76724985Y-31934105D01*
X77339999Y-31682476D01*
X77747390Y-31467881D01*
X77984791Y-31261288D01*
X78089836Y-31033666D01*
X78105000Y-30869574D01*
X78070830Y-30678243D01*
X77305132Y-30678243D01*
X77218414Y-30785041D01*
X76949591Y-30923604D01*
X76647674Y-31033796D01*
X76064734Y-31289500D01*
X75362112Y-31713669D01*
X74576856Y-32274887D01*
X73746012Y-32941738D01*
X72906628Y-33682809D01*
X72095750Y-34466682D01*
X71350427Y-35261943D01*
X70707705Y-36037176D01*
X70636129Y-36131500D01*
X70048638Y-36988861D01*
X69551821Y-37861249D01*
X69171655Y-38694813D01*
X68934121Y-39435703D01*
X68873605Y-39784968D01*
X68825234Y-40176070D01*
X68777227Y-40440337D01*
X68747673Y-40513000D01*
X68614583Y-40460467D01*
X68334437Y-40327138D01*
X68162191Y-40240789D01*
X66901894Y-39490290D01*
X65871226Y-38710584D01*
X64400567Y-38710584D01*
X63644002Y-39707042D01*
X62572254Y-41298130D01*
X61619322Y-43093359D01*
X60783688Y-45097153D01*
X60063836Y-47313933D01*
X59458248Y-49748122D01*
X58965406Y-52404143D01*
X58734855Y-54015138D01*
X58671568Y-54385465D01*
X58557915Y-54604906D01*
X58324009Y-54763450D01*
X58061711Y-54881920D01*
X57558449Y-55063204D01*
X56888069Y-55256794D01*
X56135245Y-55441580D01*
X55384651Y-55596451D01*
X54841189Y-55684827D01*
X54358009Y-55797764D01*
X53958696Y-56016360D01*
X53593246Y-56381964D01*
X53211656Y-56935926D01*
X53097027Y-57127149D01*
X52662180Y-57778499D01*
X52182947Y-58346317D01*
X51698733Y-58793913D01*
X51248941Y-59084600D01*
X50890094Y-59182000D01*
X50752827Y-59163610D01*
X50750769Y-59069808D01*
X50891173Y-58842646D01*
X50941741Y-58769250D01*
X51210190Y-58410095D01*
X51537569Y-58008331D01*
X51644439Y-57884809D01*
X51958139Y-57476205D01*
X52267332Y-56991108D01*
X52376358Y-56790989D01*
X52657013Y-56358057D01*
X53045811Y-55902566D01*
X53328413Y-55635701D01*
X53999241Y-54955289D01*
X54582508Y-54135209D01*
X55046373Y-53238934D01*
X55359000Y-52329938D01*
X55488551Y-51471695D01*
X55489953Y-51326372D01*
X55480905Y-50736500D01*
X55254547Y-51527894D01*
X54821552Y-52731674D01*
X54242379Y-53776099D01*
X53474722Y-54733601D01*
X53241278Y-54975012D01*
X52813517Y-55429687D01*
X52432596Y-55882987D01*
X52152089Y-56268791D01*
X52054682Y-56439483D01*
X51812542Y-56959500D01*
X51887214Y-56134000D01*
X52029186Y-55359752D01*
X52328847Y-54666414D01*
X52346798Y-54634697D01*
X52591034Y-54145474D01*
X52799317Y-53615068D01*
X52959332Y-53093907D01*
X53058765Y-52632418D01*
X53085301Y-52281028D01*
X53026624Y-52090164D01*
X52973134Y-52070000D01*
X52878696Y-52181148D01*
X52789307Y-52455605D01*
X52774571Y-52526808D01*
X52677316Y-52840839D01*
X52488603Y-53299286D01*
X52241361Y-53825106D01*
X52109590Y-54082558D01*
X51678803Y-55023493D01*
X51361777Y-55969627D01*
X51296355Y-56235339D01*
X50896170Y-57515936D01*
X50301081Y-58633795D01*
X49512596Y-59587231D01*
X48532223Y-60374561D01*
X47361470Y-60994101D01*
X46863000Y-61186581D01*
X46293889Y-61356748D01*
X45769083Y-61431530D01*
X45148691Y-61429812D01*
X45085000Y-61426635D01*
X44561998Y-61378552D01*
X44091817Y-61299697D01*
X43772948Y-61206763D01*
X43764263Y-61202767D01*
X43396025Y-61028926D01*
X43700763Y-60943622D01*
X43991685Y-60895408D01*
X44427969Y-60859183D01*
X44790983Y-60845659D01*
X45277453Y-60816765D01*
X45713037Y-60755384D01*
X45933983Y-60697920D01*
X46460765Y-60395713D01*
X46844220Y-59970060D01*
X47053359Y-59475794D01*
X47057196Y-58967751D01*
X47005978Y-58801000D01*
X46879101Y-58483500D01*
X46871051Y-58824482D01*
X46815941Y-59319391D01*
X46657287Y-59693542D01*
X46365335Y-59965225D01*
X45910336Y-60152728D01*
X45262539Y-60274341D01*
X44392191Y-60348351D01*
X44392116Y-60348356D01*
X43717191Y-60390986D01*
X43063751Y-60439760D01*
X42513745Y-60488150D01*
X42193458Y-60523484D01*
X41467317Y-60536817D01*
X40832698Y-60359851D01*
X40263857Y-59976067D01*
X39735048Y-59368944D01*
X39298230Y-58665722D01*
X39095238Y-58312803D01*
X38959384Y-58107432D01*
X38913921Y-58083727D01*
X38919282Y-58109742D01*
X38887395Y-58391064D01*
X38640530Y-58697474D01*
X38182988Y-59061601D01*
X37736239Y-59250062D01*
X37186491Y-59308540D01*
X37117214Y-59309000D01*
X36391599Y-59189088D01*
X35755509Y-58839070D01*
X35230295Y-58273518D01*
X34985684Y-57854113D01*
X34814517Y-57481966D01*
X34716380Y-57174276D01*
X34677960Y-56843508D01*
X34685947Y-56402129D01*
X34708556Y-56031719D01*
X34769494Y-55489351D01*
X34883752Y-54786050D01*
X35036044Y-54005443D01*
X35211080Y-53231156D01*
X35247072Y-53086000D01*
X35636093Y-51654023D01*
X36031451Y-50439534D01*
X36450064Y-49406242D01*
X36908849Y-48517856D01*
X37424726Y-47738084D01*
X38014613Y-47030634D01*
X38124303Y-46914080D01*
X38880992Y-46221255D01*
X39669025Y-45719575D01*
X40578709Y-45355999D01*
X40964980Y-45245655D01*
X41426374Y-45115946D01*
X41692026Y-45007332D01*
X41814481Y-44887324D01*
X41846281Y-44723438D01*
X41846500Y-44700622D01*
X41777196Y-44463881D01*
X41553962Y-44350411D01*
X41153817Y-44357243D01*
X40553779Y-44481408D01*
X40420902Y-44516494D01*
X39430273Y-44903214D01*
X38445352Y-45513884D01*
X37504738Y-46320596D01*
X36736400Y-47180500D01*
X36497168Y-47456043D01*
X36386791Y-47513444D01*
X36383773Y-47434500D01*
X36430867Y-47179788D01*
X36505094Y-46769735D01*
X36579341Y-46355000D01*
X37048474Y-44433123D01*
X37749993Y-42595821D01*
X38671455Y-40860034D01*
X39800416Y-39242701D01*
X41124433Y-37760764D01*
X42631062Y-36431164D01*
X44307859Y-35270840D01*
X45025155Y-34856964D01*
X45953756Y-34409983D01*
X47056041Y-33976979D01*
X48251996Y-33584330D01*
X49461609Y-33258417D01*
X50554803Y-33033920D01*
X51266065Y-32938327D01*
X52171598Y-32852624D01*
X53211782Y-32779257D01*
X54326996Y-32720672D01*
X55457620Y-32679315D01*
X56544035Y-32657631D01*
X57526620Y-32658067D01*
X58345755Y-32683069D01*
X58637168Y-32702330D01*
X59753500Y-32793430D01*
X60316910Y-33689627D01*
X61495868Y-35408952D01*
X62777362Y-36991742D01*
X63386168Y-37653963D01*
X64400567Y-38710584D01*
X65871226Y-38710584D01*
X65624475Y-38523916D01*
X64363525Y-37374679D01*
X63152636Y-36075589D01*
X62025399Y-34659657D01*
X61106688Y-33307138D01*
X60756518Y-32713343D01*
X60546217Y-32233053D01*
X60461971Y-31781526D01*
X60489968Y-31274019D01*
X60616396Y-30625790D01*
X60647697Y-30491201D01*
X60990028Y-29413955D01*
X61471631Y-28447393D01*
X62060900Y-27652703D01*
X62175707Y-27532890D01*
X62863832Y-26955509D01*
X63615232Y-26562874D01*
X64513027Y-26312329D01*
X64577975Y-26300030D01*
X65071303Y-26231692D01*
X65642825Y-26187239D01*
X66230417Y-26167091D01*
X66771953Y-26171668D01*
X67205308Y-26201389D01*
X67468357Y-26256672D01*
X67506851Y-26280252D01*
X67661989Y-26361462D01*
X68013761Y-26510331D01*
X68519339Y-26709816D01*
X69135894Y-26942874D01*
X69596000Y-27111585D01*
X70718085Y-27530021D01*
X71832320Y-27967784D01*
X72912412Y-28412709D01*
X73932068Y-28852633D01*
X74864996Y-29275390D01*
X75684903Y-29668817D01*
X76365496Y-30020749D01*
X76880483Y-30319021D01*
X77203572Y-30551470D01*
X77305132Y-30678243D01*
X78070830Y-30678243D01*
X78040957Y-30510978D01*
X77827494Y-30187988D01*
X77432615Y-29866669D01*
X76827717Y-29514866D01*
X76418334Y-29292297D01*
X76120008Y-29115761D01*
X75983433Y-29015738D01*
X75980939Y-29005728D01*
X76109642Y-29029554D01*
X76423209Y-29127356D01*
X76869383Y-29282064D01*
X77222752Y-29411391D01*
X78230355Y-29771983D01*
X79297264Y-30126720D01*
X80366615Y-30458698D01*
X81381547Y-30751008D01*
X82285196Y-30986744D01*
X83020701Y-31149000D01*
X83139650Y-31170631D01*
X84430200Y-31437475D01*
X85520075Y-31765406D01*
X86459853Y-32178265D01*
X87300115Y-32699896D01*
X88091439Y-33354141D01*
X88395512Y-33648181D01*
X89303618Y-34734206D01*
X90030667Y-35974206D01*
X90549542Y-37320119D01*
X90627590Y-37604173D01*
X90743777Y-38266807D01*
X90789163Y-39011083D01*
X91613489Y-39011083D01*
X91601855Y-38463488D01*
X91555114Y-37905790D01*
X91463346Y-37411360D01*
X91313052Y-36885150D01*
X91274376Y-36766500D01*
X90667951Y-35310314D01*
X89871509Y-34019146D01*
X88895680Y-32902269D01*
X87751099Y-31968958D01*
X86448396Y-31228490D01*
X84998205Y-30690139D01*
X84052095Y-30466169D01*
X83116126Y-30280157D01*
X82275333Y-30092313D01*
X81468310Y-29885383D01*
X80633652Y-29642114D01*
X79709952Y-29345253D01*
X78635805Y-28977545D01*
X78165919Y-28812296D01*
X76393453Y-28190694D01*
X74833271Y-27656044D01*
X73461321Y-27202229D01*
X72253552Y-26823132D01*
X71185912Y-26512636D01*
X70234351Y-26264624D01*
X69374817Y-26072979D01*
X68583259Y-25931585D01*
X67835625Y-25834324D01*
X67107864Y-25775079D01*
X66375925Y-25747735D01*
X66103500Y-25744502D01*
X64988799Y-25769696D01*
%LPC*%
D11*
X103759000Y-35052000D03*
X122809000Y-98425000D03*
X129159000Y-145542000D03*
X70739000Y-106172000D03*
X44069000Y-91059000D03*
X27559000Y-34925000D03*
M02*
