G04 #@! TF.GenerationSoftware,KiCad,Pcbnew,(5.1.4-0)*
G04 #@! TF.CreationDate,2021-03-11T23:06:33-05:00*
G04 #@! TF.ProjectId,mxnatee_bot_plate,6d786e61-7465-4655-9f62-6f745f706c61,rev?*
G04 #@! TF.SameCoordinates,Original*
G04 #@! TF.FileFunction,Soldermask,Top*
G04 #@! TF.FilePolarity,Negative*
%FSLAX46Y46*%
G04 Gerber Fmt 4.6, Leading zero omitted, Abs format (unit mm)*
G04 Created by KiCad (PCBNEW (5.1.4-0)) date 2021-03-11 23:06:33*
%MOMM*%
%LPD*%
G04 APERTURE LIST*
%ADD10C,0.010000*%
%ADD11C,0.100000*%
G04 APERTURE END LIST*
D10*
G36*
X79381096Y-33855223D02*
G01*
X79655810Y-33931282D01*
X80023220Y-34040869D01*
X80587502Y-34213623D01*
X81303584Y-34435383D01*
X82126395Y-34691988D01*
X83010863Y-34969278D01*
X83911917Y-35253092D01*
X84784486Y-35529270D01*
X85583498Y-35783650D01*
X86263881Y-36002071D01*
X86741000Y-36157338D01*
X87820500Y-36512500D01*
X87814188Y-37592000D01*
X87767046Y-38425734D01*
X87643464Y-39130493D01*
X87584395Y-39330231D01*
X87351307Y-39878578D01*
X87015579Y-40498655D01*
X86629658Y-41105753D01*
X86245990Y-41615161D01*
X86021087Y-41855221D01*
X85781108Y-42048209D01*
X85548392Y-42128185D01*
X85223844Y-42115816D01*
X84963000Y-42075912D01*
X84757963Y-42042414D01*
X84337501Y-41974531D01*
X83737008Y-41877950D01*
X82991878Y-41758355D01*
X82137506Y-41621432D01*
X81209284Y-41472866D01*
X81089500Y-41453707D01*
X80156211Y-41301898D01*
X79294211Y-41156842D01*
X78538535Y-41024818D01*
X77924217Y-40912103D01*
X77486291Y-40824977D01*
X77259792Y-40769719D01*
X77247750Y-40765223D01*
X76999078Y-40574632D01*
X76994186Y-40313940D01*
X77232875Y-39983701D01*
X77648941Y-39632538D01*
X78312732Y-38991120D01*
X78782512Y-38207698D01*
X79049987Y-37313544D01*
X79106864Y-36339929D01*
X78944850Y-35318126D01*
X78865184Y-35046355D01*
X78720753Y-34578097D01*
X78655624Y-34286315D01*
X78664919Y-34107838D01*
X78743760Y-33979496D01*
X78779887Y-33941683D01*
X78922316Y-33830267D01*
X79096222Y-33801761D01*
X79381096Y-33855223D01*
X79381096Y-33855223D01*
G37*
X79381096Y-33855223D02*
X79655810Y-33931282D01*
X80023220Y-34040869D01*
X80587502Y-34213623D01*
X81303584Y-34435383D01*
X82126395Y-34691988D01*
X83010863Y-34969278D01*
X83911917Y-35253092D01*
X84784486Y-35529270D01*
X85583498Y-35783650D01*
X86263881Y-36002071D01*
X86741000Y-36157338D01*
X87820500Y-36512500D01*
X87814188Y-37592000D01*
X87767046Y-38425734D01*
X87643464Y-39130493D01*
X87584395Y-39330231D01*
X87351307Y-39878578D01*
X87015579Y-40498655D01*
X86629658Y-41105753D01*
X86245990Y-41615161D01*
X86021087Y-41855221D01*
X85781108Y-42048209D01*
X85548392Y-42128185D01*
X85223844Y-42115816D01*
X84963000Y-42075912D01*
X84757963Y-42042414D01*
X84337501Y-41974531D01*
X83737008Y-41877950D01*
X82991878Y-41758355D01*
X82137506Y-41621432D01*
X81209284Y-41472866D01*
X81089500Y-41453707D01*
X80156211Y-41301898D01*
X79294211Y-41156842D01*
X78538535Y-41024818D01*
X77924217Y-40912103D01*
X77486291Y-40824977D01*
X77259792Y-40769719D01*
X77247750Y-40765223D01*
X76999078Y-40574632D01*
X76994186Y-40313940D01*
X77232875Y-39983701D01*
X77648941Y-39632538D01*
X78312732Y-38991120D01*
X78782512Y-38207698D01*
X79049987Y-37313544D01*
X79106864Y-36339929D01*
X78944850Y-35318126D01*
X78865184Y-35046355D01*
X78720753Y-34578097D01*
X78655624Y-34286315D01*
X78664919Y-34107838D01*
X78743760Y-33979496D01*
X78779887Y-33941683D01*
X78922316Y-33830267D01*
X79096222Y-33801761D01*
X79381096Y-33855223D01*
G36*
X39297428Y-43379571D02*
G01*
X39480252Y-43708290D01*
X39419133Y-44049333D01*
X39264749Y-44239816D01*
X38930110Y-44430376D01*
X38627457Y-44369001D01*
X38405821Y-44132500D01*
X38271447Y-43883935D01*
X38293180Y-43688493D01*
X38405821Y-43497500D01*
X38691784Y-43234272D01*
X39019392Y-43207434D01*
X39297428Y-43379571D01*
X39297428Y-43379571D01*
G37*
X39297428Y-43379571D02*
X39480252Y-43708290D01*
X39419133Y-44049333D01*
X39264749Y-44239816D01*
X38930110Y-44430376D01*
X38627457Y-44369001D01*
X38405821Y-44132500D01*
X38271447Y-43883935D01*
X38293180Y-43688493D01*
X38405821Y-43497500D01*
X38691784Y-43234272D01*
X39019392Y-43207434D01*
X39297428Y-43379571D01*
G36*
X50686193Y-44085119D02*
G01*
X50771741Y-44139701D01*
X50984578Y-44426314D01*
X51061999Y-44824450D01*
X51000145Y-45228357D01*
X50821749Y-45509816D01*
X50466854Y-45691665D01*
X50063106Y-45704969D01*
X49713045Y-45555780D01*
X49600701Y-45437741D01*
X49416036Y-45008587D01*
X49431156Y-44601559D01*
X49605896Y-44261177D01*
X49900092Y-44031963D01*
X50273580Y-43958437D01*
X50686193Y-44085119D01*
X50686193Y-44085119D01*
G37*
X50686193Y-44085119D02*
X50771741Y-44139701D01*
X50984578Y-44426314D01*
X51061999Y-44824450D01*
X51000145Y-45228357D01*
X50821749Y-45509816D01*
X50466854Y-45691665D01*
X50063106Y-45704969D01*
X49713045Y-45555780D01*
X49600701Y-45437741D01*
X49416036Y-45008587D01*
X49431156Y-44601559D01*
X49605896Y-44261177D01*
X49900092Y-44031963D01*
X50273580Y-43958437D01*
X50686193Y-44085119D01*
G36*
X41428402Y-49594490D02*
G01*
X41746286Y-49801863D01*
X41903455Y-50108971D01*
X41910000Y-50193901D01*
X41896054Y-50347719D01*
X41813159Y-50348745D01*
X41599731Y-50193357D01*
X41575372Y-50174217D01*
X41195360Y-49960602D01*
X40796886Y-49938799D01*
X40310576Y-50107832D01*
X40214950Y-50155083D01*
X39916705Y-50295371D01*
X39786493Y-50312577D01*
X39773156Y-50211964D01*
X39775347Y-50200292D01*
X39898422Y-49991927D01*
X40144136Y-49755819D01*
X40164231Y-49740553D01*
X40571995Y-49546857D01*
X41015178Y-49503829D01*
X41428402Y-49594490D01*
X41428402Y-49594490D01*
G37*
X41428402Y-49594490D02*
X41746286Y-49801863D01*
X41903455Y-50108971D01*
X41910000Y-50193901D01*
X41896054Y-50347719D01*
X41813159Y-50348745D01*
X41599731Y-50193357D01*
X41575372Y-50174217D01*
X41195360Y-49960602D01*
X40796886Y-49938799D01*
X40310576Y-50107832D01*
X40214950Y-50155083D01*
X39916705Y-50295371D01*
X39786493Y-50312577D01*
X39773156Y-50211964D01*
X39775347Y-50200292D01*
X39898422Y-49991927D01*
X40144136Y-49755819D01*
X40164231Y-49740553D01*
X40571995Y-49546857D01*
X41015178Y-49503829D01*
X41428402Y-49594490D01*
G36*
X37616450Y-49585320D02*
G01*
X37799141Y-49868589D01*
X37825201Y-50149013D01*
X37756377Y-50278103D01*
X37629385Y-50212455D01*
X37576163Y-50132192D01*
X37423681Y-49953830D01*
X37230740Y-49947606D01*
X36956480Y-50124834D01*
X36676604Y-50381274D01*
X36393225Y-50639659D01*
X36243379Y-50720990D01*
X36195415Y-50641159D01*
X36195000Y-50623119D01*
X36289691Y-50261718D01*
X36522903Y-49880701D01*
X36818340Y-49595989D01*
X36901706Y-49549368D01*
X37294051Y-49470415D01*
X37616450Y-49585320D01*
X37616450Y-49585320D01*
G37*
X37616450Y-49585320D02*
X37799141Y-49868589D01*
X37825201Y-50149013D01*
X37756377Y-50278103D01*
X37629385Y-50212455D01*
X37576163Y-50132192D01*
X37423681Y-49953830D01*
X37230740Y-49947606D01*
X36956480Y-50124834D01*
X36676604Y-50381274D01*
X36393225Y-50639659D01*
X36243379Y-50720990D01*
X36195415Y-50641159D01*
X36195000Y-50623119D01*
X36289691Y-50261718D01*
X36522903Y-49880701D01*
X36818340Y-49595989D01*
X36901706Y-49549368D01*
X37294051Y-49470415D01*
X37616450Y-49585320D01*
G36*
X38418664Y-52554877D02*
G01*
X38451217Y-52770245D01*
X38481397Y-53165263D01*
X38514302Y-53768098D01*
X38538772Y-54268196D01*
X38567823Y-54955576D01*
X38585269Y-55549868D01*
X38590412Y-56006568D01*
X38582557Y-56281170D01*
X38571159Y-56340173D01*
X38500426Y-56267135D01*
X38383979Y-56011694D01*
X38281453Y-55729477D01*
X38143555Y-55133173D01*
X38074483Y-54435015D01*
X38075004Y-53725638D01*
X38145890Y-53095673D01*
X38255769Y-52705000D01*
X38326040Y-52550421D01*
X38378638Y-52490991D01*
X38418664Y-52554877D01*
X38418664Y-52554877D01*
G37*
X38418664Y-52554877D02*
X38451217Y-52770245D01*
X38481397Y-53165263D01*
X38514302Y-53768098D01*
X38538772Y-54268196D01*
X38567823Y-54955576D01*
X38585269Y-55549868D01*
X38590412Y-56006568D01*
X38582557Y-56281170D01*
X38571159Y-56340173D01*
X38500426Y-56267135D01*
X38383979Y-56011694D01*
X38281453Y-55729477D01*
X38143555Y-55133173D01*
X38074483Y-54435015D01*
X38075004Y-53725638D01*
X38145890Y-53095673D01*
X38255769Y-52705000D01*
X38326040Y-52550421D01*
X38378638Y-52490991D01*
X38418664Y-52554877D01*
D11*
G36*
X129434880Y-143301776D02*
G01*
X129815593Y-143377504D01*
X130225249Y-143547189D01*
X130593929Y-143793534D01*
X130907466Y-144107071D01*
X131153811Y-144475751D01*
X131323496Y-144885407D01*
X131410000Y-145320296D01*
X131410000Y-145763704D01*
X131323496Y-146198593D01*
X131153811Y-146608249D01*
X130907466Y-146976929D01*
X130593929Y-147290466D01*
X130225249Y-147536811D01*
X129815593Y-147706496D01*
X129434880Y-147782224D01*
X129380705Y-147793000D01*
X128937295Y-147793000D01*
X128883120Y-147782224D01*
X128502407Y-147706496D01*
X128092751Y-147536811D01*
X127724071Y-147290466D01*
X127410534Y-146976929D01*
X127164189Y-146608249D01*
X126994504Y-146198593D01*
X126908000Y-145763704D01*
X126908000Y-145320296D01*
X126994504Y-144885407D01*
X127164189Y-144475751D01*
X127410534Y-144107071D01*
X127724071Y-143793534D01*
X128092751Y-143547189D01*
X128502407Y-143377504D01*
X128883120Y-143301776D01*
X128937295Y-143291000D01*
X129380705Y-143291000D01*
X129434880Y-143301776D01*
X129434880Y-143301776D01*
G37*
G36*
X71014880Y-103931776D02*
G01*
X71395593Y-104007504D01*
X71805249Y-104177189D01*
X72173929Y-104423534D01*
X72487466Y-104737071D01*
X72733811Y-105105751D01*
X72903496Y-105515407D01*
X72990000Y-105950296D01*
X72990000Y-106393704D01*
X72903496Y-106828593D01*
X72733811Y-107238249D01*
X72487466Y-107606929D01*
X72173929Y-107920466D01*
X71805249Y-108166811D01*
X71395593Y-108336496D01*
X71014880Y-108412224D01*
X70960705Y-108423000D01*
X70517295Y-108423000D01*
X70463120Y-108412224D01*
X70082407Y-108336496D01*
X69672751Y-108166811D01*
X69304071Y-107920466D01*
X68990534Y-107606929D01*
X68744189Y-107238249D01*
X68574504Y-106828593D01*
X68488000Y-106393704D01*
X68488000Y-105950296D01*
X68574504Y-105515407D01*
X68744189Y-105105751D01*
X68990534Y-104737071D01*
X69304071Y-104423534D01*
X69672751Y-104177189D01*
X70082407Y-104007504D01*
X70463120Y-103931776D01*
X70517295Y-103921000D01*
X70960705Y-103921000D01*
X71014880Y-103931776D01*
X71014880Y-103931776D01*
G37*
G36*
X123084880Y-96184776D02*
G01*
X123465593Y-96260504D01*
X123875249Y-96430189D01*
X124243929Y-96676534D01*
X124557466Y-96990071D01*
X124803811Y-97358751D01*
X124973496Y-97768407D01*
X125060000Y-98203296D01*
X125060000Y-98646704D01*
X124973496Y-99081593D01*
X124803811Y-99491249D01*
X124557466Y-99859929D01*
X124243929Y-100173466D01*
X123875249Y-100419811D01*
X123465593Y-100589496D01*
X123084880Y-100665224D01*
X123030705Y-100676000D01*
X122587295Y-100676000D01*
X122533120Y-100665224D01*
X122152407Y-100589496D01*
X121742751Y-100419811D01*
X121374071Y-100173466D01*
X121060534Y-99859929D01*
X120814189Y-99491249D01*
X120644504Y-99081593D01*
X120558000Y-98646704D01*
X120558000Y-98203296D01*
X120644504Y-97768407D01*
X120814189Y-97358751D01*
X121060534Y-96990071D01*
X121374071Y-96676534D01*
X121742751Y-96430189D01*
X122152407Y-96260504D01*
X122533120Y-96184776D01*
X122587295Y-96174000D01*
X123030705Y-96174000D01*
X123084880Y-96184776D01*
X123084880Y-96184776D01*
G37*
G36*
X44344880Y-88818776D02*
G01*
X44725593Y-88894504D01*
X45135249Y-89064189D01*
X45503929Y-89310534D01*
X45817466Y-89624071D01*
X46063811Y-89992751D01*
X46233496Y-90402407D01*
X46320000Y-90837296D01*
X46320000Y-91280704D01*
X46233496Y-91715593D01*
X46063811Y-92125249D01*
X45817466Y-92493929D01*
X45503929Y-92807466D01*
X45135249Y-93053811D01*
X44725593Y-93223496D01*
X44344880Y-93299224D01*
X44290705Y-93310000D01*
X43847295Y-93310000D01*
X43793120Y-93299224D01*
X43412407Y-93223496D01*
X43002751Y-93053811D01*
X42634071Y-92807466D01*
X42320534Y-92493929D01*
X42074189Y-92125249D01*
X41904504Y-91715593D01*
X41818000Y-91280704D01*
X41818000Y-90837296D01*
X41904504Y-90402407D01*
X42074189Y-89992751D01*
X42320534Y-89624071D01*
X42634071Y-89310534D01*
X43002751Y-89064189D01*
X43412407Y-88894504D01*
X43793120Y-88818776D01*
X43847295Y-88808000D01*
X44290705Y-88808000D01*
X44344880Y-88818776D01*
X44344880Y-88818776D01*
G37*
G36*
X104034880Y-32811776D02*
G01*
X104415593Y-32887504D01*
X104825249Y-33057189D01*
X105193929Y-33303534D01*
X105507466Y-33617071D01*
X105753811Y-33985751D01*
X105923496Y-34395407D01*
X106010000Y-34830296D01*
X106010000Y-35273704D01*
X105923496Y-35708593D01*
X105753811Y-36118249D01*
X105507466Y-36486929D01*
X105193929Y-36800466D01*
X104825249Y-37046811D01*
X104415593Y-37216496D01*
X104034880Y-37292224D01*
X103980705Y-37303000D01*
X103537295Y-37303000D01*
X103483120Y-37292224D01*
X103102407Y-37216496D01*
X102692751Y-37046811D01*
X102324071Y-36800466D01*
X102010534Y-36486929D01*
X101764189Y-36118249D01*
X101594504Y-35708593D01*
X101508000Y-35273704D01*
X101508000Y-34830296D01*
X101594504Y-34395407D01*
X101764189Y-33985751D01*
X102010534Y-33617071D01*
X102324071Y-33303534D01*
X102692751Y-33057189D01*
X103102407Y-32887504D01*
X103483120Y-32811776D01*
X103537295Y-32801000D01*
X103980705Y-32801000D01*
X104034880Y-32811776D01*
X104034880Y-32811776D01*
G37*
G36*
X27834880Y-32684776D02*
G01*
X28215593Y-32760504D01*
X28625249Y-32930189D01*
X28993929Y-33176534D01*
X29307466Y-33490071D01*
X29553811Y-33858751D01*
X29723496Y-34268407D01*
X29810000Y-34703296D01*
X29810000Y-35146704D01*
X29723496Y-35581593D01*
X29553811Y-35991249D01*
X29307466Y-36359929D01*
X28993929Y-36673466D01*
X28625249Y-36919811D01*
X28215593Y-37089496D01*
X27834880Y-37165224D01*
X27780705Y-37176000D01*
X27337295Y-37176000D01*
X27283120Y-37165224D01*
X26902407Y-37089496D01*
X26492751Y-36919811D01*
X26124071Y-36673466D01*
X25810534Y-36359929D01*
X25564189Y-35991249D01*
X25394504Y-35581593D01*
X25308000Y-35146704D01*
X25308000Y-34703296D01*
X25394504Y-34268407D01*
X25564189Y-33858751D01*
X25810534Y-33490071D01*
X26124071Y-33176534D01*
X26492751Y-32930189D01*
X26902407Y-32760504D01*
X27283120Y-32684776D01*
X27337295Y-32674000D01*
X27780705Y-32674000D01*
X27834880Y-32684776D01*
X27834880Y-32684776D01*
G37*
M02*
